<?xml version="1.0" standalone="no"?>
<!DOCTYPE svg PUBLIC "-//W3C//DTD SVG 1.1//EN" "http://www.w3.org/Graphics/SVG/1.1/DTD/svg11.dtd" >
<svg>
<metadata>
Created by FontForge 20090914 at Mon Jul 12 07:26:33 2021
 By www-data
Copyright 2019 The Syne Project Authors (https://gitlab.com/bonjour-monde/fonderie/syne-typeface)
</metadata>
<defs>
<font id="Syne-Medium" horiz-adv-x="0" >
  <font-face 
    font-family="Syne Medium"
    font-weight="500"
    font-stretch="normal"
    units-per-em="1000"
    panose-1="0 0 0 0 0 0 0 0 0 0"
    ascent="800"
    descent="-200"
    x-height="499"
    cap-height="649"
    bbox="-157 -256.002 1220 951"
    underline-thickness="75"
    underline-position="-113"
    unicode-range="U+000D-U+FB01"
  />
<missing-glyph horiz-adv-x="449" 
d="M99 388h251v-252h-251v252z" />
    <glyph glyph-name="fi" unicode="fi" horiz-adv-x="611" 
d="M318 395v83h219v-83h-219zM454 478h97v-478h-97v478zM125 0v528l97 -5v-523h-97zM302 699l249.001 -0.000976562v-88h-238c-18 0.666992 -33.833 -1.66602 -47.5 -6.99902s-24.334 -14.333 -32.001 -27s-11.5 -30.667 -11.5 -54l-97 5c0 40 7.16699 72.667 21.5 98
s34.833 43.833 61.5 55.5s58 17.5 94 17.5zM28.001 477.999h330v-83h-330v83z" />
    <glyph glyph-name="f_f" unicode="ff" horiz-adv-x="709" 
d="M455 0v528l96 -5v-523h-96zM632 699l64 -0.000976562v-88h-54c-17.333 0.666992 -32.833 -1.66602 -46.5 -6.99902s-24.5 -14.333 -32.5 -27s-12 -30.667 -12 -54l-96 5c0 40 7.16699 72.667 21.5 98s34.833 43.833 61.5 55.5s58 17.5 94 17.5zM119 -0.000976562v510
l96 -5v-505h-96zM296 680.999l65 -0.000976562v-88h-55c-17.333 0.666992 -32.833 -1.66602 -46.5 -6.99902s-24.5 -14.333 -32.5 -27s-12 -30.667 -12 -54l-96 5c0 40 7.16699 72.667 21.5 98s34.833 43.833 61.5 55.5s58 17.5 94 17.5zM28 495.998h667v-83h-667v83z" />
    <glyph glyph-name="f_f_i" unicode="ffi" horiz-adv-x="944" 
d="M529 413l16 83h325v-83h-341zM788 496h96v-496h-96v496zM455 0v528l96 -5v-523h-96zM119 0v510l96 -5v-505h-96zM296 681l65 -0.000976562v-88h-55c-17.333 0.666992 -32.833 -1.66602 -46.5 -6.99902s-24.5 -14.333 -32.5 -27s-12 -30.667 -12 -54l-96 5
c0 40 7.16699 72.667 21.5 98s34.833 43.833 61.5 55.5s58 17.5 94 17.5zM28 495.999h667v-83h-667v83zM632 698.999l253 -0.000976562v-88h-243c-17.333 0.666992 -32.833 -1.66602 -46.5 -6.99902s-24.5 -14.333 -32.5 -27s-12 -30.667 -12 -54l-96 5
c0 40 7.16699 72.667 21.5 98s34.833 43.833 61.5 55.5s58 17.5 94 17.5z" />
    <glyph glyph-name=".notdef" horiz-adv-x="449" 
d="M99 388h251v-252h-251v252z" />
    <glyph glyph-name="CR" unicode="&#xd;" horiz-adv-x="600" 
 />
    <glyph glyph-name="space" unicode=" " horiz-adv-x="220" 
 />
    <glyph glyph-name="exclam" unicode="!" horiz-adv-x="278" 
d="M91 688h96v-487h-96v487zM199 103v-103h-120v103h120z" />
    <glyph glyph-name="quotedbl" unicode="&#x22;" horiz-adv-x="348" 
d="M124 445h-53l-28 126v80h109v-80zM277 445h-53l-28 126v80h109v-80z" />
    <glyph glyph-name="numbersign" unicode="#" horiz-adv-x="763" 
d="M462 631h84v-613h-84v613zM223 631h83v-613h-83v613zM694 248v-75h-625v75h625zM694 476v-75h-625v75h625z" />
    <glyph glyph-name="dollar" unicode="$" horiz-adv-x="488" 
d="M284 701l73 -13l-25 -139l-73 13zM150 -59l24 139l73 -13l-24 -139zM46 228l88.999 0.00195312c4 -26.667 16.333 -48.334 37 -65.001s49.667 -25 87 -25c23.333 0 41.833 2.66699 55.5 8s23.167 12.833 28.5 22.5s8 20.834 8 33.501c0 14.667 -4 26.334 -12 35.001
s-19.333 15.667 -34 21s-32 10.666 -52 15.999c-22.667 6 -45 13 -67 21s-42.333 17.667 -61 29s-33.5 25.666 -44.5 42.999s-16.5 38 -16.5 62c0 21.333 4.66699 40.833 14 58.5s22.5 33 39.5 46s37 23.167 60 30.5s48.167 11 75.5 11c38.667 0 71.167 -7 97.5 -21
s46.333 -33.167 60 -57.5s20.5 -52.833 20.5 -85.5h-84c-4.66699 28 -14.5 48.333 -29.5 61s-36.833 19 -65.5 19c-29.333 0 -51.666 -5.66699 -66.999 -17s-23 -26.666 -23 -45.999c0 -14 5.33301 -25.5 16 -34.5s25 -16.833 43 -23.5s38.667 -13.334 62 -20.001
c21.333 -7.33301 42 -14.833 62 -22.5s37.833 -16.834 53.5 -27.501s28 -24 37 -40s13.5 -36 13.5 -60c0 -29.333 -7.33301 -55 -22 -77s-36 -38.833 -64 -50.5s-62 -17.5 -102 -17.5c-44 0 -80.5 6.5 -109.5 19.5s-51.5 29.167 -67.5 48.5s-26.833 38.5 -32.5 57.5
s-7.5 34.833 -5.5 47.5z" />
    <glyph glyph-name="percent" unicode="%" horiz-adv-x="837" 
d="M198 335c-31.333 0 -59 6.83301 -83 20.5s-42.5 32.834 -55.5 57.501s-19.5 53 -19.5 85c0 49.333 14.5 88.833 43.5 118.5s67.167 44.5 114.5 44.5c46.667 0 84.667 -14.833 114 -44.5s44 -69.167 44 -118.5c0 -32 -6.66699 -60.333 -20 -85
s-31.833 -43.834 -55.5 -57.501s-51.167 -20.5 -82.5 -20.5zM198 412c21.333 0 39 7.83301 53 23.5s21 36.5 21 62.5c0 26.667 -7 47.834 -21 63.501s-31.667 23.5 -53 23.5s-39.166 -7.83301 -53.499 -23.5s-21.5 -36.834 -21.5 -63.501c0 -26 7.16699 -46.833 21.5 -62.5
s32.166 -23.5 53.499 -23.5zM639 -11c-46.667 0 -84.667 15 -114 45s-44 69.333 -44 118c0 49.333 14.667 89 44 119s67.333 45 114 45c47.333 0 85.5 -15 114.5 -45s43.5 -69.667 43.5 -119c0 -48.667 -14.5 -88 -43.5 -118s-67.167 -45 -114.5 -45zM639 65
c21.333 0 39.166 8 53.499 24s21.5 37 21.5 63c0 26.667 -7.16699 47.834 -21.5 63.501s-32.166 23.5 -53.499 23.5s-39 -7.83301 -53 -23.5s-21 -36.834 -21 -63.501c0 -26 7 -47 21 -63s31.667 -24 53 -24zM575 686l54 -30l-382 -690l-52 32z" />
    <glyph glyph-name="ampersand" unicode="&#x26;" horiz-adv-x="650" 
d="M226 -10c-26 0 -50.499 4.00195 -73.499 12.002s-43.167 19.333 -60.5 34s-30.833 32.334 -40.5 53.001s-14.5 43.334 -14.5 68.001c0 30 6.33301 56.333 19 79s30 41.5 52 56.5s47.167 26.667 75.5 35s58.166 13.5 89.499 15.5l3 -5
c-29.333 1.33301 -56.833 4.66602 -82.5 9.99902s-48.167 13.666 -67.5 24.999s-34.333 26 -45 44s-16 40 -16 66c0 34 9.16699 64.333 27.5 91s44.833 47.667 79.5 63s75.667 23 123 23c32 0 60.833 -3.83301 86.5 -11.5s47.667 -18.834 66 -33.501s32.5 -33 42.5 -55
s15 -47.333 15 -76h-87c0 29.333 -11 51.5 -33 66.5s-52.333 22.5 -91 22.5c-42 0 -74.167 -8.83301 -96.5 -26.5s-33.5 -41.167 -33.5 -70.5c0 -20.667 5.33301 -38.834 16 -54.501s26.5 -27.667 47.5 -36s46.5 -12.5 76.5 -12.5h318v-75h-107v-298h-89
c-2.66699 21.333 -4.5 41 -5.5 59s-1.66699 37.333 -2 58s-0.5 45.667 -0.5 75l6 -17c-4 -24 -10.833 -47 -20.5 -69s-22.5 -41.833 -38.5 -59.5s-35.5 -31.5 -58.5 -41.5s-49.833 -15 -80.5 -15zM261.001 74.002c34 0 62.499 8 85.499 24s40.667 36.667 53 62
s18.5 51.333 18.5 78v60h-114c-51.333 0 -92.166 -10.333 -122.499 -31s-45.5 -49.667 -45.5 -87c0 -32.667 10.833 -58.5 32.5 -77.5s52.5 -28.5 92.5 -28.5z" />
    <glyph glyph-name="quotesingle" unicode="'" horiz-adv-x="195" 
d="M124 445h-53l-28 126v80h109v-80z" />
    <glyph glyph-name="parenleft" unicode="(" horiz-adv-x="315" 
d="M264 -88l-67 -49l-14.5 18c-9.66699 12 -21.667 29.833 -36 53.5s-28.833 52.5 -43.5 86.5s-27 73.167 -37 117.5s-15 93.5 -15 147.5s5 103.167 15 147.5s22.333 83.5 37 117.5s29.167 62.667 43.5 86s26.333 41 36 53l14.5 18l67 -49l-19 -24.5
c-12.667 -16.333 -27.167 -40.333 -43.5 -72s-31 -70.667 -44 -117s-19.5 -99.5 -19.5 -159.5c0 -48.667 4.33301 -92.834 13 -132.501s19.334 -74.5 32.001 -104.5s25.167 -55.167 37.5 -75.5s22.666 -35.666 30.999 -45.999z" />
    <glyph glyph-name="parenright" unicode=")" horiz-adv-x="315" 
d="M51 -88l12.502 15.5c8.33301 10.333 18.833 25.666 31.5 45.999s25.334 45.5 38.001 75.5s23.167 64.833 31.5 104.5s12.5 83.834 12.5 132.501c0 60 -6.33301 113.167 -19 159.5s-27.334 85.333 -44.001 117s-31.334 55.667 -44.001 72l-19 24.5l67 49l15 -18
c10 -12 22.333 -29.667 37 -53s29.167 -52 43.5 -86s26.333 -73.167 36 -117.5s14.5 -93.5 14.5 -147.5s-4.83301 -103.167 -14.5 -147.5s-21.834 -83.5 -36.501 -117.5s-29.167 -62.833 -43.5 -86.5s-26.5 -41.5 -36.5 -53.5l-15 -18z" />
    <glyph glyph-name="asterisk" unicode="*" horiz-adv-x="454" 
d="M383 631l25 -77l-114 -36l77 -104l-65 -48l-79 112l-80 -112l-65 48l77 103l-112 36l25 76l116 -39l-1 127h80l-2 -126z" />
    <glyph glyph-name="plus" unicode="+" horiz-adv-x="493" 
d="M50 309h393v-78h-393v78zM288 453v-366h-83v366h83z" />
    <glyph glyph-name="comma" unicode="," horiz-adv-x="209" 
d="M72 -144l-20.001 26c10 17.333 19.333 35 28 53s13.334 36 14.001 54l-51 11v103h123v-74c0 -42.667 -9.16699 -77.5 -27.5 -104.5s-40.5 -49.833 -66.5 -68.5z" />
    <glyph glyph-name="hyphen" unicode="-" horiz-adv-x="465" 
d="M80 311h305v-82h-305v82z" />
    <glyph glyph-name="period" unicode="." horiz-adv-x="246" 
d="M183 103v-103h-120v103h120z" />
    <glyph glyph-name="slash" unicode="/" horiz-adv-x="438" 
d="M324 732l82 -29l-293 -804l-81 30z" />
    <glyph glyph-name="zero" unicode="0" horiz-adv-x="638" 
d="M320 -11c-49.333 0 -94.5 10.333 -135.5 31s-73.5 50.334 -97.5 89.001s-36 85 -36 139c0 54.667 12 101.5 36 140.5s56.5 68.833 97.5 89.5s86.167 31 135.5 31s94.166 -10.333 134.499 -31s72.5 -50.5 96.5 -89.5s36 -85.833 36 -140.5c0 -54 -12 -100.333 -36 -139
s-56.167 -68.334 -96.5 -89.001s-85.166 -31 -134.499 -31zM320 74c29.333 0 56.833 6.66797 82.5 20.001s46.5 33.166 62.5 59.499s24 57.833 24 94.5c0 37.333 -7.83301 69.166 -23.5 95.499s-36.5 46.5 -62.5 60.5s-53.667 21 -83 21c-30 0 -58 -6.83301 -84 -20.5
s-47.167 -33.667 -63.5 -60s-24.5 -58.5 -24.5 -96.5c0 -36.667 8 -68.167 24 -94.5s37.167 -46.166 63.5 -59.499s54.5 -20 84.5 -20z" />
    <glyph glyph-name="one" unicode="1" horiz-adv-x="348" 
d="M25 412v87h222v-499h-97v412h-125z" />
    <glyph glyph-name="two" unicode="2" horiz-adv-x="510" 
d="M300 151l-144 -89.998l-6 22h320v-83h-424v83c48.667 31.333 92.334 57.666 131.001 78.999s71.334 40.666 98.001 57.999s47 35 61 53s21 38.333 21 61c0 18 -4 33.667 -12 47s-20.333 24 -37 32s-38.334 12 -65.001 12c-33.333 0 -61.5 -9 -84.5 -27
s-34.5 -41.667 -34.5 -71h-89c-2.66699 35.333 4.66602 66.666 21.999 93.999s42.166 49 74.499 65s69.166 24 110.499 24c33.333 0 63 -4.33301 89 -13s48.333 -20.5 67 -35.5s32.834 -32.667 42.501 -53s14.5 -42.166 14.5 -65.499c0 -20 -3.33301 -38.333 -10 -55
s-16.5 -32.5 -29.5 -47.5s-29.167 -29.833 -48.5 -44.5s-41.666 -29.667 -66.999 -45z" />
    <glyph glyph-name="three" unicode="3" horiz-adv-x="517" 
d="M272 188l1.00195 5.00195c30 -2 57.667 -6 83 -12s47.333 -15.333 66 -28s33 -29.334 43 -50.001s15 -46 15 -76c0 -35.333 -9.16699 -67.166 -27.5 -95.499s-44.5 -50.833 -78.5 -67.5s-73.667 -25 -119 -25c-42.667 0 -81.167 8.5 -115.5 25.5
s-60.666 40.167 -78.999 69.5s-26.166 62 -23.499 98h89c0 -20.667 5.16699 -39 15.5 -55s25.166 -28.667 44.499 -38s42.333 -14 69 -14c39.333 0 70.166 9.83301 92.499 29.5s33.5 46.834 33.5 81.501c0 34 -12.5 60.5 -37.5 79.5s-59.5 28.5 -103.5 28.5h-66v83h66
c30 0 54.667 3.83301 74 11.5s33.666 19 42.999 34s14 32.833 14 53.5c0 28.667 -9.5 52 -28.5 70s-48.5 27 -88.5 27c-35.333 0 -64 -9.16699 -86 -27.5s-33.333 -41.833 -34 -70.5h-88c-2.66699 26.667 1 51.167 11 73.5s24.833 42 44.5 59s42.667 30 69 39
s54.166 13.5 83.499 13.5c44 0 82.167 -7.66699 114.5 -23s57.333 -36.333 75 -63s26.5 -57 26.5 -91c0 -28 -4.83301 -51.333 -14.5 -70s-23.5 -33.334 -41.5 -44.001s-39 -18.334 -63 -23.001s-50.333 -7.33398 -79 -8.00098z" />
    <glyph glyph-name="four" unicode="4" horiz-adv-x="595" 
d="M452 504v-649h-97v548l26 -9l-250 -349l-18 35h258v-84h-325v84l309 424h97zM436 -4v84h116v-84h-116z" />
    <glyph glyph-name="five" unicode="5" horiz-adv-x="584" 
d="M329 266c30.667 0 58.665 -4.66895 83.998 -14.002s47.333 -23.166 66 -41.499s33.334 -40.666 44.001 -66.999s16 -56.166 16 -89.499c0 -44.667 -10.333 -83 -31 -115s-48.5 -56.667 -83.5 -74s-74.5 -26 -118.5 -26c-32.667 0 -63.5 4.5 -92.5 13.5
s-54.667 22.167 -77 39.5s-40.333 38.166 -54 62.499s-21.5 52.166 -23.5 83.499h95c2.66699 -24 10.5 -44.333 23.5 -61s30.333 -29.167 52 -37.5s46.5 -12.5 74.5 -12.5c18 0 35.333 2.66699 52 8s31.5 13.166 44.5 23.499s23.333 23.5 31 39.5s11.5 34.667 11.5 56
s-3.5 40 -10.5 56s-16.667 29.333 -29 40s-26.666 18.834 -42.999 24.501s-33.833 8.5 -52.5 8.5c-18 0 -36 -2.16699 -54 -6.5s-34.667 -12 -50 -23s-28.333 -26.5 -39 -46.5l-87 17l24 376h380v-87h-289l-18 -269l-10 7c8 26.667 20.333 48.334 37 65.001
s36 29.167 58 37.5s45 12.5 69 12.5z" />
    <glyph glyph-name="six" unicode="6" horiz-adv-x="565" 
d="M311 422c42 0 79.3301 -8.83008 111.997 -26.4971s58.5 -42.834 77.5 -75.501s28.167 -71 27.5 -115s-11.5 -82.167 -32.5 -114.5s-49.667 -57.333 -86 -75s-78.166 -26.5 -125.499 -26.5c-48 0 -90.833 8.5 -128.5 25.5s-67.167 41.5 -88.5 73.5
s-31.666 70.333 -30.999 115c0 15.333 2 32.166 6 50.499s11 38.166 21 59.499c2 4 6.83301 12.833 14.5 26.5l28 51.5l35.5 65.5l37.5 69l34 62l24.5 44.5l9 17h112l-247 -409l-32 -29c18 32 35.667 61 53 87s34.833 48.167 52.5 66.5s36.834 32.5 57.501 42.5
s43.667 15 69 15zM281.997 76.0029c40.667 0 75.5 11.165 104.5 33.498s43.833 54.5 44.5 96.5c0.666992 41.333 -12.833 73.5 -40.5 96.5s-62.167 34.5 -103.5 34.5c-46 0 -83 -12.667 -111 -38s-42.333 -56.666 -43 -93.999c-0.666992 -41.333 13.5 -73.166 42.5 -95.499
s64.5 -33.5 106.5 -33.5z" />
    <glyph glyph-name="seven" unicode="7" horiz-adv-x="515" 
d="M41 412v87h444v-87l-280 -562h-109l311 601l23 -39h-389z" />
    <glyph glyph-name="eight" unicode="8" horiz-adv-x="552" 
d="M276 330c-42.667 0 -80.332 5.33301 -112.999 16s-58 27.334 -76 50.001s-27 52 -27 88c0 33.333 8.5 63.166 25.5 89.499s41.5 47.333 73.5 63s71 23.5 117 23.5s85 -7.83301 117 -23.5s56.5 -36.667 73.5 -63s25.5 -56.166 25.5 -89.499c0 -36 -9 -65.333 -27 -88
s-43.333 -39.334 -76 -50.001s-70.334 -16 -113.001 -16zM276.002 379c25.333 0 46.833 4.33301 64.5 13s31.167 20.5 40.5 35.5s14 31.833 14 50.5c0 19.333 -4.66699 36.166 -14 50.499s-22.833 25.5 -40.5 33.5s-39.167 12 -64.5 12s-46.833 -4 -64.5 -12
s-31 -19.167 -40 -33.5s-13.5 -31.166 -13.5 -50.499c0 -18.667 4.5 -35.5 13.5 -50.5s22.333 -26.833 40 -35.5s39.167 -13 64.5 -13zM276.002 -11c-51.333 0 -94.833 8.5 -130.5 25.5s-62.667 39.833 -81 68.5s-27.5 60.334 -27.5 95.001c0 40 10.167 73 30.5 99
s48.5 45.333 84.5 58s77.333 19 124 19s88 -6.33301 124 -19s64 -32 84 -58s30 -59 30 -99c0 -34.667 -9.16699 -66.334 -27.5 -95.001s-45 -51.5 -80 -68.5s-78.5 -25.5 -130.5 -25.5zM276.002 76c31.333 0 57.5 4.5 78.5 13.5s36.667 21.667 47 38s15.5 34.5 15.5 54.5
c0 22 -5.16699 41.333 -15.5 58s-26 29.667 -47 39s-47.167 14 -78.5 14c-32 0 -58.333 -4.66699 -79 -14s-36 -22.333 -46 -39s-15 -36 -15 -58c0 -20 5 -38.167 15 -54.5s25.333 -29 46 -38s47 -13.5 79 -13.5z" />
    <glyph glyph-name="nine" unicode="9" horiz-adv-x="559" 
d="M254 78c-40 0 -76.499 9.00098 -109.499 27.001s-59.333 43.333 -79 76s-29.167 71 -28.5 115s11.667 82 33 114s50.666 56.833 87.999 74.5s79.666 26.5 126.999 26.5c48.667 0 91.667 -8.66699 129 -26s66.5 -41.833 87.5 -73.5s31.167 -69.834 30.5 -114.501
c-0.666992 -16 -3.16699 -33 -7.5 -51s-11.833 -38 -22.5 -60c-1.33301 -4 -5.66602 -12.833 -12.999 -26.5l-27.5 -51.5l-35.5 -65.5l-37.5 -69l-33.5 -62l-24.5 -44.5l-9.5 -17h-112l247 410l33 28c-18.667 -32 -36.667 -60.833 -54 -86.5s-35 -47.667 -53 -66
s-37.5 -32.5 -58.5 -42.5s-44.167 -15 -69.5 -15zM285.001 424.001c-42 0 -77.335 -10.999 -106.002 -32.999s-43.334 -54.333 -44.001 -97c-0.666992 -41.333 12.666 -73.5 39.999 -96.5s62.333 -34.5 105 -34.5c46.667 0 83.834 12.667 111.501 38
s41.834 56.666 42.501 93.999c0.666992 28 -5.66602 51.5 -18.999 70.5s-31.166 33.5 -53.499 43.5s-47.833 15 -76.5 15z" />
    <glyph glyph-name="colon" unicode=":" horiz-adv-x="282" 
d="M192 103v-103h-120v103h120zM192 489v-103h-120v103h120z" />
    <glyph glyph-name="semicolon" unicode=";" horiz-adv-x="250" 
d="M184 485v-103h-120v103h120zM92 -140l-20.001 26c10 17.333 19.333 35 28 53s13.334 36 14.001 54l-51 11v103h123v-74c0 -42.667 -9.16699 -77.5 -27.5 -104.5s-40.5 -49.833 -66.5 -68.5z" />
    <glyph glyph-name="less" unicode="&#x3c;" horiz-adv-x="532" 
d="M391 525l43 -76l-281 -158l281 -158l-43 -77l-324 186v97z" />
    <glyph glyph-name="equal" unicode="=" horiz-adv-x="509" 
d="M50 413h409v-83h-409v83zM50 225h409v-83h-409v83z" />
    <glyph glyph-name="greater" unicode="&#x3e;" horiz-adv-x="534" 
d="M98 449l43 76l324 -186v-97l-324 -186l-43 77l281 158z" />
    <glyph glyph-name="question" unicode="?" horiz-adv-x="559" 
d="M211 201v171h36c53.333 0 93 11.167 119 33.5s39 53.5 39 93.5c0 38.667 -11.833 68.834 -35.5 90.501s-54.167 32.5 -91.5 32.5c-24.667 0 -46.5 -4.83301 -65.5 -14.5s-33.5 -23 -43.5 -40s-15 -36.833 -15 -59.5h-97c0 20.667 3.16699 41 9.5 61
s15.833 38.5 28.5 55.5s28.167 31.833 46.5 44.5s39.333 22.667 63 30s49.834 11 78.501 11c35.333 0 66.5 -5.33301 93.5 -16s50 -25.334 69 -44.001s33.333 -40.667 43 -66s14.5 -53 14.5 -83c0 -41.333 -8.66699 -76.333 -26 -105s-40.833 -51 -70.5 -67
s-62.834 -26 -99.501 -30v-98h-96zM200 0v103h119v-103h-119z" />
    <glyph glyph-name="at" unicode="@" horiz-adv-x="944" 
d="M477 -45c-84.667 0 -158.502 14.8389 -221.502 44.5059s-111.833 72 -146.5 127s-52 120.5 -52 196.5s17.333 140.667 52 194s83.5 94.166 146.5 122.499s137.5 42.5 223.5 42.5c86.667 0 160.667 -14 222 -42s108.333 -68.167 141 -120.5s49 -114.833 49 -187.5
c0 -32.667 -5 -61.834 -15 -87.501s-25.333 -45.834 -46 -60.501s-47.667 -22 -81 -22c-24 0 -44.667 3.33301 -62 10s-31.833 15.667 -43.5 27s-20.334 23.666 -26.001 36.999s-8.5 26.666 -8.5 39.999v220h97v-174c0 -16.667 1.5 -31.5 4.5 -44.5s8.5 -23 16.5 -30
s19 -10.5 33 -10.5c14.667 0 25.834 3.66699 33.501 11s12.834 18 15.501 32s4 30.667 4 50c0 45.333 -7.5 85.166 -22.5 119.499s-36.667 63.166 -65 86.499s-63.333 41 -105 53s-88.5 18 -140.5 18c-52.667 0 -100.167 -6 -142.5 -18s-78.666 -30 -108.999 -54
s-53.5 -53.667 -69.5 -89s-24 -76.333 -24 -123c0 -61.333 14 -114 42 -158s67.5 -77.5 118.5 -100.5s111.5 -34.5 181.5 -34.5c30 0 57.833 1.83301 83.5 5.5s49.167 8.83398 70.5 15.501s40.333 14.667 57 24l34 -67c-20 -10.667 -42.5 -20 -67.5 -28
s-52.333 -14.167 -82 -18.5s-61.5 -6.5 -95.5 -6.5zM432.998 115.006c-40.667 0 -76.166 8.83398 -106.499 26.501s-53.833 41.667 -70.5 72s-25 64.5 -25 102.5c0 40 8.33301 75.833 25 107.5s41 56.834 73 75.501s69.667 28 113 28c42 0 76.167 -9.83301 102.5 -29.5
s45.5 -45.5 57.5 -77.5s18 -66.667 18 -104c0 -16.667 -3.66699 -36.334 -11 -59.001s-18.5 -44.834 -33.5 -66.501s-34.333 -39.667 -58 -54s-51.834 -21.5 -84.501 -21.5zM459.999 199.007c22.667 0 43.166 3.33203 61.499 9.99902s34 15.5 47 26.5s23 23.5 30 37.5
s10.5 28 10.5 42c0 19.333 -3.5 36.833 -10.5 52.5s-17.167 29 -30.5 40s-29.166 19.333 -47.499 25s-38.5 8.5 -60.5 8.5c-47.333 0 -81.166 -11.667 -101.499 -35s-30.5 -53.666 -30.5 -90.999c0 -32 11.167 -59.333 33.5 -82s55.166 -34 98.499 -34z" />
    <glyph glyph-name="A" unicode="A" horiz-adv-x="676" 
d="M161 160v87h350v-87h-350zM19 0l266 649h104l268 -649h-105l-234 586h38l-233 -586h-104z" />
    <glyph glyph-name="B" unicode="B" horiz-adv-x="671" 
d="M79 0l0.000976562 648.998h295c74 0 131 -15 171 -45s60 -73 60 -129c0 -34.667 -7.5 -62.667 -22.5 -84s-36.333 -37.166 -64 -47.499s-59.834 -17.166 -96.501 -20.499l2 7c27.333 -1.33301 53.166 -4.33301 77.499 -9s45.833 -12.334 64.5 -23.001
s33.5 -25.334 44.5 -44.001s16.5 -43 16.5 -73c0 -39.333 -9.33301 -72.166 -28 -98.499s-44.667 -46.166 -78 -59.499s-71.666 -21 -114.999 -23h-327zM177.001 86.998l211 -0.000976562c44 0 78.333 7.83301 103 23.5s37 40.834 37 75.501
c0 26.667 -7.66699 46.667 -23 60s-35 22 -59 26s-49.333 6 -76 6h-193v-191zM177.001 363.997h189c44 0 78.333 8.5 103 25.5s37 42.833 37 77.5c0 34 -12.333 58.333 -37 73s-56 22 -94 22h-198v-198z" />
    <glyph glyph-name="C" unicode="C" horiz-adv-x="755" 
d="M703 222c-6 -48 -22.6689 -89.501 -50.002 -124.501s-62.666 -61.833 -105.999 -80.5s-93.333 -28 -150 -28c-50 0 -96 7.5 -138 22.5s-78.5 37 -109.5 66s-55.167 64.167 -72.5 105.5s-26 88.333 -26 141s8.66699 99.667 26 141s41.5 76.5 72.5 105.5
s67.5 51.167 109.5 66.5s88 23 138 23c56.667 0 106.834 -9.5 150.501 -28.5s79.167 -46 106.5 -81s44 -77.167 50 -126.5h-93c-9.33301 31.333 -24 58 -44 80s-44.333 38.833 -73 50.5s-61 17.5 -97 17.5c-45.333 0 -86.666 -9.5 -123.999 -28.5s-67.166 -47 -89.499 -84
s-33.5 -82.167 -33.5 -135.5s11.167 -98.333 33.5 -135s52.166 -64.5 89.499 -83.5s78.666 -28.5 123.999 -28.5c36 0 68.167 5.66699 96.5 17s52.5 27.833 72.5 49.5s34.667 47.834 44 78.501h93z" />
    <glyph glyph-name="D" unicode="D" horiz-adv-x="752" 
d="M343 649c68 0 124.835 -8.49902 170.502 -25.499s82.167 -40.5 109.5 -70.5s47.166 -64.333 59.499 -103s18.5 -79.667 18.5 -123c0 -42.667 -6.5 -83.667 -19.5 -123s-33.667 -74.333 -62 -105s-65.333 -54.834 -111 -72.501s-100.834 -26.5 -165.501 -26.5h-264v649
h264zM177.002 88.001l165 0.000976562c51.333 0 93.666 6.83301 126.999 20.5s59.833 32 79.5 55s33.5 48.667 41.5 77s12 57.166 12 86.499c0 30 -4 58.833 -12 86.5s-21.833 52.667 -41.5 75s-46.167 40 -79.5 53s-75.666 19.5 -126.999 19.5h-165v-473z" />
    <glyph glyph-name="E" unicode="E" horiz-adv-x="657" 
d="M177 281v-194h420v-87h-518v649h517v-87h-419v-196h343v-85h-343z" />
    <glyph glyph-name="F" unicode="F" horiz-adv-x="624" 
d="M596 649v-87h-419v-201h343v-84h-343v-277h-98v649h517z" />
    <glyph glyph-name="G" unicode="G" horiz-adv-x="785" 
d="M387 -11c-51.333 0 -97.666 7.66504 -138.999 22.998s-76.666 37.333 -105.999 66s-51.833 63.5 -67.5 104.5s-23.5 86.5 -23.5 136.5c0 51.333 8.33301 98 25 140s40.5 78 71.5 108s67.667 53 110 69s88.833 24 139.5 24c58 0 108.667 -9.66699 152 -29
s78 -46.666 104 -81.999s41.333 -76.666 46 -123.999h-88c-8.66699 30 -22.834 56 -42.501 78s-43.834 39 -72.501 51s-61.667 18 -99 18c-50 0 -93.5 -10.833 -130.5 -32.5s-65.667 -51.5 -86 -89.5s-30.5 -81.667 -30.5 -131c0 -48.667 9.16699 -91.167 27.5 -127.5
s45.333 -64.5 81 -84.5s79.167 -30 130.5 -30c39.333 0 74 6.83301 104 20.5s54.5 33 73.5 58s32.167 54.833 39.5 89.5l50 6c-10 -86 -38.833 -151.167 -86.5 -195.5s-108.5 -66.5 -182.5 -66.5zM634 -0.00195312c0 21.333 0.832031 45.833 2.49902 73.5
s3.83398 55.667 6.50098 84l7 76.5h-246v78h320v-312h-90z" />
    <glyph glyph-name="H" unicode="H" horiz-adv-x="778" 
d="M167 368h445v-87h-445v87zM602 649h97v-649h-97v649zM79 649h98v-649h-98v649z" />
    <glyph glyph-name="I" unicode="I" horiz-adv-x="295" 
d="M99 649h97v-649h-97v649z" />
    <glyph glyph-name="J" unicode="J" horiz-adv-x="586" 
d="M409 230v419.001h98v-422c0 -32.667 -5.16699 -63.5 -15.5 -92.5s-25.666 -54.333 -45.999 -76s-45.333 -38.5 -75 -50.5s-64.167 -18 -103.5 -18c-32 0 -62.333 4.5 -91 13.5s-54 22.333 -76 40s-39.667 39.667 -53 66s-20.666 56.166 -21.999 89.499h90
c7.33301 -40 24.666 -70.167 51.999 -90.5s60.666 -30.5 99.999 -30.5c33.333 0 60.333 6.66699 81 20s36 31.333 46 54s15 48.667 15 78z" />
    <glyph glyph-name="K" unicode="K" horiz-adv-x="692" 
d="M275 316l-1 53l396 -369h-136l-358 340l316 309h135zM79 649h98v-649h-98v649z" />
    <glyph glyph-name="L" unicode="L" horiz-adv-x="609" 
d="M177 649v-562h383v-87h-481v649h98z" />
    <glyph glyph-name="M" unicode="M" horiz-adv-x="953" 
d="M497 54h-42l321 595h98v-649h-98v497l22 -5l-270 -492h-103l-270 490l22 6v-496h-98v649h98z" />
    <glyph glyph-name="N" unicode="N" horiz-adv-x="780" 
d="M632 107l-28 -10v552h97v-649h-97l-456 540l29 10v-550h-98v649h98z" />
    <glyph glyph-name="O" unicode="O" horiz-adv-x="801" 
d="M401 -11c-68.667 0 -129.167 13.667 -181.5 41s-93.5 66 -123.5 116s-45 109.333 -45 178c0 69.333 15 129 45 179s71.167 88.667 123.5 116s112.833 41 181.5 41c68 0 128.333 -13.667 181 -41s93.834 -66 123.501 -116s44.5 -109.667 44.5 -179
c0 -68.667 -14.833 -128 -44.5 -178s-70.834 -88.667 -123.501 -116s-113 -41 -181 -41zM401 77c48 0 90.667 9.33301 128 28s67 46.334 89 83.001s33 82 33 136c0 54.667 -11 100.167 -33 136.5s-51.667 64 -89 83s-80 28.5 -128 28.5c-47.333 0 -90 -9.5 -128 -28.5
s-68 -46.667 -90 -83s-33 -81.833 -33 -136.5c0 -54 11 -99.333 33 -136s52 -64.334 90 -83.001s80.667 -28 128 -28z" />
    <glyph glyph-name="P" unicode="P" horiz-adv-x="665" 
d="M159 223v86h234c38.667 0 69.834 11.5 93.501 34.5s35.5 53.5 35.5 91.5c0 39.333 -11.833 70.166 -35.5 92.499s-54.834 33.5 -93.501 33.5h-218v-561h-98v649h312c32 0 62 -4.5 90 -13.5s52.5 -22.5 73.5 -40.5s37.333 -40.333 49 -67s17.5 -57.667 17.5 -93
s-5.83301 -66.166 -17.5 -92.499s-28 -48.333 -49 -66s-45.5 -31 -73.5 -40s-58 -13.5 -90 -13.5h-230z" />
    <glyph glyph-name="Q" unicode="Q" horiz-adv-x="801" 
d="M352 43h97v-243h-97v243zM401 -11c-68.667 0 -129.167 13.667 -181.5 41s-93.5 66 -123.5 116s-45 109.333 -45 178c0 69.333 15 129 45 179s71.167 88.667 123.5 116s112.833 41 181.5 41c68 0 128.333 -13.667 181 -41s93.834 -66 123.501 -116
s44.5 -109.667 44.5 -179c0 -68.667 -14.833 -128 -44.5 -178s-70.834 -88.667 -123.501 -116s-113 -41 -181 -41zM401 77c48 0 90.667 9.33301 128 28s67 46.334 89 83.001s33 82 33 136c0 54.667 -11 100.167 -33 136.5s-51.667 64 -89 83s-80 28.5 -128 28.5
c-47.333 0 -90 -9.5 -128 -28.5s-68 -46.667 -90 -83s-33 -81.833 -33 -136.5c0 -54 11 -99.333 33 -136s52 -64.334 90 -83.001s80.667 -28 128 -28z" />
    <glyph glyph-name="R" unicode="R" horiz-adv-x="703" 
d="M79 0l-0.000976562 649h338c46.667 0 86.834 -6.83301 120.501 -20.5s59.667 -34.5 78 -62.5s27.5 -63.333 27.5 -106c0 -28.667 -4.83301 -53.167 -14.5 -73.5s-23 -37.333 -40 -51s-36.833 -24.167 -59.5 -31.5s-47 -12 -73 -14l-7 6
c39.333 -0.666992 72.333 -4.66699 99 -12s47.167 -20.5 61.5 -39.5s21.5 -47.5 21.5 -85.5v-159h-97v156c0 26 -4.5 46.333 -13.5 61s-24.167 25 -45.5 31s-51.333 9 -90 9h-208v-257h-98zM176.999 342h240c42.667 0 74.667 10.667 96 32s32 49.333 32 84
c0 33.333 -10.667 58.833 -32 76.5s-53.333 26.5 -96 26.5h-240v-219z" />
    <glyph glyph-name="S" unicode="S" horiz-adv-x="592" 
d="M35 213l93.0039 0.00488281c2.66699 -26 11.834 -49.333 27.501 -70s37.167 -37 64.5 -49s58.666 -18 93.999 -18c31.333 0 57.5 4.16699 78.5 12.5s36.667 20.166 47 35.499s15.5 33 15.5 53c0 20.667 -5.83301 37.167 -17.5 49.5s-28.834 22.666 -51.501 30.999
s-51 16.5 -85 24.5c-29.333 6.66699 -58.333 15.167 -87 25.5s-54.834 23.166 -78.501 38.499s-42.667 34 -57 56s-21.5 48.333 -21.5 79c0 32.667 9.16699 62.5 27.5 89.5s45.166 48.667 80.499 65s78 24.5 128 24.5c78 0 137 -19.333 177 -58s59.333 -90.334 58 -155.001
h-92c-1.33301 44.667 -15.5 76.834 -42.5 96.501s-61.833 29.5 -104.5 29.5c-36.667 0 -68.167 -7.33301 -94.5 -22s-39.5 -38.334 -39.5 -71.001c0 -14 3 -26.167 9 -36.5s16 -19.666 30 -27.999s33 -16.5 57 -24.5s53.667 -16.667 89 -26c27.333 -6 53.5 -13.667 78.5 -23
s47.667 -21 68 -35s36.333 -31.833 48 -53.5s17.5 -48.834 17.5 -81.501c0 -34 -8.33301 -64.833 -25 -92.5s-42.667 -49.667 -78 -66s-81 -24.5 -137 -24.5c-44 0 -82.333 5.5 -115 16.5s-59.834 25.667 -81.501 44s-38.667 37.666 -51 57.999s-20.833 40 -25.5 59
s-6 34.5 -4 46.5z" />
    <glyph glyph-name="T" unicode="T" horiz-adv-x="607" 
d="M17 649h574v-87h-574v87zM255 572h98v-572h-98v572z" />
    <glyph glyph-name="U" unicode="U" horiz-adv-x="757" 
d="M580 262v387h98v-392c0 -38.667 -5 -72.667 -15 -102s-24 -54.666 -42 -75.999s-39.333 -38.5 -64 -51.5s-52 -22.667 -82 -29s-61.667 -9.5 -95 -9.5c-34.667 0 -67.167 3.16699 -97.5 9.5s-58 16 -83 29s-46.333 30.167 -64 51.5s-31.5 46.666 -41.5 75.999
s-15 63.333 -15 102v392h98v-387c0 -50 9 -88.333 27 -115s42.5 -45 73.5 -55s65.167 -15 102.5 -15c36.667 0 70 5 100 15s54.167 28.333 72.5 55s27.5 65 27.5 115z" />
    <glyph glyph-name="V" unicode="V" horiz-adv-x="658" 
d="M275 0l-255 649h106l220 -575h-31l219 575h104l-252 -649h-111z" />
    <glyph glyph-name="W" unicode="W" horiz-adv-x="1124" 
d="M267 0l-247 649h106l211 -567h-30l202 567h108l202 -567h-30l211 567h104l-245 -649h-110l-200 576h29l-201 -576h-110z" />
    <glyph glyph-name="X" unicode="X" horiz-adv-x="671" 
d="M514 649h114l-262 -350l-3 -3l-207 -296h-114l267 369l3 2zM166 649l196 -278l1 -2l266 -369h-123l-201 299l-2 2l-251 348h114z" />
    <glyph glyph-name="Y" unicode="Y" horiz-adv-x="640" 
d="M617 649l-248 -432v-217h-98v217l-248 432h111l212 -379h-48l208 379h111z" />
    <glyph glyph-name="Z" unicode="Z" horiz-adv-x="707" 
d="M61 649h585v-87l-492 -505l-13 30h505v-87h-585v87l494 505l12 -30h-506v87z" />
    <glyph glyph-name="bracketleft" unicode="[" horiz-adv-x="365" 
d="M306 -93v-87h-218v980h218v-87h-130v-806h130z" />
    <glyph glyph-name="backslash" unicode="\" horiz-adv-x="438" 
d="M113 732l293 -803l-82 -30l-292 804z" />
    <glyph glyph-name="bracketright" unicode="]" horiz-adv-x="368" 
d="M60 -92h131v805h-131v87h218v-979h-218v87z" />
    <glyph glyph-name="asciicircum" unicode="^" horiz-adv-x="587" 
d="M211 606v-103h-119v103h119z" />
    <glyph glyph-name="underscore" unicode="_" horiz-adv-x="810" 
d="M77 -115h656v-85h-656v85z" />
    <glyph glyph-name="grave" unicode="`" horiz-adv-x="443" 
d="M255 601l-155 160h127l116 -160h-88z" />
    <glyph glyph-name="a" unicode="a" horiz-adv-x="620" 
d="M270 -10c-42.667 0 -81.666 10.999 -116.999 32.999s-63.5 52.5 -84.5 91.5s-31.5 83.833 -31.5 134.5s10.667 95.5 32 134.5s50.166 69.667 86.499 92s77.5 33.5 123.5 33.5c50 0 89 -11.667 117 -35s47.667 -54.666 59 -93.999s17 -83 17 -131
c0 -26.667 -3.33301 -55 -10 -85s-17.5 -58.333 -32.5 -85s-35.5 -48.167 -61.5 -64.5s-58.667 -24.5 -98 -24.5zM297.001 73.999c36 0 66.167 7.66699 90.5 23s42.666 36.333 54.999 63s18.5 56.334 18.5 89.001c0 35.333 -6.33301 66.166 -19 92.499
s-31.167 46.833 -55.5 61.5s-54.166 22 -89.499 22c-51.333 0 -91.333 -16.5 -120 -49.5s-43 -75.167 -43 -126.5c0 -34.667 7 -65.167 21 -91.5s33.333 -46.833 58 -61.5s52.667 -22 84 -22zM461.001 498.999l96.999 0.00195312v-499h-89l-2 18.5
c-1.33301 12.333 -2.66602 27.166 -3.99902 44.499s-2 32.666 -2 45.999v390z" />
    <glyph glyph-name="b" unicode="b" horiz-adv-x="637" 
d="M368 -10c-39.333 0 -72.001 8.16699 -98.001 24.5s-46.5 37.833 -61.5 64.5s-25.833 55 -32.5 85s-10 58.333 -10 85c0 36 3.16699 69.667 9.5 101s16.833 59 31.5 83s35.167 42.667 61.5 56s59.5 20 99.5 20c44.667 0 84.5 -11.167 119.5 -33.5s62.667 -53 83 -92
s30.5 -83.833 30.5 -134.5s-10.333 -95.5 -31 -134.5s-48.667 -69.5 -84 -91.5s-74.666 -33 -117.999 -33zM339.999 74c32.667 0 61.0029 7.33301 85.0029 22s43 35.167 57 61.5s21 56.833 21 91.5c0 51.333 -14.167 93.5 -42.5 126.5s-68.5 49.5 -120.5 49.5
c-34.667 0 -64.334 -7.33301 -89.001 -22s-43.167 -35.167 -55.5 -61.5s-18.5 -57.166 -18.5 -92.499c0 -32.667 6.16699 -62.334 18.5 -89.001s30.666 -47.667 54.999 -63s54.166 -23 89.499 -23zM177.002 699v-589.999c0 -14.667 -1 -32.834 -3 -54.501l-5 -54.5h-89v699
h97z" />
    <glyph glyph-name="c" unicode="c" horiz-adv-x="593" 
d="M556 191c-4 -42 -17.332 -78.1699 -39.999 -108.503s-52 -53.5 -88 -69.5s-76.333 -24 -121 -24c-49.333 0 -94.5 10.167 -135.5 30.5s-73.667 50 -98 89s-36.5 85.5 -36.5 139.5c0 54.667 12.167 101.5 36.5 140.5s57 68.833 98 89.5s86.167 31 135.5 31
c44.667 0 84.834 -8 120.501 -24s64.667 -38.833 87 -68.5s36.166 -65.5 41.499 -107.5h-89c-11.333 36.667 -31.333 65.334 -60 86.001s-62 31 -100 31c-30.667 0 -59.167 -6.83301 -85.5 -20.5s-47.5 -33.667 -63.5 -60s-24 -58.833 -24 -97.5
c0 -37.333 7.83301 -69.166 23.5 -95.499s36.667 -46.166 63 -59.499s55.166 -20 86.499 -20c42.667 0 77.5 10.333 104.5 31s45.833 49.667 56.5 87h88z" />
    <glyph glyph-name="d" unicode="d" horiz-adv-x="638" 
d="M270 -10c-43.333 0 -82.667 11 -118 33s-63.333 52.5 -84 91.5s-31 83.833 -31 134.5s10 95.5 30 134.5s47.5 69.667 82.5 92s75.167 33.5 120.5 33.5c40 0 73 -6.66699 99 -20s46.5 -32 61.5 -56s25.667 -51.667 32 -83s9.5 -65 9.5 -101
c0 -26.667 -3.33301 -55 -10 -85s-17.5 -58.333 -32.5 -85s-35.5 -48.167 -61.5 -64.5s-58.667 -24.5 -98 -24.5zM296.999 74c36 0 66.167 7.66699 90.5 23s42.666 36.333 54.999 63s18.5 56.334 18.5 89.001c0 35.333 -6.33301 66.166 -19 92.499
s-31.167 46.833 -55.5 61.5s-54.166 22 -89.499 22c-51.333 0 -91.333 -16.5 -120 -49.5s-43 -75.167 -43 -126.5c0 -34.667 7 -65.167 21 -91.5s33.333 -46.833 58 -61.5s52.667 -22 84 -22zM460.999 699l97 -0.00195312v-699h-89c-2 14.667 -3.83301 32.834 -5.5 54.501
s-2.5 39.834 -2.5 54.501v590z" />
    <glyph glyph-name="e" unicode="e" horiz-adv-x="583" 
d="M450 162h91.998c-5.33301 -32.667 -17.833 -62 -37.5 -88s-46 -46.667 -79 -62s-71.833 -23 -116.5 -23c-52 0 -98.667 10.833 -140 32.5s-73.666 52 -96.999 91s-35 84.167 -35 135.5c0 52 11.333 97.5 34 136.5s54.167 69.5 94.5 91.5s86.5 33 138.5 33
c54.667 0 100.334 -10.667 137.001 -32s64 -52.833 82 -94.5s25.333 -93.5 22 -155.5h-411c3.33301 -30 12.5 -56.667 27.5 -80s35 -41.5 60 -54.5s53.833 -19.5 86.5 -19.5c36.667 0 67.5 8.16699 92.5 24.5s41.5 37.833 49.5 64.5zM303.998 426
c-43.333 0 -79.332 -11.5 -107.999 -34.5s-47.667 -53.167 -57 -90.5h308c-2.66699 40 -17.334 70.833 -44.001 92.5s-59.667 32.5 -99 32.5z" />
    <glyph glyph-name="f" unicode="f" horiz-adv-x="380" 
d="M28 496h330v-83h-330v83zM302 699l65.001 -0.000976562v-88h-54c-18 0.666992 -33.833 -1.66602 -47.5 -6.99902s-24.334 -14.333 -32.001 -27s-11.5 -30.667 -11.5 -54v-523h-97v528c0 40 7.16699 72.667 21.5 98s34.833 43.833 61.5 55.5s58 17.5 94 17.5z" />
    <glyph glyph-name="g" unicode="g" horiz-adv-x="582" 
d="M265 78c-41.333 0 -79.334 8.33496 -114.001 25.002s-62.334 41 -83.001 73s-31 70.667 -31 116c0 44.667 10 83.167 30 115.5s47.333 57.333 82 75s73.334 26.5 116.001 26.5c12.667 0 24.834 -0.833008 36.501 -2.5s23.167 -4.16699 34.5 -7.5h219v-90
c-30.667 -0.666992 -61.334 4.16602 -92.001 14.499s-57 20.833 -79 31.5l-4 5c23.333 -12 43.333 -26.333 60 -43s29.667 -35.667 39 -57s14 -44.666 14 -69.999c0 -44.667 -10 -82.834 -30 -114.501s-47.167 -55.834 -81.5 -72.501s-73.166 -25 -116.499 -25z
M418.999 -201.998v22.999c0 34 -9.33301 58.333 -28 73s-46 22 -82 22h-118c-24.667 0 -45.834 2 -63.501 6s-32.167 9.83301 -43.5 17.5s-19.666 17 -24.999 28s-8 23.167 -8 36.5c0 26 8 45.5 24 58.5s36.5 21.5 61.5 25.5s50.167 4.33301 75.5 1l53 -11
c-38 -2 -66.833 -5.66699 -86.5 -11s-29.5 -16.666 -29.5 -33.999c0 -10 3.83301 -18 11.5 -24s19.167 -9 34.5 -9h123c38 0 71.833 -4.83301 101.5 -14.5s53.167 -26 70.5 -49s26 -54.5 26 -94.5v-44h-97zM264.999 159.001c24.667 0 46.833 5.16797 66.5 15.501
s35.5 25.333 47.5 45s18 43.5 18 71.5c0 28.667 -5.83301 53 -17.5 73s-27.5 35.333 -47.5 46s-42.333 16 -67 16c-24 0 -46.167 -5.33301 -66.5 -16s-36.5 -25.834 -48.5 -45.501s-18 -44.167 -18 -73.5c0 -28 6 -51.833 18 -71.5s28.167 -34.667 48.5 -45
s42.5 -15.5 66.5 -15.5z" />
    <glyph glyph-name="h" unicode="h" horiz-adv-x="611" 
d="M452 0v300.003c0 26.667 -4.16699 48.667 -12.5 66s-21.333 30.5 -39 39.5s-40.167 13.5 -67.5 13.5c-28.667 0 -55.334 -6.83301 -80.001 -20.5s-44.667 -31.834 -60 -54.501s-24.666 -48.334 -27.999 -77.001l-1 57c3.33301 26 10.5 50.167 21.5 72.5s25 42 42 59
s37 30.167 60 39.5s48.167 14 75.5 14c28 0 53.333 -3.83301 76 -11.5s42.167 -19.334 58.5 -35.001s29 -34.667 38 -57s13.5 -47.833 13.5 -76.5v-329h-97zM74 0.00292969v699h97v-699h-97z" />
    <glyph glyph-name="i" unicode="i" horiz-adv-x="239" 
d="M179 705v-103h-120v103h120zM71 499h96v-499h-96v499z" />
    <glyph glyph-name="j" unicode="j" horiz-adv-x="239" 
d="M72 499h97v-699h-97v699zM179 705v-103h-120v103h120z" />
    <glyph glyph-name="k" unicode="k" horiz-adv-x="562" 
d="M74 699h97v-699h-97v699zM533 499l-265 -252l2 62l282 -309h-123l-256 279l225 220h135z" />
    <glyph glyph-name="l" unicode="l" horiz-adv-x="244" 
d="M73 699h97v-699h-97v699z" />
    <glyph glyph-name="m" unicode="m" horiz-adv-x="969" 
d="M63 499h97v-499h-97v499zM352 509c28 0 53.333 -4 76 -12s42.167 -19.833 58.5 -35.5s29 -35 38 -58s13.5 -49.5 13.5 -79.5v-324h-97v303c0 40 -9.33301 69.667 -28 89s-47.667 29 -87 29c-30 0 -57.5 -6.83301 -82.5 -20.5s-45.333 -32 -61 -55
s-25.167 -48.833 -28.5 -77.5l-1 55c3.33301 26.667 10.5 51.167 21.5 73.5s25.167 42 42.5 59s37.333 30.167 60 39.5s47.667 14 75 14zM720 509c28 0 53.499 -4.00098 76.499 -12.001s42.5 -19.833 58.5 -35.5s28.5 -35 37.5 -58s13.5 -49.5 13.5 -79.5v-324h-96v303
c0 40 -9.5 69.667 -28.5 89s-48.167 29 -87.5 29c-30 0 -57.333 -6.83301 -82 -20.5s-45 -32 -61 -55s-25.333 -48.833 -28 -77.5l-1 56c3.33301 26 10.5 50.333 21.5 73s25.167 42.334 42.5 59.001s37.333 29.667 60 39s47.334 14 74.001 14z" />
    <glyph glyph-name="n" unicode="n" horiz-adv-x="600" 
d="M63 499h97v-499h-97v499zM352 509c28 0 53.333 -4 76 -12s42.167 -19.833 58.5 -35.5s29 -35 38 -58s13.5 -49.5 13.5 -79.5v-324h-97v303c0 40 -9.33301 69.667 -28 89s-47.667 29 -87 29c-30 0 -57.5 -6.83301 -82.5 -20.5s-45.333 -32 -61 -55
s-25.167 -48.833 -28.5 -77.5l-1 55c3.33301 26.667 10.5 51.167 21.5 73.5s25.167 42 42.5 59s37.333 30.167 60 39.5s47.667 14 75 14z" />
    <glyph glyph-name="o" unicode="o" horiz-adv-x="609" 
d="M306 -11c-49.333 0 -94.5 10.333 -135.5 31s-73.5 50.334 -97.5 89.001s-36 85 -36 139c0 54.667 12 101.5 36 140.5s56.5 68.833 97.5 89.5s86.167 31 135.5 31s94.166 -10.333 134.499 -31s72.5 -50.5 96.5 -89.5s36 -85.833 36 -140.5c0 -54 -12 -100.333 -36 -139
s-56.167 -68.334 -96.5 -89.001s-85.166 -31 -134.499 -31zM306 73c30 0 57.833 6.66699 83.5 20s46.334 33.166 62.001 59.499s23.5 58.166 23.5 95.499c0 38 -7.83301 70.167 -23.5 96.5s-36.334 46.5 -62.001 60.5s-53.5 21 -83.5 21c-30.667 0 -59 -6.83301 -85 -20.5
s-47 -33.667 -63 -60s-24 -58.833 -24 -97.5c0 -37.333 7.83301 -69.166 23.5 -95.499s36.667 -46.166 63 -59.499s54.833 -20 85.5 -20z" />
    <glyph glyph-name="p" unicode="p" horiz-adv-x="621" 
d="M351 -11c-39.333 0 -72.001 8.33105 -98.001 24.998s-46.5 38.334 -61.5 65.001s-25.833 55 -32.5 85s-10 58.333 -10 85c0 36 3.16699 69.667 9.5 101s17 59 32 83s35.5 42.667 61.5 56s59 20 99 20c43.333 0 82.5 -11.167 117.5 -33.5s63 -53.166 84 -92.499
s31.5 -84 31.5 -134c0 -51.333 -10.667 -96.5 -32 -135.5s-49.666 -69.5 -84.999 -91.5s-74 -33 -116 -33zM322.999 73.998c32.667 0 61.1689 7.33008 85.502 21.9971s43.333 35.167 57 61.5s20.5 56.833 20.5 91.5c0 51.333 -14.167 93.5 -42.5 126.5
s-68.5 49.5 -120.5 49.5c-31.333 0 -59.333 -7.33301 -84 -22s-44 -35.167 -58 -61.5s-21 -57.166 -21 -92.499c0 -33.333 6.16699 -63.166 18.5 -89.499s30.666 -47.166 54.999 -62.499s54.166 -23 89.499 -23zM63.001 498.995h93l4 -114v-585h-97v699z" />
    <glyph glyph-name="q" unicode="q" horiz-adv-x="638" 
d="M270 -11c-42.667 0 -81.667 11.002 -117 33.002s-63.5 52.5 -84.5 91.5s-31.5 84.167 -31.5 135.5c0 50 10.5 94.667 31.5 134s49.167 70.166 84.5 92.499s74.333 33.5 117 33.5c40 0 73 -6.66699 99 -20s46.5 -32 61.5 -56s25.667 -51.667 32 -83s9.5 -65 9.5 -101
c0 -26.667 -3.33301 -55 -10 -85s-17.5 -58.333 -32.5 -85s-35.5 -48.334 -61.5 -65.001s-58.667 -25 -98 -25zM297 74.002c36 0 66.167 7.66992 90.5 23.0029s42.666 36.166 54.999 62.499s18.5 56.166 18.5 89.499c0 35.333 -6.33301 66.166 -19 92.499
s-31.167 46.833 -55.5 61.5s-54.166 22 -89.499 22c-51.333 0 -91.333 -16.5 -120 -49.5s-43 -75.167 -43 -126.5c0 -34.667 7 -65.167 21 -91.5s33.333 -46.833 58 -61.5s52.667 -22 84 -22zM558 499.005v-699h-97v596l1 103h96z" />
    <glyph glyph-name="r" unicode="r" horiz-adv-x="354" 
d="M63 499h97v-499h-97v499zM330 413c-34.667 0 -64.333 -8.00098 -89 -24.001s-44 -35.5 -58 -58.5s-23.667 -45.5 -29 -67.5l-1 57c0.666992 6.66699 2.66699 17.334 6 32.001s9 31 17 49s18.667 35.167 32 51.5s30 29.833 50 40.5s44 16 72 16v-96z" />
    <glyph glyph-name="s" unicode="s" horiz-adv-x="482" 
d="M41 162l89 -0.00195312c4 -26.667 16.333 -48.334 37 -65.001s49.667 -25 87 -25c23.333 0 41.666 2.83301 54.999 8.5s23 13.334 29 23.001s9 20.834 9 33.501c0 14.667 -4 26.334 -12 35.001s-19.333 15.667 -34 21s-32.334 10.666 -53.001 15.999
c-22 6 -44.167 13 -66.5 21s-42.666 17.667 -60.999 29s-33 25.5 -44 42.5s-16.5 37.5 -16.5 61.5c0 21.333 4.5 41 13.5 59s22 33.5 39 46.5s37 23 60 30s48.167 10.5 75.5 10.5c38.667 0 71.167 -6.83301 97.5 -20.5s46.333 -32.834 60 -57.501
s20.834 -53.334 21.501 -86.001h-85c-4.66699 28.667 -14.5 49.334 -29.5 62.001s-36.833 19 -65.5 19c-29.333 0 -51.666 -5.66699 -66.999 -17s-23 -26.666 -23 -45.999c0 -14 5.33301 -25.5 16 -34.5s25 -16.833 43 -23.5s38.667 -13.667 62 -21l62 -22
c20 -7.33301 37.833 -16.333 53.5 -27s28 -24 37 -40s13.5 -36.333 13.5 -61c0 -29.333 -7.33301 -54.833 -22 -76.5s-36 -38.5 -64 -50.5s-62 -18 -102 -18c-35.333 0 -65.833 4.33301 -91.5 13s-46.834 20 -63.501 34s-29.667 28.833 -39 44.5s-15.5 30.834 -18.5 45.501
s-3.83301 26.667 -2.5 36z" />
    <glyph glyph-name="t" unicode="t" horiz-adv-x="381" 
d="M28 499h325v-84h-325v84zM142 631h97v-631h-97v631z" />
    <glyph glyph-name="u" unicode="u" horiz-adv-x="600" 
d="M538 0h-97v499h97v-499zM447 235l0.998047 -30.001c-1.33301 -8.66699 -3.83301 -21.5 -7.5 -38.5s-9.66699 -35.5 -18 -55.5s-19.666 -39.333 -33.999 -58s-32.5 -34 -54.5 -46s-49 -18 -81 -18c-22 0 -44.167 3 -66.5 9s-42.833 16 -61.5 30s-33.667 33.167 -45 57.5
s-17 54.833 -17 91.5v322h97v-301c0 -30.667 5 -54.667 15 -72s23.833 -29.666 41.5 -36.999s37.834 -11 60.501 -11c34.667 0 64 8.33301 88 25s42.667 37.167 56 61.5s22 47.833 26 70.5z" />
    <glyph glyph-name="v" unicode="v" horiz-adv-x="538" 
d="M283 74h-31l162 425h106l-207 -499h-91l-204 499h106z" />
    <glyph glyph-name="w" unicode="w" horiz-adv-x="843" 
d="M601 79l-27 1l145 419h106l-189 -499h-90l-139 426h28l-140 -426h-91l-186 499h106l142 -420h-27l125 420h115z" />
    <glyph glyph-name="x" unicode="x" horiz-adv-x="559" 
d="M524 499l-215 -274l-168 -225h-118l228 288l156 211h117zM23 499h120l166 -211l227 -288h-118l-172 224z" />
    <glyph glyph-name="y" unicode="y" horiz-adv-x="550" 
d="M18 499h104l191 -479l-84 -20zM531 499l-301 -699h-103l130 271l171 428h103z" />
    <glyph glyph-name="z" unicode="z" horiz-adv-x="539" 
d="M480 416l-337 -365l-14 32h355v-83h-428v83l340 364l13 -31h-353v83h424v-83z" />
    <glyph glyph-name="braceleft" unicode="{" horiz-adv-x="440" 
d="M119 800l233 0.00195312v-87h-135c0 -20 3.33301 -41 10 -63s14.334 -44.333 23.001 -67s16.167 -45.167 22.5 -67.5s9.5 -43.833 9.5 -64.5c0 -28.667 -6.5 -53 -19.5 -73s-31.833 -36 -56.5 -48s-54 -20.667 -88 -26v14c34 -4.66699 63.333 -13.167 88 -25.5
s43.5 -28.333 56.5 -48s19.5 -44.167 19.5 -73.5c0 -20.667 -3.16699 -42.167 -9.5 -64.5s-13.833 -44.833 -22.5 -67.5s-16.334 -45 -23.001 -67s-10 -43 -10 -63h135v-87h-233c-5.33301 31.333 -4.66602 63.666 2.00098 96.999s15.834 66 27.501 98l31.5 88
c9.33301 26.667 14 48.667 14 66c0 29.333 -11.333 53.166 -34 71.499s-57.667 27.5 -105 27.5v82c47.333 0 82.333 9.16699 105 27.5s34 42.166 34 71.499c0 17.333 -4.66699 39.333 -14 66l-31.5 88c-11.667 32 -20.834 64.833 -27.501 98.5
s-7.33398 65.834 -2.00098 96.501z" />
    <glyph glyph-name="bar" unicode="|" horiz-adv-x="288" 
d="M100 800h88v-960h-88v960z" />
    <glyph glyph-name="braceright" unicode="}" horiz-adv-x="440" 
d="M246 451c0 -29.333 11.5 -53.168 34.5 -71.501s57.833 -27.5 104.5 -27.5v-82c-46.667 0 -81.5 -9.16699 -104.5 -27.5s-34.5 -42.166 -34.5 -71.499c0 -17.333 4.83301 -39.333 14.5 -66l31.5 -88c11.333 -32 20.333 -64.667 27 -98s7.33398 -65.666 2.00098 -96.999
h-233v87h135c0 20 -3.33301 41 -10 63s-14.167 44.333 -22.5 67s-15.833 45.167 -22.5 67.5s-10 43.833 -10 64.5c0 29.333 6.66699 53.833 20 73.5s32.333 35.667 57 48s53.667 20.833 87 25.5v-14c-33.333 5.33301 -62.333 14 -87 26s-43.667 28 -57 48s-20 44.333 -20 73
c0 20.667 3.33301 42.167 10 64.5s14.167 44.833 22.5 67.5s15.833 45 22.5 67s10 43 10 63h-135v87h233c5.33301 -30.667 4.66602 -62.834 -2.00098 -96.501s-15.667 -66.5 -27 -98.5l-31.5 -88c-9.66699 -26.667 -14.5 -48.667 -14.5 -66z" />
    <glyph glyph-name="asciitilde" unicode="~" horiz-adv-x="280" 
d="M181 324v-103h-120v103h120z" />
    <glyph glyph-name="uni00A0" unicode="&#xa0;" horiz-adv-x="220" 
 />
    <glyph glyph-name="exclamdown" unicode="&#xa1;" horiz-adv-x="278" 
d="M91 -110v487h96v-487h-96zM199 475h-120v103h120v-103z" />
    <glyph glyph-name="cent" unicode="&#xa2;" horiz-adv-x="593" 
d="M468 191l87.998 0.000976562c-4 -42 -17.333 -78.167 -40 -108.5s-52 -53.5 -88 -69.5s-76.333 -24 -121 -24h-10.5c-3.66699 0 -7.16699 0.333008 -10.5 1l-15 -87l-72 13l15 88c-51.333 16 -93.666 44.667 -126.999 86s-50 94 -50 158c0 54 12 100.5 36 139.5
s56.167 69 96.5 90s84.833 31.5 133.5 31.5l18 100l72 -12l-16 -96c49.333 -10.667 90 -32.667 122 -66s51 -75.333 57 -126h-89c-8.66699 27.333 -22 50.166 -40 68.499s-39.667 31.5 -65 39.5l-61 -344h6c42.667 0 77.334 10.333 104.001 31s45.667 49.667 57 87z
M133.998 248.001c0 -39.333 8.83203 -72.501 26.499 -99.501s40.834 -46.833 69.501 -59.5l59 336c-28 -2.66699 -53.833 -11.167 -77.5 -25.5s-42.5 -34.166 -56.5 -59.499s-21 -56 -21 -92z" />
    <glyph glyph-name="sterling" unicode="&#xa3;" horiz-adv-x="529" 
d="M34 264v61h340v-61h-340zM248 210c0 -19.333 -3.5 -36.1689 -10.5 -50.502s-15.5 -26.5 -25.5 -36.5s-19.833 -17.833 -29.5 -23.5s-17.167 -9.83398 -22.5 -12.501h316v-87h-408v87l9.5 4.5c6.33301 3 14.333 7.66699 24 14s19.167 14.166 28.5 23.499
s17.166 20.5 23.499 33.5s9.5 27.833 9.5 44.5c0 13.333 -2.16699 26.333 -6.5 39s-10.166 25.667 -17.499 39l-2 6c-0.666992 2 -1.16699 4 -1.5 6s-0.833008 3.83301 -1.5 5.5s-1.66699 3.5 -3 5.5l-25.5 38c-9 13.333 -17.5 27.166 -25.5 41.499s-14.5 29.5 -19.5 45.5
s-7.5 32.667 -7.5 50c0 37.333 9.33301 69 28 95s44.167 46.167 76.5 60.5s69.166 21.5 110.499 21.5c32.667 0 62.5 -4.5 89.5 -13.5s50.333 -21.833 70 -38.5s34.834 -36.167 45.501 -58.5s16 -46.833 16 -73.5h-99c-0.666992 19.333 -6.33398 36.333 -17.001 51
s-25.167 26 -43.5 34s-38.166 12 -59.499 12s-41 -3.33301 -59 -10s-32.667 -17.167 -44 -31.5s-17 -33.166 -17 -56.499c0 -25.333 5 -49.166 15 -71.499s21.333 -43.666 34 -63.999s24 -41.166 34 -62.499s15 -43.666 15 -66.999z" />
    <glyph glyph-name="currency" unicode="&#xa4;" horiz-adv-x="598" 
d="M299 118c-40 0 -75.833 8.5 -107.5 25.5s-56.667 39.833 -75 68.5s-27.5 61 -27.5 97c0 36.667 9.16699 69.334 27.5 98.001s43.5 51.334 75.5 68.001s67.667 25 107 25c40 0 75.833 -8.33301 107.5 -25s56.667 -39.334 75 -68.001s27.5 -61.334 27.5 -98.001
c0 -36 -9.16699 -68.333 -27.5 -97s-43.333 -51.5 -75 -68.5s-67.5 -25.5 -107.5 -25.5zM299 198c34.667 0 63.334 10.833 86.001 32.5s34 47.834 34 78.501c0 31.333 -11.333 57.833 -34 79.5s-51.334 32.5 -86.001 32.5c-34 0 -62.5 -10.833 -85.5 -32.5
s-34.5 -48.167 -34.5 -79.5c0 -30.667 11.5 -56.834 34.5 -78.501s51.5 -32.5 85.5 -32.5zM116 67l-50 49l96 99l53 -45zM482 67l-99 103l56 43l94 -97zM166 399l-100 104l50 49l100 -104zM430 397l-49 50l101 105l51 -49z" />
    <glyph glyph-name="yen" unicode="&#xa5;" horiz-adv-x="640" 
d="M271 217l-248 432h111l212 -379h-48l208 379h111l-248 -432h-98zM271 0v104h98v-104h-98zM160 139h320v-69h-320v69zM160 249h320v-69h-320v69z" />
    <glyph glyph-name="brokenbar" unicode="&#xa6;" horiz-adv-x="288" 
d="M188 191v-351h-88v351h88zM188 800v-351h-88v351h88z" />
    <glyph glyph-name="section" unicode="&#xa7;" horiz-adv-x="476" 
d="M274 233l36.0039 5.00098c42 -15.333 73.167 -33 93.5 -53s30.5 -46.667 30.5 -80c0 -42.667 -16 -76.834 -48 -102.501s-74 -38.5 -126 -38.5c-42.667 0 -78.5 6.66699 -107.5 20s-52.167 29.666 -69.5 48.999s-29.5 38.666 -36.5 57.999s-9.83301 34.666 -8.5 45.999
h88c6 -23.333 19.5 -43.666 40.5 -60.999s49.833 -26.333 86.5 -27c29.333 -0.666992 51.166 4.83301 65.499 16.5s21.5 26.834 21.5 45.501c0 16 -4.66699 28.5 -14 37.5s-22 16.333 -38 22s-35 11.5 -57 17.5c-32 10 -63 21.167 -93 33.5s-54.333 28 -73 47
s-28 42.833 -28 71.5c0 20.667 6 39.334 18 56.001s31.833 29.334 59.5 38.001s64.5 11 110.5 7l-46 -6c-32.667 11.333 -59.334 23.166 -80.001 35.499s-35.834 26.166 -45.501 41.499s-14.5 33 -14.5 53c0 42 16.667 76.667 50 104s77.666 41 132.999 41
c58 0 104 -14.833 138 -44.5s51.333 -69.5 52 -119.5h-86c-4.66699 28 -16.167 48 -34.5 60s-42.5 18 -72.5 18c-25.333 0 -45.833 -5.66699 -61.5 -17s-23.5 -26 -23.5 -44c0 -15.333 5.16699 -27.5 15.5 -36.5s24.333 -16.333 42 -22l58.5 -19.5
c32 -9.33301 62.167 -19.666 90.5 -30.999s51.333 -26.5 69 -45.5s26.5 -45.167 26.5 -78.5c0 -30 -12.5 -54.833 -37.5 -74.5s-66.5 -27.167 -124.5 -22.5zM134.004 347.001c0 -15.333 5.49902 -27.9971 16.499 -37.9971s26.333 -18.833 46 -26.5
s41.834 -15.834 66.501 -24.501c23.333 3.33301 41.666 11.666 54.999 24.999s20 29.333 20 48c0 16.667 -4.83301 29.667 -14.5 39s-23.5 17.166 -41.5 23.499l-64 22.5c-25.333 -3.33301 -45.666 -11 -60.999 -23s-23 -27.333 -23 -46z" />
    <glyph glyph-name="dieresis" unicode="&#xa8;" horiz-adv-x="536" 
d="M219 705v-103h-120v103h120zM409 705v-103h-120v103h120z" />
    <glyph glyph-name="copyright" unicode="&#xa9;" horiz-adv-x="828" 
d="M415 12c-74 0 -138.167 13.167 -192.5 39.5s-96.5 63.5 -126.5 111.5s-45 104.333 -45 169c0 65.333 14.833 121.666 44.5 168.999s71.667 84 126 110s118.833 39 193.5 39c74 0 138 -13 192 -39s95.833 -62.667 125.5 -110s44.5 -103.666 44.5 -168.999
c0 -64.667 -15 -121 -45 -169s-72 -85.167 -126 -111.5s-117.667 -39.5 -191 -39.5zM415 86c42.667 0 81.501 5.66699 116.501 17s65 27.5 90 48.5s44.167 46.833 57.5 77.5s20 65 20 103c0 38.667 -6.66699 73 -20 103s-32.5 55.5 -57.5 76.5s-55 36.833 -90 47.5
s-73.833 16 -116.5 16c-44 0 -83.5 -5.33301 -118.5 -16s-65 -26.5 -90 -47.5s-44.167 -46.5 -57.5 -76.5s-20 -64.333 -20 -103c0 -38 6.66699 -72.333 20 -103s32.666 -56.5 57.999 -77.5s55.5 -37.167 90.5 -48.5s74.167 -17 117.5 -17zM571.001 312
c0 -24.667 -6.16797 -45.998 -18.501 -63.998s-29.833 -32 -52.5 -42s-49.667 -15 -81 -15c-48.667 0 -88 13 -118 39s-45 59.333 -45 100c0 27.333 6.83301 51.5 20.5 72.5s32.834 37.5 57.501 49.5s53 18 85 18c31.333 0 58.166 -5 80.499 -15s39.833 -23.833 52.5 -41.5
s19 -38.834 19 -63.501h-73c-3.33301 16 -12 28.333 -26 37s-31.667 13 -53 13c-25.333 0 -45.666 -6.5 -60.999 -19.5s-23 -29.833 -23 -50.5s7.5 -37.334 22.5 -50.001s35.5 -19 61.5 -19c22 0 40 4.5 54 13.5s22.333 21.5 25 37.5h73z" />
    <glyph glyph-name="ordfeminine" unicode="&#xaa;" horiz-adv-x="575" 
d="M239 298c-40 0 -75.3311 8.83301 -105.998 26.5s-54.334 41.667 -71.001 72s-25 64.166 -25 101.499c0 40.667 8.5 76.834 25.5 108.501s41.333 56.667 73 75s69.167 27.5 112.5 27.5c32 0 59.167 -5.66699 81.5 -17s40.666 -26.833 54.999 -46.5
s24.833 -42.167 31.5 -67.5s10 -52 10 -80c0 -16.667 -3.5 -36.334 -10.5 -59.001s-18 -44.667 -33 -66s-34.333 -39.166 -58 -53.499s-52.167 -21.5 -85.5 -21.5zM264.002 382c23.333 0 44.5 3.33203 63.5 9.99902s34.833 15.334 47.5 26.001s22.5 23 29.5 37
s10.5 28.333 10.5 43c0 19.333 -3.5 36.666 -10.5 51.999s-17 28.5 -30 39.5s-28.833 19.5 -47.5 25.5s-39.667 9 -63 9c-46 0 -79.167 -11.667 -99.5 -35s-30.5 -53.666 -30.5 -90.999c0 -32 11.167 -59.333 33.5 -82s54.5 -34 96.5 -34zM415.002 698.999h96.999v-391h-89
l-2 18c-1.33301 12 -2.66602 26 -3.99902 42s-2 29 -2 39v292z" />
    <glyph glyph-name="guillemotleft" unicode="&#xab;" horiz-adv-x="527" 
d="M276 531l61 -59l-184 -193l184 -193l-61 -59l-232 252zM379 405l59 -58l-66 -67l66 -68l-59 -58l-114 126z" />
    <glyph glyph-name="logicalnot" unicode="&#xac;" horiz-adv-x="638" 
d="M85 409h453v-249h-92v166h-361v83z" />
    <glyph glyph-name="uni00AD" unicode="&#xad;" horiz-adv-x="600" 
d="M80 311h305v-82h-305v82z" />
    <glyph glyph-name="registered" unicode="&#xae;" horiz-adv-x="774" 
d="M388 89c-64.667 0 -122.5 12.833 -173.5 38.5s-91 60.667 -120 105s-43.5 94.5 -43.5 150.5s14.333 105.833 43 149.5s68.5 78.167 119.5 103.5s109.167 38 174.5 38s123 -12.667 173 -38s89.5 -59.833 118.5 -103.5s43.5 -93.5 43.5 -149.5s-14.5 -106.167 -43.5 -150.5
s-68.667 -79.333 -119 -105s-107.833 -38.5 -172.5 -38.5zM388 164c38.667 0 73.6689 5.33301 105.002 16s58.333 25.667 81 45s40.167 42.5 52.5 69.5s18.5 56.5 18.5 88.5s-6 61.167 -18 87.5s-29.333 49.166 -52 68.499s-49.834 34.166 -81.501 44.499
s-66.834 15.5 -105.501 15.5c-39.333 0 -74.833 -5.16699 -106.5 -15.5s-58.834 -25.166 -81.501 -44.499s-40.167 -42.166 -52.5 -68.499s-18.5 -55.5 -18.5 -87.5s6.16699 -61.5 18.5 -88.5s29.833 -50.167 52.5 -69.5s49.834 -34.333 81.501 -45s67.167 -16 106.5 -16z
M271.002 252l-0.000976562 270h145c40.667 0 69.834 -7.66699 87.501 -23s26.5 -35.666 26.5 -60.999c0 -20 -4.16699 -36.667 -12.5 -50s-24.5 -21.666 -48.5 -24.999c16 -2 27.833 -5.66699 35.5 -11s13 -11.833 16 -19.5s4.5 -16.834 4.5 -27.501v-53h-73v51
c0 7.33301 -1 13.166 -3 17.499s-6.16699 7.5 -12.5 9.5s-16.833 3 -31.5 3h-61v-81h-73zM343.001 396l75.998 0.000976562c12.667 0 22.334 2.66699 29.001 8s10 13.333 10 24c0 9.33301 -3.16699 16.166 -9.5 20.499s-16.166 6.5 -29.499 6.5h-76v-59z" />
    <glyph glyph-name="macron" unicode="&#xaf;" horiz-adv-x="462" 
d="M100 612v73h262v-73h-262z" />
    <glyph glyph-name="degree" unicode="&#xb0;" horiz-adv-x="383" 
d="M191 399c-26.667 0 -50.667 5.66699 -72 17s-38.333 27 -51 47s-19 42.333 -19 67c0 25.333 6.33301 47.666 19 66.999s29.667 34.833 51 46.5s45.333 17.5 72 17.5c27.333 0 51.666 -5.83301 72.999 -17.5s38.333 -27.167 51 -46.5s19 -41.666 19 -66.999
c0 -24.667 -6.33301 -47 -19 -67s-29.667 -35.667 -51 -47s-45.666 -17 -72.999 -17zM191 465c22 0 39.5 6.33301 52.5 19s19.5 28 19.5 46s-6.5 33.167 -19.5 45.5s-30.5 18.5 -52.5 18.5c-21.333 0 -38.5 -6.16699 -51.5 -18.5s-19.5 -27.5 -19.5 -45.5
s6.5 -33.333 19.5 -46s30.167 -19 51.5 -19z" />
    <glyph glyph-name="plusminus" unicode="&#xb1;" horiz-adv-x="493" 
d="M50 252v78h393v-78h-393zM59 -10v74h375v-74h-375zM205 128v326h83v-326h-83z" />
    <glyph glyph-name="uni00B2" unicode="&#xb2;" horiz-adv-x="333" 
d="M143 461l139 4.00098v-65h-223v63c32 24 59.333 43.167 82 57.5s39.834 27 51.501 38s17.5 23.833 17.5 38.5c0 12.667 -4 23 -12 31s-19.667 12 -35 12c-16 0 -28.5 -5.66699 -37.5 -17s-11.167 -25 -6.5 -41h-66c-5.33301 23.333 -3.5 44.666 5.5 63.999
s23.167 34.833 42.5 46.5s41.666 17.5 66.999 17.5c37.333 0 65.833 -10.167 85.5 -30.5s29.5 -44.5 29.5 -72.5c0 -34 -12.167 -61.667 -36.5 -83s-58.833 -42.333 -103.5 -63z" />
    <glyph glyph-name="uni00B3" unicode="&#xb3;" horiz-adv-x="328" 
d="M208 549c46.667 -10 70.0029 -35.332 70.0029 -75.999c0 -22.667 -8.83301 -43.5 -26.5 -62.5s-46.167 -28.5 -85.5 -28.5c-42.667 0 -73.167 11.5 -91.5 34.5s-26.5 48.833 -24.5 77.5h66c-0.666992 -8.66699 2.16602 -17.834 8.49902 -27.501
s20.166 -14.5 41.499 -14.5c15.333 0 26.333 3.66699 33 11s10 16.333 10 27c0 22.667 -16 34 -48 34h-55v49h55c16 0 27.333 3.33301 34 10s10 15.334 10 26.001c0 22 -13.667 33 -41 33c-18.667 0 -31.5 -4 -38.5 -12s-10.167 -16.333 -9.5 -25h-61
c-4.66699 28 2.66602 52.5 21.999 73.5s49 31.5 89 31.5c35.333 0 62.166 -8.5 80.499 -25.5s27.5 -38.5 27.5 -64.5c0 -16.667 -5.16699 -31.334 -15.5 -44.001s-27.166 -21.667 -50.499 -27z" />
    <glyph glyph-name="acute" unicode="&#xb4;" horiz-adv-x="421" 
d="M94 601l116 160h127l-155 -160h-88z" />
    <glyph glyph-name="uni00B5" unicode="&#xb5;" horiz-adv-x="647" 
d="M636 -9c-46 0 -83.333 7.16602 -112 21.499s-49.667 34.833 -63 61.5s-20 58.334 -20 95.001v330h97v-322c0 -27.333 3.5 -47.833 10.5 -61.5s17.667 -22.667 32 -27s32.833 -6.5 55.5 -6.5v-91zM447 234.999l0.998047 -30
c-1.33301 -8.66699 -3.66602 -21.5 -6.99902 -38.5s-8.66602 -35.5 -15.999 -55.5s-17.833 -39.333 -31.5 -58s-31.167 -34 -52.5 -46s-47.333 -18 -78 -18c-28 0 -51.833 6.66699 -71.5 20s-34.834 33 -45.501 59l14 16v-284h-97v699h97v-299
c0 -31.333 5.16699 -55.833 15.5 -73.5s24.5 -30.167 42.5 -37.5s38 -11 60 -11c34.667 0 63.834 8.33301 87.501 25s42.167 37.167 55.5 61.5s22 47.833 26 70.5z" />
    <glyph glyph-name="paragraph" unicode="&#xb6;" horiz-adv-x="624" 
d="M545 649v-648.996h-95v257h-61v-257h-95v257h-45c-40 0 -76.667 7.66699 -110 23s-59.833 37.666 -79.5 66.999s-29.5 64.666 -29.5 105.999s9.83301 76.666 29.5 105.999s46 51.666 79 66.999s69.5 23 109.5 23h297zM253 345.004h197v214h-197
c-34.667 0 -64.167 -8 -88.5 -24s-36.5 -43.667 -36.5 -83s12.167 -67 36.5 -83s53.833 -24 88.5 -24z" />
    <glyph glyph-name="periodcentered" unicode="&#xb7;" horiz-adv-x="246" 
d="M183 324v-103h-120v103h120z" />
    <glyph glyph-name="cedilla" unicode="&#xb8;" horiz-adv-x="456" 
d="M306 16l-0.00195312 -105.999l-28 54c12 -3.33301 22.667 -7.83301 32 -13.5s17.833 -12.334 25.5 -20.001s13.5 -16.834 17.5 -27.501s6 -22.667 6 -36c0 -25.333 -10.5 -48.333 -31.5 -69s-52.833 -31 -95.5 -31c-27.333 0 -50.666 5.5 -69.999 16.5
s-33.666 25.333 -42.999 43s-12.666 36.167 -9.99902 55.5h70c0.666992 -4 2.5 -9.66699 5.5 -17s8.33301 -14 16 -20s18.834 -9 33.501 -9c17.333 0 29.166 4.5 35.499 13.5s9.5 18.167 9.5 27.5c0 6.66699 -1.5 13.834 -4.5 21.501s-8.83301 15.5 -17.5 23.5
s-22.334 15 -41.001 21v73h90z" />
    <glyph glyph-name="uni00B9" unicode="&#xb9;" horiz-adv-x="240" 
d="M40 636v64h147v-300h-68v236h-79z" />
    <glyph glyph-name="ordmasculine" unicode="&#xba;" horiz-adv-x="609" 
d="M306 288c-48 0 -89.833 8.83301 -125.5 26.5s-63.334 42.334 -83.001 74.001s-29.5 68.167 -29.5 109.5s9.83301 77.833 29.5 109.5s47.334 56.5 83.001 74.5s77.5 27 125.5 27s89.5 -9 124.5 -27s62.167 -42.833 81.5 -74.5s29 -68.167 29 -109.5
s-9.66699 -77.833 -29 -109.5s-46.5 -56.334 -81.5 -74.001s-76.5 -26.5 -124.5 -26.5zM306 369c29.333 0 54.5 5.66406 75.5 16.9971s37 26.666 48 45.999s16.5 41.333 16.5 66s-5.5 46.834 -16.5 66.501s-26.833 35.167 -47.5 46.5s-46 17 -76 17
s-55.5 -5.66699 -76.5 -17s-37.167 -26.666 -48.5 -45.999s-17 -41.666 -17 -66.999c0 -24.667 5.5 -46.667 16.5 -66s27.167 -34.666 48.5 -45.999s47 -17 77 -17z" />
    <glyph glyph-name="guillemotright" unicode="&#xbb;" horiz-adv-x="534" 
d="M181 472l61 59l232 -252l-232 -252l-61 59l184 193zM80 347l59 58l114 -125l-114 -126l-59 58l66 68z" />
    <glyph glyph-name="onequarter" unicode="&#xbc;" horiz-adv-x="808" 
d="M25 258v72h98v246h-93v73h181v-319h84v-72h-270zM605 700l54 -30l-382 -690l-52 32zM638 0v75h-171v67l175 249h79v-247h44v-69h-44v-75h-83zM554 143h85v135z" />
    <glyph glyph-name="onehalf" unicode="&#xbd;" horiz-adv-x="849" 
d="M25 258v72h98v246h-93v73h181v-319h84v-72h-270zM605 700l54 -30l-382 -690l-52 32zM809 0l-274.003 0.00195312v72c22.667 16 43.5 31.833 62.5 47.5s35.833 30.667 50.5 45s27.334 28.166 38.001 41.499s18.834 25.833 24.501 37.5s8.5 22.5 8.5 32.5
c0 33.333 -17.667 50 -53 50c-20 0 -34.667 -4.83301 -44 -14.5s-14.333 -18.834 -15 -27.501h-73c-2 21.333 2.5 40.833 13.5 58.5s27 31.667 48 42s45.5 15.5 73.5 15.5c27.333 0 50.833 -4.5 70.5 -13.5s34.834 -21.667 45.501 -38s16 -35.833 16 -58.5
c0 -24.667 -6 -47.667 -18 -69s-27.5 -41.333 -46.5 -60s-39.167 -36.667 -60.5 -54l-47 -35l180 1v-73z" />
    <glyph glyph-name="threequarters" unicode="&#xbe;" horiz-adv-x="782" 
d="M200 461c24 -2 44.501 -6.66797 61.501 -14.001s30 -17.333 39 -30s13.5 -29 13.5 -49c0 -34.667 -12.333 -63.5 -37 -86.5s-58 -34.5 -100 -34.5c-29.333 0 -55 5.66699 -77 17s-38.333 26.5 -49 45.5s-15.334 39.833 -14.001 62.5h69c0 -15.333 6 -27.833 18 -37.5
s29.667 -14.5 53 -14.5c21.333 0 36.5 4.83301 45.5 14.5s13.5 22.834 13.5 39.501s-6.5 30.167 -19.5 40.5s-32.167 15.5 -57.5 15.5h-34v59h34c26 0 44.5 4.33301 55.5 13s16.5 21 16.5 37c0 13.333 -5.16699 24 -15.5 32s-24.5 12 -42.5 12
c-18.667 0 -33.5 -4.16699 -44.5 -12.5s-16.833 -18.833 -17.5 -31.5h-69c-2 22.667 2.5 42.834 13.5 60.501s26.833 31.667 47.5 42s44 15.5 70 15.5c42 0 75 -10.5 99 -31.5s36 -44.833 36 -71.5c0 -28.667 -9.5 -50.334 -28.5 -65.001s-45.5 -24 -79.5 -28z
M578.001 699.999l54 -30l-382 -690l-52 32zM612.001 -0.000976562v75h-171v67l175 249h79v-247h44v-69h-44v-75h-83zM528.001 142.999h85v135z" />
    <glyph glyph-name="questiondown" unicode="&#xbf;" horiz-adv-x="559" 
d="M241 479v104h120v-104h-120zM407 75l96 0.000976562c0 -21.333 -3.16699 -41.833 -9.5 -61.5s-15.833 -38 -28.5 -55s-28 -31.833 -46 -44.5s-38.833 -22.667 -62.5 -30s-49.834 -11 -78.501 -11c-35.333 0 -66.666 5.16699 -93.999 15.5s-50.333 25 -69 44
s-33 41.167 -43 66.5s-15 52.666 -15 81.999c0 42 8.66699 77.333 26 106s41 51 71 67s63.333 25.667 100 29v99h96v-171h-36c-54 0 -94 -11.167 -120 -33.5s-39 -53.833 -39 -94.5c0 -38 11.833 -67.833 35.5 -89.5s54.167 -32.5 91.5 -32.5
c25.333 0 47.333 4.83301 66 14.5s33 23.167 43 40.5s15.333 37 16 59z" />
    <glyph glyph-name="Agrave" unicode="&#xc0;" horiz-adv-x="676" 
d="M161 160v87h350v-87h-350zM19 0l266 649h104l268 -649h-105l-234 586h38l-233 -586h-104zM296 736l-155 160h127l116 -160h-88z" />
    <glyph glyph-name="Aacute" unicode="&#xc1;" horiz-adv-x="676" 
d="M161 160v87h350v-87h-350zM19 0l266 649h104l268 -649h-105l-234 586h38l-233 -586h-104zM288 736l116 160h127l-155 -160h-88z" />
    <glyph glyph-name="Acircumflex" unicode="&#xc2;" horiz-adv-x="676" 
d="M161 160v87h350v-87h-350zM19 0l266 649h104l268 -649h-105l-234 586h38l-233 -586h-104zM384 896l144 -160h-110l-107 137h54l-107 -137h-111l145 160h92z" />
    <glyph glyph-name="Atilde" unicode="&#xc3;" horiz-adv-x="676" 
d="M161 160v87h350v-87h-350zM19 0l266 649h104l268 -649h-105l-234 586h38l-233 -586h-104zM411 736c-18 0 -33.833 3.16895 -47.5 9.50195s-26.167 13.833 -37.5 22.5s-22.833 16 -34.5 22s-24.834 9 -39.501 9c-13.333 0 -23.666 -3.33301 -30.999 -10
s-12.666 -14.834 -15.999 -24.501s-6 -19.167 -8 -28.5h-75c2.66699 24.667 9 47.334 19 68.001s23.333 37.167 40 49.5s37 18.5 61 18.5c18 0 34.167 -3 48.5 -9s27.5 -13.333 39.5 -22s23.5 -16.167 34.5 -22.5s22.833 -9.5 35.5 -9.5c13.333 0 23.666 3.5 30.999 10.5
s12.833 15.5 16.5 25.5s6.5 19.333 8.5 28h75c-3.33301 -24.667 -9.83301 -47.334 -19.5 -68.001s-23 -37.334 -40 -50.001s-37.167 -19 -60.5 -19z" />
    <glyph glyph-name="Adieresis" unicode="&#xc4;" horiz-adv-x="676" 
d="M161 160v87h350v-87h-350zM19 0l266 649h104l268 -649h-105l-234 586h38l-233 -586h-104zM187 651v-103h-120v103h120zM612 651v-103h-120v103h120z" />
    <glyph glyph-name="Aring" unicode="&#xc5;" horiz-adv-x="676" 
d="M161 160v87h350v-87h-350zM19 0l266 649h104l268 -649h-105l-234 586h38l-233 -586h-104zM338 712c-39.333 0 -71.5 10.167 -96.5 30.5s-37.5 47.5 -37.5 81.5c0 33.333 12.5 60.166 37.5 80.499s57.167 30.5 96.5 30.5s71.333 -10.167 96 -30.5s37 -47.166 37 -80.499
c0 -34 -12.333 -61.167 -37 -81.5s-56.667 -30.5 -96 -30.5zM338 768c22 0 38.167 4.83301 48.5 14.5s15.5 23.5 15.5 41.5c0 17.333 -5.16699 30.833 -15.5 40.5s-26.5 14.5 -48.5 14.5c-23.333 0 -40 -4.83301 -50 -14.5s-15 -23.167 -15 -40.5c0 -18 5 -31.833 15 -41.5
s26.667 -14.5 50 -14.5z" />
    <glyph glyph-name="AE" unicode="&#xc6;" horiz-adv-x="1000" 
d="M520 281v-194h420v-87h-518v586l21 -5l-320 -581h-104l365 649h555v-87h-419v-196h343v-85h-343zM169 172v83h306v-83h-306z" />
    <glyph glyph-name="Ccedilla" unicode="&#xc7;" horiz-adv-x="755" 
d="M311 -118c0.666992 -4 2.33203 -9.66797 4.99902 -17.001s8 -14 16 -20s19.333 -9 34 -9c17.333 0 29.166 4.5 35.499 13.5s9.5 18.167 9.5 27.5c0 6.66699 -1.5 13.834 -4.5 21.501s-9 15.5 -18 23.5s-22.833 15 -41.5 21l55 24c16.667 -4 31.5 -10.167 44.5 -18.5
s23.5 -19 31.5 -32s12 -29.5 12 -49.5c0 -25.333 -10.333 -48.333 -31 -69s-52.334 -31 -95.001 -31c-27.333 0 -50.666 5.5 -69.999 16.5s-33.666 25.333 -42.999 43s-12.666 36.167 -9.99902 55.5h70zM346.998 15.999h91v-82l-91 9v73zM702.998 221.999
c-6 -48 -22.6689 -89.501 -50.002 -124.501s-62.666 -61.833 -105.999 -80.5s-93.333 -28 -150 -28c-50 0 -96 7.5 -138 22.5s-78.5 37 -109.5 66s-55.167 64.167 -72.5 105.5s-26 88.333 -26 141s8.66699 99.667 26 141s41.5 76.5 72.5 105.5s67.5 51.167 109.5 66.5
s88 23 138 23c56.667 0 106.834 -9.5 150.501 -28.5s79.167 -46 106.5 -81s44 -77.167 50 -126.5h-93c-9.33301 31.333 -24 58 -44 80s-44.333 38.833 -73 50.5s-61 17.5 -97 17.5c-45.333 0 -86.666 -9.5 -123.999 -28.5s-67.166 -47 -89.499 -84
s-33.5 -82.167 -33.5 -135.5s11.167 -98.333 33.5 -135s52.166 -64.5 89.499 -83.5s78.666 -28.5 123.999 -28.5c36 0 68.167 5.66699 96.5 17s52.5 27.833 72.5 49.5s34.667 47.834 44 78.501h93z" />
    <glyph glyph-name="Egrave" unicode="&#xc8;" horiz-adv-x="657" 
d="M177 281v-194h420v-87h-518v649h517v-87h-419v-196h343v-85h-343zM297 736l-155 160h127l116 -160h-88z" />
    <glyph glyph-name="Eacute" unicode="&#xc9;" horiz-adv-x="657" 
d="M177 281v-194h420v-87h-518v649h517v-87h-419v-196h343v-85h-343zM290 736l116 160h127l-155 -160h-88z" />
    <glyph glyph-name="Ecircumflex" unicode="&#xca;" horiz-adv-x="657" 
d="M177 281v-194h420v-87h-518v649h517v-87h-419v-196h343v-85h-343zM385 896l144 -160h-110l-107 137h54l-107 -137h-111l145 160h92z" />
    <glyph glyph-name="Edieresis" unicode="&#xcb;" horiz-adv-x="657" 
d="M177 281v-194h420v-87h-518v649h517v-87h-419v-196h343v-85h-343zM305 840v-103h-120v103h120zM495 840v-103h-119v103h119z" />
    <glyph glyph-name="Igrave" unicode="&#xcc;" horiz-adv-x="295" 
d="M99 649h97v-649h-97v649zM105 736l-155 160h127l116 -160h-88z" />
    <glyph glyph-name="Iacute" unicode="&#xcd;" horiz-adv-x="295" 
d="M99 649h97v-649h-97v649zM98 736l116 160h127l-155 -160h-88z" />
    <glyph glyph-name="Icircumflex" unicode="&#xce;" horiz-adv-x="295" 
d="M99 649h97v-649h-97v649zM193 896l144 -160h-110l-107 137h54l-107 -137h-111l145 160h92z" />
    <glyph glyph-name="Idieresis" unicode="&#xcf;" horiz-adv-x="295" 
d="M99 649h97v-649h-97v649zM112 840v-103h-120v103h120zM302 840v-103h-119v103h119z" />
    <glyph glyph-name="Eth" unicode="&#xd0;" horiz-adv-x="752" 
d="M343 649c68 0 124.835 -8.49902 170.502 -25.499s82.167 -40.5 109.5 -70.5s47.166 -64.333 59.499 -103s18.5 -79.667 18.5 -123c0 -42.667 -6.5 -83.667 -19.5 -123s-33.667 -74.333 -62 -105s-65.333 -54.834 -111 -72.501s-100.834 -26.5 -165.501 -26.5h-264v649
h264zM177.002 88.001l165 0.000976562c51.333 0 93.666 6.83301 126.999 20.5s59.833 32 79.5 55s33.5 48.667 41.5 77s12 57.166 12 86.499c0 30 -4 58.833 -12 86.5s-21.833 52.667 -41.5 75s-46.167 40 -79.5 53s-75.666 19.5 -126.999 19.5h-165v-473z
M-0.998047 360.002h319v-70h-319v70z" />
    <glyph glyph-name="Ntilde" unicode="&#xd1;" horiz-adv-x="780" 
d="M632 107l-28 -10v552h97v-649h-97l-456 540l29 10v-550h-98v649h98zM470 736c-18 0 -33.833 3.16895 -47.5 9.50195s-26.167 13.833 -37.5 22.5s-22.833 16 -34.5 22s-24.834 9 -39.501 9c-13.333 0 -23.666 -3.33301 -30.999 -10s-12.666 -14.834 -15.999 -24.501
s-6 -19.167 -8 -28.5h-75c2.66699 24.667 9 47.334 19 68.001s23.333 37.167 40 49.5s37 18.5 61 18.5c18 0 34.167 -3 48.5 -9s27.5 -13.333 39.5 -22s23.5 -16.167 34.5 -22.5s22.833 -9.5 35.5 -9.5c13.333 0 23.666 3.5 30.999 10.5s12.833 15.5 16.5 25.5
s6.5 19.333 8.5 28h75c-3.33301 -24.667 -9.83301 -47.334 -19.5 -68.001s-23 -37.334 -40 -50.001s-37.167 -19 -60.5 -19z" />
    <glyph glyph-name="Ograve" unicode="&#xd2;" horiz-adv-x="801" 
d="M401 -11c-68.667 0 -129.167 13.667 -181.5 41s-93.5 66 -123.5 116s-45 109.333 -45 178c0 69.333 15 129 45 179s71.167 88.667 123.5 116s112.833 41 181.5 41c68 0 128.333 -13.667 181 -41s93.834 -66 123.501 -116s44.5 -109.667 44.5 -179
c0 -68.667 -14.833 -128 -44.5 -178s-70.834 -88.667 -123.501 -116s-113 -41 -181 -41zM401 77c48 0 90.667 9.33301 128 28s67 46.334 89 83.001s33 82 33 136c0 54.667 -11 100.167 -33 136.5s-51.667 64 -89 83s-80 28.5 -128 28.5c-47.333 0 -90 -9.5 -128 -28.5
s-68 -46.667 -90 -83s-33 -81.833 -33 -136.5c0 -54 11 -99.333 33 -136s52 -64.334 90 -83.001s80.667 -28 128 -28zM358 737l-155 160h127l116 -160h-88z" />
    <glyph glyph-name="Oacute" unicode="&#xd3;" horiz-adv-x="801" 
d="M401 -11c-68.667 0 -129.167 13.667 -181.5 41s-93.5 66 -123.5 116s-45 109.333 -45 178c0 69.333 15 129 45 179s71.167 88.667 123.5 116s112.833 41 181.5 41c68 0 128.333 -13.667 181 -41s93.834 -66 123.501 -116s44.5 -109.667 44.5 -179
c0 -68.667 -14.833 -128 -44.5 -178s-70.834 -88.667 -123.501 -116s-113 -41 -181 -41zM401 77c48 0 90.667 9.33301 128 28s67 46.334 89 83.001s33 82 33 136c0 54.667 -11 100.167 -33 136.5s-51.667 64 -89 83s-80 28.5 -128 28.5c-47.333 0 -90 -9.5 -128 -28.5
s-68 -46.667 -90 -83s-33 -81.833 -33 -136.5c0 -54 11 -99.333 33 -136s52 -64.334 90 -83.001s80.667 -28 128 -28zM351 737l116 160h127l-155 -160h-88z" />
    <glyph glyph-name="Ocircumflex" unicode="&#xd4;" horiz-adv-x="801" 
d="M401 -11c-68.667 0 -129.167 13.667 -181.5 41s-93.5 66 -123.5 116s-45 109.333 -45 178c0 69.333 15 129 45 179s71.167 88.667 123.5 116s112.833 41 181.5 41c68 0 128.333 -13.667 181 -41s93.834 -66 123.501 -116s44.5 -109.667 44.5 -179
c0 -68.667 -14.833 -128 -44.5 -178s-70.834 -88.667 -123.501 -116s-113 -41 -181 -41zM401 77c48 0 90.667 9.33301 128 28s67 46.334 89 83.001s33 82 33 136c0 54.667 -11 100.167 -33 136.5s-51.667 64 -89 83s-80 28.5 -128 28.5c-47.333 0 -90 -9.5 -128 -28.5
s-68 -46.667 -90 -83s-33 -81.833 -33 -136.5c0 -54 11 -99.333 33 -136s52 -64.334 90 -83.001s80.667 -28 128 -28zM446 897l144 -160h-110l-107 137h54l-107 -137h-111l145 160h92z" />
    <glyph glyph-name="Otilde" unicode="&#xd5;" horiz-adv-x="801" 
d="M401 -11c-68.667 0 -129.167 13.667 -181.5 41s-93.5 66 -123.5 116s-45 109.333 -45 178c0 69.333 15 129 45 179s71.167 88.667 123.5 116s112.833 41 181.5 41c68 0 128.333 -13.667 181 -41s93.834 -66 123.501 -116s44.5 -109.667 44.5 -179
c0 -68.667 -14.833 -128 -44.5 -178s-70.834 -88.667 -123.501 -116s-113 -41 -181 -41zM401 77c48 0 90.667 9.33301 128 28s67 46.334 89 83.001s33 82 33 136c0 54.667 -11 100.167 -33 136.5s-51.667 64 -89 83s-80 28.5 -128 28.5c-47.333 0 -90 -9.5 -128 -28.5
s-68 -46.667 -90 -83s-33 -81.833 -33 -136.5c0 -54 11 -99.333 33 -136s52 -64.334 90 -83.001s80.667 -28 128 -28zM474 737c-18 0 -33.833 3.16895 -47.5 9.50195s-26.167 13.833 -37.5 22.5s-22.833 16 -34.5 22s-24.834 9 -39.501 9
c-13.333 0 -23.666 -3.33301 -30.999 -10s-12.666 -14.834 -15.999 -24.501s-6 -19.167 -8 -28.5h-75c2.66699 24.667 9 47.334 19 68.001s23.333 37.167 40 49.5s37 18.5 61 18.5c18 0 34.167 -3 48.5 -9s27.5 -13.333 39.5 -22s23.5 -16.167 34.5 -22.5
s22.833 -9.5 35.5 -9.5c13.333 0 23.666 3.5 30.999 10.5s12.833 15.5 16.5 25.5s6.5 19.333 8.5 28h75c-3.33301 -24.667 -9.83301 -47.334 -19.5 -68.001s-23 -37.334 -40 -50.001s-37.167 -19 -60.5 -19z" />
    <glyph glyph-name="Odieresis" unicode="&#xd6;" horiz-adv-x="802" 
d="M401 -11c-68.667 0 -129.167 13.667 -181.5 41s-93.5 66 -123.5 116s-45 109.333 -45 178c0 69.333 15 129 45 179s71.167 88.667 123.5 116s112.833 41 181.5 41c68 0 128.333 -13.667 181 -41s93.834 -66 123.501 -116s44.5 -109.667 44.5 -179
c0 -68.667 -14.833 -128 -44.5 -178s-70.834 -88.667 -123.501 -116s-113 -41 -181 -41zM401 77c48 0 90.667 9.33301 128 28s67 46.334 89 83.001s33 82 33 136c0 54.667 -11 100.167 -33 136.5s-51.667 64 -89 83s-80 28.5 -128 28.5c-47.333 0 -90 -9.5 -128 -28.5
s-68 -46.667 -90 -83s-33 -81.833 -33 -136.5c0 -54 11 -99.333 33 -136s52 -64.334 90 -83.001s80.667 -28 128 -28zM145 687v-103h-120v103h120zM781 687v-103h-120v103h120z" />
    <glyph glyph-name="multiply" unicode="&#xd7;" horiz-adv-x="436" 
d="M108 103l275 275l-55 55l-275 -275zM328 103l55 55l-275 275l-55 -55z" />
    <glyph glyph-name="Oslash" unicode="&#xd8;" horiz-adv-x="801" 
d="M401 -11c-68.667 0 -129.167 13.667 -181.5 41s-93.5 66 -123.5 116s-45 109.333 -45 178c0 69.333 15 129 45 179s71.167 88.667 123.5 116s112.833 41 181.5 41c68 0 128.333 -13.667 181 -41s93.834 -66 123.501 -116s44.5 -109.667 44.5 -179
c0 -68.667 -14.833 -128 -44.5 -178s-70.834 -88.667 -123.501 -116s-113 -41 -181 -41zM401 77c48 0 90.667 9.33301 128 28s67 46.334 89 83.001s33 82 33 136c0 54.667 -11 100.167 -33 136.5s-51.667 64 -89 83s-80 28.5 -128 28.5c-47.333 0 -90 -9.5 -128 -28.5
s-68 -46.667 -90 -83s-33 -81.833 -33 -136.5c0 -54 11 -99.333 33 -136s52 -64.334 90 -83.001s80.667 -28 128 -28zM566 683l54 -30l-387 -700l-52 32z" />
    <glyph glyph-name="Ugrave" unicode="&#xd9;" horiz-adv-x="757" 
d="M580 262v387h98v-392c0 -38.667 -5 -72.667 -15 -102s-24 -54.666 -42 -75.999s-39.333 -38.5 -64 -51.5s-52 -22.667 -82 -29s-61.667 -9.5 -95 -9.5c-34.667 0 -67.167 3.16699 -97.5 9.5s-58 16 -83 29s-46.333 30.167 -64 51.5s-31.5 46.666 -41.5 75.999
s-15 63.333 -15 102v392h98v-387c0 -50 9 -88.333 27 -115s42.5 -45 73.5 -55s65.167 -15 102.5 -15c36.667 0 70 5 100 15s54.167 28.333 72.5 55s27.5 65 27.5 115zM338 736l-155 160h127l116 -160h-88z" />
    <glyph glyph-name="Uacute" unicode="&#xda;" horiz-adv-x="757" 
d="M580 262v387h98v-392c0 -38.667 -5 -72.667 -15 -102s-24 -54.666 -42 -75.999s-39.333 -38.5 -64 -51.5s-52 -22.667 -82 -29s-61.667 -9.5 -95 -9.5c-34.667 0 -67.167 3.16699 -97.5 9.5s-58 16 -83 29s-46.333 30.167 -64 51.5s-31.5 46.666 -41.5 75.999
s-15 63.333 -15 102v392h98v-387c0 -50 9 -88.333 27 -115s42.5 -45 73.5 -55s65.167 -15 102.5 -15c36.667 0 70 5 100 15s54.167 28.333 72.5 55s27.5 65 27.5 115zM330 736l116 160h127l-155 -160h-88z" />
    <glyph glyph-name="Ucircumflex" unicode="&#xdb;" horiz-adv-x="757" 
d="M580 262v387h98v-392c0 -38.667 -5 -72.667 -15 -102s-24 -54.666 -42 -75.999s-39.333 -38.5 -64 -51.5s-52 -22.667 -82 -29s-61.667 -9.5 -95 -9.5c-34.667 0 -67.167 3.16699 -97.5 9.5s-58 16 -83 29s-46.333 30.167 -64 51.5s-31.5 46.666 -41.5 75.999
s-15 63.333 -15 102v392h98v-387c0 -50 9 -88.333 27 -115s42.5 -45 73.5 -55s65.167 -15 102.5 -15c36.667 0 70 5 100 15s54.167 28.333 72.5 55s27.5 65 27.5 115zM426 896l144 -160h-110l-107 137h54l-107 -137h-111l145 160h92z" />
    <glyph glyph-name="Udieresis" unicode="&#xdc;" horiz-adv-x="757" 
d="M580 262v387h98v-392c0 -38.667 -5 -72.667 -15 -102s-24 -54.666 -42 -75.999s-39.333 -38.5 -64 -51.5s-52 -22.667 -82 -29s-61.667 -9.5 -95 -9.5c-34.667 0 -67.167 3.16699 -97.5 9.5s-58 16 -83 29s-46.333 30.167 -64 51.5s-31.5 46.666 -41.5 75.999
s-15 63.333 -15 102v392h98v-387c0 -50 9 -88.333 27 -115s42.5 -45 73.5 -55s65.167 -15 102.5 -15c36.667 0 70 5 100 15s54.167 28.333 72.5 55s27.5 65 27.5 115zM343 649v-103h-120v103h120zM533 649v-103h-119v103h119z" />
    <glyph glyph-name="Yacute" unicode="&#xdd;" horiz-adv-x="640" 
d="M617 649l-248 -432v-217h-98v217l-248 432h111l212 -379h-48l208 379h111zM270 736l116 160h127l-155 -160h-88z" />
    <glyph glyph-name="Thorn" unicode="&#xde;" horiz-adv-x="657" 
d="M381 537c32 0 62 -4.49707 90 -13.4971s52.5 -22.333 73.5 -40s37.333 -39.834 49 -66.501s17.5 -57.667 17.5 -93c0 -34.667 -5.83301 -65.334 -17.5 -92.001s-28 -48.834 -49 -66.501s-45.5 -31 -73.5 -40s-58 -13.5 -90 -13.5h-224v86h228c38 0 68.833 11.5 92.5 34.5
s35.5 53.5 35.5 91.5c0 39.333 -11.833 70.333 -35.5 93s-54.5 34 -92.5 34h-228v86h224zM77 649.003h98v-649h-98v649z" />
    <glyph glyph-name="germandbls" unicode="&#xdf;" horiz-adv-x="585" 
d="M302 -164l0.00292969 82.001c30 0 55.667 2.5 77 7.5s38.666 12.167 51.999 21.5s23 21 29 35s9 30.333 9 49c0 16.667 -2.83301 32 -8.5 46s-14.667 25.833 -27 35.5s-28.333 17.167 -48 22.5s-43.834 8 -72.501 8h-37v81l148 225l19 -36h-288v83h356v-78l-161 -251
l-8 38c30 -0.666992 58.5 -4 85.5 -10s51 -15.833 72 -29.5s37.333 -31.5 49 -53.5s17.5 -49 17.5 -81c0 -28.667 -6 -54.834 -18 -78.501s-29.333 -44.167 -52 -61.5s-50.334 -30.833 -83.001 -40.5s-69.667 -14.5 -111 -14.5zM74.0029 0.000976562l-0.000976562 528
c0 40 7.33301 72.667 22 98s35.334 43.833 62.001 55.5s58 17.5 94 17.5h68v-88h-61c-24.667 0.666992 -45.5 -5.33301 -62.5 -18s-25.5 -36 -25.5 -70v-523h-97z" />
    <glyph glyph-name="agrave" unicode="&#xe0;" horiz-adv-x="620" 
d="M270 -10c-42.667 0 -81.666 10.999 -116.999 32.999s-63.5 52.5 -84.5 91.5s-31.5 83.833 -31.5 134.5s10.667 95.5 32 134.5s50.166 69.667 86.499 92s77.5 33.5 123.5 33.5c50 0 89 -11.667 117 -35s47.667 -54.666 59 -93.999s17 -83 17 -131
c0 -26.667 -3.33301 -55 -10 -85s-17.5 -58.333 -32.5 -85s-35.5 -48.167 -61.5 -64.5s-58.667 -24.5 -98 -24.5zM297.001 73.999c36 0 66.167 7.66699 90.5 23s42.666 36.333 54.999 63s18.5 56.334 18.5 89.001c0 35.333 -6.33301 66.166 -19 92.499
s-31.167 46.833 -55.5 61.5s-54.166 22 -89.499 22c-51.333 0 -91.333 -16.5 -120 -49.5s-43 -75.167 -43 -126.5c0 -34.667 7 -65.167 21 -91.5s33.333 -46.833 58 -61.5s52.667 -22 84 -22zM461.001 498.999l96.999 0.00195312v-499h-89l-2 18.5
c-1.33301 12.333 -2.66602 27.166 -3.99902 44.499s-2 32.666 -2 45.999v390zM260 601.001l-155 160h127l116 -160h-88z" />
    <glyph glyph-name="aacute" unicode="&#xe1;" horiz-adv-x="620" 
d="M270 -10c-42.667 0 -81.666 10.999 -116.999 32.999s-63.5 52.5 -84.5 91.5s-31.5 83.833 -31.5 134.5s10.667 95.5 32 134.5s50.166 69.667 86.499 92s77.5 33.5 123.5 33.5c50 0 89 -11.667 117 -35s47.667 -54.666 59 -93.999s17 -83 17 -131
c0 -26.667 -3.33301 -55 -10 -85s-17.5 -58.333 -32.5 -85s-35.5 -48.167 -61.5 -64.5s-58.667 -24.5 -98 -24.5zM297.001 73.999c36 0 66.167 7.66699 90.5 23s42.666 36.333 54.999 63s18.5 56.334 18.5 89.001c0 35.333 -6.33301 66.166 -19 92.499
s-31.167 46.833 -55.5 61.5s-54.166 22 -89.499 22c-51.333 0 -91.333 -16.5 -120 -49.5s-43 -75.167 -43 -126.5c0 -34.667 7 -65.167 21 -91.5s33.333 -46.833 58 -61.5s52.667 -22 84 -22zM461.001 498.999l96.999 0.00195312v-499h-89l-2 18.5
c-1.33301 12.333 -2.66602 27.166 -3.99902 44.499s-2 32.666 -2 45.999v390zM252 601.001l116 160h127l-155 -160h-88z" />
    <glyph glyph-name="acircumflex" unicode="&#xe2;" horiz-adv-x="620" 
d="M270 -10c-42.667 0 -81.666 10.999 -116.999 32.999s-63.5 52.5 -84.5 91.5s-31.5 83.833 -31.5 134.5s10.667 95.5 32 134.5s50.166 69.667 86.499 92s77.5 33.5 123.5 33.5c50 0 89 -11.667 117 -35s47.667 -54.666 59 -93.999s17 -83 17 -131
c0 -26.667 -3.33301 -55 -10 -85s-17.5 -58.333 -32.5 -85s-35.5 -48.167 -61.5 -64.5s-58.667 -24.5 -98 -24.5zM297.001 73.999c36 0 66.167 7.66699 90.5 23s42.666 36.333 54.999 63s18.5 56.334 18.5 89.001c0 35.333 -6.33301 66.166 -19 92.499
s-31.167 46.833 -55.5 61.5s-54.166 22 -89.499 22c-51.333 0 -91.333 -16.5 -120 -49.5s-43 -75.167 -43 -126.5c0 -34.667 7 -65.167 21 -91.5s33.333 -46.833 58 -61.5s52.667 -22 84 -22zM461.001 498.999l96.999 0.00195312v-499h-89l-2 18.5
c-1.33301 12.333 -2.66602 27.166 -3.99902 44.499s-2 32.666 -2 45.999v390zM348 761.001l144 -160h-110l-107 137h54l-107 -137h-111l145 160h92z" />
    <glyph glyph-name="atilde" unicode="&#xe3;" horiz-adv-x="620" 
d="M270 -10c-42.667 0 -81.666 10.999 -116.999 32.999s-63.5 52.5 -84.5 91.5s-31.5 83.833 -31.5 134.5s10.667 95.5 32 134.5s50.166 69.667 86.499 92s77.5 33.5 123.5 33.5c50 0 89 -11.667 117 -35s47.667 -54.666 59 -93.999s17 -83 17 -131
c0 -26.667 -3.33301 -55 -10 -85s-17.5 -58.333 -32.5 -85s-35.5 -48.167 -61.5 -64.5s-58.667 -24.5 -98 -24.5zM297.001 73.999c36 0 66.167 7.66699 90.5 23s42.666 36.333 54.999 63s18.5 56.334 18.5 89.001c0 35.333 -6.33301 66.166 -19 92.499
s-31.167 46.833 -55.5 61.5s-54.166 22 -89.499 22c-51.333 0 -91.333 -16.5 -120 -49.5s-43 -75.167 -43 -126.5c0 -34.667 7 -65.167 21 -91.5s33.333 -46.833 58 -61.5s52.667 -22 84 -22zM461.001 498.999l96.999 0.00195312v-499h-89l-2 18.5
c-1.33301 12.333 -2.66602 27.166 -3.99902 44.499s-2 32.666 -2 45.999v390zM375 601.001c-18 0 -33.833 3.16895 -47.5 9.50195s-26.167 13.833 -37.5 22.5s-22.833 16 -34.5 22s-24.834 9 -39.501 9c-13.333 0 -23.666 -3.33301 -30.999 -10
s-12.666 -14.834 -15.999 -24.501s-6 -19.167 -8 -28.5h-75c2.66699 24.667 9 47.334 19 68.001s23.333 37.167 40 49.5s37 18.5 61 18.5c18 0 34.167 -3 48.5 -9s27.5 -13.333 39.5 -22s23.5 -16.167 34.5 -22.5s22.833 -9.5 35.5 -9.5c13.333 0 23.666 3.5 30.999 10.5
s12.833 15.5 16.5 25.5s6.5 19.333 8.5 28h75c-3.33301 -24.667 -9.83301 -47.334 -19.5 -68.001s-23 -37.334 -40 -50.001s-37.167 -19 -60.5 -19z" />
    <glyph glyph-name="adieresis" unicode="&#xe4;" horiz-adv-x="620" 
d="M270 -10c-42.667 0 -81.666 10.999 -116.999 32.999s-63.5 52.5 -84.5 91.5s-31.5 83.833 -31.5 134.5s10.667 95.5 32 134.5s50.166 69.667 86.499 92s77.5 33.5 123.5 33.5c50 0 89 -11.667 117 -35s47.667 -54.666 59 -93.999s17 -83 17 -131
c0 -26.667 -3.33301 -55 -10 -85s-17.5 -58.333 -32.5 -85s-35.5 -48.167 -61.5 -64.5s-58.667 -24.5 -98 -24.5zM297.001 73.999c36 0 66.167 7.66699 90.5 23s42.666 36.333 54.999 63s18.5 56.334 18.5 89.001c0 35.333 -6.33301 66.166 -19 92.499
s-31.167 46.833 -55.5 61.5s-54.166 22 -89.499 22c-51.333 0 -91.333 -16.5 -120 -49.5s-43 -75.167 -43 -126.5c0 -34.667 7 -65.167 21 -91.5s33.333 -46.833 58 -61.5s52.667 -22 84 -22zM461.001 498.999l96.999 0.00195312v-499h-89l-2 18.5
c-1.33301 12.333 -2.66602 27.166 -3.99902 44.499s-2 32.666 -2 45.999v390zM267 705.001v-103h-120v103h120zM457 705.001v-103h-119v103h119z" />
    <glyph glyph-name="aring" unicode="&#xe5;" horiz-adv-x="620" 
d="M270 -10c-42.667 0 -81.666 10.999 -116.999 32.999s-63.5 52.5 -84.5 91.5s-31.5 83.833 -31.5 134.5s10.667 95.5 32 134.5s50.166 69.667 86.499 92s77.5 33.5 123.5 33.5c50 0 89 -11.667 117 -35s47.667 -54.666 59 -93.999s17 -83 17 -131
c0 -26.667 -3.33301 -55 -10 -85s-17.5 -58.333 -32.5 -85s-35.5 -48.167 -61.5 -64.5s-58.667 -24.5 -98 -24.5zM297.001 73.999c36 0 66.167 7.66699 90.5 23s42.666 36.333 54.999 63s18.5 56.334 18.5 89.001c0 35.333 -6.33301 66.166 -19 92.499
s-31.167 46.833 -55.5 61.5s-54.166 22 -89.499 22c-51.333 0 -91.333 -16.5 -120 -49.5s-43 -75.167 -43 -126.5c0 -34.667 7 -65.167 21 -91.5s33.333 -46.833 58 -61.5s52.667 -22 84 -22zM461.001 498.999l96.999 0.00195312v-499h-89l-2 18.5
c-1.33301 12.333 -2.66602 27.166 -3.99902 44.499s-2 32.666 -2 45.999v390zM302 577.001c-39.333 0 -71.5 10.167 -96.5 30.5s-37.5 47.5 -37.5 81.5c0 33.333 12.5 60.166 37.5 80.499s57.167 30.5 96.5 30.5s71.333 -10.167 96 -30.5s37 -47.166 37 -80.499
c0 -34 -12.333 -61.167 -37 -81.5s-56.667 -30.5 -96 -30.5zM302 633.001c22 0 38.167 4.83301 48.5 14.5s15.5 23.5 15.5 41.5c0 17.333 -5.16699 30.833 -15.5 40.5s-26.5 14.5 -48.5 14.5c-23.333 0 -40 -4.83301 -50 -14.5s-15 -23.167 -15 -40.5
c0 -18 5 -31.833 15 -41.5s26.667 -14.5 50 -14.5z" />
    <glyph glyph-name="ae" unicode="&#xe6;" horiz-adv-x="1070" 
d="M270 -10c-42.667 0 -81.666 10.999 -116.999 32.999s-63.5 52.5 -84.5 91.5s-31.5 83.833 -31.5 134.5s10.667 95.5 32 134.5s50.166 69.667 86.499 92s77.5 33.5 123.5 33.5c50 0 89 -11.667 117 -35s47.667 -54.666 59 -93.999s17 -83 17 -131
c0 -26.667 -3.33301 -55 -10 -85s-17.5 -58.333 -32.5 -85s-35.5 -48.167 -61.5 -64.5s-58.667 -24.5 -98 -24.5zM297.001 73.999c36 0 66.167 7.66699 90.5 23s42.666 36.333 54.999 63s18.5 56.334 18.5 89.001c0 35.333 -6.33301 66.166 -19 92.499
s-31.167 46.833 -55.5 61.5s-54.166 22 -89.499 22c-51.333 0 -91.333 -16.5 -120 -49.5s-43 -75.167 -43 -126.5c0 -34.667 7 -65.167 21 -91.5s33.333 -46.833 58 -61.5s52.667 -22 84 -22zM461.001 498.999l97 -0.00195312v-499h-89
c-2 14.667 -3.83301 32.834 -5.5 54.501s-2.5 39.834 -2.5 54.501v390zM938.001 159.997h91.999c-5.33301 -32.667 -18 -62 -38 -88s-46.5 -46.667 -79.5 -62s-71.833 -23 -116.5 -23c-52 0 -98.5 10.833 -139.5 32.5s-73.333 52 -97 91s-35.5 84.167 -35.5 135.5
c0 52 11.5 97.5 34.5 136.5s54.667 69.5 95 91.5s86.5 33 138.5 33c54 0 99.5 -10.667 136.5 -32s64.333 -52.833 82 -94.5s24.834 -93.5 21.501 -155.5h-411c3.33301 -30 12.333 -56.667 27 -80s34.667 -41.5 60 -54.5s54.333 -19.5 87 -19.5
c36.667 0 67.5 8.16699 92.5 24.5s41.833 37.833 50.5 64.5zM792 423.997c-44 0 -80.334 -11.5 -109.001 -34.5s-47.334 -53.167 -56.001 -90.5h308c-3.33301 40 -18.166 70.833 -44.499 92.5s-59.166 32.5 -98.499 32.5z" />
    <glyph glyph-name="ccedilla" unicode="&#xe7;" horiz-adv-x="593" 
d="M223 -128c0.666992 -4 2.33203 -9.66797 4.99902 -17.001s8 -14 16 -20s19.333 -9 34 -9c17.333 0 29.166 4.5 35.499 13.5s9.5 18.167 9.5 27.5c0 6.66699 -1.5 13.834 -4.5 21.501s-9 15.5 -18 23.5s-22.833 15 -41.5 21l55 24c16.667 -4 31.5 -10.167 44.5 -18.5
s23.5 -19 31.5 -32s12 -29.5 12 -49.5c0 -25.333 -10.333 -48.333 -31 -69s-52.334 -31 -95.001 -31c-27.333 0 -50.666 5.5 -69.999 16.5s-33.666 25.333 -42.999 43s-12.666 36.167 -9.99902 55.5h70zM258.998 5.99902h91v-82l-91 9v73zM555.998 190.999
c-4 -42 -17.332 -78.1699 -39.999 -108.503s-52 -53.5 -88 -69.5s-76.333 -24 -121 -24c-49.333 0 -94.5 10.167 -135.5 30.5s-73.667 50 -98 89s-36.5 85.5 -36.5 139.5c0 54.667 12.167 101.5 36.5 140.5s57 68.833 98 89.5s86.167 31 135.5 31
c44.667 0 84.834 -8 120.501 -24s64.667 -38.833 87 -68.5s36.166 -65.5 41.499 -107.5h-89c-11.333 36.667 -31.333 65.334 -60 86.001s-62 31 -100 31c-30.667 0 -59.167 -6.83301 -85.5 -20.5s-47.5 -33.667 -63.5 -60s-24 -58.833 -24 -97.5
c0 -37.333 7.83301 -69.166 23.5 -95.499s36.667 -46.166 63 -59.499s55.166 -20 86.499 -20c42.667 0 77.5 10.333 104.5 31s45.833 49.667 56.5 87h88z" />
    <glyph glyph-name="egrave" unicode="&#xe8;" horiz-adv-x="583" 
d="M450 162h91.998c-5.33301 -32.667 -17.833 -62 -37.5 -88s-46 -46.667 -79 -62s-71.833 -23 -116.5 -23c-52 0 -98.667 10.833 -140 32.5s-73.666 52 -96.999 91s-35 84.167 -35 135.5c0 52 11.333 97.5 34 136.5s54.167 69.5 94.5 91.5s86.5 33 138.5 33
c54.667 0 100.334 -10.667 137.001 -32s64 -52.833 82 -94.5s25.333 -93.5 22 -155.5h-411c3.33301 -30 12.5 -56.667 27.5 -80s35 -41.5 60 -54.5s53.833 -19.5 86.5 -19.5c36.667 0 67.5 8.16699 92.5 24.5s41.5 37.833 49.5 64.5zM303.998 426
c-43.333 0 -79.332 -11.5 -107.999 -34.5s-47.667 -53.167 -57 -90.5h308c-2.66699 40 -17.334 70.833 -44.001 92.5s-59.667 32.5 -99 32.5zM260.999 601l-155 160h127l116 -160h-88z" />
    <glyph glyph-name="eacute" unicode="&#xe9;" horiz-adv-x="583" 
d="M450 162h91.998c-5.33301 -32.667 -17.833 -62 -37.5 -88s-46 -46.667 -79 -62s-71.833 -23 -116.5 -23c-52 0 -98.667 10.833 -140 32.5s-73.666 52 -96.999 91s-35 84.167 -35 135.5c0 52 11.333 97.5 34 136.5s54.167 69.5 94.5 91.5s86.5 33 138.5 33
c54.667 0 100.334 -10.667 137.001 -32s64 -52.833 82 -94.5s25.333 -93.5 22 -155.5h-411c3.33301 -30 12.5 -56.667 27.5 -80s35 -41.5 60 -54.5s53.833 -19.5 86.5 -19.5c36.667 0 67.5 8.16699 92.5 24.5s41.5 37.833 49.5 64.5zM303.998 426
c-43.333 0 -79.332 -11.5 -107.999 -34.5s-47.667 -53.167 -57 -90.5h308c-2.66699 40 -17.334 70.833 -44.001 92.5s-59.667 32.5 -99 32.5zM253.999 601l116 160h127l-155 -160h-88z" />
    <glyph glyph-name="ecircumflex" unicode="&#xea;" horiz-adv-x="583" 
d="M450 162h91.998c-5.33301 -32.667 -17.833 -62 -37.5 -88s-46 -46.667 -79 -62s-71.833 -23 -116.5 -23c-52 0 -98.667 10.833 -140 32.5s-73.666 52 -96.999 91s-35 84.167 -35 135.5c0 52 11.333 97.5 34 136.5s54.167 69.5 94.5 91.5s86.5 33 138.5 33
c54.667 0 100.334 -10.667 137.001 -32s64 -52.833 82 -94.5s25.333 -93.5 22 -155.5h-411c3.33301 -30 12.5 -56.667 27.5 -80s35 -41.5 60 -54.5s53.833 -19.5 86.5 -19.5c36.667 0 67.5 8.16699 92.5 24.5s41.5 37.833 49.5 64.5zM303.998 426
c-43.333 0 -79.332 -11.5 -107.999 -34.5s-47.667 -53.167 -57 -90.5h308c-2.66699 40 -17.334 70.833 -44.001 92.5s-59.667 32.5 -99 32.5zM348.999 761l144 -160h-110l-107 137h54l-107 -137h-111l145 160h92z" />
    <glyph glyph-name="edieresis" unicode="&#xeb;" horiz-adv-x="583" 
d="M450 162h91.998c-5.33301 -32.667 -17.833 -62 -37.5 -88s-46 -46.667 -79 -62s-71.833 -23 -116.5 -23c-52 0 -98.667 10.833 -140 32.5s-73.666 52 -96.999 91s-35 84.167 -35 135.5c0 52 11.333 97.5 34 136.5s54.167 69.5 94.5 91.5s86.5 33 138.5 33
c54.667 0 100.334 -10.667 137.001 -32s64 -52.833 82 -94.5s25.333 -93.5 22 -155.5h-411c3.33301 -30 12.5 -56.667 27.5 -80s35 -41.5 60 -54.5s53.833 -19.5 86.5 -19.5c36.667 0 67.5 8.16699 92.5 24.5s41.5 37.833 49.5 64.5zM303.998 426
c-43.333 0 -79.332 -11.5 -107.999 -34.5s-47.667 -53.167 -57 -90.5h308c-2.66699 40 -17.334 70.833 -44.001 92.5s-59.667 32.5 -99 32.5zM267.999 705v-103h-120v103h120zM457.999 705v-103h-119v103h119z" />
    <glyph glyph-name="igrave" unicode="&#xec;" horiz-adv-x="216" 
d="M59 499h97v-499h-97v499zM65 600l-155 160h127l116 -160h-88z" />
    <glyph glyph-name="iacute" unicode="&#xed;" horiz-adv-x="216" 
d="M59 499h97v-499h-97v499zM58 600l116 160h127l-155 -160h-88z" />
    <glyph glyph-name="icircumflex" unicode="&#xee;" horiz-adv-x="216" 
d="M59 499h97v-499h-97v499zM153 760l144 -160h-110l-107 137h54l-107 -137h-111l145 160h92z" />
    <glyph glyph-name="idieresis" unicode="&#xef;" horiz-adv-x="216" 
d="M59 499h97v-499h-97v499zM101 705v-103h-120v103h120zM244 705v-103h-120v103h120z" />
    <glyph glyph-name="eth" unicode="&#xf0;" horiz-adv-x="597" 
d="M299 74c26 0 49.001 4.33398 69.001 13.001s36.833 21 50.5 37s24.167 34.5 31.5 55.5s11 43.833 11 68.5c0 26.667 -3.83301 50.667 -11.5 72s-18.5 39.666 -32.5 54.999s-31 27 -51 35s-42.667 12 -68 12c-51.333 0 -91.5 -16.333 -120.5 -49s-43.5 -74.667 -43.5 -126
s15.167 -93 45.5 -125s70.166 -48 119.499 -48zM411.001 710.001l48 -52l-112 -102l-44 53zM132.001 633.001l26.0029 76.999c54 -16.667 101.167 -35.667 141.5 -57s75.166 -44.5 104.499 -69.5s53.5 -51.167 72.5 -78.5s34.167 -55.166 45.5 -83.499
s19.166 -56.333 23.499 -84s6.5 -54.834 6.5 -81.501c0 -27.333 -3.5 -54 -10.5 -80s-17.5 -50.167 -31.5 -72.5s-31.333 -42.166 -52 -59.499s-44.334 -30.833 -71.001 -40.5s-56.667 -14.5 -90 -14.5c-53.333 0 -99.333 11.167 -138 33.5s-68.667 53 -90 92
s-32 83.833 -32 134.5c0 38 5.66699 72.833 17 104.5s27.333 58.834 48 81.501s45.167 40.167 73.5 52.5s59.166 18.5 92.499 18.5c30.667 0 57.334 -4.33301 80.001 -13s42 -20.834 58 -36.501s28.667 -34.167 38 -55.5l-4 4c-9.33301 23.333 -22 46 -38 68
s-36.333 42.5 -61 61.5s-54.167 36.667 -88.5 53s-74.5 31.5 -120.5 45.5z" />
    <glyph glyph-name="ntilde" unicode="&#xf1;" horiz-adv-x="600" 
d="M63 499h97v-499h-97v499zM352 509c28 0 53.333 -4 76 -12s42.167 -19.833 58.5 -35.5s29 -35 38 -58s13.5 -49.5 13.5 -79.5v-324h-97v303c0 40 -9.33301 69.667 -28 89s-47.667 29 -87 29c-30 0 -57.5 -6.83301 -82.5 -20.5s-45.333 -32 -61 -55
s-25.167 -48.833 -28.5 -77.5l-1 55c3.33301 26.667 10.5 51.167 21.5 73.5s25.167 42 42.5 59s37.333 30.167 60 39.5s47.667 14 75 14zM401 601c-18 0 -33.833 3.16895 -47.5 9.50195s-26.167 13.833 -37.5 22.5s-22.833 16 -34.5 22s-24.834 9 -39.501 9
c-13.333 0 -23.666 -3.33301 -30.999 -10s-12.666 -14.834 -15.999 -24.501s-6 -19.167 -8 -28.5h-75c2.66699 24.667 9 47.334 19 68.001s23.333 37.167 40 49.5s37 18.5 61 18.5c18 0 34.167 -3 48.5 -9s27.5 -13.333 39.5 -22s23.5 -16.167 34.5 -22.5
s22.833 -9.5 35.5 -9.5c13.333 0 23.666 3.5 30.999 10.5s12.833 15.5 16.5 25.5s6.5 19.333 8.5 28h75c-3.33301 -24.667 -9.83301 -47.334 -19.5 -68.001s-23 -37.334 -40 -50.001s-37.167 -19 -60.5 -19z" />
    <glyph glyph-name="ograve" unicode="&#xf2;" horiz-adv-x="609" 
d="M306 -11c-49.333 0 -94.5 10.333 -135.5 31s-73.5 50.334 -97.5 89.001s-36 85 -36 139c0 54.667 12 101.5 36 140.5s56.5 68.833 97.5 89.5s86.167 31 135.5 31s94.166 -10.333 134.499 -31s72.5 -50.5 96.5 -89.5s36 -85.833 36 -140.5c0 -54 -12 -100.333 -36 -139
s-56.167 -68.334 -96.5 -89.001s-85.166 -31 -134.499 -31zM306 73c30 0 57.833 6.66699 83.5 20s46.334 33.166 62.001 59.499s23.5 58.166 23.5 95.499c0 38 -7.83301 70.167 -23.5 96.5s-36.334 46.5 -62.001 60.5s-53.5 21 -83.5 21c-30.667 0 -59 -6.83301 -85 -20.5
s-47 -33.667 -63 -60s-24 -58.833 -24 -97.5c0 -37.333 7.83301 -69.166 23.5 -95.499s36.667 -46.166 63 -59.499s54.833 -20 85.5 -20zM263 601l-155 160h127l116 -160h-88z" />
    <glyph glyph-name="oacute" unicode="&#xf3;" horiz-adv-x="609" 
d="M306 -11c-49.333 0 -94.5 10.333 -135.5 31s-73.5 50.334 -97.5 89.001s-36 85 -36 139c0 54.667 12 101.5 36 140.5s56.5 68.833 97.5 89.5s86.167 31 135.5 31s94.166 -10.333 134.499 -31s72.5 -50.5 96.5 -89.5s36 -85.833 36 -140.5c0 -54 -12 -100.333 -36 -139
s-56.167 -68.334 -96.5 -89.001s-85.166 -31 -134.499 -31zM306 73c30 0 57.833 6.66699 83.5 20s46.334 33.166 62.001 59.499s23.5 58.166 23.5 95.499c0 38 -7.83301 70.167 -23.5 96.5s-36.334 46.5 -62.001 60.5s-53.5 21 -83.5 21c-30.667 0 -59 -6.83301 -85 -20.5
s-47 -33.667 -63 -60s-24 -58.833 -24 -97.5c0 -37.333 7.83301 -69.166 23.5 -95.499s36.667 -46.166 63 -59.499s54.833 -20 85.5 -20zM256 601l116 160h127l-155 -160h-88z" />
    <glyph glyph-name="ocircumflex" unicode="&#xf4;" horiz-adv-x="609" 
d="M306 -11c-49.333 0 -94.5 10.333 -135.5 31s-73.5 50.334 -97.5 89.001s-36 85 -36 139c0 54.667 12 101.5 36 140.5s56.5 68.833 97.5 89.5s86.167 31 135.5 31s94.166 -10.333 134.499 -31s72.5 -50.5 96.5 -89.5s36 -85.833 36 -140.5c0 -54 -12 -100.333 -36 -139
s-56.167 -68.334 -96.5 -89.001s-85.166 -31 -134.499 -31zM306 73c30 0 57.833 6.66699 83.5 20s46.334 33.166 62.001 59.499s23.5 58.166 23.5 95.499c0 38 -7.83301 70.167 -23.5 96.5s-36.334 46.5 -62.001 60.5s-53.5 21 -83.5 21c-30.667 0 -59 -6.83301 -85 -20.5
s-47 -33.667 -63 -60s-24 -58.833 -24 -97.5c0 -37.333 7.83301 -69.166 23.5 -95.499s36.667 -46.166 63 -59.499s54.833 -20 85.5 -20zM351 761l144 -160h-110l-107 137h54l-107 -137h-111l145 160h92z" />
    <glyph glyph-name="otilde" unicode="&#xf5;" horiz-adv-x="609" 
d="M306 -11c-49.333 0 -94.5 10.333 -135.5 31s-73.5 50.334 -97.5 89.001s-36 85 -36 139c0 54.667 12 101.5 36 140.5s56.5 68.833 97.5 89.5s86.167 31 135.5 31s94.166 -10.333 134.499 -31s72.5 -50.5 96.5 -89.5s36 -85.833 36 -140.5c0 -54 -12 -100.333 -36 -139
s-56.167 -68.334 -96.5 -89.001s-85.166 -31 -134.499 -31zM306 73c30 0 57.833 6.66699 83.5 20s46.334 33.166 62.001 59.499s23.5 58.166 23.5 95.499c0 38 -7.83301 70.167 -23.5 96.5s-36.334 46.5 -62.001 60.5s-53.5 21 -83.5 21c-30.667 0 -59 -6.83301 -85 -20.5
s-47 -33.667 -63 -60s-24 -58.833 -24 -97.5c0 -37.333 7.83301 -69.166 23.5 -95.499s36.667 -46.166 63 -59.499s54.833 -20 85.5 -20zM379 601c-18 0 -33.833 3.16895 -47.5 9.50195s-26.167 13.833 -37.5 22.5s-22.833 16 -34.5 22s-24.834 9 -39.501 9
c-13.333 0 -23.666 -3.33301 -30.999 -10s-12.666 -14.834 -15.999 -24.501s-6 -19.167 -8 -28.5h-75c2.66699 24.667 9 47.334 19 68.001s23.333 37.167 40 49.5s37 18.5 61 18.5c18 0 34.167 -3 48.5 -9s27.5 -13.333 39.5 -22s23.5 -16.167 34.5 -22.5
s22.833 -9.5 35.5 -9.5c13.333 0 23.666 3.5 30.999 10.5s12.833 15.5 16.5 25.5s6.5 19.333 8.5 28h75c-3.33301 -24.667 -9.83301 -47.334 -19.5 -68.001s-23 -37.334 -40 -50.001s-37.167 -19 -60.5 -19z" />
    <glyph glyph-name="odieresis" unicode="&#xf6;" horiz-adv-x="609" 
d="M306 -11c-49.333 0 -94.5 10.333 -135.5 31s-73.5 50.334 -97.5 89.001s-36 85 -36 139c0 54.667 12 101.5 36 140.5s56.5 68.833 97.5 89.5s86.167 31 135.5 31s94.166 -10.333 134.499 -31s72.5 -50.5 96.5 -89.5s36 -85.833 36 -140.5c0 -54 -12 -100.333 -36 -139
s-56.167 -68.334 -96.5 -89.001s-85.166 -31 -134.499 -31zM306 73c30 0 57.833 6.66699 83.5 20s46.334 33.166 62.001 59.499s23.5 58.166 23.5 95.499c0 38 -7.83301 70.167 -23.5 96.5s-36.334 46.5 -62.001 60.5s-53.5 21 -83.5 21c-30.667 0 -59 -6.83301 -85 -20.5
s-47 -33.667 -63 -60s-24 -58.833 -24 -97.5c0 -37.333 7.83301 -69.166 23.5 -95.499s36.667 -46.166 63 -59.499s54.833 -20 85.5 -20zM271 705v-103h-120v103h120zM461 705v-103h-119v103h119z" />
    <glyph glyph-name="divide" unicode="&#xf7;" horiz-adv-x="497" 
d="M50 310h397v-82h-397v82zM290 176v-99h-119v99h119zM290 460v-100h-119v100h119z" />
    <glyph glyph-name="oslash" unicode="&#xf8;" horiz-adv-x="609" 
d="M434 531l54 -30l-315 -532l-52 32zM306 -11c-49.333 0 -94.5 10.333 -135.5 31s-73.5 50.334 -97.5 89.001s-36 85 -36 139c0 54.667 12 101.5 36 140.5s56.5 68.833 97.5 89.5s86.167 31 135.5 31s94.166 -10.333 134.499 -31s72.5 -50.5 96.5 -89.5
s36 -85.833 36 -140.5c0 -54 -12 -100.333 -36 -139s-56.167 -68.334 -96.5 -89.001s-85.166 -31 -134.499 -31zM306 73c30 0 57.833 6.66699 83.5 20s46.334 33.166 62.001 59.499s23.5 58.166 23.5 95.499c0 38 -7.83301 70.167 -23.5 96.5s-36.334 46.5 -62.001 60.5
s-53.5 21 -83.5 21c-30.667 0 -59 -6.83301 -85 -20.5s-47 -33.667 -63 -60s-24 -58.833 -24 -97.5c0 -37.333 7.83301 -69.166 23.5 -95.499s36.667 -46.166 63 -59.499s54.833 -20 85.5 -20z" />
    <glyph glyph-name="ugrave" unicode="&#xf9;" horiz-adv-x="600" 
d="M538 0h-97v499h97v-499zM447 235l0.998047 -30.001c-1.33301 -8.66699 -3.83301 -21.5 -7.5 -38.5s-9.66699 -35.5 -18 -55.5s-19.666 -39.333 -33.999 -58s-32.5 -34 -54.5 -46s-49 -18 -81 -18c-22 0 -44.167 3 -66.5 9s-42.833 16 -61.5 30s-33.667 33.167 -45 57.5
s-17 54.833 -17 91.5v322h97v-301c0 -30.667 5 -54.667 15 -72s23.833 -29.666 41.5 -36.999s37.834 -11 60.501 -11c34.667 0 64 8.33301 88 25s42.667 37.167 56 61.5s22 47.833 26 70.5zM265.998 600.999l-155 160h127l116 -160h-88z" />
    <glyph glyph-name="uacute" unicode="&#xfa;" horiz-adv-x="600" 
d="M538 0h-97v499h97v-499zM447 235l0.998047 -30.001c-1.33301 -8.66699 -3.83301 -21.5 -7.5 -38.5s-9.66699 -35.5 -18 -55.5s-19.666 -39.333 -33.999 -58s-32.5 -34 -54.5 -46s-49 -18 -81 -18c-22 0 -44.167 3 -66.5 9s-42.833 16 -61.5 30s-33.667 33.167 -45 57.5
s-17 54.833 -17 91.5v322h97v-301c0 -30.667 5 -54.667 15 -72s23.833 -29.666 41.5 -36.999s37.834 -11 60.501 -11c34.667 0 64 8.33301 88 25s42.667 37.167 56 61.5s22 47.833 26 70.5zM258.998 600.999l116 160h127l-155 -160h-88z" />
    <glyph glyph-name="ucircumflex" unicode="&#xfb;" horiz-adv-x="600" 
d="M538 0h-97v499h97v-499zM447 235l0.998047 -30.001c-1.33301 -8.66699 -3.83301 -21.5 -7.5 -38.5s-9.66699 -35.5 -18 -55.5s-19.666 -39.333 -33.999 -58s-32.5 -34 -54.5 -46s-49 -18 -81 -18c-22 0 -44.167 3 -66.5 9s-42.833 16 -61.5 30s-33.667 33.167 -45 57.5
s-17 54.833 -17 91.5v322h97v-301c0 -30.667 5 -54.667 15 -72s23.833 -29.666 41.5 -36.999s37.834 -11 60.501 -11c34.667 0 64 8.33301 88 25s42.667 37.167 56 61.5s22 47.833 26 70.5zM353.998 760.999l144 -160h-110l-107 137h54l-107 -137h-111l145 160h92z" />
    <glyph glyph-name="udieresis" unicode="&#xfc;" horiz-adv-x="600" 
d="M538 0h-97v499h97v-499zM447 235l0.998047 -30.001c-1.33301 -8.66699 -3.83301 -21.5 -7.5 -38.5s-9.66699 -35.5 -18 -55.5s-19.666 -39.333 -33.999 -58s-32.5 -34 -54.5 -46s-49 -18 -81 -18c-22 0 -44.167 3 -66.5 9s-42.833 16 -61.5 30s-33.667 33.167 -45 57.5
s-17 54.833 -17 91.5v322h97v-301c0 -30.667 5 -54.667 15 -72s23.833 -29.666 41.5 -36.999s37.834 -11 60.501 -11c34.667 0 64 8.33301 88 25s42.667 37.167 56 61.5s22 47.833 26 70.5zM272.998 704.999v-103h-120v103h120zM462.998 704.999v-103h-119v103h119z" />
    <glyph glyph-name="yacute" unicode="&#xfd;" horiz-adv-x="550" 
d="M18 499h104l191 -479l-84 -20zM531 499l-301 -699h-103l130 271l171 428h103zM224 601l116 160h127l-155 -160h-88z" />
    <glyph glyph-name="thorn" unicode="&#xfe;" horiz-adv-x="621" 
d="M351 -11c-39.333 0 -72.001 8.33105 -98.001 24.998s-46.5 38.334 -61.5 65.001s-25.833 55 -32.5 85s-10 58.333 -10 85c0 36 3.16699 69.667 9.5 101s17 59 32 83s35.5 42.667 61.5 56s59 20 99 20c43.333 0 82.5 -11.167 117.5 -33.5s63 -53.166 84 -92.499
s31.5 -84 31.5 -134c0 -51.333 -10.667 -96.5 -32 -135.5s-49.666 -69.5 -84.999 -91.5s-74 -33 -116 -33zM322.999 73.998c32.667 0 61.1689 7.33008 85.502 21.9971s43.333 35.167 57 61.5s20.5 56.833 20.5 91.5c0 51.333 -14.167 93.5 -42.5 126.5
s-68.5 49.5 -120.5 49.5c-31.333 0 -59.333 -7.33301 -84 -22s-44 -35.167 -58 -61.5s-21 -57.166 -21 -92.499c0 -33.333 6.16699 -63.166 18.5 -89.499s30.666 -47.166 54.999 -62.499s54.166 -23 89.499 -23zM63.001 697.995h97v-313v-585h-97v898z" />
    <glyph glyph-name="ydieresis" unicode="&#xff;" horiz-adv-x="550" 
d="M18 499h104l191 -479l-84 -20zM531 499l-301 -699h-103l130 271l171 428h103zM238 705v-103h-120v103h120zM428 705v-103h-119v103h119z" />
    <glyph glyph-name="Amacron" unicode="&#x100;" horiz-adv-x="676" 
d="M161 160v87h350v-87h-350zM19 0l266 649h104l268 -649h-105l-234 586h38l-233 -586h-104zM207 747v73h262v-73h-262z" />
    <glyph glyph-name="amacron" unicode="&#x101;" horiz-adv-x="620" 
d="M270 -10c-42.667 0 -81.666 10.999 -116.999 32.999s-63.5 52.5 -84.5 91.5s-31.5 83.833 -31.5 134.5s10.667 95.5 32 134.5s50.166 69.667 86.499 92s77.5 33.5 123.5 33.5c50 0 89 -11.667 117 -35s47.667 -54.666 59 -93.999s17 -83 17 -131
c0 -26.667 -3.33301 -55 -10 -85s-17.5 -58.333 -32.5 -85s-35.5 -48.167 -61.5 -64.5s-58.667 -24.5 -98 -24.5zM297.001 73.999c36 0 66.167 7.66699 90.5 23s42.666 36.333 54.999 63s18.5 56.334 18.5 89.001c0 35.333 -6.33301 66.166 -19 92.499
s-31.167 46.833 -55.5 61.5s-54.166 22 -89.499 22c-51.333 0 -91.333 -16.5 -120 -49.5s-43 -75.167 -43 -126.5c0 -34.667 7 -65.167 21 -91.5s33.333 -46.833 58 -61.5s52.667 -22 84 -22zM461.001 498.999l96.999 0.00195312v-499h-89l-2 18.5
c-1.33301 12.333 -2.66602 27.166 -3.99902 44.499s-2 32.666 -2 45.999v390zM171 612.001v73h262v-73h-262z" />
    <glyph glyph-name="Abreve" unicode="&#x102;" horiz-adv-x="676" 
d="M161 160v87h350v-87h-350zM19 0l266 649h104l268 -649h-105l-234 586h38l-233 -586h-104zM498 865c-1.33301 -29.333 -7.83398 -55.5 -19.501 -78.5s-29.167 -41.167 -52.5 -54.5s-52.666 -20 -87.999 -20s-64.5 6.66699 -87.5 20s-40.5 31.5 -52.5 54.5
s-18.667 49.167 -20 78.5h78c2 -27.333 9.66699 -47.5 23 -60.5s33 -19.5 59 -19.5s45.667 6.5 59 19.5s21 33.167 23 60.5h78z" />
    <glyph glyph-name="abreve" unicode="&#x103;" horiz-adv-x="620" 
d="M270 -10c-42.667 0 -81.666 10.999 -116.999 32.999s-63.5 52.5 -84.5 91.5s-31.5 83.833 -31.5 134.5s10.667 95.5 32 134.5s50.166 69.667 86.499 92s77.5 33.5 123.5 33.5c50 0 89 -11.667 117 -35s47.667 -54.666 59 -93.999s17 -83 17 -131
c0 -26.667 -3.33301 -55 -10 -85s-17.5 -58.333 -32.5 -85s-35.5 -48.167 -61.5 -64.5s-58.667 -24.5 -98 -24.5zM297.001 73.999c36 0 66.167 7.66699 90.5 23s42.666 36.333 54.999 63s18.5 56.334 18.5 89.001c0 35.333 -6.33301 66.166 -19 92.499
s-31.167 46.833 -55.5 61.5s-54.166 22 -89.499 22c-51.333 0 -91.333 -16.5 -120 -49.5s-43 -75.167 -43 -126.5c0 -34.667 7 -65.167 21 -91.5s33.333 -46.833 58 -61.5s52.667 -22 84 -22zM461.001 498.999l96.999 0.00195312v-499h-89l-2 18.5
c-1.33301 12.333 -2.66602 27.166 -3.99902 44.499s-2 32.666 -2 45.999v390zM462 730.001c-1.33301 -29.333 -7.83398 -55.5 -19.501 -78.5s-29.167 -41.167 -52.5 -54.5s-52.666 -20 -87.999 -20s-64.5 6.66699 -87.5 20s-40.5 31.5 -52.5 54.5s-18.667 49.167 -20 78.5
h78c2 -27.333 9.66699 -47.5 23 -60.5s33 -19.5 59 -19.5s45.667 6.5 59 19.5s21 33.167 23 60.5h78z" />
    <glyph glyph-name="Aogonek" unicode="&#x104;" horiz-adv-x="676" 
d="M648 -209c-55.333 0 -99.8311 11 -133.498 33s-50.5 51.667 -50.5 89c0 25.333 7.16699 46 21.5 62s33.833 28.5 58.5 37.5s51.667 15.167 81 18.5v-22c-22.667 -4.66699 -42.334 -14 -59.001 -28s-25 -32.333 -25 -55c0 -15.333 4.16699 -28.5 12.5 -39.5
s20.666 -19.667 36.999 -26s35.5 -9.5 57.5 -9.5v-60zM161.002 160v87h350v-87h-350zM19.002 0l266 649h104l268 -649h-105l-234 586h38l-233 -586h-104z" />
    <glyph glyph-name="aogonek" unicode="&#x105;" horiz-adv-x="620" 
d="M543 -218c-55.333 0 -99.8311 11 -133.498 33s-50.5 51.667 -50.5 89c0 25.333 7.33301 46 22 62s34.167 28.5 58.5 37.5s51.166 15.167 80.499 18.5v-22c-22.667 -4.66699 -42.334 -14 -59.001 -28s-25 -32.333 -25 -55c0 -15.333 4.33301 -28.5 13 -39.5
s21 -19.667 37 -26s35 -9.5 57 -9.5v-60zM270.002 -10c-42.667 0 -81.666 10.999 -116.999 32.999s-63.5 52.5 -84.5 91.5s-31.5 83.833 -31.5 134.5s10.667 95.5 32 134.5s50.166 69.667 86.499 92s77.5 33.5 123.5 33.5c50 0 89 -11.667 117 -35
s47.667 -54.666 59 -93.999s17 -83 17 -131c0 -26.667 -3.33301 -55 -10 -85s-17.5 -58.333 -32.5 -85s-35.5 -48.167 -61.5 -64.5s-58.667 -24.5 -98 -24.5zM297.003 73.999c36 0 66.167 7.66699 90.5 23s42.666 36.333 54.999 63s18.5 56.334 18.5 89.001
c0 35.333 -6.33301 66.166 -19 92.499s-31.167 46.833 -55.5 61.5s-54.166 22 -89.499 22c-51.333 0 -91.333 -16.5 -120 -49.5s-43 -75.167 -43 -126.5c0 -34.667 7 -65.167 21 -91.5s33.333 -46.833 58 -61.5s52.667 -22 84 -22zM461.003 498.999l96.999 0.00195312v-499
h-89l-2 18.5c-1.33301 12.333 -2.66602 27.166 -3.99902 44.499s-2 32.666 -2 45.999v390z" />
    <glyph glyph-name="Cacute" unicode="&#x106;" horiz-adv-x="755" 
d="M703 222c-6 -48 -22.6689 -89.501 -50.002 -124.501s-62.666 -61.833 -105.999 -80.5s-93.333 -28 -150 -28c-50 0 -96 7.5 -138 22.5s-78.5 37 -109.5 66s-55.167 64.167 -72.5 105.5s-26 88.333 -26 141s8.66699 99.667 26 141s41.5 76.5 72.5 105.5
s67.5 51.167 109.5 66.5s88 23 138 23c56.667 0 106.834 -9.5 150.501 -28.5s79.167 -46 106.5 -81s44 -77.167 50 -126.5h-93c-9.33301 31.333 -24 58 -44 80s-44.333 38.833 -73 50.5s-61 17.5 -97 17.5c-45.333 0 -86.666 -9.5 -123.999 -28.5s-67.166 -47 -89.499 -84
s-33.5 -82.167 -33.5 -135.5s11.167 -98.333 33.5 -135s52.166 -64.5 89.499 -83.5s78.666 -28.5 123.999 -28.5c36 0 68.167 5.66699 96.5 17s52.5 27.833 72.5 49.5s34.667 47.834 44 78.501h93zM340.998 736.999l116 160h127l-155 -160h-88z" />
    <glyph glyph-name="cacute" unicode="&#x107;" horiz-adv-x="593" 
d="M556 191c-4 -42 -17.332 -78.1699 -39.999 -108.503s-52 -53.5 -88 -69.5s-76.333 -24 -121 -24c-49.333 0 -94.5 10.167 -135.5 30.5s-73.667 50 -98 89s-36.5 85.5 -36.5 139.5c0 54.667 12.167 101.5 36.5 140.5s57 68.833 98 89.5s86.167 31 135.5 31
c44.667 0 84.834 -8 120.501 -24s64.667 -38.833 87 -68.5s36.166 -65.5 41.499 -107.5h-89c-11.333 36.667 -31.333 65.334 -60 86.001s-62 31 -100 31c-30.667 0 -59.167 -6.83301 -85.5 -20.5s-47.5 -33.667 -63.5 -60s-24 -58.833 -24 -97.5
c0 -37.333 7.83301 -69.166 23.5 -95.499s36.667 -46.166 63 -59.499s55.166 -20 86.499 -20c42.667 0 77.5 10.333 104.5 31s45.833 49.667 56.5 87h88zM251.001 600.997l116 160h127l-155 -160h-88z" />
    <glyph glyph-name="Cdotaccent" unicode="&#x10a;" horiz-adv-x="755" 
d="M703 222c-6 -48 -22.6689 -89.501 -50.002 -124.501s-62.666 -61.833 -105.999 -80.5s-93.333 -28 -150 -28c-50 0 -96 7.5 -138 22.5s-78.5 37 -109.5 66s-55.167 64.167 -72.5 105.5s-26 88.333 -26 141s8.66699 99.667 26 141s41.5 76.5 72.5 105.5
s67.5 51.167 109.5 66.5s88 23 138 23c56.667 0 106.834 -9.5 150.501 -28.5s79.167 -46 106.5 -81s44 -77.167 50 -126.5h-93c-9.33301 31.333 -24 58 -44 80s-44.333 38.833 -73 50.5s-61 17.5 -97 17.5c-45.333 0 -86.666 -9.5 -123.999 -28.5s-67.166 -47 -89.499 -84
s-33.5 -82.167 -33.5 -135.5s11.167 -98.333 33.5 -135s52.166 -64.5 89.499 -83.5s78.666 -28.5 123.999 -28.5c36 0 68.167 5.66699 96.5 17s52.5 27.833 72.5 49.5s34.667 47.834 44 78.501h93zM449.998 841.999v-103h-119v103h119z" />
    <glyph glyph-name="cdotaccent" unicode="&#x10b;" horiz-adv-x="593" 
d="M556 191c-4 -42 -17.332 -78.1699 -39.999 -108.503s-52 -53.5 -88 -69.5s-76.333 -24 -121 -24c-49.333 0 -94.5 10.167 -135.5 30.5s-73.667 50 -98 89s-36.5 85.5 -36.5 139.5c0 54.667 12.167 101.5 36.5 140.5s57 68.833 98 89.5s86.167 31 135.5 31
c44.667 0 84.834 -8 120.501 -24s64.667 -38.833 87 -68.5s36.166 -65.5 41.499 -107.5h-89c-11.333 36.667 -31.333 65.334 -60 86.001s-62 31 -100 31c-30.667 0 -59.167 -6.83301 -85.5 -20.5s-47.5 -33.667 -63.5 -60s-24 -58.833 -24 -97.5
c0 -37.333 7.83301 -69.166 23.5 -95.499s36.667 -46.166 63 -59.499s55.166 -20 86.499 -20c42.667 0 77.5 10.333 104.5 31s45.833 49.667 56.5 87h88zM360.001 705.997v-103h-119v103h119z" />
    <glyph glyph-name="Ccaron" unicode="&#x10c;" horiz-adv-x="755" 
d="M703 222c-6 -48 -22.6689 -89.501 -50.002 -124.501s-62.666 -61.833 -105.999 -80.5s-93.333 -28 -150 -28c-50 0 -96 7.5 -138 22.5s-78.5 37 -109.5 66s-55.167 64.167 -72.5 105.5s-26 88.333 -26 141s8.66699 99.667 26 141s41.5 76.5 72.5 105.5
s67.5 51.167 109.5 66.5s88 23 138 23c56.667 0 106.834 -9.5 150.501 -28.5s79.167 -46 106.5 -81s44 -77.167 50 -126.5h-93c-9.33301 31.333 -24 58 -44 80s-44.333 38.833 -73 50.5s-61 17.5 -97 17.5c-45.333 0 -86.666 -9.5 -123.999 -28.5s-67.166 -47 -89.499 -84
s-33.5 -82.167 -33.5 -135.5s11.167 -98.333 33.5 -135s52.166 -64.5 89.499 -83.5s78.666 -28.5 123.999 -28.5c36 0 68.167 5.66699 96.5 17s52.5 27.833 72.5 49.5s34.667 47.834 44 78.501h93zM421.998 761.999h-54l103 135h110l-140 -160h-92l-140 160h110z" />
    <glyph glyph-name="ccaron" unicode="&#x10d;" horiz-adv-x="593" 
d="M556 191c-4 -42 -17.332 -78.1699 -39.999 -108.503s-52 -53.5 -88 -69.5s-76.333 -24 -121 -24c-49.333 0 -94.5 10.167 -135.5 30.5s-73.667 50 -98 89s-36.5 85.5 -36.5 139.5c0 54.667 12.167 101.5 36.5 140.5s57 68.833 98 89.5s86.167 31 135.5 31
c44.667 0 84.834 -8 120.501 -24s64.667 -38.833 87 -68.5s36.166 -65.5 41.499 -107.5h-89c-11.333 36.667 -31.333 65.334 -60 86.001s-62 31 -100 31c-30.667 0 -59.167 -6.83301 -85.5 -20.5s-47.5 -33.667 -63.5 -60s-24 -58.833 -24 -97.5
c0 -37.333 7.83301 -69.166 23.5 -95.499s36.667 -46.166 63 -59.499s55.166 -20 86.499 -20c42.667 0 77.5 10.333 104.5 31s45.833 49.667 56.5 87h88zM331.001 625.997h-54l103 135h110l-140 -160h-92l-140 160h110z" />
    <glyph glyph-name="Dcaron" unicode="&#x10e;" horiz-adv-x="752" 
d="M343 649c68 0 124.835 -8.49902 170.502 -25.499s82.167 -40.5 109.5 -70.5s47.166 -64.333 59.499 -103s18.5 -79.667 18.5 -123c0 -42.667 -6.5 -83.667 -19.5 -123s-33.667 -74.333 -62 -105s-65.333 -54.834 -111 -72.501s-100.834 -26.5 -165.501 -26.5h-264v649
h264zM177.002 88.001l165 0.000976562c51.333 0 93.666 6.83301 126.999 20.5s59.833 32 79.5 55s33.5 48.667 41.5 77s12 57.166 12 86.499c0 30 -4 58.833 -12 86.5s-21.833 52.667 -41.5 75s-46.167 40 -79.5 53s-75.666 19.5 -126.999 19.5h-165v-473zM384.002 768.002
h-54l103 135h110l-140 -160h-92l-140 160h110z" />
    <glyph glyph-name="dcaron" unicode="&#x10f;" horiz-adv-x="638" 
d="M270 -10c-43.333 0 -82.667 11 -118 33s-63.333 52.5 -84 91.5s-31 83.833 -31 134.5s10 95.5 30 134.5s47.5 69.667 82.5 92s75.167 33.5 120.5 33.5c40 0 73 -6.66699 99 -20s46.5 -32 61.5 -56s25.667 -51.667 32 -83s9.5 -65 9.5 -101
c0 -26.667 -3.33301 -55 -10 -85s-17.5 -58.333 -32.5 -85s-35.5 -48.167 -61.5 -64.5s-58.667 -24.5 -98 -24.5zM296.999 74c36 0 66.167 7.66699 90.5 23s42.666 36.333 54.999 63s18.5 56.334 18.5 89.001c0 35.333 -6.33301 66.166 -19 92.499
s-31.167 46.833 -55.5 61.5s-54.166 22 -89.499 22c-51.333 0 -91.333 -16.5 -120 -49.5s-43 -75.167 -43 -126.5c0 -34.667 7 -65.167 21 -91.5s33.333 -46.833 58 -61.5s52.667 -22 84 -22zM460.999 699l97 -0.00195312v-699h-89c-2 14.667 -3.83301 32.834 -5.5 54.501
s-2.5 39.834 -2.5 54.501v590zM690.999 492.998h-53l-28 126v80h110v-80z" />
    <glyph glyph-name="Dcroat" unicode="&#x110;" horiz-adv-x="752" 
d="M343 649c68 0 124.835 -8.49902 170.502 -25.499s82.167 -40.5 109.5 -70.5s47.166 -64.333 59.499 -103s18.5 -79.667 18.5 -123c0 -42.667 -6.5 -83.667 -19.5 -123s-33.667 -74.333 -62 -105s-65.333 -54.834 -111 -72.501s-100.834 -26.5 -165.501 -26.5h-264v649
h264zM177.002 88.001l165 0.000976562c51.333 0 93.666 6.83301 126.999 20.5s59.833 32 79.5 55s33.5 48.667 41.5 77s12 57.166 12 86.499c0 30 -4 58.833 -12 86.5s-21.833 52.667 -41.5 75s-46.167 40 -79.5 53s-75.666 19.5 -126.999 19.5h-165v-473z
M-0.998047 360.002h319v-70h-319v70z" />
    <glyph glyph-name="dcroat" unicode="&#x111;" horiz-adv-x="638" 
d="M270 -10c-43.333 0 -82.667 11 -118 33s-63.333 52.5 -84 91.5s-31 83.833 -31 134.5s10 95.5 30 134.5s47.5 69.667 82.5 92s75.167 33.5 120.5 33.5c40 0 73 -6.66699 99 -20s46.5 -32 61.5 -56s25.667 -51.667 32 -83s9.5 -65 9.5 -101
c0 -26.667 -3.33301 -55 -10 -85s-17.5 -58.333 -32.5 -85s-35.5 -48.167 -61.5 -64.5s-58.667 -24.5 -98 -24.5zM296.999 74c36 0 66.167 7.66699 90.5 23s42.666 36.333 54.999 63s18.5 56.334 18.5 89.001c0 35.333 -6.33301 66.166 -19 92.499
s-31.167 46.833 -55.5 61.5s-54.166 22 -89.499 22c-51.333 0 -91.333 -16.5 -120 -49.5s-43 -75.167 -43 -126.5c0 -34.667 7 -65.167 21 -91.5s33.333 -46.833 58 -61.5s52.667 -22 84 -22zM460.999 699l97 -0.00195312v-699h-89c-2 14.667 -3.83301 32.834 -5.5 54.501
s-2.5 39.834 -2.5 54.501v590zM302.999 647.998h319v-70h-319v70z" />
    <glyph glyph-name="Emacron" unicode="&#x112;" horiz-adv-x="657" 
d="M177 281v-194h420v-87h-518v649h517v-87h-419v-196h343v-85h-343zM209 747v73h262v-73h-262z" />
    <glyph glyph-name="emacron" unicode="&#x113;" horiz-adv-x="583" 
d="M450 162h91.998c-5.33301 -32.667 -17.833 -62 -37.5 -88s-46 -46.667 -79 -62s-71.833 -23 -116.5 -23c-52 0 -98.667 10.833 -140 32.5s-73.666 52 -96.999 91s-35 84.167 -35 135.5c0 52 11.333 97.5 34 136.5s54.167 69.5 94.5 91.5s86.5 33 138.5 33
c54.667 0 100.334 -10.667 137.001 -32s64 -52.833 82 -94.5s25.333 -93.5 22 -155.5h-411c3.33301 -30 12.5 -56.667 27.5 -80s35 -41.5 60 -54.5s53.833 -19.5 86.5 -19.5c36.667 0 67.5 8.16699 92.5 24.5s41.5 37.833 49.5 64.5zM303.998 426
c-43.333 0 -79.332 -11.5 -107.999 -34.5s-47.667 -53.167 -57 -90.5h308c-2.66699 40 -17.334 70.833 -44.001 92.5s-59.667 32.5 -99 32.5zM171.999 612v73h262v-73h-262z" />
    <glyph glyph-name="Edotaccent" unicode="&#x116;" horiz-adv-x="657" 
d="M177 281v-194h420v-87h-518v649h517v-87h-419v-196h343v-85h-343zM399 841v-103h-119v103h119z" />
    <glyph glyph-name="edotaccent" unicode="&#x117;" horiz-adv-x="583" 
d="M450 162h91.998c-5.33301 -32.667 -17.833 -62 -37.5 -88s-46 -46.667 -79 -62s-71.833 -23 -116.5 -23c-52 0 -98.667 10.833 -140 32.5s-73.666 52 -96.999 91s-35 84.167 -35 135.5c0 52 11.333 97.5 34 136.5s54.167 69.5 94.5 91.5s86.5 33 138.5 33
c54.667 0 100.334 -10.667 137.001 -32s64 -52.833 82 -94.5s25.333 -93.5 22 -155.5h-411c3.33301 -30 12.5 -56.667 27.5 -80s35 -41.5 60 -54.5s53.833 -19.5 86.5 -19.5c36.667 0 67.5 8.16699 92.5 24.5s41.5 37.833 49.5 64.5zM303.998 426
c-43.333 0 -79.332 -11.5 -107.999 -34.5s-47.667 -53.167 -57 -90.5h308c-2.66699 40 -17.334 70.833 -44.001 92.5s-59.667 32.5 -99 32.5zM362.999 706v-103h-119v103h119z" />
    <glyph glyph-name="Eogonek" unicode="&#x118;" horiz-adv-x="657" 
d="M620 -218c-55.333 0 -99.8301 11 -133.497 33s-50.5 51.667 -50.5 89c0 25.333 7.16699 46 21.5 62s33.666 28.5 57.999 37.5s51.5 15.167 81.5 18.5v-22c-22.667 -4.66699 -42.334 -14 -59.001 -28s-25 -32.333 -25 -55c0 -15.333 4.16699 -28.5 12.5 -39.5
s20.666 -19.667 36.999 -26s35.5 -9.5 57.5 -9.5v-60zM177.003 281v-194h420v-87h-518v649h517v-87h-419v-196h343v-85h-343z" />
    <glyph glyph-name="eogonek" unicode="&#x119;" horiz-adv-x="583" 
d="M461 -218c-56 0 -100.665 11.001 -133.998 33.001s-50 51.667 -50 89c0 25.333 7.16699 46.333 21.5 63s33.833 30.667 58.5 42s51.667 21.666 81 30.999v-22c-22.667 -13.333 -42.334 -27.833 -59.001 -43.5s-25 -34.834 -25 -57.501
c0 -15.333 4.16699 -28.666 12.5 -39.999s20.666 -20 36.999 -26s35.5 -9 57.5 -9v-60zM450.002 162.001h91.998c-5.33301 -32.667 -17.833 -62 -37.5 -88s-46 -46.667 -79 -62s-71.833 -23 -116.5 -23c-52 0 -98.667 10.833 -140 32.5s-73.666 52 -96.999 91
s-35 84.167 -35 135.5c0 52 11.333 97.5 34 136.5s54.167 69.5 94.5 91.5s86.5 33 138.5 33c54.667 0 100.334 -10.667 137.001 -32s64 -52.833 82 -94.5s25.333 -93.5 22 -155.5h-411c3.33301 -30 12.5 -56.667 27.5 -80s35 -41.5 60 -54.5s53.833 -19.5 86.5 -19.5
c36.667 0 67.5 8.16699 92.5 24.5s41.5 37.833 49.5 64.5zM304 426.001c-43.333 0 -79.332 -11.5 -107.999 -34.5s-47.667 -53.167 -57 -90.5h308c-2.66699 40 -17.334 70.833 -44.001 92.5s-59.667 32.5 -99 32.5z" />
    <glyph glyph-name="Ecaron" unicode="&#x11a;" horiz-adv-x="657" 
d="M177 281v-194h420v-87h-518v649h517v-87h-419v-196h343v-85h-343zM371 761h-54l103 135h110l-140 -160h-92l-140 160h110z" />
    <glyph glyph-name="ecaron" unicode="&#x11b;" horiz-adv-x="583" 
d="M450 162h91.998c-5.33301 -32.667 -17.833 -62 -37.5 -88s-46 -46.667 -79 -62s-71.833 -23 -116.5 -23c-52 0 -98.667 10.833 -140 32.5s-73.666 52 -96.999 91s-35 84.167 -35 135.5c0 52 11.333 97.5 34 136.5s54.167 69.5 94.5 91.5s86.5 33 138.5 33
c54.667 0 100.334 -10.667 137.001 -32s64 -52.833 82 -94.5s25.333 -93.5 22 -155.5h-411c3.33301 -30 12.5 -56.667 27.5 -80s35 -41.5 60 -54.5s53.833 -19.5 86.5 -19.5c36.667 0 67.5 8.16699 92.5 24.5s41.5 37.833 49.5 64.5zM303.998 426
c-43.333 0 -79.332 -11.5 -107.999 -34.5s-47.667 -53.167 -57 -90.5h308c-2.66699 40 -17.334 70.833 -44.001 92.5s-59.667 32.5 -99 32.5zM333.999 626h-54l103 135h110l-140 -160h-92l-140 160h110z" />
    <glyph glyph-name="Gbreve" unicode="&#x11e;" horiz-adv-x="785" 
d="M387 -11c-51.333 0 -97.666 7.66504 -138.999 22.998s-76.666 37.333 -105.999 66s-51.833 63.5 -67.5 104.5s-23.5 86.5 -23.5 136.5c0 51.333 8.33301 98 25 140s40.5 78 71.5 108s67.667 53 110 69s88.833 24 139.5 24c58 0 108.667 -9.66699 152 -29
s78 -46.666 104 -81.999s41.333 -76.666 46 -123.999h-88c-8.66699 30 -22.834 56 -42.501 78s-43.834 39 -72.501 51s-61.667 18 -99 18c-50 0 -93.5 -10.833 -130.5 -32.5s-65.667 -51.5 -86 -89.5s-30.5 -81.667 -30.5 -131c0 -48.667 9.16699 -91.167 27.5 -127.5
s45.333 -64.5 81 -84.5s79.167 -30 130.5 -30c39.333 0 74 6.83301 104 20.5s54.5 33 73.5 58s32.167 54.833 39.5 89.5l50 6c-10 -86 -38.833 -151.167 -86.5 -195.5s-108.5 -66.5 -182.5 -66.5zM634 -0.00195312c0 21.333 0.832031 45.833 2.49902 73.5
s3.83398 55.667 6.50098 84l7 76.5h-246v78h320v-312h-90zM554.999 865.998c-1.33301 -29.333 -7.83398 -55.5 -19.501 -78.5s-29.167 -41.167 -52.5 -54.5s-52.666 -20 -87.999 -20s-64.5 6.66699 -87.5 20s-40.5 31.5 -52.5 54.5s-18.667 49.167 -20 78.5h78
c2 -27.333 9.66699 -47.5 23 -60.5s33 -19.5 59 -19.5s45.667 6.5 59 19.5s21 33.167 23 60.5h78z" />
    <glyph glyph-name="gbreve" unicode="&#x11f;" horiz-adv-x="582" 
d="M265 78c-41.333 0 -79.334 8.33496 -114.001 25.002s-62.334 41 -83.001 73s-31 70.667 -31 116c0 44.667 10 83.167 30 115.5s47.333 57.333 82 75s73.334 26.5 116.001 26.5c12.667 0 24.834 -0.833008 36.501 -2.5s23.167 -4.16699 34.5 -7.5h219v-90
c-30.667 -0.666992 -61.334 4.16602 -92.001 14.499s-57 20.833 -79 31.5l-4 5c23.333 -12 43.333 -26.333 60 -43s29.667 -35.667 39 -57s14 -44.666 14 -69.999c0 -44.667 -10 -82.834 -30 -114.501s-47.167 -55.834 -81.5 -72.501s-73.166 -25 -116.499 -25z
M418.999 -201.998v22.999c0 34 -9.33301 58.333 -28 73s-46 22 -82 22h-118c-24.667 0 -45.834 2 -63.501 6s-32.167 9.83301 -43.5 17.5s-19.666 17 -24.999 28s-8 23.167 -8 36.5c0 26 8 45.5 24 58.5s36.5 21.5 61.5 25.5s50.167 4.33301 75.5 1l53 -11
c-38 -2 -66.833 -5.66699 -86.5 -11s-29.5 -16.666 -29.5 -33.999c0 -10 3.83301 -18 11.5 -24s19.167 -9 34.5 -9h123c38 0 71.833 -4.83301 101.5 -14.5s53.167 -26 70.5 -49s26 -54.5 26 -94.5v-44h-97zM264.999 159.001c24.667 0 46.833 5.16797 66.5 15.501
s35.5 25.333 47.5 45s18 43.5 18 71.5c0 28.667 -5.83301 53 -17.5 73s-27.5 35.333 -47.5 46s-42.333 16 -67 16c-24 0 -46.167 -5.33301 -66.5 -16s-36.5 -25.834 -48.5 -45.501s-18 -44.167 -18 -73.5c0 -28 6 -51.833 18 -71.5s28.167 -34.667 48.5 -45
s42.5 -15.5 66.5 -15.5zM424.998 730.002c-1.33301 -29.333 -7.83398 -55.5 -19.501 -78.5s-29.167 -41.167 -52.5 -54.5s-52.666 -20 -87.999 -20s-64.5 6.66699 -87.5 20s-40.5 31.5 -52.5 54.5s-18.667 49.167 -20 78.5h78c2 -27.333 9.66699 -47.5 23 -60.5
s33 -19.5 59 -19.5s45.667 6.5 59 19.5s21 33.167 23 60.5h78z" />
    <glyph glyph-name="Gdotaccent" unicode="&#x120;" horiz-adv-x="785" 
d="M387 -11c-51.333 0 -97.666 7.66504 -138.999 22.998s-76.666 37.333 -105.999 66s-51.833 63.5 -67.5 104.5s-23.5 86.5 -23.5 136.5c0 51.333 8.33301 98 25 140s40.5 78 71.5 108s67.667 53 110 69s88.833 24 139.5 24c58 0 108.667 -9.66699 152 -29
s78 -46.666 104 -81.999s41.333 -76.666 46 -123.999h-88c-8.66699 30 -22.834 56 -42.501 78s-43.834 39 -72.501 51s-61.667 18 -99 18c-50 0 -93.5 -10.833 -130.5 -32.5s-65.667 -51.5 -86 -89.5s-30.5 -81.667 -30.5 -131c0 -48.667 9.16699 -91.167 27.5 -127.5
s45.333 -64.5 81 -84.5s79.167 -30 130.5 -30c39.333 0 74 6.83301 104 20.5s54.5 33 73.5 58s32.167 54.833 39.5 89.5l50 6c-10 -86 -38.833 -151.167 -86.5 -195.5s-108.5 -66.5 -182.5 -66.5zM634 -0.00195312c0 21.333 0.832031 45.833 2.49902 73.5
s3.83398 55.667 6.50098 84l7 76.5h-246v78h320v-312h-90zM453.999 841.998v-103h-119v103h119z" />
    <glyph glyph-name="gdotaccent" unicode="&#x121;" horiz-adv-x="582" 
d="M265 78c-41.333 0 -79.334 8.33496 -114.001 25.002s-62.334 41 -83.001 73s-31 70.667 -31 116c0 44.667 10 83.167 30 115.5s47.333 57.333 82 75s73.334 26.5 116.001 26.5c12.667 0 24.834 -0.833008 36.501 -2.5s23.167 -4.16699 34.5 -7.5h219v-90
c-30.667 -0.666992 -61.334 4.16602 -92.001 14.499s-57 20.833 -79 31.5l-4 5c23.333 -12 43.333 -26.333 60 -43s29.667 -35.667 39 -57s14 -44.666 14 -69.999c0 -44.667 -10 -82.834 -30 -114.501s-47.167 -55.834 -81.5 -72.501s-73.166 -25 -116.499 -25z
M418.999 -201.998v22.999c0 34 -9.33301 58.333 -28 73s-46 22 -82 22h-118c-24.667 0 -45.834 2 -63.501 6s-32.167 9.83301 -43.5 17.5s-19.666 17 -24.999 28s-8 23.167 -8 36.5c0 26 8 45.5 24 58.5s36.5 21.5 61.5 25.5s50.167 4.33301 75.5 1l53 -11
c-38 -2 -66.833 -5.66699 -86.5 -11s-29.5 -16.666 -29.5 -33.999c0 -10 3.83301 -18 11.5 -24s19.167 -9 34.5 -9h123c38 0 71.833 -4.83301 101.5 -14.5s53.167 -26 70.5 -49s26 -54.5 26 -94.5v-44h-97zM264.999 159.001c24.667 0 46.833 5.16797 66.5 15.501
s35.5 25.333 47.5 45s18 43.5 18 71.5c0 28.667 -5.83301 53 -17.5 73s-27.5 35.333 -47.5 46s-42.333 16 -67 16c-24 0 -46.167 -5.33301 -66.5 -16s-36.5 -25.834 -48.5 -45.501s-18 -44.167 -18 -73.5c0 -28 6 -51.833 18 -71.5s28.167 -34.667 48.5 -45
s42.5 -15.5 66.5 -15.5zM324.998 706.002v-103h-119v103h119z" />
    <glyph glyph-name="uni0122" unicode="&#x122;" horiz-adv-x="785" 
d="M387 -11c-51.333 0 -97.666 7.66504 -138.999 22.998s-76.666 37.333 -105.999 66s-51.833 63.5 -67.5 104.5s-23.5 86.5 -23.5 136.5c0 51.333 8.33301 98 25 140s40.5 78 71.5 108s67.667 53 110 69s88.833 24 139.5 24c58 0 108.667 -9.66699 152 -29
s78 -46.666 104 -81.999s41.333 -76.666 46 -123.999h-88c-8.66699 30 -22.834 56 -42.501 78s-43.834 39 -72.501 51s-61.667 18 -99 18c-50 0 -93.5 -10.833 -130.5 -32.5s-65.667 -51.5 -86 -89.5s-30.5 -81.667 -30.5 -131c0 -48.667 9.16699 -91.167 27.5 -127.5
s45.333 -64.5 81 -84.5s79.167 -30 130.5 -30c39.333 0 74 6.83301 104 20.5s54.5 33 73.5 58s32.167 54.833 39.5 89.5l50 6c-10 -86 -38.833 -151.167 -86.5 -195.5s-108.5 -66.5 -182.5 -66.5zM634 -0.00195312c0 21.333 0.832031 45.833 2.49902 73.5
s3.83398 55.667 6.50098 84l7 76.5h-246v78h320v-312h-90zM350.999 -246.002l-11 25.998c12 9.33301 22.333 19.333 31 30s13.334 20.667 14.001 30l-54 11v85h122v-45c0 -35.333 -8.83301 -64.666 -26.5 -87.999s-42.834 -39.666 -75.501 -48.999v0z" />
    <glyph glyph-name="uni0123" unicode="&#x123;" horiz-adv-x="582" 
d="M265 78c-41.333 0 -79.334 8.33496 -114.001 25.002s-62.334 41 -83.001 73s-31 70.667 -31 116c0 44.667 10 83.167 30 115.5s47.333 57.333 82 75s73.334 26.5 116.001 26.5c12.667 0 24.834 -0.833008 36.501 -2.5s23.167 -4.16699 34.5 -7.5h219v-90
c-30.667 -0.666992 -61.334 4.16602 -92.001 14.499s-57 20.833 -79 31.5l-4 5c23.333 -12 43.333 -26.333 60 -43s29.667 -35.667 39 -57s14 -44.666 14 -69.999c0 -44.667 -10 -82.834 -30 -114.501s-47.167 -55.834 -81.5 -72.501s-73.166 -25 -116.499 -25z
M418.999 -201.998v22.999c0 34 -9.33301 58.333 -28 73s-46 22 -82 22h-118c-24.667 0 -45.834 2 -63.501 6s-32.167 9.83301 -43.5 17.5s-19.666 17 -24.999 28s-8 23.167 -8 36.5c0 26 8 45.5 24 58.5s36.5 21.5 61.5 25.5s50.167 4.33301 75.5 1l53 -11
c-38 -2 -66.833 -5.66699 -86.5 -11s-29.5 -16.666 -29.5 -33.999c0 -10 3.83301 -18 11.5 -24s19.167 -9 34.5 -9h123c38 0 71.833 -4.83301 101.5 -14.5s53.167 -26 70.5 -49s26 -54.5 26 -94.5v-44h-97zM264.999 159.001c24.667 0 46.833 5.16797 66.5 15.501
s35.5 25.333 47.5 45s18 43.5 18 71.5c0 28.667 -5.83301 53 -17.5 73s-27.5 35.333 -47.5 46s-42.333 16 -67 16c-24 0 -46.167 -5.33301 -66.5 -16s-36.5 -25.834 -48.5 -45.501s-18 -44.167 -18 -73.5c0 -28 6 -51.833 18 -71.5s28.167 -34.667 48.5 -45
s42.5 -15.5 66.5 -15.5zM306.998 756.002l11.001 -25.999c-9.33301 -6.66699 -18.833 -15.834 -28.5 -27.501s-14.834 -22.5 -15.501 -32.5l53 -11v-85h-123v45c0 36 9.16699 65.667 27.5 89s43.5 39.333 75.5 48z" />
    <glyph glyph-name="Hbar" unicode="&#x126;" horiz-adv-x="778" 
d="M39 517h700v-75h-700v75zM167 368h445v-87h-445v87zM602 649h97v-649h-97v649zM79 649h98v-649h-98v649z" />
    <glyph glyph-name="hbar" unicode="&#x127;" horiz-adv-x="611" 
d="M452 0v300.003c0 26.667 -4.16699 48.667 -12.5 66s-21.333 30.5 -39 39.5s-40.167 13.5 -67.5 13.5c-28.667 0 -55.334 -6.83301 -80.001 -20.5s-44.667 -31.834 -60 -54.501s-24.666 -48.334 -27.999 -77.001l-1 57c3.33301 26 10.5 50.167 21.5 72.5s25 42 42 59
s37 30.167 60 39.5s48.167 14 75.5 14c28 0 53.333 -3.83301 76 -11.5s42.167 -19.334 58.5 -35.001s29 -34.667 38 -57s13.5 -47.833 13.5 -76.5v-329h-97zM74 0.00292969v699h97v-699h-97zM0 649.003h319v-70h-319v70z" />
    <glyph glyph-name="Imacron" unicode="&#x12a;" horiz-adv-x="295" 
d="M99 649h97v-649h-97v649zM16 747v73h262v-73h-262z" />
    <glyph glyph-name="imacron" unicode="&#x12b;" horiz-adv-x="216" 
d="M59 499h97v-499h-97v499zM-23 611v73h262v-73h-262z" />
    <glyph glyph-name="Iogonek" unicode="&#x12e;" horiz-adv-x="295" 
d="M181 -218c-55.333 0 -99.8311 11 -133.498 33s-50.5 51.667 -50.5 89c0 25.333 7.33301 46 22 62s34.167 28.5 58.5 37.5s51.166 15.167 80.499 18.5v-22c-22.667 -4.66699 -42.334 -14 -59.001 -28s-25 -32.333 -25 -55c0 -15.333 4.33301 -28.5 13 -39.5
s21 -19.667 37 -26s35 -9.5 57 -9.5v-60zM99.002 649h97v-649h-97v649z" />
    <glyph glyph-name="iogonek" unicode="&#x12f;" horiz-adv-x="239" 
d="M157 -218c-55.333 0 -99.8311 11 -133.498 33s-50.5 51.667 -50.5 89c0 25.333 7.16699 46 21.5 62s33.833 28.5 58.5 37.5s51.667 15.167 81 18.5v-22c-22.667 -4.66699 -42.334 -14 -59.001 -28s-25 -32.333 -25 -55c0 -15.333 4.16699 -28.5 12.5 -39.5
s20.666 -19.667 36.999 -26s35.5 -9.5 57.5 -9.5v-60zM179.002 705v-103h-120v103h120zM71.002 499h96v-499h-96v499z" />
    <glyph glyph-name="Idotaccent" unicode="&#x130;" horiz-adv-x="295" 
d="M99 649h97v-649h-97v649zM207 841v-103h-119v103h119z" />
    <glyph glyph-name="dotlessi" unicode="&#x131;" horiz-adv-x="216" 
d="M59 499h97v-499h-97v499z" />
    <glyph glyph-name="IJ" unicode="&#x132;" horiz-adv-x="661" 
d="M99 649h96v-377h-96v377zM485 230l-0.00195312 419.001h97v-422c0 -32.667 -5.16699 -63.5 -15.5 -92.5s-25.666 -54.333 -45.999 -76s-45.333 -38.5 -75 -50.5s-63.834 -18 -102.501 -18c-32 0 -62.5 4.5 -91.5 13.5s-54.5 22.333 -76.5 40s-39.667 39.667 -53 66
s-20.666 56.166 -21.999 89.499h91c6.66699 -40 23.834 -70.167 51.501 -90.5s61.167 -30.5 100.5 -30.5c33.333 0 60.333 6.66699 81 20s36 31.333 46 54s15 48.667 15 78z" />
    <glyph glyph-name="ij" unicode="&#x133;" horiz-adv-x="477" 
d="M179 705v-103h-120v103h120zM71 499h96v-499h-96v499zM311 499h97v-699h-97v699zM418 705v-103h-120v103h120z" />
    <glyph glyph-name="uni0136" unicode="&#x136;" horiz-adv-x="692" 
d="M275 316l-1 53l396 -369h-136l-358 340l316 309h135zM79 649h98v-649h-98v649zM290 -246l-11 25.998c12 9.33301 22.333 19.333 31 30s13.334 20.667 14.001 30l-54 11v85h122v-45c0 -35.333 -8.83301 -64.666 -26.5 -87.999s-42.834 -39.666 -75.501 -48.999v0z" />
    <glyph glyph-name="uni0137" unicode="&#x137;" horiz-adv-x="562" 
d="M74 699h97v-699h-97v699zM533 499l-265 -252l2 62l282 -309h-123l-256 279l225 220h135zM244 -246l-11 25.998c12 9.33301 22.333 19.333 31 30s13.334 20.667 14.001 30l-54 11v85h122v-45c0 -35.333 -8.83301 -64.666 -26.5 -87.999s-42.834 -39.666 -75.501 -48.999v0
z" />
    <glyph glyph-name="Lacute" unicode="&#x139;" horiz-adv-x="609" 
d="M177 649v-562h383v-87h-481v649h98zM77 736l116 160h127l-155 -160h-88z" />
    <glyph glyph-name="lacute" unicode="&#x13a;" horiz-adv-x="244" 
d="M73 699h97v-699h-97v699zM76 791l116 160h127l-155 -160h-88z" />
    <glyph glyph-name="uni013B" unicode="&#x13b;" horiz-adv-x="609" 
d="M177 649v-562h383v-87h-481v649h98zM307 -246l-11 25.998c12 9.33301 22.333 19.333 31 30s13.334 20.667 14.001 30l-54 11v85h122v-45c0 -35.333 -8.83301 -64.666 -26.5 -87.999s-42.834 -39.666 -75.501 -48.999v0z" />
    <glyph glyph-name="uni013C" unicode="&#x13c;" horiz-adv-x="244" 
d="M73 699h97v-699h-97v699zM79 -246l-11 25.998c12 9.33301 22.333 19.333 31 30s13.334 20.667 14.001 30l-54 11v85h122v-45c0 -35.333 -8.83301 -64.666 -26.5 -87.999s-42.834 -39.666 -75.501 -48.999v0z" />
    <glyph glyph-name="Lcaron" unicode="&#x13d;" horiz-adv-x="609" 
d="M177 649v-562h383v-87h-481v649h98zM404 493h-53l-28 126v80h110v-80z" />
    <glyph glyph-name="lcaron" unicode="&#x13e;" horiz-adv-x="363" 
d="M73 699h97v-699h-97v699zM299 493h-53l-28 126v80h110v-80z" />
    <glyph glyph-name="Ldot" unicode="&#x13f;" horiz-adv-x="609" 
d="M177 649v-562h383v-87h-481v649h98zM438 401v-103h-120v103h120z" />
    <glyph glyph-name="ldot" unicode="&#x140;" horiz-adv-x="395" 
d="M73 699h97v-699h-97v699zM321 394v-103h-120v103h120z" />
    <glyph glyph-name="Lslash" unicode="&#x141;" horiz-adv-x="609" 
d="M177 649v-562h383v-87h-481v649h98zM375 506l37 -53l-410 -280l-35 53z" />
    <glyph glyph-name="lslash" unicode="&#x142;" horiz-adv-x="264" 
d="M243 465l37 -53l-262 -178l-35 53zM83 699h97v-699h-97v699z" />
    <glyph glyph-name="Nacute" unicode="&#x143;" horiz-adv-x="780" 
d="M632 107l-28 -10v552h97v-649h-97l-456 540l29 10v-550h-98v649h98zM347 736l116 160h127l-155 -160h-88z" />
    <glyph glyph-name="nacute" unicode="&#x144;" horiz-adv-x="600" 
d="M63 499h97v-499h-97v499zM352 509c28 0 53.333 -4 76 -12s42.167 -19.833 58.5 -35.5s29 -35 38 -58s13.5 -49.5 13.5 -79.5v-324h-97v303c0 40 -9.33301 69.667 -28 89s-47.667 29 -87 29c-30 0 -57.5 -6.83301 -82.5 -20.5s-45.333 -32 -61 -55
s-25.167 -48.833 -28.5 -77.5l-1 55c3.33301 26.667 10.5 51.167 21.5 73.5s25.167 42 42.5 59s37.333 30.167 60 39.5s47.667 14 75 14zM278 601l116 160h127l-155 -160h-88z" />
    <glyph glyph-name="uni0145" unicode="&#x145;" horiz-adv-x="780" 
d="M632 107l-28 -10v552h97v-649h-97l-456 540l29 10v-550h-98v649h98zM355 -246l-11 25.998c12 9.33301 22.333 19.333 31 30s13.334 20.667 14.001 30l-54 11v85h122v-45c0 -35.333 -8.83301 -64.666 -26.5 -87.999s-42.834 -39.666 -75.501 -48.999v0z" />
    <glyph glyph-name="uni0146" unicode="&#x146;" horiz-adv-x="600" 
d="M63 499h97v-499h-97v499zM352 509c28 0 53.333 -4 76 -12s42.167 -19.833 58.5 -35.5s29 -35 38 -58s13.5 -49.5 13.5 -79.5v-324h-97v303c0 40 -9.33301 69.667 -28 89s-47.667 29 -87 29c-30 0 -57.5 -6.83301 -82.5 -20.5s-45.333 -32 -61 -55
s-25.167 -48.833 -28.5 -77.5l-1 55c3.33301 26.667 10.5 51.167 21.5 73.5s25.167 42 42.5 59s37.333 30.167 60 39.5s47.667 14 75 14zM257 -246l-11 25.998c12 9.33301 22.333 19.333 31 30s13.334 20.667 14.001 30l-54 11v85h122v-45
c0 -35.333 -8.83301 -64.666 -26.5 -87.999s-42.834 -39.666 -75.501 -48.999v0z" />
    <glyph glyph-name="Ncaron" unicode="&#x147;" horiz-adv-x="780" 
d="M632 107l-28 -10v552h97v-649h-97l-456 540l29 10v-550h-98v649h98zM428 761h-54l103 135h110l-140 -160h-92l-140 160h110z" />
    <glyph glyph-name="ncaron" unicode="&#x148;" horiz-adv-x="600" 
d="M63 499h97v-499h-97v499zM352 509c28 0 53.333 -4 76 -12s42.167 -19.833 58.5 -35.5s29 -35 38 -58s13.5 -49.5 13.5 -79.5v-324h-97v303c0 40 -9.33301 69.667 -28 89s-47.667 29 -87 29c-30 0 -57.5 -6.83301 -82.5 -20.5s-45.333 -32 -61 -55
s-25.167 -48.833 -28.5 -77.5l-1 55c3.33301 26.667 10.5 51.167 21.5 73.5s25.167 42 42.5 59s37.333 30.167 60 39.5s47.667 14 75 14zM359 626h-54l103 135h110l-140 -160h-92l-140 160h110z" />
    <glyph glyph-name="Eng" unicode="&#x14a;" horiz-adv-x="780" 
d="M632 107l-28.001 -10.001v552h97v-673c0 -27.333 -4.16699 -51.166 -12.5 -71.499s-19.833 -37.833 -34.5 -52.5s-31.334 -26.5 -50.001 -35.5s-38.5 -15.667 -59.5 -20s-41.833 -6.5 -62.5 -6.5v89c20.667 0 40.334 3 59.001 9s33.834 17.667 45.501 35s17.5 43 17.5 77
l-456 540l29 10v-550h-98v649h98z" />
    <glyph glyph-name="eng" unicode="&#x14b;" horiz-adv-x="600" 
d="M317 -211v89.002c28.667 0 52.167 4.33301 70.5 13s31.833 22.167 40.5 40.5s13 41.166 13 68.499v303c0 40 -9.33301 69.667 -28 89s-47.667 29 -87 29c-30 0 -57.5 -6.83301 -82.5 -20.5s-45.333 -32 -61 -55s-25.167 -48.833 -28.5 -77.5l-1 55
c3.33301 26.667 10.5 51.167 21.5 73.5s25.167 42 42.5 59s37.333 30.167 60 39.5s47.667 14 75 14c28 0 53.333 -4 76 -12s42.167 -19.833 58.5 -35.5s29 -35 38 -58s13.5 -49.5 13.5 -79.5v-349c0 -28.667 -5 -54.334 -15 -77.001s-24.5 -42.167 -43.5 -58.5
s-42.167 -28.833 -69.5 -37.5s-58.333 -13 -93 -13zM63 0.00195312v499h97v-499h-97z" />
    <glyph glyph-name="Omacron" unicode="&#x14c;" horiz-adv-x="801" 
d="M401 -11c-68.667 0 -129.167 13.667 -181.5 41s-93.5 66 -123.5 116s-45 109.333 -45 178c0 69.333 15 129 45 179s71.167 88.667 123.5 116s112.833 41 181.5 41c68 0 128.333 -13.667 181 -41s93.834 -66 123.501 -116s44.5 -109.667 44.5 -179
c0 -68.667 -14.833 -128 -44.5 -178s-70.834 -88.667 -123.501 -116s-113 -41 -181 -41zM401 77c48 0 90.667 9.33301 128 28s67 46.334 89 83.001s33 82 33 136c0 54.667 -11 100.167 -33 136.5s-51.667 64 -89 83s-80 28.5 -128 28.5c-47.333 0 -90 -9.5 -128 -28.5
s-68 -46.667 -90 -83s-33 -81.833 -33 -136.5c0 -54 11 -99.333 33 -136s52 -64.334 90 -83.001s80.667 -28 128 -28zM270 748v73h262v-73h-262z" />
    <glyph glyph-name="omacron" unicode="&#x14d;" horiz-adv-x="609" 
d="M306 -11c-49.333 0 -94.5 10.333 -135.5 31s-73.5 50.334 -97.5 89.001s-36 85 -36 139c0 54.667 12 101.5 36 140.5s56.5 68.833 97.5 89.5s86.167 31 135.5 31s94.166 -10.333 134.499 -31s72.5 -50.5 96.5 -89.5s36 -85.833 36 -140.5c0 -54 -12 -100.333 -36 -139
s-56.167 -68.334 -96.5 -89.001s-85.166 -31 -134.499 -31zM306 73c30 0 57.833 6.66699 83.5 20s46.334 33.166 62.001 59.499s23.5 58.166 23.5 95.499c0 38 -7.83301 70.167 -23.5 96.5s-36.334 46.5 -62.001 60.5s-53.5 21 -83.5 21c-30.667 0 -59 -6.83301 -85 -20.5
s-47 -33.667 -63 -60s-24 -58.833 -24 -97.5c0 -37.333 7.83301 -69.166 23.5 -95.499s36.667 -46.166 63 -59.499s54.833 -20 85.5 -20zM175 612v73h262v-73h-262z" />
    <glyph glyph-name="Ohungarumlaut" unicode="&#x150;" horiz-adv-x="801" 
d="M401 -11c-68.667 0 -129.167 13.667 -181.5 41s-93.5 66 -123.5 116s-45 109.333 -45 178c0 69.333 15 129 45 179s71.167 88.667 123.5 116s112.833 41 181.5 41c68 0 128.333 -13.667 181 -41s93.834 -66 123.501 -116s44.5 -109.667 44.5 -179
c0 -68.667 -14.833 -128 -44.5 -178s-70.834 -88.667 -123.501 -116s-113 -41 -181 -41zM401 77c48 0 90.667 9.33301 128 28s67 46.334 89 83.001s33 82 33 136c0 54.667 -11 100.167 -33 136.5s-51.667 64 -89 83s-80 28.5 -128 28.5c-47.333 0 -90 -9.5 -128 -28.5
s-68 -46.667 -90 -83s-33 -81.833 -33 -136.5c0 -54 11 -99.333 33 -136s52 -64.334 90 -83.001s80.667 -28 128 -28zM445 737l111 160h115l-145 -160h-81zM246 737l109 160h115l-143 -160h-81z" />
    <glyph glyph-name="ohungarumlaut" unicode="&#x151;" horiz-adv-x="609" 
d="M306 -11c-49.333 0 -94.5 10.333 -135.5 31s-73.5 50.334 -97.5 89.001s-36 85 -36 139c0 54.667 12 101.5 36 140.5s56.5 68.833 97.5 89.5s86.167 31 135.5 31s94.166 -10.333 134.499 -31s72.5 -50.5 96.5 -89.5s36 -85.833 36 -140.5c0 -54 -12 -100.333 -36 -139
s-56.167 -68.334 -96.5 -89.001s-85.166 -31 -134.499 -31zM306 73c30 0 57.833 6.66699 83.5 20s46.334 33.166 62.001 59.499s23.5 58.166 23.5 95.499c0 38 -7.83301 70.167 -23.5 96.5s-36.334 46.5 -62.001 60.5s-53.5 21 -83.5 21c-30.667 0 -59 -6.83301 -85 -20.5
s-47 -33.667 -63 -60s-24 -58.833 -24 -97.5c0 -37.333 7.83301 -69.166 23.5 -95.499s36.667 -46.166 63 -59.499s54.833 -20 85.5 -20zM350 601l111 160h115l-145 -160h-81zM151 601l109 160h115l-143 -160h-81z" />
    <glyph glyph-name="OE" unicode="&#x152;" horiz-adv-x="1070" 
d="M1010 88v-88h-545l138 88h407zM932 366v-85h-201v85h201zM1009 649v-88h-407l-148 88h555zM401 -11c-68.667 0 -129.167 13.667 -181.5 41s-93.5 66 -123.5 116s-45 109.333 -45 178c0 69.333 15 129 45 179s71.167 88.667 123.5 116s112.833 41 181.5 41
c68 0 128.333 -13.667 181 -41s93.834 -66 123.501 -116s44.5 -109.667 44.5 -179c0 -68.667 -14.833 -128 -44.5 -178s-70.834 -88.667 -123.501 -116s-113 -41 -181 -41zM401 77c48 0 90.667 9.33301 128 28s67 46.334 89 83.001s33 82 33 136
c0 54.667 -11 100.167 -33 136.5s-51.667 64 -89 83s-80 28.5 -128 28.5c-47.333 0 -90 -9.5 -128 -28.5s-68 -46.667 -90 -83s-33 -81.833 -33 -136.5c0 -54 11 -99.333 33 -136s52 -64.334 90 -83.001s80.667 -28 128 -28z" />
    <glyph glyph-name="oe" unicode="&#x153;" horiz-adv-x="1059" 
d="M306 -11c-49.333 0 -94.5 10.333 -135.5 31s-73.5 50.334 -97.5 89.001s-36 85 -36 139c0 54.667 12 101.5 36 140.5s56.5 68.833 97.5 89.5s86.167 31 135.5 31s94.166 -10.333 134.499 -31s72.5 -50.5 96.5 -89.5s36 -85.833 36 -140.5c0 -54 -12 -100.333 -36 -139
s-56.167 -68.334 -96.5 -89.001s-85.166 -31 -134.499 -31zM306 73c30 0 57.833 6.66699 83.5 20s46.334 33.166 62.001 59.499s23.5 58.166 23.5 95.499c0 38 -7.83301 70.167 -23.5 96.5s-36.334 46.5 -62.001 60.5s-53.5 21 -83.5 21c-30.667 0 -59 -6.83301 -85 -20.5
s-47 -33.667 -63 -60s-24 -58.833 -24 -97.5c0 -37.333 7.83301 -69.166 23.5 -95.499s36.667 -46.166 63 -59.499s54.833 -20 85.5 -20zM926 162h91.998c-5.33301 -32.667 -17.833 -62 -37.5 -88s-46 -46.667 -79 -62s-71.833 -23 -116.5 -23
c-52 0 -98.667 10.833 -140 32.5s-73.666 52 -96.999 91s-35 84.167 -35 135.5c0 52 11.333 97.5 34 136.5s54.167 69.5 94.5 91.5s86.5 33 138.5 33c54.667 0 100.334 -10.667 137.001 -32s64 -52.833 82 -94.5s25.333 -93.5 22 -155.5h-411
c3.33301 -30 12.5 -56.667 27.5 -80s35 -41.5 60 -54.5s53.833 -19.5 86.5 -19.5c36.667 0 67.5 8.16699 92.5 24.5s41.5 37.833 49.5 64.5zM779.998 426c-43.333 0 -79.332 -11.5 -107.999 -34.5s-47.667 -53.167 -57 -90.5h308c-2.66699 40 -17.334 70.833 -44.001 92.5
s-59.667 32.5 -99 32.5z" />
    <glyph glyph-name="Racute" unicode="&#x154;" horiz-adv-x="703" 
d="M79 0l-0.000976562 649h338c46.667 0 86.834 -6.83301 120.501 -20.5s59.667 -34.5 78 -62.5s27.5 -63.333 27.5 -106c0 -28.667 -4.83301 -53.167 -14.5 -73.5s-23 -37.333 -40 -51s-36.833 -24.167 -59.5 -31.5s-47 -12 -73 -14l-7 6
c39.333 -0.666992 72.333 -4.66699 99 -12s47.167 -20.5 61.5 -39.5s21.5 -47.5 21.5 -85.5v-159h-97v156c0 26 -4.5 46.333 -13.5 61s-24.167 25 -45.5 31s-51.333 9 -90 9h-208v-257h-98zM176.999 342h240c42.667 0 74.667 10.667 96 32s32 49.333 32 84
c0 33.333 -10.667 58.833 -32 76.5s-53.333 26.5 -96 26.5h-240v-219zM298.999 736l116 160h127l-155 -160h-88z" />
    <glyph glyph-name="racute" unicode="&#x155;" horiz-adv-x="354" 
d="M63 499h97v-499h-97v499zM330 413c-34.667 0 -64.333 -8.00098 -89 -24.001s-44 -35.5 -58 -58.5s-23.667 -45.5 -29 -67.5l-1 57c0.666992 6.66699 2.66699 17.334 6 32.001s9 31 17 49s18.667 35.167 32 51.5s30 29.833 50 40.5s44 16 72 16v-96zM153.001 600.999
l116 160h127l-155 -160h-88z" />
    <glyph glyph-name="uni0156" unicode="&#x156;" horiz-adv-x="703" 
d="M79 0l-0.000976562 649h338c46.667 0 86.834 -6.83301 120.501 -20.5s59.667 -34.5 78 -62.5s27.5 -63.333 27.5 -106c0 -28.667 -4.83301 -53.167 -14.5 -73.5s-23 -37.333 -40 -51s-36.833 -24.167 -59.5 -31.5s-47 -12 -73 -14l-7 6
c39.333 -0.666992 72.333 -4.66699 99 -12s47.167 -20.5 61.5 -39.5s21.5 -47.5 21.5 -85.5v-159h-97v156c0 26 -4.5 46.333 -13.5 61s-24.167 25 -45.5 31s-51.333 9 -90 9h-208v-257h-98zM176.999 342h240c42.667 0 74.667 10.667 96 32s32 49.333 32 84
c0 33.333 -10.667 58.833 -32 76.5s-53.333 26.5 -96 26.5h-240v-219zM303.999 -248l-11 25.998c12 9.33301 22.333 19.333 31 30s13.334 20.667 14.001 30l-54 11v85h122v-45c0 -35.333 -8.83301 -64.666 -26.5 -87.999s-42.834 -39.666 -75.501 -48.999v0z" />
    <glyph glyph-name="uni0157" unicode="&#x157;" horiz-adv-x="354" 
d="M63 499h97v-499h-97v499zM330 413c-34.667 0 -64.333 -8.00098 -89 -24.001s-44 -35.5 -58 -58.5s-23.667 -45.5 -29 -67.5l-1 57c0.666992 6.66699 2.66699 17.334 6 32.001s9 31 17 49s18.667 35.167 32 51.5s30 29.833 50 40.5s44 16 72 16v-96zM69.001 -246.001
l-11 25.998c12 9.33301 22.333 19.333 31 30s13.334 20.667 14.001 30l-54 11v85h122v-45c0 -35.333 -8.83301 -64.666 -26.5 -87.999s-42.834 -39.666 -75.501 -48.999v0z" />
    <glyph glyph-name="Rcaron" unicode="&#x158;" horiz-adv-x="703" 
d="M79 0l-0.000976562 649h338c46.667 0 86.834 -6.83301 120.501 -20.5s59.667 -34.5 78 -62.5s27.5 -63.333 27.5 -106c0 -28.667 -4.83301 -53.167 -14.5 -73.5s-23 -37.333 -40 -51s-36.833 -24.167 -59.5 -31.5s-47 -12 -73 -14l-7 6
c39.333 -0.666992 72.333 -4.66699 99 -12s47.167 -20.5 61.5 -39.5s21.5 -47.5 21.5 -85.5v-159h-97v156c0 26 -4.5 46.333 -13.5 61s-24.167 25 -45.5 31s-51.333 9 -90 9h-208v-257h-98zM176.999 342h240c42.667 0 74.667 10.667 96 32s32 49.333 32 84
c0 33.333 -10.667 58.833 -32 76.5s-53.333 26.5 -96 26.5h-240v-219zM379.999 761h-54l103 135h110l-140 -160h-92l-140 160h110z" />
    <glyph glyph-name="rcaron" unicode="&#x159;" horiz-adv-x="354" 
d="M63 499h97v-499h-97v499zM330 413c-34.667 0 -64.333 -8.00098 -89 -24.001s-44 -35.5 -58 -58.5s-23.667 -45.5 -29 -67.5l-1 57c0.666992 6.66699 2.66699 17.334 6 32.001s9 31 17 49s18.667 35.167 32 51.5s30 29.833 50 40.5s44 16 72 16v-96zM234.001 625.999h-54
l103 135h110l-140 -160h-92l-140 160h110z" />
    <glyph glyph-name="Sacute" unicode="&#x15a;" horiz-adv-x="592" 
d="M35 213l93.0039 0.00488281c2.66699 -26 11.834 -49.333 27.501 -70s37.167 -37 64.5 -49s58.666 -18 93.999 -18c31.333 0 57.5 4.16699 78.5 12.5s36.667 20.166 47 35.499s15.5 33 15.5 53c0 20.667 -5.83301 37.167 -17.5 49.5s-28.834 22.666 -51.501 30.999
s-51 16.5 -85 24.5c-29.333 6.66699 -58.333 15.167 -87 25.5s-54.834 23.166 -78.501 38.499s-42.667 34 -57 56s-21.5 48.333 -21.5 79c0 32.667 9.16699 62.5 27.5 89.5s45.166 48.667 80.499 65s78 24.5 128 24.5c78 0 137 -19.333 177 -58s59.333 -90.334 58 -155.001
h-92c-1.33301 44.667 -15.5 76.834 -42.5 96.501s-61.833 29.5 -104.5 29.5c-36.667 0 -68.167 -7.33301 -94.5 -22s-39.5 -38.334 -39.5 -71.001c0 -14 3 -26.167 9 -36.5s16 -19.666 30 -27.999s33 -16.5 57 -24.5s53.667 -16.667 89 -26c27.333 -6 53.5 -13.667 78.5 -23
s47.667 -21 68 -35s36.333 -31.833 48 -53.5s17.5 -48.834 17.5 -81.501c0 -34 -8.33301 -64.833 -25 -92.5s-42.667 -49.667 -78 -66s-81 -24.5 -137 -24.5c-44 0 -82.333 5.5 -115 16.5s-59.834 25.667 -81.501 44s-38.667 37.666 -51 57.999s-20.833 40 -25.5 59
s-6 34.5 -4 46.5zM239.004 737.005l116 160h127l-155 -160h-88z" />
    <glyph glyph-name="sacute" unicode="&#x15b;" horiz-adv-x="482" 
d="M41 162l89 -0.00195312c4 -26.667 16.333 -48.334 37 -65.001s49.667 -25 87 -25c23.333 0 41.666 2.83301 54.999 8.5s23 13.334 29 23.001s9 20.834 9 33.501c0 14.667 -4 26.334 -12 35.001s-19.333 15.667 -34 21s-32.334 10.666 -53.001 15.999
c-22 6 -44.167 13 -66.5 21s-42.666 17.667 -60.999 29s-33 25.5 -44 42.5s-16.5 37.5 -16.5 61.5c0 21.333 4.5 41 13.5 59s22 33.5 39 46.5s37 23 60 30s48.167 10.5 75.5 10.5c38.667 0 71.167 -6.83301 97.5 -20.5s46.333 -32.834 60 -57.501
s20.834 -53.334 21.501 -86.001h-85c-4.66699 28.667 -14.5 49.334 -29.5 62.001s-36.833 19 -65.5 19c-29.333 0 -51.666 -5.66699 -66.999 -17s-23 -26.666 -23 -45.999c0 -14 5.33301 -25.5 16 -34.5s25 -16.833 43 -23.5s38.667 -13.667 62 -21l62 -22
c20 -7.33301 37.833 -16.333 53.5 -27s28 -24 37 -40s13.5 -36.333 13.5 -61c0 -29.333 -7.33301 -54.833 -22 -76.5s-36 -38.5 -64 -50.5s-62 -18 -102 -18c-35.333 0 -65.833 4.33301 -91.5 13s-46.834 20 -63.501 34s-29.667 28.833 -39 44.5s-15.5 30.834 -18.5 45.501
s-3.83301 26.667 -2.5 36zM194 600.998l116 160h127l-155 -160h-88z" />
    <glyph glyph-name="Scedilla" unicode="&#x15e;" horiz-adv-x="592" 
d="M213 -120c0.666992 -4 2.49805 -9.66797 5.49805 -17.001s8.33301 -14 16 -20s18.834 -9 33.501 -9c17.333 0 29.166 4.5 35.499 13.5s9.5 18.167 9.5 27.5c0 6.66699 -1.5 13.834 -4.5 21.501s-8.83301 15.5 -17.5 23.5s-22.334 15 -41.001 21l55 24
c16 -4 30.667 -10 44 -18s24 -18.667 32 -32s12 -30 12 -50c0 -25.333 -10.5 -48.333 -31.5 -69s-52.833 -31 -95.5 -31c-27.333 0 -50.666 5.5 -69.999 16.5s-33.666 25.333 -42.999 43s-12.666 36.167 -9.99902 55.5h70zM249.998 14.999h90v-83l-90 9v74zM34.998 212.999
l93.0039 0.00488281c2.66699 -26 11.834 -49.333 27.501 -70s37.167 -37 64.5 -49s58.666 -18 93.999 -18c31.333 0 57.5 4.16699 78.5 12.5s36.667 20.166 47 35.499s15.5 33 15.5 53c0 20.667 -5.83301 37.167 -17.5 49.5s-28.834 22.666 -51.501 30.999
s-51 16.5 -85 24.5c-29.333 6.66699 -58.333 15.167 -87 25.5s-54.834 23.166 -78.501 38.499s-42.667 34 -57 56s-21.5 48.333 -21.5 79c0 32.667 9.16699 62.5 27.5 89.5s45.166 48.667 80.499 65s78 24.5 128 24.5c78 0 137 -19.333 177 -58s59.333 -90.334 58 -155.001
h-92c-1.33301 44.667 -15.5 76.834 -42.5 96.501s-61.833 29.5 -104.5 29.5c-36.667 0 -68.167 -7.33301 -94.5 -22s-39.5 -38.334 -39.5 -71.001c0 -14 3 -26.167 9 -36.5s16 -19.666 30 -27.999s33 -16.5 57 -24.5s53.667 -16.667 89 -26c27.333 -6 53.5 -13.667 78.5 -23
s47.667 -21 68 -35s36.333 -31.833 48 -53.5s17.5 -48.834 17.5 -81.501c0 -34 -8.33301 -64.833 -25 -92.5s-42.667 -49.667 -78 -66s-81 -24.5 -137 -24.5c-44 0 -82.333 5.5 -115 16.5s-59.834 25.667 -81.501 44s-38.667 37.666 -51 57.999s-20.833 40 -25.5 59
s-6 34.5 -4 46.5z" />
    <glyph glyph-name="scedilla" unicode="&#x15f;" horiz-adv-x="482" 
d="M181 -128c0.666992 -4 2.49805 -9.66797 5.49805 -17.001s8.33301 -14 16 -20s18.834 -9 33.501 -9c17.333 0 29.166 4.5 35.499 13.5s9.5 18.167 9.5 27.5c0 6.66699 -1.5 13.834 -4.5 21.501s-8.83301 15.5 -17.5 23.5s-22.334 15 -41.001 21l55 24
c16 -4 30.667 -10.167 44 -18.5s24 -19 32 -32s12 -29.5 12 -49.5c0 -25.333 -10.5 -48.333 -31.5 -69s-52.833 -31 -95.5 -31c-27.333 0 -50.666 5.5 -69.999 16.5s-33.666 25.333 -42.999 43s-12.666 36.167 -9.99902 55.5h70zM217.998 5.99902h90v-82l-90 9v73z
M40.998 161.999l89 -0.00195312c4 -26.667 16.333 -48.334 37 -65.001s49.667 -25 87 -25c23.333 0 41.666 2.83301 54.999 8.5s23 13.334 29 23.001s9 20.834 9 33.501c0 14.667 -4 26.334 -12 35.001s-19.333 15.667 -34 21s-32.334 10.666 -53.001 15.999
c-22 6 -44.167 13 -66.5 21s-42.666 17.667 -60.999 29s-33 25.5 -44 42.5s-16.5 37.5 -16.5 61.5c0 21.333 4.5 41 13.5 59s22 33.5 39 46.5s37 23 60 30s48.167 10.5 75.5 10.5c38.667 0 71.167 -6.83301 97.5 -20.5s46.333 -32.834 60 -57.501
s20.834 -53.334 21.501 -86.001h-85c-4.66699 28.667 -14.5 49.334 -29.5 62.001s-36.833 19 -65.5 19c-29.333 0 -51.666 -5.66699 -66.999 -17s-23 -26.666 -23 -45.999c0 -14 5.33301 -25.5 16 -34.5s25 -16.833 43 -23.5s38.667 -13.667 62 -21l62 -22
c20 -7.33301 37.833 -16.333 53.5 -27s28 -24 37 -40s13.5 -36.333 13.5 -61c0 -29.333 -7.33301 -54.833 -22 -76.5s-36 -38.5 -64 -50.5s-62 -18 -102 -18c-35.333 0 -65.833 4.33301 -91.5 13s-46.834 20 -63.501 34s-29.667 28.833 -39 44.5s-15.5 30.834 -18.5 45.501
s-3.83301 26.667 -2.5 36z" />
    <glyph glyph-name="Scaron" unicode="&#x160;" horiz-adv-x="592" 
d="M35 213l93.0039 0.00488281c2.66699 -26 11.834 -49.333 27.501 -70s37.167 -37 64.5 -49s58.666 -18 93.999 -18c31.333 0 57.5 4.16699 78.5 12.5s36.667 20.166 47 35.499s15.5 33 15.5 53c0 20.667 -5.83301 37.167 -17.5 49.5s-28.834 22.666 -51.501 30.999
s-51 16.5 -85 24.5c-29.333 6.66699 -58.333 15.167 -87 25.5s-54.834 23.166 -78.501 38.499s-42.667 34 -57 56s-21.5 48.333 -21.5 79c0 32.667 9.16699 62.5 27.5 89.5s45.166 48.667 80.499 65s78 24.5 128 24.5c78 0 137 -19.333 177 -58s59.333 -90.334 58 -155.001
h-92c-1.33301 44.667 -15.5 76.834 -42.5 96.501s-61.833 29.5 -104.5 29.5c-36.667 0 -68.167 -7.33301 -94.5 -22s-39.5 -38.334 -39.5 -71.001c0 -14 3 -26.167 9 -36.5s16 -19.666 30 -27.999s33 -16.5 57 -24.5s53.667 -16.667 89 -26c27.333 -6 53.5 -13.667 78.5 -23
s47.667 -21 68 -35s36.333 -31.833 48 -53.5s17.5 -48.834 17.5 -81.501c0 -34 -8.33301 -64.833 -25 -92.5s-42.667 -49.667 -78 -66s-81 -24.5 -137 -24.5c-44 0 -82.333 5.5 -115 16.5s-59.834 25.667 -81.501 44s-38.667 37.666 -51 57.999s-20.833 40 -25.5 59
s-6 34.5 -4 46.5zM320.004 762.005h-54l103 135h110l-140 -160h-92l-140 160h110z" />
    <glyph glyph-name="scaron" unicode="&#x161;" horiz-adv-x="482" 
d="M41 162l89 -0.00195312c4 -26.667 16.333 -48.334 37 -65.001s49.667 -25 87 -25c23.333 0 41.666 2.83301 54.999 8.5s23 13.334 29 23.001s9 20.834 9 33.501c0 14.667 -4 26.334 -12 35.001s-19.333 15.667 -34 21s-32.334 10.666 -53.001 15.999
c-22 6 -44.167 13 -66.5 21s-42.666 17.667 -60.999 29s-33 25.5 -44 42.5s-16.5 37.5 -16.5 61.5c0 21.333 4.5 41 13.5 59s22 33.5 39 46.5s37 23 60 30s48.167 10.5 75.5 10.5c38.667 0 71.167 -6.83301 97.5 -20.5s46.333 -32.834 60 -57.501
s20.834 -53.334 21.501 -86.001h-85c-4.66699 28.667 -14.5 49.334 -29.5 62.001s-36.833 19 -65.5 19c-29.333 0 -51.666 -5.66699 -66.999 -17s-23 -26.666 -23 -45.999c0 -14 5.33301 -25.5 16 -34.5s25 -16.833 43 -23.5s38.667 -13.667 62 -21l62 -22
c20 -7.33301 37.833 -16.333 53.5 -27s28 -24 37 -40s13.5 -36.333 13.5 -61c0 -29.333 -7.33301 -54.833 -22 -76.5s-36 -38.5 -64 -50.5s-62 -18 -102 -18c-35.333 0 -65.833 4.33301 -91.5 13s-46.834 20 -63.501 34s-29.667 28.833 -39 44.5s-15.5 30.834 -18.5 45.501
s-3.83301 26.667 -2.5 36zM275 625.998h-54l103 135h110l-140 -160h-92l-140 160h110z" />
    <glyph glyph-name="uni0162" unicode="&#x162;" horiz-adv-x="607" 
d="M221 -118c0.666992 -4 2.33203 -9.66797 4.99902 -17.001s8 -14 16 -20s19.333 -9 34 -9c17.333 0 29.166 4.5 35.499 13.5s9.5 18.167 9.5 27.5c0 6.66699 -1.5 13.834 -4.5 21.501s-9 15.5 -18 23.5s-22.833 15 -41.5 21l55 24c16.667 -4 31.5 -10.167 44.5 -18.5
s23.5 -19 31.5 -32s12 -29.5 12 -49.5c0 -25.333 -10.333 -48.333 -31 -69s-52.334 -31 -95.001 -31c-27.333 0 -50.666 5.5 -69.999 16.5s-33.666 25.333 -42.999 43s-12.666 36.167 -9.99902 55.5h70zM256.998 15.999h91v-82l-91 9v73zM16.998 648.999h574v-87h-574v87z
M254.998 571.999h98v-572h-98v572z" />
    <glyph glyph-name="uni0163" unicode="&#x163;" horiz-adv-x="381" 
d="M108 -118c0.666992 -4 2.33203 -9.66797 4.99902 -17.001s8 -14 16 -20s19.333 -9 34 -9c17.333 0 29.166 4.5 35.499 13.5s9.5 18.167 9.5 27.5c0 6.66699 -1.5 13.834 -4.5 21.501s-9 15.5 -18 23.5s-22.833 15 -41.5 21l55 24c16.667 -4 31.5 -10.167 44.5 -18.5
s23.5 -19 31.5 -32s12 -29.5 12 -49.5c0 -25.333 -10.333 -48.333 -31 -69s-52.334 -31 -95.001 -31c-27.333 0 -50.666 5.5 -69.999 16.5s-33.666 25.333 -42.999 43s-12.666 36.167 -9.99902 55.5h70zM143.998 15.999h91v-82l-91 9v73zM27.998 498.999h325v-84h-325v84z
M141.998 630.999h97v-631h-97v631z" />
    <glyph glyph-name="Tcaron" unicode="&#x164;" horiz-adv-x="607" 
d="M17 649h574v-87h-574v87zM255 572h98v-572h-98v572zM335 761h-54l103 135h110l-140 -160h-92l-140 160h110z" />
    <glyph glyph-name="tcaron" unicode="&#x165;" horiz-adv-x="380" 
d="M28 499h325v-84h-325v84zM142 631h97v-631h-97v631zM361 547h-53l-28 126v80h110v-80z" />
    <glyph glyph-name="Tbar" unicode="&#x166;" horiz-adv-x="607" 
d="M17 362h574v-75h-574v75zM17 649h574v-87h-574v87zM255 572h98v-572h-98v572z" />
    <glyph glyph-name="tbar" unicode="&#x167;" horiz-adv-x="374" 
d="M25 341h323v-75h-323v75zM28 499h325v-84h-325v84zM142 631h97v-631h-97v631z" />
    <glyph glyph-name="Umacron" unicode="&#x16a;" horiz-adv-x="757" 
d="M580 262v387h98v-392c0 -38.667 -5 -72.667 -15 -102s-24 -54.666 -42 -75.999s-39.333 -38.5 -64 -51.5s-52 -22.667 -82 -29s-61.667 -9.5 -95 -9.5c-34.667 0 -67.167 3.16699 -97.5 9.5s-58 16 -83 29s-46.333 30.167 -64 51.5s-31.5 46.666 -41.5 75.999
s-15 63.333 -15 102v392h98v-387c0 -50 9 -88.333 27 -115s42.5 -45 73.5 -55s65.167 -15 102.5 -15c36.667 0 70 5 100 15s54.167 28.333 72.5 55s27.5 65 27.5 115zM249 747v73h262v-73h-262z" />
    <glyph glyph-name="umacron" unicode="&#x16b;" horiz-adv-x="600" 
d="M538 0h-97v499h97v-499zM447 235l0.998047 -30.001c-1.33301 -8.66699 -3.83301 -21.5 -7.5 -38.5s-9.66699 -35.5 -18 -55.5s-19.666 -39.333 -33.999 -58s-32.5 -34 -54.5 -46s-49 -18 -81 -18c-22 0 -44.167 3 -66.5 9s-42.833 16 -61.5 30s-33.667 33.167 -45 57.5
s-17 54.833 -17 91.5v322h97v-301c0 -30.667 5 -54.667 15 -72s23.833 -29.666 41.5 -36.999s37.834 -11 60.501 -11c34.667 0 64 8.33301 88 25s42.667 37.167 56 61.5s22 47.833 26 70.5zM176.998 611.999v73h262v-73h-262z" />
    <glyph glyph-name="Uring" unicode="&#x16e;" horiz-adv-x="757" 
d="M580 262v387h98v-392c0 -38.667 -5 -72.667 -15 -102s-24 -54.666 -42 -75.999s-39.333 -38.5 -64 -51.5s-52 -22.667 -82 -29s-61.667 -9.5 -95 -9.5c-34.667 0 -67.167 3.16699 -97.5 9.5s-58 16 -83 29s-46.333 30.167 -64 51.5s-31.5 46.666 -41.5 75.999
s-15 63.333 -15 102v392h98v-387c0 -50 9 -88.333 27 -115s42.5 -45 73.5 -55s65.167 -15 102.5 -15c36.667 0 70 5 100 15s54.167 28.333 72.5 55s27.5 65 27.5 115zM380 712c-39.333 0 -71.5 10.167 -96.5 30.5s-37.5 47.5 -37.5 81.5c0 33.333 12.5 60.166 37.5 80.499
s57.167 30.5 96.5 30.5s71.333 -10.167 96 -30.5s37 -47.166 37 -80.499c0 -34 -12.333 -61.167 -37 -81.5s-56.667 -30.5 -96 -30.5zM380 768c22 0 38.167 4.83301 48.5 14.5s15.5 23.5 15.5 41.5c0 17.333 -5.16699 30.833 -15.5 40.5s-26.5 14.5 -48.5 14.5
c-23.333 0 -40 -4.83301 -50 -14.5s-15 -23.167 -15 -40.5c0 -18 5 -31.833 15 -41.5s26.667 -14.5 50 -14.5z" />
    <glyph glyph-name="uring" unicode="&#x16f;" horiz-adv-x="600" 
d="M538 0h-97v499h97v-499zM447 235l0.998047 -30.001c-1.33301 -8.66699 -3.83301 -21.5 -7.5 -38.5s-9.66699 -35.5 -18 -55.5s-19.666 -39.333 -33.999 -58s-32.5 -34 -54.5 -46s-49 -18 -81 -18c-22 0 -44.167 3 -66.5 9s-42.833 16 -61.5 30s-33.667 33.167 -45 57.5
s-17 54.833 -17 91.5v322h97v-301c0 -30.667 5 -54.667 15 -72s23.833 -29.666 41.5 -36.999s37.834 -11 60.501 -11c34.667 0 64 8.33301 88 25s42.667 37.167 56 61.5s22 47.833 26 70.5zM308.998 576.999c-39.333 0 -71.5 10.167 -96.5 30.5s-37.5 47.5 -37.5 81.5
c0 33.333 12.5 60.166 37.5 80.499s57.167 30.5 96.5 30.5s71.333 -10.167 96 -30.5s37 -47.166 37 -80.499c0 -34 -12.333 -61.167 -37 -81.5s-56.667 -30.5 -96 -30.5zM308.998 632.999c22 0 38.167 4.83301 48.5 14.5s15.5 23.5 15.5 41.5
c0 17.333 -5.16699 30.833 -15.5 40.5s-26.5 14.5 -48.5 14.5c-23.333 0 -40 -4.83301 -50 -14.5s-15 -23.167 -15 -40.5c0 -18 5 -31.833 15 -41.5s26.667 -14.5 50 -14.5z" />
    <glyph glyph-name="Uhungarumlaut" unicode="&#x170;" horiz-adv-x="757" 
d="M580 262v387h98v-392c0 -38.667 -5 -72.667 -15 -102s-24 -54.666 -42 -75.999s-39.333 -38.5 -64 -51.5s-52 -22.667 -82 -29s-61.667 -9.5 -95 -9.5c-34.667 0 -67.167 3.16699 -97.5 9.5s-58 16 -83 29s-46.333 30.167 -64 51.5s-31.5 46.666 -41.5 75.999
s-15 63.333 -15 102v392h98v-387c0 -50 9 -88.333 27 -115s42.5 -45 73.5 -55s65.167 -15 102.5 -15c36.667 0 70 5 100 15s54.167 28.333 72.5 55s27.5 65 27.5 115zM427 715l111 160h115l-145 -160h-81zM228 715l109 160h115l-143 -160h-81z" />
    <glyph glyph-name="uhungarumlaut" unicode="&#x171;" horiz-adv-x="600" 
d="M538 0h-97v499h97v-499zM447 235l0.998047 -30.001c-1.33301 -8.66699 -3.83301 -21.5 -7.5 -38.5s-9.66699 -35.5 -18 -55.5s-19.666 -39.333 -33.999 -58s-32.5 -34 -54.5 -46s-49 -18 -81 -18c-22 0 -44.167 3 -66.5 9s-42.833 16 -61.5 30s-33.667 33.167 -45 57.5
s-17 54.833 -17 91.5v322h97v-301c0 -30.667 5 -54.667 15 -72s23.833 -29.666 41.5 -36.999s37.834 -11 60.501 -11c34.667 0 64 8.33301 88 25s42.667 37.167 56 61.5s22 47.833 26 70.5zM352.998 600.999l111 160h115l-145 -160h-81zM153.998 600.999l109 160h115
l-143 -160h-81z" />
    <glyph glyph-name="Uogonek" unicode="&#x172;" horiz-adv-x="757" 
d="M540 -219c-56 0 -100.665 10.8311 -133.998 32.498s-50 51.167 -50 88.5c0 25.333 7.33301 46.333 22 63s34.167 30.167 58.5 40.5s51.166 18.5 80.499 24.5v-21c-22.667 -10 -42.334 -22.5 -59.001 -37.5s-25 -33.5 -25 -55.5c0 -15.333 4.16699 -28.666 12.5 -39.999
s20.5 -20.166 36.5 -26.499s35.333 -9.5 58 -9.5v-59zM580.002 261.998v387h98v-392c0 -38.667 -5 -72.667 -15 -102s-24 -54.666 -42 -75.999s-39.333 -38.5 -64 -51.5s-52 -22.667 -82 -29s-61.667 -9.5 -95 -9.5c-34.667 0 -67.167 3.16699 -97.5 9.5s-58 16 -83 29
s-46.333 30.167 -64 51.5s-31.5 46.666 -41.5 75.999s-15 63.333 -15 102v392h98v-387c0 -50 9 -88.333 27 -115s42.5 -45 73.5 -55s65.167 -15 102.5 -15c36.667 0 70 5 100 15s54.167 28.333 72.5 55s27.5 65 27.5 115z" />
    <glyph glyph-name="uogonek" unicode="&#x173;" horiz-adv-x="600" 
d="M525 -218c-55.333 0 -99.8311 11 -133.498 33s-50.5 51.667 -50.5 89c0 25.333 7.33301 46 22 62s34.167 28.5 58.5 37.5s51.166 15.167 80.499 18.5v-22c-22.667 -4.66699 -42.334 -14 -59.001 -28s-25 -32.333 -25 -55c0 -15.333 4.33301 -28.5 13 -39.5
s21 -19.667 37 -26s35 -9.5 57 -9.5v-60zM538.002 0h-97v499h97v-499zM447.002 235l0.998047 -30.001c-1.33301 -8.66699 -3.83301 -21.5 -7.5 -38.5s-9.66699 -35.5 -18 -55.5s-19.666 -39.333 -33.999 -58s-32.5 -34 -54.5 -46s-49 -18 -81 -18c-22 0 -44.167 3 -66.5 9
s-42.833 16 -61.5 30s-33.667 33.167 -45 57.5s-17 54.833 -17 91.5v322h97v-301c0 -30.667 5 -54.667 15 -72s23.833 -29.666 41.5 -36.999s37.834 -11 60.501 -11c34.667 0 64 8.33301 88 25s42.667 37.167 56 61.5s22 47.833 26 70.5z" />
    <glyph glyph-name="Wcircumflex" unicode="&#x174;" horiz-adv-x="1124" 
d="M267 0l-247 649h106l211 -567h-30l202 567h108l202 -567h-30l211 567h104l-245 -649h-110l-200 576h29l-201 -576h-110zM610 901l144 -160h-110l-107 137h54l-107 -137h-111l145 160h92z" />
    <glyph glyph-name="wcircumflex" unicode="&#x175;" horiz-adv-x="843" 
d="M601 79l-27 1l145 419h106l-189 -499h-90l-139 426h28l-140 -426h-91l-186 499h106l142 -420h-27l125 420h115zM467 761l144 -160h-110l-107 137h54l-107 -137h-111l145 160h92z" />
    <glyph glyph-name="Ycircumflex" unicode="&#x176;" horiz-adv-x="640" 
d="M617 649l-248 -432v-217h-98v217l-248 432h111l212 -379h-48l208 379h111zM366 896l144 -160h-110l-107 137h54l-107 -137h-111l145 160h92z" />
    <glyph glyph-name="ycircumflex" unicode="&#x177;" horiz-adv-x="550" 
d="M18 499h104l191 -479l-84 -20zM531 499l-301 -699h-103l130 271l171 428h103zM319 761l144 -160h-110l-107 137h54l-107 -137h-111l145 160h92z" />
    <glyph glyph-name="Ydieresis" unicode="&#x178;" horiz-adv-x="640" 
d="M617 649l-248 -432v-217h-98v217l-248 432h111l212 -379h-48l208 379h111zM285 840v-103h-120v103h120zM475 840v-103h-119v103h119z" />
    <glyph glyph-name="Zacute" unicode="&#x179;" horiz-adv-x="707" 
d="M61 649h585v-87l-492 -505l-13 30h505v-87h-585v87l494 505l12 -30h-506v87zM304 741l116 160h127l-155 -160h-88z" />
    <glyph glyph-name="zacute" unicode="&#x17a;" horiz-adv-x="539" 
d="M480 416l-337 -365l-14 32h355v-83h-428v83l340 364l13 -31h-353v83h424v-83zM218 601l116 160h127l-155 -160h-88z" />
    <glyph glyph-name="Zdotaccent" unicode="&#x17b;" horiz-adv-x="707" 
d="M61 649h585v-87l-492 -505l-13 30h505v-87h-585v87l494 505l12 -30h-506v87zM413 846v-103h-119v103h119z" />
    <glyph glyph-name="zdotaccent" unicode="&#x17c;" horiz-adv-x="539" 
d="M480 416l-337 -365l-14 32h355v-83h-428v83l340 364l13 -31h-353v83h424v-83zM327 706v-103h-119v103h119z" />
    <glyph glyph-name="Zcaron" unicode="&#x17d;" horiz-adv-x="707" 
d="M61 649h585v-87l-492 -505l-13 30h505v-87h-585v87l494 505l12 -30h-506v87zM385 766h-54l103 135h110l-140 -160h-92l-140 160h110z" />
    <glyph glyph-name="zcaron" unicode="&#x17e;" horiz-adv-x="539" 
d="M480 416l-337 -365l-14 32h355v-83h-428v83l340 364l13 -31h-353v83h424v-83zM299 626h-54l103 135h110l-140 -160h-92l-140 160h110z" />
    <glyph glyph-name="florin" unicode="&#x192;" horiz-adv-x="797" 
d="M565 660c39.333 0 73.5029 -8.1709 102.503 -24.5039s51.333 -38.166 67 -65.499s23.5 -58.666 23.5 -93.999h-95c0 28.667 -8.66699 52 -26 70s-41.333 27 -72 27c-14.667 0 -29 -2.66699 -43 -8s-26.667 -14.833 -38 -28.5s-20.333 -33.167 -27 -58.5s-10 -58 -10 -98
v-126c0 -64 -9 -115.333 -27 -154s-42.333 -66.667 -73 -84s-65.667 -26 -105 -26c-38.667 0 -73.334 8.16699 -104.001 24.5s-54.834 38.333 -72.501 66s-26.5 58.834 -26.5 93.501h95c0 -28.667 10.333 -52 31 -70s46.334 -27 77.001 -27
c19.333 0 37.166 4.83301 53.499 14.5s29.5 27.167 39.5 52.5s15 62 15 110v126c0 70 9.83301 125.333 29.5 166s45.667 69.834 78 87.501s68.166 26.5 107.499 26.5zM228.003 365.996h351v-70h-351v70z" />
    <glyph glyph-name="uni0218" unicode="&#x218;" horiz-adv-x="592" 
d="M35 213l93.0039 0.00488281c2.66699 -26 11.834 -49.333 27.501 -70s37.167 -37 64.5 -49s58.666 -18 93.999 -18c31.333 0 57.5 4.16699 78.5 12.5s36.667 20.166 47 35.499s15.5 33 15.5 53c0 20.667 -5.83301 37.167 -17.5 49.5s-28.834 22.666 -51.501 30.999
s-51 16.5 -85 24.5c-29.333 6.66699 -58.333 15.167 -87 25.5s-54.834 23.166 -78.501 38.499s-42.667 34 -57 56s-21.5 48.333 -21.5 79c0 32.667 9.16699 62.5 27.5 89.5s45.166 48.667 80.499 65s78 24.5 128 24.5c78 0 137 -19.333 177 -58s59.333 -90.334 58 -155.001
h-92c-1.33301 44.667 -15.5 76.834 -42.5 96.501s-61.833 29.5 -104.5 29.5c-36.667 0 -68.167 -7.33301 -94.5 -22s-39.5 -38.334 -39.5 -71.001c0 -14 3 -26.167 9 -36.5s16 -19.666 30 -27.999s33 -16.5 57 -24.5s53.667 -16.667 89 -26c27.333 -6 53.5 -13.667 78.5 -23
s47.667 -21 68 -35s36.333 -31.833 48 -53.5s17.5 -48.834 17.5 -81.501c0 -34 -8.33301 -64.833 -25 -92.5s-42.667 -49.667 -78 -66s-81 -24.5 -137 -24.5c-44 0 -82.333 5.5 -115 16.5s-59.834 25.667 -81.501 44s-38.667 37.666 -51 57.999s-20.833 40 -25.5 59
s-6 34.5 -4 46.5zM253.004 -247.995l-11 25.998c12 9.33301 22.333 19.333 31 30s13.334 20.667 14.001 30l-54 11v85h122v-45c0 -35.333 -8.83301 -64.666 -26.5 -87.999s-42.834 -39.666 -75.501 -48.999v0z" />
    <glyph glyph-name="uni0219" unicode="&#x219;" horiz-adv-x="482" 
d="M41 162l89 -0.00195312c4 -26.667 16.333 -48.334 37 -65.001s49.667 -25 87 -25c23.333 0 41.666 2.83301 54.999 8.5s23 13.334 29 23.001s9 20.834 9 33.501c0 14.667 -4 26.334 -12 35.001s-19.333 15.667 -34 21s-32.334 10.666 -53.001 15.999
c-22 6 -44.167 13 -66.5 21s-42.666 17.667 -60.999 29s-33 25.5 -44 42.5s-16.5 37.5 -16.5 61.5c0 21.333 4.5 41 13.5 59s22 33.5 39 46.5s37 23 60 30s48.167 10.5 75.5 10.5c38.667 0 71.167 -6.83301 97.5 -20.5s46.333 -32.834 60 -57.501
s20.834 -53.334 21.501 -86.001h-85c-4.66699 28.667 -14.5 49.334 -29.5 62.001s-36.833 19 -65.5 19c-29.333 0 -51.666 -5.66699 -66.999 -17s-23 -26.666 -23 -45.999c0 -14 5.33301 -25.5 16 -34.5s25 -16.833 43 -23.5s38.667 -13.667 62 -21l62 -22
c20 -7.33301 37.833 -16.333 53.5 -27s28 -24 37 -40s13.5 -36.333 13.5 -61c0 -29.333 -7.33301 -54.833 -22 -76.5s-36 -38.5 -64 -50.5s-62 -18 -102 -18c-35.333 0 -65.833 4.33301 -91.5 13s-46.834 20 -63.501 34s-29.667 28.833 -39 44.5s-15.5 30.834 -18.5 45.501
s-3.83301 26.667 -2.5 36zM221 -256.002l-11 25.998c12 9.33301 22.333 19.333 31 30s13.334 20.667 14.001 30l-54 11v85h122v-45c0 -35.333 -8.83301 -64.666 -26.5 -87.999s-42.834 -39.666 -75.501 -48.999v0z" />
    <glyph glyph-name="uni021A" unicode="&#x21a;" horiz-adv-x="607" 
d="M17 649h574v-87h-574v87zM255 572h98v-572h-98v572zM260 -246l-11 25.998c12 9.33301 22.333 19.333 31 30s13.334 20.667 14.001 30l-54 11v85h122v-45c0 -35.333 -8.83301 -64.666 -26.5 -87.999s-42.834 -39.666 -75.501 -48.999v0z" />
    <glyph glyph-name="uni021B" unicode="&#x21b;" horiz-adv-x="381" 
d="M28 499h325v-84h-325v84zM142 631h97v-631h-97v631zM147 -246l-11 25.998c12 9.33301 22.333 19.333 31 30s13.334 20.667 14.001 30l-54 11v85h122v-45c0 -35.333 -8.83301 -64.666 -26.5 -87.999s-42.834 -39.666 -75.501 -48.999v0z" />
    <glyph glyph-name="uni022E" unicode="&#x22e;" horiz-adv-x="801" 
d="M401 -11c-68.667 0 -129.167 13.667 -181.5 41s-93.5 66 -123.5 116s-45 109.333 -45 178c0 69.333 15 129 45 179s71.167 88.667 123.5 116s112.833 41 181.5 41c68 0 128.333 -13.667 181 -41s93.834 -66 123.501 -116s44.5 -109.667 44.5 -179
c0 -68.667 -14.833 -128 -44.5 -178s-70.834 -88.667 -123.501 -116s-113 -41 -181 -41zM401 77c48 0 90.667 9.33301 128 28s67 46.334 89 83.001s33 82 33 136c0 54.667 -11 100.167 -33 136.5s-51.667 64 -89 83s-80 28.5 -128 28.5c-47.333 0 -90 -9.5 -128 -28.5
s-68 -46.667 -90 -83s-33 -81.833 -33 -136.5c0 -54 11 -99.333 33 -136s52 -64.334 90 -83.001s80.667 -28 128 -28zM460 842v-103h-119v103h119z" />
    <glyph glyph-name="circumflex" unicode="&#x2c6;" horiz-adv-x="590" 
d="M341 761l144 -160h-110l-107 137h54l-107 -137h-111l145 160h92z" />
    <glyph glyph-name="caron" unicode="&#x2c7;" horiz-adv-x="582" 
d="M322 626h-54l103 135h110l-140 -160h-92l-140 160h110z" />
    <glyph glyph-name="breve" unicode="&#x2d8;" horiz-adv-x="526" 
d="M423 730c-1.33301 -29.333 -7.83398 -55.5 -19.501 -78.5s-29.167 -41.167 -52.5 -54.5s-52.666 -20 -87.999 -20s-64.5 6.66699 -87.5 20s-40.5 31.5 -52.5 54.5s-18.667 49.167 -20 78.5h78c2 -27.333 9.66699 -47.5 23 -60.5s33 -19.5 59 -19.5s45.667 6.5 59 19.5
s21 33.167 23 60.5h78z" />
    <glyph glyph-name="dotaccent" unicode="&#x2d9;" horiz-adv-x="304" 
d="M211 706v-103h-119v103h119z" />
    <glyph glyph-name="ring" unicode="&#x2da;" horiz-adv-x="475" 
d="M238 577c-39.333 0 -71.5 10.167 -96.5 30.5s-37.5 47.5 -37.5 81.5c0 33.333 12.5 60.166 37.5 80.499s57.167 30.5 96.5 30.5s71.333 -10.167 96 -30.5s37 -47.166 37 -80.499c0 -34 -12.333 -61.167 -37 -81.5s-56.667 -30.5 -96 -30.5zM238 633
c22 0 38.167 4.83301 48.5 14.5s15.5 23.5 15.5 41.5c0 17.333 -5.16699 30.833 -15.5 40.5s-26.5 14.5 -48.5 14.5c-23.333 0 -40 -4.83301 -50 -14.5s-15 -23.167 -15 -40.5c0 -18 5 -31.833 15 -41.5s26.667 -14.5 50 -14.5z" />
    <glyph glyph-name="ogonek" unicode="&#x2db;" horiz-adv-x="384" 
d="M284 -218c-55.333 0 -99.8311 11 -133.498 33s-50.5 51.667 -50.5 89c0 25.333 7.16699 46 21.5 62s33.833 28.5 58.5 37.5s51.667 15.167 81 18.5v-22c-22.667 -4.66699 -42.334 -14 -59.001 -28s-25 -32.333 -25 -55c0 -15.333 4.16699 -28.5 12.5 -39.5
s20.666 -19.667 36.999 -26s35.5 -9.5 57.5 -9.5v-60z" />
    <glyph glyph-name="tilde" unicode="&#x2dc;" horiz-adv-x="593" 
d="M369 601c-18 0 -33.833 3.16895 -47.5 9.50195s-26.167 13.833 -37.5 22.5s-22.833 16 -34.5 22s-24.834 9 -39.501 9c-13.333 0 -23.666 -3.33301 -30.999 -10s-12.666 -14.834 -15.999 -24.501s-6 -19.167 -8 -28.5h-75c2.66699 24.667 9 47.334 19 68.001
s23.333 37.167 40 49.5s37 18.5 61 18.5c18 0 34.167 -3 48.5 -9s27.5 -13.333 39.5 -22s23.5 -16.167 34.5 -22.5s22.833 -9.5 35.5 -9.5c13.333 0 23.666 3.5 30.999 10.5s12.833 15.5 16.5 25.5s6.5 19.333 8.5 28h75c-3.33301 -24.667 -9.83301 -47.334 -19.5 -68.001
s-23 -37.334 -40 -50.001s-37.167 -19 -60.5 -19z" />
    <glyph glyph-name="hungarumlaut" unicode="&#x2dd;" horiz-adv-x="579" 
d="M299 601l111 160h115l-145 -160h-81zM100 601l109 160h115l-143 -160h-81z" />
    <glyph glyph-name="gravecomb" unicode="&#x300;" 
d="M255 601l-155 160h127l116 -160h-88z" />
    <glyph glyph-name="acutecomb" unicode="&#x301;" 
d="M94 601l116 160h127l-155 -160h-88z" />
    <glyph glyph-name="uni0302" unicode="&#x302;" 
d="M341 761l144 -160h-110l-107 137h54l-107 -137h-111l145 160h92z" />
    <glyph glyph-name="tildecomb" unicode="&#x303;" 
d="M369 601c-18 0 -33.833 3.16895 -47.5 9.50195s-26.167 13.833 -37.5 22.5s-22.833 16 -34.5 22s-24.834 9 -39.501 9c-13.333 0 -23.666 -3.33301 -30.999 -10s-12.666 -14.834 -15.999 -24.501s-6 -19.167 -8 -28.5h-75c2.66699 24.667 9 47.334 19 68.001
s23.333 37.167 40 49.5s37 18.5 61 18.5c18 0 34.167 -3 48.5 -9s27.5 -13.333 39.5 -22s23.5 -16.167 34.5 -22.5s22.833 -9.5 35.5 -9.5c13.333 0 23.666 3.5 30.999 10.5s12.833 15.5 16.5 25.5s6.5 19.333 8.5 28h75c-3.33301 -24.667 -9.83301 -47.334 -19.5 -68.001
s-23 -37.334 -40 -50.001s-37.167 -19 -60.5 -19z" />
    <glyph glyph-name="uni0304" unicode="&#x304;" 
d="M100 612v73h262v-73h-262z" />
    <glyph glyph-name="uni0306" unicode="&#x306;" 
d="M423 730c-1.33301 -29.333 -7.83398 -55.5 -19.501 -78.5s-29.167 -41.167 -52.5 -54.5s-52.666 -20 -87.999 -20s-64.5 6.66699 -87.5 20s-40.5 31.5 -52.5 54.5s-18.667 49.167 -20 78.5h78c2 -27.333 9.66699 -47.5 23 -60.5s33 -19.5 59 -19.5s45.667 6.5 59 19.5
s21 33.167 23 60.5h78z" />
    <glyph glyph-name="uni0307" unicode="&#x307;" 
d="M211 706v-103h-119v103h119z" />
    <glyph glyph-name="uni0308" unicode="&#x308;" 
d="M213 705v-103h-120v103h120zM403 705v-103h-119v103h119z" />
    <glyph glyph-name="uni030A" unicode="&#x30a;" 
d="M238 577c-39.333 0 -71.5 10.167 -96.5 30.5s-37.5 47.5 -37.5 81.5c0 33.333 12.5 60.166 37.5 80.499s57.167 30.5 96.5 30.5s71.333 -10.167 96 -30.5s37 -47.166 37 -80.499c0 -34 -12.333 -61.167 -37 -81.5s-56.667 -30.5 -96 -30.5zM238 633
c22 0 38.167 4.83301 48.5 14.5s15.5 23.5 15.5 41.5c0 17.333 -5.16699 30.833 -15.5 40.5s-26.5 14.5 -48.5 14.5c-23.333 0 -40 -4.83301 -50 -14.5s-15 -23.167 -15 -40.5c0 -18 5 -31.833 15 -41.5s26.667 -14.5 50 -14.5z" />
    <glyph glyph-name="uni030B" unicode="&#x30b;" 
d="M299 601l111 160h115l-145 -160h-81zM100 601l109 160h115l-143 -160h-81z" />
    <glyph glyph-name="uni030C" unicode="&#x30c;" 
d="M322 626h-54l103 135h110l-140 -160h-92l-140 160h110z" />
    <glyph glyph-name="uni0312" unicode="&#x312;" 
d="M307 756l11.001 -25.999c-9.33301 -6.66699 -18.833 -15.834 -28.5 -27.501s-14.834 -22.5 -15.501 -32.5l53 -11v-85h-123v45c0 36 9.16699 65.667 27.5 89s43.5 39.333 75.5 48z" />
    <glyph glyph-name="uni0326" unicode="&#x326;" 
d="M65 -246l-11 25.998c12 9.33301 22.333 19.333 31 30s13.334 20.667 14.001 30l-54 11v85h122v-45c0 -35.333 -8.83301 -64.666 -26.5 -87.999s-42.834 -39.666 -75.501 -48.999v0z" />
    <glyph glyph-name="uni0327" unicode="&#x327;" 
d="M306 16l-0.00195312 -105.999l-28 54c12 -3.33301 22.667 -7.83301 32 -13.5s17.833 -12.334 25.5 -20.001s13.5 -16.834 17.5 -27.501s6 -22.667 6 -36c0 -25.333 -10.5 -48.333 -31.5 -69s-52.833 -31 -95.5 -31c-27.333 0 -50.666 5.5 -69.999 16.5
s-33.666 25.333 -42.999 43s-12.666 36.167 -9.99902 55.5h70c0.666992 -4 2.5 -9.66699 5.5 -17s8.33301 -14 16 -20s18.834 -9 33.501 -9c17.333 0 29.166 4.5 35.499 13.5s9.5 18.167 9.5 27.5c0 6.66699 -1.5 13.834 -4.5 21.501s-8.83301 15.5 -17.5 23.5
s-22.334 15 -41.001 21v73h90z" />
    <glyph glyph-name="uni0328" unicode="&#x328;" 
d="M284 -218c-55.333 0 -99.8311 11 -133.498 33s-50.5 51.667 -50.5 89c0 25.333 7.16699 46 21.5 62s33.833 28.5 58.5 37.5s51.667 15.167 81 18.5v-22c-22.667 -4.66699 -42.334 -14 -59.001 -28s-25 -32.333 -25 -55c0 -15.333 4.16699 -28.5 12.5 -39.5
s20.666 -19.667 36.999 -26s35.5 -9.5 57.5 -9.5v-60z" />
    <glyph glyph-name="uni0335" unicode="&#x335;" 
d="M92 428h319v-70h-319v70z" />
    <glyph glyph-name="uni0336" unicode="&#x336;" 
d="M92 424h400v-60h-400v60z" />
    <glyph glyph-name="uni0337" unicode="&#x337;" 
d="M500 564l37 -53l-410 -280l-35 53z" />
    <glyph glyph-name="uni0338" unicode="&#x338;" 
d="M477 707l54 -30l-387 -700l-52 32z" />
    <glyph glyph-name="uni0394" unicode="&#x394;" horiz-adv-x="646" 
d="M323 700l283 -700h-566zM323 479l-148 -392h297z" />
    <glyph glyph-name="uni03A9" unicode="&#x3a9;" horiz-adv-x="691" 
d="M42 0l0.00195312 87l171 -6v30c-26 9.33301 -50.667 21.5 -74 36.5s-43.833 33.167 -61.5 54.5s-31.667 45.5 -42 72.5s-15.5 56.833 -15.5 89.5c0 40 7.5 77.667 22.5 113s36.833 66.833 65.5 94.5s63.167 49.334 103.5 65.001s85.166 23.5 134.499 23.5
c50 0 94.833 -7.83301 134.5 -23.5s73.834 -37.334 102.501 -65.001s50.5 -59.167 65.5 -94.5s22.5 -73 22.5 -113c0 -34 -5.66699 -65 -17 -93s-26.333 -52.667 -45 -74s-39.167 -39.166 -61.5 -53.499s-44.5 -25.166 -66.5 -32.499v-30l168 6v-87h-249v137
c26.667 12 53.334 27.5 80.001 46.5s49 43 67 72s27 63.833 27 104.5c0 39.333 -9 74.666 -27 105.999s-44 56.333 -78 75s-75 28 -123 28c-48.667 0 -89.834 -9.33301 -123.501 -28s-59.5 -43.667 -77.5 -75s-27 -66.666 -27 -105.999
c0 -41.333 9.16699 -76.833 27.5 -106.5s41.166 -53.834 68.499 -72.501s54.666 -33.334 81.999 -44.001v-137h-254z" />
    <glyph glyph-name="uni03BC" unicode="&#x3bc;" horiz-adv-x="667" 
d="M636 -9c-46 0 -83.333 7.16602 -112 21.499s-49.667 34.833 -63 61.5s-20 58.334 -20 95.001v330h97v-322c0 -27.333 3.5 -47.833 10.5 -61.5s17.667 -22.667 32 -27s32.833 -6.5 55.5 -6.5v-91zM447 234.999l0.998047 -30
c-1.33301 -8.66699 -3.66602 -21.5 -6.99902 -38.5s-8.66602 -35.5 -15.999 -55.5s-17.833 -39.333 -31.5 -58s-31.167 -34 -52.5 -46s-47.333 -18 -78 -18c-28 0 -51.833 6.66699 -71.5 20s-34.834 33 -45.501 59l14 16v-284h-97v699h97v-299
c0 -31.333 5.16699 -55.833 15.5 -73.5s24.5 -30.167 42.5 -37.5s38 -11 60 -11c34.667 0 63.834 8.33301 87.501 25s42.167 37.167 55.5 61.5s22 47.833 26 70.5z" />
    <glyph glyph-name="pi" unicode="&#x3c0;" horiz-adv-x="674" 
d="M157 442h97v-442h-97v442zM624 499v-83h-574v83h574zM517 176c0 -28.667 3.66602 -50.168 10.999 -64.501s18.833 -23.666 34.5 -27.999s35.834 -6.5 60.501 -6.5v-87c-46.667 0 -85.167 7.33301 -115.5 22s-52.5 35.667 -66.5 63s-21 60.333 -21 99v268h97v-266z" />
    <glyph glyph-name="Wgrave" unicode="&#x1e80;" horiz-adv-x="1124" 
d="M267 0l-247 649h106l211 -567h-30l202 567h108l202 -567h-30l211 567h104l-245 -649h-110l-200 576h29l-201 -576h-110zM522 741l-155 160h127l116 -160h-88z" />
    <glyph glyph-name="wgrave" unicode="&#x1e81;" horiz-adv-x="843" 
d="M601 79l-27 1l145 419h106l-189 -499h-90l-139 426h28l-140 -426h-91l-186 499h106l142 -420h-27l125 420h115zM379 601l-155 160h127l116 -160h-88z" />
    <glyph glyph-name="Wacute" unicode="&#x1e82;" horiz-adv-x="1124" 
d="M267 0l-247 649h106l211 -567h-30l202 567h108l202 -567h-30l211 567h104l-245 -649h-110l-200 576h29l-201 -576h-110zM515 741l116 160h127l-155 -160h-88z" />
    <glyph glyph-name="wacute" unicode="&#x1e83;" horiz-adv-x="843" 
d="M601 79l-27 1l145 419h106l-189 -499h-90l-139 426h28l-140 -426h-91l-186 499h106l142 -420h-27l125 420h115zM371 601l116 160h127l-155 -160h-88z" />
    <glyph glyph-name="Wdieresis" unicode="&#x1e84;" horiz-adv-x="1124" 
d="M267 0l-247 649h106l211 -567h-30l202 567h108l202 -567h-30l211 567h104l-245 -649h-110l-200 576h29l-201 -576h-110zM361 659v-103h-120v103h120zM873 659v-103h-120v103h120z" />
    <glyph glyph-name="wdieresis" unicode="&#x1e85;" horiz-adv-x="843" 
d="M601 79l-27 1l145 419h106l-189 -499h-90l-139 426h28l-140 -426h-91l-186 499h106l142 -420h-27l125 420h115zM386 705v-103h-120v103h120zM576 705v-103h-119v103h119z" />
    <glyph glyph-name="Ygrave" unicode="&#x1ef2;" horiz-adv-x="640" 
d="M617 649l-248 -432v-217h-98v217l-248 432h111l212 -379h-48l208 379h111zM278 736l-155 160h127l116 -160h-88z" />
    <glyph glyph-name="ygrave" unicode="&#x1ef3;" horiz-adv-x="550" 
d="M18 499h104l191 -479l-84 -20zM531 499l-301 -699h-103l130 271l171 428h103zM231 601l-155 160h127l116 -160h-88z" />
    <glyph glyph-name="endash" unicode="&#x2013;" horiz-adv-x="575" 
d="M80 313h415v-85h-415v85z" />
    <glyph glyph-name="emdash" unicode="&#x2014;" horiz-adv-x="815" 
d="M60 314h695v-85h-695v85z" />
    <glyph glyph-name="quoteleft" unicode="&#x2018;" horiz-adv-x="209" 
d="M136 700l21 -26.002c-10.667 -17.333 -20.167 -35.166 -28.5 -53.499s-13.166 -36.5 -14.499 -54.5l52 -10v-103h-123v74c0 43.333 9.16699 78.333 27.5 105s40.166 49.334 65.499 68.001z" />
    <glyph glyph-name="quoteright" unicode="&#x2019;" horiz-adv-x="209" 
d="M72 404l-20.001 26.002c10 17.333 19.333 35.166 28 53.499s13.334 36.166 14.001 53.499l-51 11v103h123v-74c0 -42.667 -9.16699 -77.5 -27.5 -104.5s-40.5 -49.833 -66.5 -68.5z" />
    <glyph glyph-name="quotesinglbase" unicode="&#x201a;" horiz-adv-x="209" 
d="M72 -144l-20.001 26c10 17.333 19.333 35 28 53s13.334 36 14.001 54l-51 11v103h123v-74c0 -42.667 -9.16699 -77.5 -27.5 -104.5s-40.5 -49.833 -66.5 -68.5z" />
    <glyph glyph-name="quotedblleft" unicode="&#x201c;" horiz-adv-x="375" 
d="M136 700l21 -26.002c-10.667 -17.333 -20.167 -35.166 -28.5 -53.499s-13.166 -36.5 -14.499 -54.5l52 -10v-103h-123v74c0 43.333 9.16699 78.333 27.5 105s40.166 49.334 65.499 68.001zM302 699.998l21 -26.002c-10.667 -17.333 -20.167 -35.166 -28.5 -53.499
s-13.166 -36.5 -14.499 -54.5l52 -10v-103h-123v74c0 43.333 9.16699 78.333 27.5 105s40.166 49.334 65.499 68.001z" />
    <glyph glyph-name="quotedblright" unicode="&#x201d;" horiz-adv-x="375" 
d="M72 404l-20.001 26.002c10 17.333 19.333 35.166 28 53.499s13.334 36.166 14.001 53.499l-51 11v103h123v-74c0 -42.667 -9.16699 -77.5 -27.5 -104.5s-40.5 -49.833 -66.5 -68.5zM237.999 404.002l-20.001 26.002c10 17.333 19.333 35.166 28 53.499
s13.334 36.166 14.001 53.499l-51 11v103h123v-74c0 -42.667 -9.16699 -77.5 -27.5 -104.5s-40.5 -49.833 -66.5 -68.5z" />
    <glyph glyph-name="quotedblbase" unicode="&#x201e;" horiz-adv-x="375" 
d="M72 -144l-20.001 26.002c10 17.333 19.333 35.166 28 53.499s13.334 36.166 14.001 53.499l-51 11v103h123v-74c0 -42.667 -9.16699 -77.5 -27.5 -104.5s-40.5 -49.833 -66.5 -68.5zM237.999 -143.998l-20.001 26.002c10 17.333 19.333 35.166 28 53.499
s13.334 36.166 14.001 53.499l-51 11v103h123v-74c0 -42.667 -9.16699 -77.5 -27.5 -104.5s-40.5 -49.833 -66.5 -68.5z" />
    <glyph glyph-name="dagger" unicode="&#x2020;" horiz-adv-x="652" 
d="M101 500h450v-87h-450v87zM277 700h97v-900h-97v900z" />
    <glyph glyph-name="daggerdbl" unicode="&#x2021;" horiz-adv-x="641" 
d="M272 -200v900h97v-900h-97zM95 6v87h451v-87h-451zM95 413v87h451v-87h-451z" />
    <glyph glyph-name="bullet" unicode="&#x2022;" horiz-adv-x="449" 
d="M99 388h251v-252h-251v252z" />
    <glyph glyph-name="ellipsis" unicode="&#x2026;" horiz-adv-x="636" 
d="M572 103v-103h-120v103h120zM183 103v-103h-120v103h120zM378 103v-103h-120v103h120z" />
    <glyph glyph-name="perthousand" unicode="&#x2030;" horiz-adv-x="942" 
d="M198 335c-31.333 0 -59 6.83301 -83 20.5s-42.5 32.834 -55.5 57.501s-19.5 53 -19.5 85c0 49.333 14.5 88.833 43.5 118.5s67.167 44.5 114.5 44.5c46.667 0 84.667 -14.833 114 -44.5s44 -69.167 44 -118.5c0 -32 -6.66699 -60.333 -20 -85
s-31.833 -43.834 -55.5 -57.501s-51.167 -20.5 -82.5 -20.5zM198 412c21.333 0 39 7.83301 53 23.5s21 36.5 21 62.5c0 26.667 -7 47.834 -21 63.501s-31.667 23.5 -53 23.5s-39.166 -7.83301 -53.499 -23.5s-21.5 -36.834 -21.5 -63.501c0 -26 7.16699 -46.833 21.5 -62.5
s32.166 -23.5 53.499 -23.5zM745 231c-31.333 0 -58.835 6.83301 -82.502 20.5s-42.167 32.667 -55.5 57s-20 52.833 -20 85.5c0 49.333 14.5 88.833 43.5 118.5s67.167 44.5 114.5 44.5c46.667 0 84.5 -14.833 113.5 -44.5s43.5 -69.167 43.5 -118.5
c0 -32.667 -6.66699 -61.167 -20 -85.5s-31.666 -43.333 -54.999 -57s-50.666 -20.5 -81.999 -20.5zM744.998 307c21.333 0 39 7.83301 53 23.5s21 36.834 21 63.501c0 26 -7 46.833 -21 62.5s-31.667 23.5 -53 23.5c-22 0 -40 -7.83301 -54 -23.5s-21 -36.5 -21 -62.5
c0 -26.667 7 -47.834 21 -63.501s32 -23.5 54 -23.5zM557.998 -104c-30.667 0 -58 6.83301 -82 20.5s-42.667 32.834 -56 57.501s-20 53 -20 85c0 49.333 14.667 88.833 44 118.5s67.333 44.5 114 44.5c47.333 0 85.5 -15 114.5 -45s43.5 -69.333 43.5 -118
c0 -32 -6.66699 -60.333 -20 -85s-31.833 -43.834 -55.5 -57.501s-51.167 -20.5 -82.5 -20.5zM557.998 -27c21.333 0 39 7.83301 53 23.5s21 36.5 21 62.5c0 26.667 -7 47.834 -21 63.501s-31.667 23.5 -53 23.5s-39.166 -7.83301 -53.499 -23.5
s-21.5 -36.834 -21.5 -63.501c0 -26 7.16699 -46.833 21.5 -62.5s32.166 -23.5 53.499 -23.5zM570.998 686l54 -30l-382 -690l-52 32z" />
    <glyph glyph-name="guilsinglleft" unicode="&#x2039;" horiz-adv-x="403" 
d="M60 279l232 252l61 -59l-233 -244zM60 279l60 51l233 -244l-61 -59z" />
    <glyph glyph-name="guilsinglright" unicode="&#x203a;" horiz-adv-x="403" 
d="M343 279l-60 -51l-233 244l61 59zM343 279l-232 -252l-61 59l233 244z" />
    <glyph glyph-name="fraction" unicode="&#x2044;" horiz-adv-x="117" 
d="M223 700l54 -30l-382 -690l-52 32z" />
    <glyph glyph-name="uni2074" unicode="&#x2074;" horiz-adv-x="314" 
d="M254 536h40v-60h-40v-76h-63v76h-151v60l147 167h67v-167zM191 536v90l-78 -90h78z" />
    <glyph glyph-name="Euro" unicode="&#x20ac;" horiz-adv-x="830" 
d="M430 232h-410l60 59h402zM535 342h-515l60 60h508zM239 245c10 -36 26.6641 -66.5 49.9971 -91.5s51 -43.833 83 -56.5s66.333 -19 103 -19c34.667 0 66.167 5.5 94.5 16.5s52.5 27.333 72.5 49s34.667 47.834 44 78.501h93c-6 -48 -22.667 -89.5 -50 -124.5
s-62.666 -61.833 -105.999 -80.5s-92.666 -28 -147.999 -28c-43.333 0 -83.666 5.66699 -120.999 17s-71 28.166 -101 50.499s-55 49.333 -75 81s-34 67.5 -42 107.5h103zM652.997 484c-19.333 28 -44.5 49.334 -75.5 64.001s-65.167 22 -102.5 22
c-39.333 0 -75.833 -7.33301 -109.5 -22s-62 -35.834 -85 -63.501s-38.833 -62.167 -47.5 -103.5h-100c6 44 18.5 83.333 37.5 118s43.333 64 73 88s63.5 42.167 101.5 54.5s79 18.5 123 18.5c54.667 0 103.5 -9 146.5 -27s77.833 -43.667 104.5 -77z" />
    <glyph glyph-name="trademark" unicode="&#x2122;" horiz-adv-x="939" 
d="M274 399h-92v168h-103v82h300v-82h-105v-168zM655 471l112 178h93v-250h-91l-1 126l-67 -127h-92l-68 126v-125h-91v250h92zM860 252h-771v80h771v-80z" />
    <glyph glyph-name="uni2150" unicode="&#x2150;" horiz-adv-x="853" 
d="M25 258v72h98v246h-93v73h181v-319h84v-72h-270zM605 700l54 -30l-382 -690l-52 32zM572 321v70h260v-67l-139 -324h-84l139 321h-176z" />
    <glyph glyph-name="uni2151" unicode="&#x2151;" horiz-adv-x="863" 
d="M25 258v72h98v246h-93v73h181v-319h84v-72h-270zM605 700l54 -30l-382 -690l-52 32zM685 399c30 0 56.5 -5.99805 79.5 -17.998s40.667 -28 53 -48s18.5 -42 18.5 -66c0 -12.667 -1.33301 -24.834 -4 -36.501s-7.66699 -24.5 -15 -38.5
c-3.33301 -7.33301 -9 -18.5 -17 -33.5l-26.5 -49.5l-28.5 -52l-23 -41l-9 -16h-91l88 135c-6 -3.33301 -12.167 -6 -18.5 -8s-13.833 -3 -22.5 -3c-39.333 0 -71.333 13 -96 39s-37 58.667 -37 98c0 41.333 13.667 74.666 41 99.999s63.333 38 108 38zM684 191.002
c22.667 0 40.834 6.33105 54.501 18.998s20.5 29 20.5 49c0 18.667 -6.83301 34.334 -20.5 47.001s-31.834 19 -54.501 19s-40.167 -6.16699 -52.5 -18.5s-18.5 -28.166 -18.5 -47.499c0 -20 6.33301 -36.333 19 -49s30 -19 52 -19z" />
    <glyph glyph-name="uni2152" unicode="&#x2152;" horiz-adv-x="1262" 
d="M25 258v72h98v246h-93v73h181v-319h84v-72h-270zM605 700l54 -30l-382 -690l-52 32zM588 0v72h98v246h-93v73h181v-319h84v-72h-270zM1052 397c36.667 0 67.5 -8.83301 92.5 -26.5s43.833 -42 56.5 -73s19 -65.833 19 -104.5c0 -39.333 -6.33301 -74.333 -19 -105
s-31.5 -54.834 -56.5 -72.501s-55.833 -26.5 -92.5 -26.5s-67.667 8.83301 -93 26.5s-44.333 41.834 -57 72.501s-19 65.667 -19 105c0 38.667 6.33301 73.5 19 104.5s31.667 55.333 57 73s56.333 26.5 93 26.5zM1052 75c27.333 0 48.5 10.833 63.5 32.5
s22.5 50.167 22.5 85.5c0 36 -7.5 64.5 -22.5 85.5s-36.167 31.5 -63.5 31.5c-28 0 -49.5 -10.5 -64.5 -31.5s-22.5 -49.5 -22.5 -85.5c0 -35.333 7.5 -63.833 22.5 -85.5s36.5 -32.5 64.5 -32.5z" />
    <glyph glyph-name="uni2153" unicode="&#x2153;" horiz-adv-x="850" 
d="M25 258v72h98v246h-93v73h181v-319h84v-72h-270zM605 700l54 -30l-382 -690l-52 32zM700 204c23.333 -2.66699 43.501 -7.66797 60.501 -15.001s30 -17.333 39 -30s13.5 -29 13.5 -49c0 -34.667 -12.333 -63.5 -37 -86.5s-58 -34.5 -100 -34.5
c-29.333 0 -55 5.66699 -77 17s-38.333 26.5 -49 45.5s-15.334 39.833 -14.001 62.5h69c0 -15.333 6 -27.833 18 -37.5s29.667 -14.5 53 -14.5c21.333 0 36.5 4.83301 45.5 14.5s13.5 22.834 13.5 39.501c0 17.333 -6.5 31 -19.5 41s-32.167 15 -57.5 15h-34v59h34
c26 0 44.5 4.33301 55.5 13s16.5 21 16.5 37c0 13.333 -5.16699 24 -15.5 32s-24.5 12 -42.5 12c-18.667 0 -33.5 -4.16699 -44.5 -12.5s-16.833 -18.833 -17.5 -31.5h-69c-2 22.667 2.5 42.834 13.5 60.501s26.833 31.667 47.5 42s44 15.5 70 15.5c42 0 75 -10.5 99 -31.5
s36 -44.833 36 -71.5c0 -28.667 -9.33301 -50.334 -28 -65.001s-45 -23.667 -79 -27z" />
    <glyph glyph-name="uni2154" unicode="&#x2154;" horiz-adv-x="861" 
d="M310 258l-274.003 0.00195312v72c22.667 16 43.5 31.833 62.5 47.5s35.833 30.667 50.5 45s27.334 28 38.001 41s18.834 25.5 24.501 37.5s8.5 23 8.5 33c0 33.333 -17.667 50 -53 50c-20 0 -34.667 -4.83301 -44 -14.5s-14.333 -18.834 -15 -27.501h-73
c-2 21.333 2.5 40.833 13.5 58.5s27 31.667 48 42s45.5 15.5 73.5 15.5c27.333 0 50.833 -4.5 70.5 -13.5s34.834 -21.667 45.501 -38s16 -35.833 16 -58.5c0 -24 -6 -46.833 -18 -68.5s-27.5 -41.834 -46.5 -60.501s-39.167 -36.667 -60.5 -54l-47 -35l180 1v-73z
M615.997 700.002l54 -30l-382 -690l-52 32zM710.997 204.002c23.333 -2.66699 43.501 -7.66797 60.501 -15.001s30 -17.333 39 -30s13.5 -29 13.5 -49c0 -34.667 -12.333 -63.5 -37 -86.5s-58 -34.5 -100 -34.5c-29.333 0 -55 5.66699 -77 17s-38.333 26.5 -49 45.5
s-15.334 39.833 -14.001 62.5h69c0 -15.333 6 -27.833 18 -37.5s29.667 -14.5 53 -14.5c21.333 0 36.5 4.83301 45.5 14.5s13.5 22.834 13.5 39.501c0 17.333 -6.5 31 -19.5 41s-32.167 15 -57.5 15h-34v59h34c26 0 44.5 4.33301 55.5 13s16.5 21 16.5 37
c0 13.333 -5.16699 24 -15.5 32s-24.5 12 -42.5 12c-18.667 0 -33.5 -4.16699 -44.5 -12.5s-16.833 -18.833 -17.5 -31.5h-69c-2 22.667 2.5 42.834 13.5 60.501s26.833 31.667 47.5 42s44 15.5 70 15.5c42 0 75 -10.5 99 -31.5s36 -44.833 36 -71.5
c0 -28.667 -9.33301 -50.334 -28 -65.001s-45 -23.667 -79 -27z" />
    <glyph glyph-name="uni2155" unicode="&#x2155;" horiz-adv-x="901" 
d="M25 258v72h98v246h-93v73h181v-319h84v-72h-270zM605 700l54 -30l-382 -690l-52 32zM728 257c24.667 0 46.667 -5.5 66 -16.5s34.333 -26.333 45 -46s16 -42.834 16 -69.501c0 -40.667 -13.167 -73.5 -39.5 -98.5s-61.5 -37.5 -105.5 -37.5
c-28.667 0 -54.167 5.16699 -76.5 15.5s-40 25.333 -53 45s-20.5 42.834 -22.5 69.501h75c1.33301 -16.667 9 -30.167 23 -40.5s32.333 -15.5 55 -15.5c20 0 36.167 5.66699 48.5 17s18.5 27 18.5 47s-5.83301 35.5 -17.5 46.5s-27.167 16.5 -46.5 16.5
c-12 0 -23.167 -1.33301 -33.5 -4s-19 -6.66699 -26 -12s-12.167 -12.333 -15.5 -21l-68 17l14 221h235v-71h-169l-7 -101c9.33301 12.667 20.833 22.167 34.5 28.5s30.167 9.5 49.5 9.5z" />
    <glyph glyph-name="uni2156" unicode="&#x2156;" horiz-adv-x="912" 
d="M310 258l-274.003 0.00195312v72c22.667 16 43.5 31.833 62.5 47.5s35.833 30.667 50.5 45s27.334 28 38.001 41s18.834 25.5 24.501 37.5s8.5 23 8.5 33c0 33.333 -17.667 50 -53 50c-20 0 -34.667 -4.83301 -44 -14.5s-14.333 -18.834 -15 -27.501h-73
c-2 21.333 2.5 40.833 13.5 58.5s27 31.667 48 42s45.5 15.5 73.5 15.5c27.333 0 50.833 -4.5 70.5 -13.5s34.834 -21.667 45.501 -38s16 -35.833 16 -58.5c0 -24 -6 -46.833 -18 -68.5s-27.5 -41.834 -46.5 -60.501s-39.167 -36.667 -60.5 -54l-47 -35l180 1v-73z
M615.997 700.002l54 -30l-382 -690l-52 32zM738.997 257.002c24.667 0 46.667 -5.5 66 -16.5s34.333 -26.333 45 -46s16 -42.834 16 -69.501c0 -40.667 -13.167 -73.5 -39.5 -98.5s-61.5 -37.5 -105.5 -37.5c-28.667 0 -54.167 5.16699 -76.5 15.5s-40 25.333 -53 45
s-20.5 42.834 -22.5 69.501h75c1.33301 -16.667 9 -30.167 23 -40.5s32.333 -15.5 55 -15.5c20 0 36.167 5.66699 48.5 17s18.5 27 18.5 47s-5.83301 35.5 -17.5 46.5s-27.167 16.5 -46.5 16.5c-12 0 -23.167 -1.33301 -33.5 -4s-19 -6.66699 -26 -12
s-12.167 -12.333 -15.5 -21l-68 17l14 221h235v-71h-169l-7 -101c9.33301 12.667 20.833 22.167 34.5 28.5s30.167 9.5 49.5 9.5z" />
    <glyph glyph-name="uni2157" unicode="&#x2157;" horiz-adv-x="875" 
d="M200 461c24 -2 44.501 -6.66797 61.501 -14.001s30 -17.333 39 -30s13.5 -29 13.5 -49c0 -34.667 -12.333 -63.5 -37 -86.5s-58 -34.5 -100 -34.5c-29.333 0 -55 5.66699 -77 17s-38.333 26.5 -49 45.5s-15.334 39.833 -14.001 62.5h69c0 -15.333 6 -27.833 18 -37.5
s29.667 -14.5 53 -14.5c21.333 0 36.5 4.83301 45.5 14.5s13.5 22.834 13.5 39.501s-6.5 30.167 -19.5 40.5s-32.167 15.5 -57.5 15.5h-34v59h34c26 0 44.5 4.33301 55.5 13s16.5 21 16.5 37c0 13.333 -5.16699 24 -15.5 32s-24.5 12 -42.5 12
c-18.667 0 -33.5 -4.16699 -44.5 -12.5s-16.833 -18.833 -17.5 -31.5h-69c-2 22.667 2.5 42.834 13.5 60.501s26.833 31.667 47.5 42s44 15.5 70 15.5c42 0 75 -10.5 99 -31.5s36 -44.833 36 -71.5c0 -28.667 -9.5 -50.334 -28.5 -65.001s-45.5 -24 -79.5 -28z
M578.001 699.999l54 -30l-382 -690l-52 32zM702.001 256.999c24.667 0 46.667 -5.5 66 -16.5s34.333 -26.333 45 -46s16 -42.834 16 -69.501c0 -40.667 -13.167 -73.5 -39.5 -98.5s-61.5 -37.5 -105.5 -37.5c-28.667 0 -54.167 5.16699 -76.5 15.5s-40 25.333 -53 45
s-20.5 42.834 -22.5 69.501h75c1.33301 -16.667 9 -30.167 23 -40.5s32.333 -15.5 55 -15.5c20 0 36.167 5.66699 48.5 17s18.5 27 18.5 47s-5.83301 35.5 -17.5 46.5s-27.167 16.5 -46.5 16.5c-12 0 -23.167 -1.33301 -33.5 -4s-19 -6.66699 -26 -12
s-12.167 -12.333 -15.5 -21l-68 17l14 221h235v-71h-169l-7 -101c9.33301 12.667 20.833 22.167 34.5 28.5s30.167 9.5 49.5 9.5z" />
    <glyph glyph-name="uni2158" unicode="&#x2158;" horiz-adv-x="922" 
d="M217 258v74h-171v68l175 249h79v-247h44v-70h-44v-74h-83zM133 401h85v135zM625 700l54 -30l-382 -690l-52 32zM749 257c24.667 0 46.667 -5.5 66 -16.5s34.333 -26.333 45 -46s16 -42.834 16 -69.501c0 -40.667 -13.167 -73.5 -39.5 -98.5s-61.5 -37.5 -105.5 -37.5
c-28.667 0 -54.167 5.16699 -76.5 15.5s-40 25.333 -53 45s-20.5 42.834 -22.5 69.501h75c1.33301 -16.667 9 -30.167 23 -40.5s32.333 -15.5 55 -15.5c20 0 36.167 5.66699 48.5 17s18.5 27 18.5 47s-5.83301 35.5 -17.5 46.5s-27.167 16.5 -46.5 16.5
c-12 0 -23.167 -1.33301 -33.5 -4s-19 -6.66699 -26 -12s-12.167 -12.333 -15.5 -21l-68 17l14 221h235v-71h-169l-7 -101c9.33301 12.667 20.833 22.167 34.5 28.5s30.167 9.5 49.5 9.5z" />
    <glyph glyph-name="uni2159" unicode="&#x2159;" horiz-adv-x="839" 
d="M25 258v72h98v246h-93v73h181v-319h84v-72h-270zM605 700l54 -30l-382 -690l-52 32zM670 264c38.667 0 70.332 -13.001 94.999 -39.001s37 -58.667 37 -98c0 -41.333 -13.5 -74.666 -40.5 -99.999s-61.833 -38 -104.5 -38c-31.333 0 -58.666 6 -81.999 18
s-41.333 28 -54 48s-19 42 -19 66c0 12.667 1.5 24.834 4.5 36.501s7.83301 24.5 14.5 38.5c3.33301 7.33301 8.83301 18.666 16.5 33.999l26 50l28.5 52.5l23 41.5l9 16h91l-89 -139c6.66699 4.66699 13.5 8 20.5 10s14.833 3 23.5 3zM654.998 62.999
c22.667 0 40 6.33301 52 19s18 28.667 18 48c0 20 -6.16699 36.167 -18.5 48.5s-29.833 18.5 -52.5 18.5s-41 -6.16699 -55 -18.5s-21 -28.5 -21 -48.5c0 -19.333 7.16699 -35.333 21.5 -48s32.833 -19 55.5 -19z" />
    <glyph glyph-name="uni215A" unicode="&#x215a;" horiz-adv-x="859" 
d="M229 515c24.667 0 46.667 -5.49902 66 -16.499s34.333 -26.333 45 -46s16 -42.834 16 -69.501c0 -41.333 -13.167 -74.333 -39.5 -99s-61.5 -37 -105.5 -37c-28.667 0 -54.167 5.33301 -76.5 16s-40 25.667 -53 45s-20.5 42.333 -22.5 69h75
c1.33301 -16.667 9 -30.167 23 -40.5s32.333 -15.5 55 -15.5c20 0 36.167 5.66699 48.5 17s18.5 27 18.5 47s-5.83301 35.5 -17.5 46.5s-27.167 16.5 -46.5 16.5c-12 0 -23.167 -1.33301 -33.5 -4s-19 -6.66699 -26 -12s-12.167 -12.333 -15.5 -21l-68 16l14 222h235v-71
h-169l-7 -101c9.33301 12.667 20.833 22.167 34.5 28.5s30.167 9.5 49.5 9.5zM625 700.001l54 -30l-382 -690l-52 32zM691 264.001c38.667 0 70.332 -13.001 94.999 -39.001s37 -58.667 37 -98c0 -41.333 -13.5 -74.666 -40.5 -99.999s-61.833 -38 -104.5 -38
c-31.333 0 -58.666 6 -81.999 18s-41.333 28 -54 48s-19 42 -19 66c0 12.667 1.5 24.834 4.5 36.501s7.83301 24.5 14.5 38.5c3.33301 7.33301 8.83301 18.666 16.5 33.999l26 50l28.5 52.5l23 41.5l9 16h91l-89 -139c6.66699 4.66699 13.5 8 20.5 10s14.833 3 23.5 3z
M675.998 63c22.667 0 40 6.33301 52 19s18 28.667 18 48c0 20 -6.16699 36.167 -18.5 48.5s-29.833 18.5 -52.5 18.5s-41 -6.16699 -55 -18.5s-21 -28.5 -21 -48.5c0 -19.333 7.16699 -35.333 21.5 -48s32.833 -19 55.5 -19z" />
    <glyph glyph-name="oneeighth" unicode="&#x215b;" horiz-adv-x="859" 
d="M25 258v72h98v246h-93v73h181v-319h84v-72h-270zM605 700l54 -30l-382 -690l-52 32zM750 203c14.667 -4 27.332 -10.334 37.999 -19.001s19 -19.334 25 -32.001s9 -27 9 -43c0 -23.333 -6 -44.166 -18 -62.499s-28.667 -32.5 -50 -42.5s-46.333 -15 -75 -15
c-29.333 0 -54.666 5 -75.999 15s-37.833 24.167 -49.5 42.5s-17.5 39.166 -17.5 62.499c0 16 3 30.333 9 43s14.167 23.334 24.5 32.001s22.5 15 36.5 19c-12 4 -22.5 9.83301 -31.5 17.5s-16.167 17.167 -21.5 28.5s-8 24 -8 38c0 32.667 12.167 59.334 36.5 80.001
s56.833 31 97.5 31s73 -10.333 97 -31s36 -47.334 36 -80.001c0 -21.333 -5.66699 -39.166 -17 -53.499s-26.333 -24.5 -45 -30.5zM678.998 324.999c-17.333 0 -30.833 -4.16699 -40.5 -12.5s-14.5 -19.166 -14.5 -32.499c0 -14 5 -25.333 15 -34s23.333 -13 40 -13
s30.167 4.33301 40.5 13s15.5 20 15.5 34c0 13.333 -5.16699 24.166 -15.5 32.499s-23.833 12.5 -40.5 12.5zM678.998 58.999c20 0 35.833 5 47.5 15s17.5 23 17.5 39c0 16.667 -5.83301 30 -17.5 40s-27.5 15 -47.5 15s-35.667 -5 -47 -15s-17 -23.333 -17 -40
c0 -16 5.66699 -29 17 -39s27 -15 47 -15z" />
    <glyph glyph-name="threeeighths" unicode="&#x215c;" horiz-adv-x="833" 
d="M200 461c24 -2 44.501 -6.66797 61.501 -14.001s30 -17.333 39 -30s13.5 -29 13.5 -49c0 -34.667 -12.333 -63.5 -37 -86.5s-58 -34.5 -100 -34.5c-29.333 0 -55 5.66699 -77 17s-38.333 26.5 -49 45.5s-15.334 39.833 -14.001 62.5h69c0 -15.333 6 -27.833 18 -37.5
s29.667 -14.5 53 -14.5c21.333 0 36.5 4.83301 45.5 14.5s13.5 22.834 13.5 39.501s-6.5 30.167 -19.5 40.5s-32.167 15.5 -57.5 15.5h-34v59h34c26 0 44.5 4.33301 55.5 13s16.5 21 16.5 37c0 13.333 -5.16699 24 -15.5 32s-24.5 12 -42.5 12
c-18.667 0 -33.5 -4.16699 -44.5 -12.5s-16.833 -18.833 -17.5 -31.5h-69c-2 22.667 2.5 42.834 13.5 60.501s26.833 31.667 47.5 42s44 15.5 70 15.5c42 0 75 -10.5 99 -31.5s36 -44.833 36 -71.5c0 -28.667 -9.5 -50.334 -28.5 -65.001s-45.5 -24 -79.5 -28z
M578.001 699.999l54 -30l-382 -690l-52 32zM724.001 202.999c14.667 -4 27.332 -10.334 37.999 -19.001s19 -19.334 25 -32.001s9 -27 9 -43c0 -23.333 -6 -44.166 -18 -62.499s-28.667 -32.5 -50 -42.5s-46.333 -15 -75 -15c-29.333 0 -54.666 5 -75.999 15
s-37.833 24.167 -49.5 42.5s-17.5 39.166 -17.5 62.499c0 16 3 30.333 9 43s14.167 23.334 24.5 32.001s22.5 15 36.5 19c-12 4 -22.5 9.83301 -31.5 17.5s-16.167 17.167 -21.5 28.5s-8 24 -8 38c0 32.667 12.167 59.334 36.5 80.001s56.833 31 97.5 31s73 -10.333 97 -31
s36 -47.334 36 -80.001c0 -21.333 -5.66699 -39.166 -17 -53.499s-26.333 -24.5 -45 -30.5zM652.999 324.998c-17.333 0 -30.833 -4.16699 -40.5 -12.5s-14.5 -19.166 -14.5 -32.499c0 -14 5 -25.333 15 -34s23.333 -13 40 -13s30.167 4.33301 40.5 13s15.5 20 15.5 34
c0 13.333 -5.16699 24.166 -15.5 32.499s-23.833 12.5 -40.5 12.5zM652.999 58.998c20 0 35.833 5 47.5 15s17.5 23 17.5 39c0 16.667 -5.83301 30 -17.5 40s-27.5 15 -47.5 15s-35.667 -5 -47 -15s-17 -23.333 -17 -40c0 -16 5.66699 -29 17 -39s27 -15 47 -15z" />
    <glyph glyph-name="fiveeighths" unicode="&#x215d;" horiz-adv-x="879" 
d="M229 515c24.667 0 46.667 -5.49902 66 -16.499s34.333 -26.333 45 -46s16 -42.834 16 -69.501c0 -41.333 -13.167 -74.333 -39.5 -99s-61.5 -37 -105.5 -37c-28.667 0 -54.167 5.33301 -76.5 16s-40 25.667 -53 45s-20.5 42.333 -22.5 69h75
c1.33301 -16.667 9 -30.167 23 -40.5s32.333 -15.5 55 -15.5c20 0 36.167 5.66699 48.5 17s18.5 27 18.5 47s-5.83301 35.5 -17.5 46.5s-27.167 16.5 -46.5 16.5c-12 0 -23.167 -1.33301 -33.5 -4s-19 -6.66699 -26 -12s-12.167 -12.333 -15.5 -21l-68 16l14 222h235v-71
h-169l-7 -101c9.33301 12.667 20.833 22.167 34.5 28.5s30.167 9.5 49.5 9.5zM625 700.001l54 -30l-382 -690l-52 32zM770 203.001c14.667 -4 27.332 -10.334 37.999 -19.001s19 -19.334 25 -32.001s9 -27 9 -43c0 -23.333 -6 -44.166 -18 -62.499s-28.667 -32.5 -50 -42.5
s-46.333 -15 -75 -15c-29.333 0 -54.666 5 -75.999 15s-37.833 24.167 -49.5 42.5s-17.5 39.166 -17.5 62.499c0 16 3 30.333 9 43s14.167 23.334 24.5 32.001s22.5 15 36.5 19c-12 4 -22.5 9.83301 -31.5 17.5s-16.167 17.167 -21.5 28.5s-8 24 -8 38
c0 32.667 12.167 59.334 36.5 80.001s56.833 31 97.5 31s73 -10.333 97 -31s36 -47.334 36 -80.001c0 -21.333 -5.66699 -39.166 -17 -53.499s-26.333 -24.5 -45 -30.5zM698.998 325c-17.333 0 -30.833 -4.16699 -40.5 -12.5s-14.5 -19.166 -14.5 -32.499
c0 -14 5 -25.333 15 -34s23.333 -13 40 -13s30.167 4.33301 40.5 13s15.5 20 15.5 34c0 13.333 -5.16699 24.166 -15.5 32.499s-23.833 12.5 -40.5 12.5zM698.998 59c20 0 35.833 5 47.5 15s17.5 23 17.5 39c0 16.667 -5.83301 30 -17.5 40s-27.5 15 -47.5 15
s-35.667 -5 -47 -15s-17 -23.333 -17 -40c0 -16 5.66699 -29 17 -39s27 -15 47 -15z" />
    <glyph glyph-name="seveneighths" unicode="&#x215e;" horiz-adv-x="749" 
d="M21 578v71h260v-67l-139 -324h-84l139 320h-176zM495 700l54 -30l-382 -690l-52 32zM640 203c14.667 -4 27.332 -10.334 37.999 -19.001s19 -19.334 25 -32.001s9 -27 9 -43c0 -23.333 -6 -44.166 -18 -62.499s-28.667 -32.5 -50 -42.5s-46.333 -15 -75 -15
c-29.333 0 -54.666 5 -75.999 15s-37.833 24.167 -49.5 42.5s-17.5 39.166 -17.5 62.499c0 16 3 30.333 9 43s14.167 23.334 24.5 32.001s22.5 15 36.5 19c-12 4 -22.5 9.83301 -31.5 17.5s-16.167 17.167 -21.5 28.5s-8 24 -8 38c0 32.667 12.167 59.334 36.5 80.001
s56.833 31 97.5 31s73 -10.333 97 -31s36 -47.334 36 -80.001c0 -21.333 -5.66699 -39.166 -17 -53.499s-26.333 -24.5 -45 -30.5zM568.998 324.999c-17.333 0 -30.833 -4.16699 -40.5 -12.5s-14.5 -19.166 -14.5 -32.499c0 -14 5 -25.333 15 -34s23.333 -13 40 -13
s30.167 4.33301 40.5 13s15.5 20 15.5 34c0 13.333 -5.16699 24.166 -15.5 32.499s-23.833 12.5 -40.5 12.5zM568.998 58.999c20 0 35.833 5 47.5 15s17.5 23 17.5 39c0 16.667 -5.83301 30 -17.5 40s-27.5 15 -47.5 15s-35.667 -5 -47 -15s-17 -23.333 -17 -40
c0 -16 5.66699 -29 17 -39s27 -15 47 -15z" />
    <glyph glyph-name="uni2189" unicode="&#x2189;" horiz-adv-x="879" 
d="M206 654c36.667 0 67.5 -8.66699 92.5 -26s43.833 -41.5 56.5 -72.5s19 -65.833 19 -104.5c0 -39.333 -6.33301 -74.333 -19 -105s-31.5 -54.834 -56.5 -72.501s-55.833 -26.5 -92.5 -26.5s-67.667 8.83301 -93 26.5s-44.333 41.834 -57 72.501s-19 65.667 -19 105
c0 38.667 6.33301 73.5 19 104.5s31.667 55.167 57 72.5s56.333 26 93 26zM206 333c27.333 0 48.5 10.667 63.5 32s22.5 50 22.5 86c0 35.333 -7.5 63.666 -22.5 84.999s-36.167 32 -63.5 32c-28 0 -49.5 -10.667 -64.5 -32s-22.5 -49.666 -22.5 -84.999
s7.5 -63.833 22.5 -85.5s36.5 -32.5 64.5 -32.5zM634 700l54 -30l-382 -690l-52 32zM729 204c23.333 -2.66699 43.501 -7.66797 60.501 -15.001s30 -17.333 39 -30s13.5 -29 13.5 -49c0 -34.667 -12.333 -63.5 -37 -86.5s-58 -34.5 -100 -34.5c-29.333 0 -55 5.66699 -77 17
s-38.333 26.5 -49 45.5s-15.334 39.833 -14.001 62.5h69c0 -15.333 6 -27.833 18 -37.5s29.667 -14.5 53 -14.5c21.333 0 36.5 4.83301 45.5 14.5s13.5 22.834 13.5 39.501c0 17.333 -6.5 31 -19.5 41s-32.167 15 -57.5 15h-34v59h34c26 0 44.5 4.33301 55.5 13
s16.5 21 16.5 37c0 13.333 -5.16699 24 -15.5 32s-24.5 12 -42.5 12c-18.667 0 -33.5 -4.16699 -44.5 -12.5s-16.833 -18.833 -17.5 -31.5h-69c-2 22.667 2.5 42.834 13.5 60.501s26.833 31.667 47.5 42s44 15.5 70 15.5c42 0 75 -10.5 99 -31.5s36 -44.833 36 -71.5
c0 -28.667 -9.33301 -50.334 -28 -65.001s-45 -23.667 -79 -27z" />
    <glyph glyph-name="arrowleft" unicode="&#x2190;" horiz-adv-x="853" 
d="M292 27l-232 252l232 252l61 -59l-144 -152l75 1h529v-83h-531l-74 1l145 -153z" />
    <glyph glyph-name="arrowup" unicode="&#x2191;" horiz-adv-x="685" 
d="M301 -35v545l1 59l-152 -144l-60 60l253 233l252 -233l-59 -60l-153 145l1 -55v-550h-83z" />
    <glyph glyph-name="arrowright" unicode="&#x2192;" horiz-adv-x="853" 
d="M561 27l-61 59l145 153l-58 -1h-547v83h548l56 -1l-144 152l61 59l232 -252z" />
    <glyph glyph-name="arrowdown" unicode="&#x2193;" horiz-adv-x="685" 
d="M342 -45l-252 232l60 61l152 -145l-1 55v550h83v-550l-1 -55l152 145l60 -61z" />
    <glyph glyph-name="arrowboth" unicode="&#x2194;" horiz-adv-x="1033" 
d="M292 27l-232 252l232 252l61 -59l-144 -152l69 1h477l70 -1l-145 152l61 59l232 -252l-232 -252l-61 59l145 153l-70 -1h-477l-70 1l145 -153z" />
    <glyph glyph-name="arrowupdn" unicode="&#x2195;" horiz-adv-x="685" 
d="M342 -132l-252 232l60 61l151 -144v57v492v55l-151 -144l-60 61l252 232l253 -232l-60 -61l-152 145v-56v-490v-60l152 145l60 -61z" />
    <glyph glyph-name="uni2196" unicode="&#x2196;" horiz-adv-x="776" 
d="M617 74l-379 380l-48 49l-5 -210l-85 1l14 342l343 14l1 -84l-210 -6l52 -51l376 -376z" />
    <glyph glyph-name="uni2197" unicode="&#x2197;" horiz-adv-x="776" 
d="M159 73l-59 59l376 376l53 51l-211 5l1 85l343 -14l14 -343l-85 -1l-5 210l-48 -48z" />
    <glyph glyph-name="uni2198" unicode="&#x2198;" horiz-adv-x="776" 
d="M319 -2l-1 86l210 5l-37 36l-391 391l59 58l393 -393l34 -35l5 209h85l-14 -343z" />
    <glyph glyph-name="uni2199" unicode="&#x2199;" horiz-adv-x="776" 
d="M457 -2l-343 14l-14 343h85l5 -209l47 48l380 380l59 -58l-381 -381l-47 -46l210 -5z" />
    <glyph glyph-name="partialdiff" unicode="&#x2202;" horiz-adv-x="603" 
d="M297 -11c-53.333 0 -99.3301 11.166 -137.997 33.499s-68.667 53 -90 92s-32 83.833 -32 134.5c0 38 5.66699 72.833 17 104.5s27.333 58.834 48 81.501s45.167 40.167 73.5 52.5s59.166 18.5 92.499 18.5c30.667 0 57.334 -4.33301 80.001 -13s42 -20.834 58 -36.501
s28.667 -34.167 38 -55.5l-4 4c-9.33301 23.333 -22 46 -38 68s-36.333 42.5 -61 61.5s-54.167 36.667 -88.5 53s-74.5 31.5 -120.5 45.5l26 77c54 -16.667 101.167 -35.667 141.5 -57s75.166 -44.5 104.499 -69.5s53.5 -51.167 72.5 -78.5s34.167 -55.166 45.5 -83.499
s19.166 -56.333 23.499 -84s6.5 -54.834 6.5 -81.501c0 -27.333 -3.5 -54 -10.5 -80s-17.5 -50.167 -31.5 -72.5s-31.333 -42.166 -52 -59.499s-44.334 -30.833 -71.001 -40.5s-56.667 -14.5 -90 -14.5zM299.003 73.999c34.667 0 64.001 7.66895 88.001 23.002
s42.333 36.166 55 62.499s19 55.833 19 88.5c0 26.667 -3.83301 50.667 -11.5 72s-18.5 39.666 -32.5 54.999s-31 27 -51 35s-42.667 12 -68 12c-51.333 0 -91.5 -16.333 -120.5 -49s-43.5 -74.667 -43.5 -126s15.167 -93 45.5 -125s70.166 -48 119.499 -48z" />
    <glyph glyph-name="emptyset" unicode="&#x2205;" horiz-adv-x="714" 
d="M183 -68l-61.001 35l64 110c-38.667 24.667 -69.334 56.334 -92.001 95.001s-34 82 -34 130c0 39.333 7.5 75.666 22.5 108.999s35.833 62.5 62.5 87.5s58 44.333 94 58s75.333 20.5 118 20.5c19.333 0 37.833 -1.5 55.5 -4.5s34.834 -7.5 51.501 -13.5l66 114l60 -35
l-62 -109c38.667 -24 69.334 -55.667 92.001 -95s34 -83.333 34 -132c0 -38.667 -7.5 -74.667 -22.5 -108s-35.833 -62.333 -62.5 -87s-58.167 -44 -94.5 -58s-75.5 -21 -117.5 -21c-19.333 0 -38 1.5 -56 4.5s-35.333 7.5 -52 13.5zM227.999 150l194.998 336.999
c-10 3.33301 -20.667 5.83301 -32 7.5s-22.666 2.5 -33.999 2.5c-38.667 0 -73.667 -8.66699 -105 -26s-56.166 -40.666 -74.499 -69.999s-27.5 -62.333 -27.5 -99c0 -30.667 7 -59.167 21 -85.5s33 -48.5 57 -66.5zM356.997 107.999c38.667 0 73.667 8.66797 105 26.001
s56.166 40.666 74.499 69.999s27.5 62 27.5 98c0 31.333 -7 60.333 -21 87s-33.333 48.667 -58 66l-194 -336c10.667 -4 21.334 -6.83301 32.001 -8.5s22 -2.5 34 -2.5z" />
    <glyph glyph-name="product" unicode="&#x220f;" horiz-adv-x="759" 
d="M181 582h96v-582h-96v582zM716 649v-89h-673v89h673zM578 0h-96v582h96v-582z" />
    <glyph glyph-name="summation" unicode="&#x2211;" horiz-adv-x="640" 
d="M84 649h464v-87h-389l4 38l253 -284l-250 -264l-7 35h389v-87h-464v85l249 274l-22 -61l-227 260v91z" />
    <glyph glyph-name="minus" unicode="&#x2212;" horiz-adv-x="457" 
d="M50 311h357v-82h-357v82z" />
    <glyph glyph-name="uni2215" unicode="&#x2215;" horiz-adv-x="434" 
d="M380 700l54 -30l-382 -690l-52 32z" />
    <glyph glyph-name="radical" unicode="&#x221a;" horiz-adv-x="690" 
d="M679 649v-87h-163l-203 -562h-91l-204 499h106l141 -378l182 528h232z" />
    <glyph glyph-name="infinity" unicode="&#x221e;" horiz-adv-x="947" 
d="M688 85c-25.333 0 -48.4971 4 -69.4971 12s-40 18.667 -57 32s-32.5 28.666 -46.5 45.999s-27.667 35.333 -41 54c-16.667 -24.667 -35.167 -48 -55.5 -70s-43.333 -39.667 -69 -53s-55.834 -20 -90.501 -20c-40 0 -75.667 9.66699 -107 29s-56 45 -74 77
s-27 67.667 -27 107c0 38.667 9 73.834 27 105.501s42.5 57 73.5 76s66.167 28.5 105.5 28.5c26 0 49.5 -3.83301 70.5 -11.5s40.333 -18.334 58 -32.001s33.667 -29.167 48 -46.5s28.166 -35.666 41.499 -54.999c12.667 19.333 26.167 37.666 40.5 54.999
s30.166 32.833 47.499 46.5s36.5 24.334 57.5 32.001s44.5 11.5 70.5 11.5c39.333 0 74.333 -9.5 105 -28.5s55 -44.333 73 -76s27 -67.167 27 -106.5s-9 -75 -27 -107s-42.5 -57.667 -73.5 -77s-66.833 -29 -107.5 -29zM265.003 166c25.333 0 47.499 6 66.499 18
s36.667 28 53 48s31.833 41.667 46.5 65c-15.333 23.333 -31.166 45 -47.499 65s-34.166 36.167 -53.499 48.5s-41.666 18.5 -66.999 18.5c-22 0 -42.333 -5.83301 -61 -17.5s-33.334 -27.167 -44.001 -46.5s-16 -41.333 -16 -66c0 -18.667 3.16699 -36.167 9.5 -52.5
s15.166 -30.333 26.499 -42s24.5 -21 39.5 -28s30.833 -10.5 47.5 -10.5zM682.002 165c17.333 0 33.334 3.5 48.001 10.5s27.667 16.333 39 28s20.333 25.667 27 42s10 33.833 10 52.5c0 25.333 -5.5 47.833 -16.5 67.5s-25.667 35.167 -44 46.5s-38.833 17 -61.5 17
c-24 0 -45.667 -6.16699 -65 -18.5s-37 -28.333 -53 -48s-31.667 -41.5 -47 -65.5c15.333 -23.333 30.833 -45 46.5 -65s33.167 -36.167 52.5 -48.5s40.666 -18.5 63.999 -18.5z" />
    <glyph glyph-name="integral" unicode="&#x222b;" horiz-adv-x="429" 
d="M336 760h71.0029v-91h-54c-24.667 0.666992 -45.834 -5.33301 -63.501 -18s-26.5 -36.667 -26.5 -72v-519c0 -40 -7.33301 -72.5 -22 -97.5s-34.834 -43.333 -60.501 -55s-55.167 -17.5 -88.5 -17.5h-71v91h55c25.333 -0.666992 46.666 5.33301 63.999 18
s26 36.667 26 72v519c0 60 15.833 103.333 47.5 130s72.5 40 122.5 40z" />
    <glyph glyph-name="approxequal" unicode="&#x2248;" horiz-adv-x="541" 
d="M413 433h76c3.33301 -25.333 0.833008 -48.333 -7.5 -69s-21.166 -37 -38.499 -49s-39 -18 -65 -18c-21.333 0 -40.833 3.66699 -58.5 11s-34 15.833 -49 25.5s-29.667 18.167 -44 25.5s-29.166 11 -44.499 11c-18 0 -31.667 -5.5 -41 -16.5s-14 -22.833 -14 -35.5h-76
c-2.66699 26 0.166016 49.167 8.49902 69.5s22.166 36.5 41.499 48.5s43.333 18 72 18c21.333 0 40.833 -3.66699 58.5 -11s34.167 -15.833 49.5 -25.5s30 -18.167 44 -25.5s28.667 -11 44 -11c18 0 29.833 5.5 35.5 16.5s8.5 22.833 8.5 35.5zM415 249l74.001 -0.00390625
c2.66699 -19.333 1.83398 -37.166 -2.49902 -53.499s-11.333 -30.666 -21 -42.999s-21.834 -22 -36.501 -29s-31.667 -10.5 -51 -10.5c-21.333 0 -40.833 3.66699 -58.5 11s-34 15.833 -49 25.5s-29.667 18.167 -44 25.5s-29.166 11 -44.499 11
c-18 0 -31.667 -5.5 -41 -16.5s-14 -22.833 -14 -35.5h-76c-2.66699 26 0.166016 49.167 8.49902 69.5s22.166 36.333 41.499 48s43.333 17.5 72 17.5c21.333 0 40.833 -3.66699 58.5 -11s34.167 -15.666 49.5 -24.999s30 -17.666 44 -24.999s28.667 -11 44 -11
c18 0 30.167 5.5 36.5 16.5s9.5 22.833 9.5 35.5z" />
    <glyph glyph-name="notequal" unicode="&#x2260;" horiz-adv-x="509" 
d="M153 34l139 510l64 -18l-139 -509zM50 413h409v-83h-409v83zM50 225h409v-83h-409v83z" />
    <glyph glyph-name="lessequal" unicode="&#x2264;" horiz-adv-x="591" 
d="M493 197l-29 -83l-344 136v97l326 181l41 -75l-269 -147zM482 -10h-345v74h345v-74z" />
    <glyph glyph-name="greaterequal" unicode="&#x2265;" horiz-adv-x="540" 
d="M471 250l-344 -136l-29 83l276 109l-270 147l41 75l326 -181v-97zM454 -10h-345v74h345v-74z" />
    <glyph glyph-name="lozenge" unicode="&#x25ca;" horiz-adv-x="598" 
d="M299 -6l-249 343l248 343l250 -343zM299 136l149 201l-150 201l-148 -201z" />
    </font>
</defs>
</svg>
