<?xml version="1.0" standalone="no"?>
<!DOCTYPE svg PUBLIC "-//W3C//DTD SVG 1.1//EN" "http://www.w3.org/Graphics/SVG/1.1/DTD/svg11.dtd" >
<svg>
<metadata>
Created by FontForge 20090914 at Mon Jul 12 07:26:52 2021
 By www-data
Copyright 2019 The Syne Project Authors (https://gitlab.com/bonjour-monde/fonderie/syne-typeface)
</metadata>
<defs>
<font id="Syne-Bold" horiz-adv-x="0" >
  <font-face 
    font-family="Syne"
    font-weight="700"
    font-stretch="normal"
    units-per-em="1000"
    panose-1="0 0 0 0 0 0 0 0 0 0"
    ascent="800"
    descent="-200"
    x-height="497"
    cap-height="647"
    bbox="-170 -259.002 1436 949"
    underline-thickness="75"
    underline-position="-113"
    unicode-range="U+000D-U+FB01"
  />
<missing-glyph horiz-adv-x="456" 
d="M97 393h262v-262h-262v262z" />
    <glyph glyph-name="fi" unicode="fi" horiz-adv-x="714" 
d="M387 375v99h249v-99h-249zM525 474h130v-474h-130v474zM137 0v524l130 -16v-508h-130zM329 697h325.999v-105h-295c-19.333 0.666992 -36 -1.33301 -50 -6s-24.667 -13.167 -32 -25.5s-11 -29.833 -11 -52.5l-130 16c0 40 7.33301 72.833 22 98.5
s36.334 44.5 65.001 56.5s63.667 18 105 18zM24.999 474h400v-99h-400v99z" />
    <glyph glyph-name="f_f" unicode="ff" horiz-adv-x="829" 
d="M520 0v524l130 -16v-508h-130zM712 697h102.999v-105h-72c-19.333 0.666992 -36 -1.33301 -50 -6s-24.667 -13.167 -32 -25.5s-11 -29.833 -11 -52.5l-130 16c0 40 7.33301 72.833 22 98.5s36.334 44.5 65.001 56.5s63.667 18 105 18zM131.999 0v510l130 -16v-494h-130z
M323.999 683h103.999v-105h-73c-19.333 0.666992 -36 -1.33301 -50 -6s-24.667 -13 -32 -25s-11 -29.667 -11 -53l-130 16c0 40 7.33301 72.833 22 98.5s36.334 44.5 65.001 56.5s63.667 18 105 18zM24.998 488h789v-99h-789v99z" />
    <glyph glyph-name="f_f_i" unicode="ffi" horiz-adv-x="1093" 
d="M678 389l12 99h324v-99h-336zM903 488h130v-488h-130v488zM520 0v524l130 -16v-508h-130zM132 0v510l130 -16v-494h-130zM324 683h103.999v-105h-73c-19.333 0.666992 -36 -1.33301 -50 -6s-24.667 -13 -32 -25s-11 -29.667 -11 -53l-130 16c0 40 7.33301 72.833 22 98.5
s36.334 44.5 65.001 56.5s63.667 18 105 18zM24.999 488h789v-99h-789v99zM711.999 697h321.999v-105h-291c-19.333 0.666992 -36 -1.33301 -50 -6s-24.667 -13.167 -32 -25.5s-11 -29.833 -11 -52.5l-130 16c0 40 7.33301 72.833 22 98.5s36.334 44.5 65.001 56.5
s63.667 18 105 18z" />
    <glyph glyph-name=".notdef" horiz-adv-x="456" 
d="M97 393h262v-262h-262v262z" />
    <glyph glyph-name="CR" unicode="&#xd;" horiz-adv-x="600" 
 />
    <glyph glyph-name="space" unicode=" " horiz-adv-x="241" 
 />
    <glyph glyph-name="exclam" unicode="!" horiz-adv-x="305" 
d="M86 663h132v-461h-132v461zM228 114v-114h-151v114h151z" />
    <glyph glyph-name="quotedbl" unicode="&#x22;" horiz-adv-x="414" 
d="M149 443h-69l-41 124v86h152v-86zM333 443h-69l-41 124v86h152v-86z" />
    <glyph glyph-name="numbersign" unicode="#" horiz-adv-x="909" 
d="M551 633h122v-619h-122v619zM241 633h122v-619h-122v619zM843 251v-93h-776v93h776zM843 488v-92h-776v92h776z" />
    <glyph glyph-name="dollar" unicode="$" horiz-adv-x="559" 
d="M315 700l71 -12l-24 -139l-71 12zM181 -59l25 139l70 -12l-24 -139zM35 231l120.004 -0.00488281c7.33301 -22.667 22.333 -41.167 45 -55.5s52.667 -21.5 90 -21.5c25.333 0 45 2.33301 59 7s23.667 11.334 29 20.001s8 18.667 8 30c0 14 -4.33301 24.833 -13 32.5
s-22 13.834 -40 18.501s-41 9 -69 13c-28 4.66699 -55 10.5 -81 17.5s-49 15.833 -69 26.5s-35.833 24.5 -47.5 41.5s-17.5 37.833 -17.5 62.5c0 24 5.83301 45.333 17.5 64s28 34.5 49 47.5s45.667 22.833 74 29.5s59.166 10 92.499 10
c49.333 0 90.166 -7.33301 122.499 -22s56.666 -34.667 72.999 -60s24.5 -54.666 24.5 -87.999h-115c-5.33301 24 -16 41.667 -32 53s-40.667 17 -74 17c-32 0 -56.5 -5.16699 -73.5 -15.5s-25.5 -24.166 -25.5 -41.499c0 -13.333 5.16699 -23.833 15.5 -31.5
s25.666 -14 45.999 -19s45.833 -10.167 76.5 -15.5c26 -5.33301 51 -11.333 75 -18s45.333 -15.167 64 -25.5s33.5 -23.833 44.5 -40.5s16.5 -38 16.5 -64c0 -32 -9.33301 -59.167 -28 -81.5s-45 -39.166 -79 -50.499s-74.667 -17 -122 -17c-52.667 0 -96 6.83301 -130 20.5
s-60.5 30.5 -79.5 50.5s-32 39.667 -39 59s-9.5 35 -7.5 47z" />
    <glyph glyph-name="percent" unicode="%" horiz-adv-x="948" 
d="M228 333c-38 0 -71.168 6.66699 -99.501 20s-50.166 32.333 -65.499 57s-23 54 -23 88c0 52.667 17 93.5 51 122.5s79.667 43.5 137 43.5s102.833 -14.5 136.5 -43.5s50.5 -69.833 50.5 -122.5c0 -34 -7.66699 -63.333 -23 -88s-37 -43.667 -65 -57s-61 -20 -99 -20z
M227.999 415c25.333 0 45.833 7.5 61.5 22.5s23.5 35.167 23.5 60.5c0 26 -7.83301 46.5 -23.5 61.5s-36.167 22.5 -61.5 22.5c-26 0 -46.833 -7.5 -62.5 -22.5s-23.5 -35.5 -23.5 -61.5c0 -25.333 7.83301 -45.5 23.5 -60.5s36.5 -22.5 62.5 -22.5zM721.999 -12
c-57.333 0 -103 14.5 -137 43.5s-51 69.5 -51 121.5s17 92.667 51 122s79.667 44 137 44c56.667 0 101.834 -14.667 135.501 -44s50.5 -70 50.5 -122s-16.833 -92.5 -50.5 -121.5s-78.834 -43.5 -135.501 -43.5zM721.999 70c25.333 0 45.833 7.33398 61.5 22.001
s23.5 35 23.5 61c0 25.333 -7.83301 45.666 -23.5 60.999s-36.167 23 -61.5 23c-26 0 -46.833 -7.5 -62.5 -22.5s-23.5 -35.5 -23.5 -61.5s7.83301 -46.333 23.5 -61s36.5 -22 62.5 -22zM621.999 686.001l54 -30l-382 -690l-52 32z" />
    <glyph glyph-name="ampersand" unicode="&#x26;" horiz-adv-x="779" 
d="M263 -11c-30.667 0 -59.8359 4.00293 -87.5029 12.0029s-51.834 19.333 -72.501 34s-37 32.5 -49 53.5s-18 44.5 -18 70.5c0 32 7.66699 59.167 23 81.5s36.5 40.5 63.5 54.5s58.167 24.5 93.5 31.5s73 11.167 113 12.5l4 -6c-38 1.33301 -73.5 4.5 -106.5 9.5
s-61.667 13.167 -86 24.5s-43.333 26.166 -57 44.499s-20.5 41.5 -20.5 69.5c0 36 11.333 67.5 34 94.5s55.334 47.833 98.001 62.5s93.334 22 152.001 22c40.667 0 77.834 -4 111.501 -12s62.667 -20.167 87 -36.5s43.166 -36.666 56.499 -60.999s20 -52.833 20 -85.5h-122
c-0.666992 27.333 -14.5 48.166 -41.5 62.499s-63.5 21.5 -109.5 21.5c-49.333 0 -86.666 -7.83301 -111.999 -23.5s-38 -37.167 -38 -64.5c0 -19.333 6 -36 18 -50s30.5 -24.667 55.5 -32s56.5 -11 94.5 -11h389v-75h-126v-293h-121c-2.66699 19.333 -4.66699 38.5 -6 57.5
s-2.16602 40.333 -2.49902 64s-0.5 52.167 -0.5 85.5l9 -27c-5.33301 -22.667 -13.5 -45.334 -24.5 -68.001s-26 -43.334 -45 -62.001s-43 -33.5 -72 -44.5s-63.833 -16.5 -104.5 -16.5zM317.998 89.0029c40.667 0 74.3311 7.16699 100.998 21.5s46.834 33 60.501 56
s20.5 46.833 20.5 71.5v55h-133c-58 0 -104.667 -8.5 -140 -25.5s-53 -43.833 -53 -80.5c0 -28.667 12.333 -52.167 37 -70.5s60.334 -27.5 107.001 -27.5z" />
    <glyph glyph-name="quotesingle" unicode="'" horiz-adv-x="230" 
d="M149 443h-69l-41 124v86h152v-86z" />
    <glyph glyph-name="parenleft" unicode="(" horiz-adv-x="336" 
d="M283 -90l-69.0029 -56l-16.5 18.5c-11 12.333 -24.333 30.5 -40 54.5s-31.5 53.5 -47.5 88.5s-29.5 75.167 -40.5 120.5s-16.5 95.333 -16.5 150c0 55.333 5.5 105.5 16.5 150.5s24.5 84.667 40.5 119s31.833 63.333 47.5 87s29 41.5 40 53.5l16.5 18l69 -55l-19.5 -24
c-13 -16 -27.833 -39.833 -44.5 -71.5s-31.5 -70.667 -44.5 -117s-19.5 -99.833 -19.5 -160.5c0 -50 4.33301 -95 13 -135s19.334 -75 32.001 -105s25.334 -55.167 38.001 -75.5s23.334 -35.5 32.001 -45.5z" />
    <glyph glyph-name="parenright" unicode=")" horiz-adv-x="336" 
d="M53 -90l12.9971 15c8.66699 10 19.334 25.167 32.001 45.5s25.334 45.5 38.001 75.5s23.334 65 32.001 105s13 85 13 135c0 60.667 -6.5 114.167 -19.5 160.5s-27.833 85.333 -44.5 117s-31.5 55.5 -44.5 71.5l-19.5 24l69 55l16.5 -18c11 -12 24.5 -29.833 40.5 -53.5
s31.833 -52.667 47.5 -87s29 -74 40 -119s16.5 -95.167 16.5 -150.5c0 -54.667 -5.5 -104.667 -16.5 -150s-24.333 -85.5 -40 -120.5s-31.5 -64.5 -47.5 -88.5s-29.5 -42.167 -40.5 -54.5l-16.5 -18.5z" />
    <glyph glyph-name="asterisk" unicode="*" horiz-adv-x="503" 
d="M432 636l31 -95l-134 -40l89 -115l-81 -59l-87 126l-86 -126l-81 59l89 115l-131 39l31 96l132 -47l-4 143h100l-5 -144z" />
    <glyph glyph-name="plus" unicode="+" horiz-adv-x="560" 
d="M50 318h460v-95h-460v95zM334 459v-378h-108v378h108z" />
    <glyph glyph-name="comma" unicode="," horiz-adv-x="231" 
d="M67 -149l-18.001 34c10 14.667 19.833 31 29.5 49s14.834 36.333 15.501 55l-55 11v115h153v-82c0 -47.333 -11.167 -85.5 -33.5 -114.5s-52.833 -51.5 -91.5 -67.5z" />
    <glyph glyph-name="hyphen" unicode="-" horiz-adv-x="494" 
d="M80 320h334v-98h-334v98z" />
    <glyph glyph-name="period" unicode="." horiz-adv-x="271" 
d="M211 114v-114h-151v114h151z" />
    <glyph glyph-name="slash" unicode="/" horiz-adv-x="481" 
d="M340 753l105 -38l-305 -835l-104 38z" />
    <glyph glyph-name="zero" unicode="0" horiz-adv-x="738" 
d="M370 -12c-62.667 0 -117.834 10 -165.501 30s-84.834 49.167 -111.501 87.5s-40 85.5 -40 141.5s13.333 103.5 40 142.5s63.834 68.5 111.501 88.5s102.834 30 165.501 30s117.5 -10 164.5 -30s83.833 -49.5 110.5 -88.5s40 -86.5 40 -142.5s-13.333 -103.167 -40 -141.5
s-63.5 -67.5 -110.5 -87.5s-101.833 -30 -164.5 -30zM370 88c34 0 64.832 6.16699 92.499 18.5s49.667 30.333 66 54s24.5 52.5 24.5 86.5s-8.16699 63.167 -24.5 87.5s-38.166 42.833 -65.499 55.5s-58.333 19 -93 19c-34 0 -65 -6.33301 -93 -19s-50.333 -31 -67 -55
s-25 -53.333 -25 -88c0 -34 8.16699 -62.833 24.5 -86.5s38.5 -41.667 66.5 -54s59.333 -18.5 94 -18.5z" />
    <glyph glyph-name="one" unicode="1" horiz-adv-x="390" 
d="M25 386v111h271v-497h-130v386h-141z" />
    <glyph glyph-name="two" unicode="2" horiz-adv-x="624" 
d="M378 151l-161.998 -75.998l-5 25h373v-100h-533v100c60 27.333 114 50.666 162 69.999s88.667 36.833 122 52.5s58.833 31.667 76.5 48s26.5 34.5 26.5 54.5c0 16 -4.66699 29.833 -14 41.5s-24 20.834 -44 27.501s-46 10 -78 10c-42 0 -75.833 -8.16699 -101.5 -24.5
s-39.167 -38.5 -40.5 -66.5h-126c-2 38.667 7.5 72.667 28.5 102s51.833 52.333 92.5 69s88.667 25 144 25c40.667 0 77.667 -3.83301 111 -11.5s62.166 -18.834 86.499 -33.501s43 -32.334 56 -53.001s19.5 -44 19.5 -70c0 -20 -3.66699 -38.167 -11 -54.5
s-18.833 -31.833 -34.5 -46.5s-35.834 -29.167 -60.501 -43.5s-54 -29.5 -88 -45.5z" />
    <glyph glyph-name="three" unicode="3" horiz-adv-x="641" 
d="M335 184l-0.000976562 5c39.333 -1.33301 75.5 -4.5 108.5 -9.5s61.5 -13.333 85.5 -25s42.667 -27.834 56 -48.501s20 -47 20 -79c0 -37.333 -11.833 -70.333 -35.5 -99s-57.167 -51.167 -100.5 -67.5s-94.333 -24.5 -153 -24.5c-57.333 0 -107.5 8.83301 -150.5 26.5
s-75.833 42 -98.5 73s-33 66.833 -31 107.5h126c0.666992 -19.333 7.16699 -36.166 19.5 -50.499s30 -25.5 53 -33.5s50.167 -12 81.5 -12c48.667 0 86 8.33301 112 25s39 41.334 39 74.001c0 31.333 -15 53.5 -45 66.5s-72.333 19.5 -127 19.5h-85v100h85
c38 0 68.833 2.5 92.5 7.5s41 13.333 52 25s16.5 27.167 16.5 46.5c0 27.333 -11 48.833 -33 64.5s-57.667 23.5 -107 23.5c-46.667 0 -82.5 -8.33301 -107.5 -25s-38.167 -38.667 -39.5 -66h-126c-2 31.333 3.83301 59.333 17.5 84s33.334 45.834 59.001 63.501
s55.334 31.167 89.001 40.5s69.5 14 107.5 14c57.333 0 106.666 -7.33301 147.999 -22s73 -35.334 95 -62.001s33 -57.667 33 -93c0 -29.333 -6.33301 -53.5 -19 -72.5s-30.667 -34 -54 -45s-50.5 -18.833 -81.5 -23.5s-65.167 -7.33398 -102.5 -8.00098z" />
    <glyph glyph-name="four" unicode="4" horiz-adv-x="711" 
d="M556 501v-646h-130v541l39 -14l-300 -337l-19 44h296v-100h-395v100l379 412h130zM540 -11v100h131v-100h-131z" />
    <glyph glyph-name="five" unicode="5" horiz-adv-x="685" 
d="M404 259c32.667 0 63.1631 -4.33105 91.4961 -12.998s53.166 -21.5 74.499 -38.5s38 -38.5 50 -64.5s18 -56 18 -90c0 -46 -11.667 -85 -35 -117s-56 -56.5 -98 -73.5s-91.333 -25.5 -148 -25.5c-40 0 -77.667 4.66699 -113 14s-66.666 22.666 -93.999 39.999
s-49.166 38.5 -65.499 63.5s-25.166 53.5 -26.499 85.5h124c2.66699 -20.667 12 -38.167 28 -52.5s36.5 -25.166 61.5 -32.499s51.833 -11 80.5 -11c20 0 39.167 2.16699 57.5 6.5s35 10.833 50 19.5s26.833 20 35.5 34s13 30.667 13 50s-4.16699 36 -12.5 50
s-19.666 25.667 -33.999 35s-30.666 16.166 -48.999 20.499s-37.5 6.5 -57.5 6.5c-20.667 0 -41.667 -1.83301 -63 -5.5s-41 -10.167 -59 -19.5s-32.333 -22 -43 -38l-113 21l30 376h463v-111h-342l-20 -242l-14 7c9.33301 22.667 24.666 41.667 45.999 57
s46.333 27.166 75 35.499s58.334 12.5 89.001 12.5z" />
    <glyph glyph-name="six" unicode="6" horiz-adv-x="689" 
d="M392 426c52.667 0 98.668 -8.99805 138.001 -26.998s69.833 -43.5 91.5 -76.5s32.167 -71.5 31.5 -115.5s-13 -82.5 -37 -115.5s-58.333 -58.667 -103 -77s-98.334 -27.5 -161.001 -27.5c-66 0 -123.5 8.33301 -172.5 25s-86.833 41.167 -113.5 73.5
s-39.667 71.166 -39 116.499c0 16 2.5 33.5 7.5 52.5s14.167 39.5 27.5 61.5c2 4 7.83301 12.833 17.5 26.5l35 50.5l44.5 64l47.5 68l43 61.5l31 44l11.5 16.5h164l-337 -416l-39 -34c26 35.333 50.667 67.166 74 95.499s46.833 52.5 70.5 72.5s49 35.167 76 45.5
s57.5 15.5 91.5 15.5zM345.001 93.002c51.333 0 93.167 10.001 125.5 30.001s48.833 48.667 49.5 86s-14.833 66.166 -46.5 86.499s-73.167 30.5 -124.5 30.5c-57.333 0 -103 -11.333 -137 -34s-51.333 -50.667 -52 -84c-0.666992 -37.333 16.5 -65.833 51.5 -85.5
s79.5 -29.5 133.5 -29.5z" />
    <glyph glyph-name="seven" unicode="7" horiz-adv-x="643" 
d="M33 386v111h571v-111l-312 -536h-157l360 586l27 -50h-489z" />
    <glyph glyph-name="eight" unicode="8" horiz-adv-x="675" 
d="M337 332c-60 0 -110.501 5.16699 -151.501 15.5s-72 26.666 -93 48.999s-31.5 51.5 -31.5 87.5c0 34 10.167 64.167 30.5 90.5s50.833 47.166 91.5 62.499s92 23 154 23c62.667 0 114.334 -7.66699 155.001 -23s71.167 -36.166 91.5 -62.499s30.5 -56.5 30.5 -90.5
c0 -36 -10.5 -65.167 -31.5 -87.5s-52.167 -38.666 -93.5 -48.999s-92 -15.5 -152 -15.5zM336.999 379c33.333 0 60.666 3.83301 81.999 11.5s37.166 18.167 47.499 31.5s15.5 28.333 15.5 45c0 17.333 -5.16699 32.333 -15.5 45s-26.166 22.5 -47.499 29.5
s-48.666 10.5 -81.999 10.5c-32.667 0 -59.334 -3.5 -80.001 -10.5s-36 -16.833 -46 -29.5s-15 -27.667 -15 -45c0 -16.667 5 -31.667 15 -45s25.333 -23.833 46 -31.5s47.334 -11.5 80.001 -11.5zM336.999 -13c-66 0 -120.83 8.5 -164.497 25.5s-76.334 40 -98.001 69
s-32.5 61.167 -32.5 96.5c0 41.333 11.667 74.833 35 100.5s57 44.334 101 56.001s97 17.5 159 17.5c62.667 0 116 -5.83301 160 -17.5s77.667 -30.334 101 -56.001s35 -59.167 35 -100.5c0 -35.333 -10.833 -67.5 -32.5 -96.5s-54.334 -52 -98.001 -69
s-98.834 -25.5 -165.501 -25.5zM338.002 97c37.333 0 68 4 92 12s41.833 19.167 53.5 33.5s17.5 30.5 17.5 48.5c0 19.333 -5.83301 36.333 -17.5 51s-29.5 26 -53.5 34s-54.667 12 -92 12c-38 0 -68.833 -4 -92.5 -12s-41 -19.333 -52 -34s-16.5 -31.667 -16.5 -51
c0 -18 5.5 -34.167 16.5 -48.5s28.333 -25.5 52 -33.5s54.5 -12 92.5 -12z" />
    <glyph glyph-name="nine" unicode="9" horiz-adv-x="697" 
d="M298 74c-51.333 0 -96.8369 9.16797 -136.504 27.501s-70.5 43.833 -92.5 76.5s-33 71 -33 115c0.666992 45.333 13.334 84.333 38.001 117s60.334 57.834 107.001 75.501s103 26.5 169 26.5c66.667 0 123.834 -8.33301 171.501 -25s84.334 -40.834 110.001 -72.501
s38.167 -70.5 37.5 -116.5c0 -17.333 -3 -35.666 -9 -54.999s-16.333 -40.333 -31 -63c-2 -3.33301 -7.5 -11.833 -16.5 -25.5l-34 -50.5l-44 -64.5l-46.5 -68l-42 -61l-30.5 -44l-11.5 -16.5h-165l337 419l40 30c-26 -34.667 -51 -65.834 -75 -93.501
s-48 -51.334 -72 -71.001s-50 -34.667 -78 -45s-59 -15.5 -93 -15.5zM349.996 407.001c-54.667 0 -98.167 -9.66797 -130.5 -29.001s-48.833 -48.333 -49.5 -87c-0.666992 -37.333 14.833 -66.166 46.5 -86.499s74.834 -30.5 129.501 -30.5c57.333 0 103.166 11 137.499 33
s51.833 50.333 52.5 85c0.666992 25.333 -7 46.5 -23 63.5s-38 29.833 -66 38.5s-60.333 13 -97 13z" />
    <glyph glyph-name="colon" unicode=":" horiz-adv-x="299" 
d="M218 114v-114h-151v114h151zM218 495v-114h-151v114h151z" />
    <glyph glyph-name="semicolon" unicode=";" horiz-adv-x="273" 
d="M211 483v-114h-151v114h151zM88 -136l-18.001 34c10 14.667 19.833 31 29.5 49s14.834 36.333 15.501 55l-55 11v115h153v-82c0 -47.333 -11.167 -85.5 -33.5 -114.5s-52.833 -51.5 -91.5 -67.5z" />
    <glyph glyph-name="less" unicode="&#x3c;" horiz-adv-x="532" 
d="M388 530l50 -90l-276 -150l276 -148l-50 -93l-327 186v109z" />
    <glyph glyph-name="equal" unicode="=" horiz-adv-x="586" 
d="M50 428h486v-98h-486v98zM50 225h486v-98h-486v98z" />
    <glyph glyph-name="greater" unicode="&#x3e;" horiz-adv-x="538" 
d="M94 440l49 90l328 -186v-109l-328 -186l-49 93l276 148z" />
    <glyph glyph-name="question" unicode="?" horiz-adv-x="626" 
d="M227 201l0.00195312 165.998h59c54 0 93.667 10 119 30s38 48.333 38 85s-12 64.667 -36 84s-56 29 -96 29c-28.667 0 -52.5 -4.5 -71.5 -13.5s-33.333 -21 -43 -36s-14.834 -31.833 -15.501 -50.5h-129c-0.666992 19.333 2.16602 39 8.49902 59s16.166 39.333 29.499 58
s30.333 35.334 51 50.001s45.5 26.167 74.5 34.5s61.833 12.5 98.5 12.5c44.667 0 83.5 -5.66699 116.5 -17s60.333 -27 82 -47s37.834 -43.5 48.501 -70.5s16 -56.5 16 -88.5c0 -44 -10 -81.167 -30 -111.5s-46.833 -53.666 -80.5 -69.999s-71.167 -25.833 -112.5 -28.5
v-75h-127zM218.002 -0.00195312v114h151v-114h-151z" />
    <glyph glyph-name="at" unicode="@" horiz-adv-x="1073" 
d="M535 -55c-100 0 -186.171 14.9971 -258.504 44.9971s-127.833 73.167 -166.5 129.5s-58 123.833 -58 202.5c0 79.333 19.5 146 58.5 200s95.167 94.833 168.5 122.5s161 41.5 263 41.5c102.667 0 189.834 -13.833 261.501 -41.5s126.334 -68 164.001 -121
s56.5 -117.833 56.5 -194.5c0 -38.667 -6.33301 -71.834 -19 -99.501s-31.5 -49 -56.5 -64s-56.167 -22.5 -93.5 -22.5c-30 0 -55.667 4 -77 12s-38.666 18.667 -51.999 32s-23.166 28 -29.499 44s-9.5 32 -9.5 48v216h130v-174c0 -18 1.5 -33.833 4.5 -47.5
s8.83301 -24.5 17.5 -32.5s21 -12 37 -12s28.167 4 36.5 12s14 19.333 17 34s4.5 31.334 4.5 50.001c0 48 -8.83301 89.5 -26.5 124.5s-43.334 64 -77.001 87s-74.667 40.167 -123 51.5s-102.833 17 -163.5 17c-61.333 0 -116.666 -5.66699 -165.999 -17
s-91.666 -28.666 -126.999 -51.999s-62.333 -52.666 -81 -87.999s-28 -77.333 -28 -126c0 -62.667 15.667 -116.167 47 -160.5s76.333 -78 135 -101s129 -34.5 211 -34.5c33.333 0 64.5 1.66699 93.5 5s55.5 8 79.5 14s44.333 13 61 21l36 -73
c-20 -9.33301 -43.833 -17.666 -71.5 -24.999s-58.334 -13 -92.001 -17s-69.167 -6 -106.5 -6zM469.996 110.997c-46 0 -86.5 8.8291 -121.5 26.4961s-62.167 41.834 -81.5 72.501s-29 65.667 -29 105c0 41.333 9.66699 77.833 29 109.5s47 56.667 83 75
s78.333 27.5 127 27.5c50 0 91.5 -9.83301 124.5 -29.5s57.667 -45.667 74 -78s24.5 -67.166 24.5 -104.499c0 -19.333 -4.83301 -40.666 -14.5 -63.999s-24 -45.666 -43 -66.999s-43 -38.833 -72 -52.5s-62.5 -20.5 -100.5 -20.5zM511.996 209.993
c24 0 46.666 2.83203 67.999 8.49902s40 13.167 56 22.5s28.5 20.333 37.5 33s13.5 26 13.5 40c0 18 -4.66699 33.833 -14 47.5s-22 25.334 -38 35.001s-34.5 17 -55.5 22s-43.5 7.5 -67.5 7.5c-50 0 -86 -10 -108 -30s-33 -47.333 -33 -82
c0 -30.667 11.833 -55.667 35.5 -75s58.834 -29 105.501 -29z" />
    <glyph glyph-name="A" unicode="A" horiz-adv-x="789" 
d="M178 141v111h428v-111h-428zM17 0l304 647h144l307 -647h-145l-266 583h64l-264 -583h-144z" />
    <glyph glyph-name="B" unicode="B" horiz-adv-x="780" 
d="M77 0v646.998h373c86.667 0 152.5 -14.5 197.5 -43.5s67.5 -72.167 67.5 -129.5c0 -36.667 -9 -65.5 -27 -86.5s-43.5 -36.5 -76.5 -46.5s-71.833 -16.333 -116.5 -19l4 7c32.667 -0.666992 63.5 -3 92.5 -7s54.5 -11.333 76.5 -22s39.333 -25.5 52 -44.5
s19 -43.833 19 -74.5c0 -40 -10.667 -73.167 -32 -99.5s-51 -46.166 -89 -59.499s-82 -20.666 -132 -21.999h-409zM210 109.998h262c42 0 74.333 6.83301 97 20.5s34 35.5 34 65.5c0 22 -6.66699 38 -20 48s-31 16.167 -53 18.5s-45.667 3.5 -71 3.5h-249v-156zM210 372.998
h235c42 0 74.333 6.16699 97 18.5s34 33.5 34 63.5s-11.333 51.167 -34 63.5s-52.667 18.5 -90 18.5h-242v-164z" />
    <glyph glyph-name="C" unicode="C" horiz-adv-x="885" 
d="M832 233c-6 -52 -24.3301 -96.332 -54.9971 -132.999s-72.334 -64.667 -125.001 -84s-115.334 -29 -188.001 -29c-60.667 0 -116.167 7 -166.5 21s-93.666 35 -129.999 63s-64.5 62.833 -84.5 104.5s-30 90.5 -30 146.5s10 105 30 147s48.167 77.167 84.5 105.5
s79.666 49.666 129.999 63.999s105.833 21.5 166.5 21.5c72.667 0 135.5 -10 188.5 -30s94.833 -48.5 125.5 -85.5s48.667 -81.833 54 -134.5h-132c-8.66699 28 -23.167 52.167 -43.5 72.5s-46.5 35.833 -78.5 46.5s-70 16 -114 16c-54.667 0 -102.667 -8.5 -144 -25.5
s-73.333 -42 -96 -75s-34 -73.833 -34 -122.5c0 -48 11.333 -88.333 34 -121s54.667 -57.5 96 -74.5s89.333 -25.5 144 -25.5c44 0 81.833 5.33301 113.5 16s57.667 26 78 46s35.166 43.333 44.499 70h132z" />
    <glyph glyph-name="D" unicode="D" horiz-adv-x="879" 
d="M447 647c72.667 0 133.333 -8.66602 182 -25.999s87.5 -40.833 116.5 -70.5s49.667 -63.834 62 -102.501s18.5 -79.334 18.5 -122.001s-6.83301 -83.667 -20.5 -123s-35.334 -74.166 -65.001 -104.499s-68.667 -54.333 -117 -72s-107.166 -26.5 -176.499 -26.5h-370v647
h370zM209.999 114.001l234 0.00195312c48 0 87.833 5.83301 119.5 17.5s56.834 27.5 75.501 47.5s32 42.667 40 68s12 51.666 12 78.999s-4 53.333 -12 78s-21.333 46.667 -40 66s-43.834 34.666 -75.501 45.999s-71.5 17 -119.5 17h-234v-419z" />
    <glyph glyph-name="E" unicode="E" horiz-adv-x="769" 
d="M210 270v-159h499v-111h-632v647h631v-111h-498v-161h408v-105h-408z" />
    <glyph glyph-name="F" unicode="F" horiz-adv-x="741" 
d="M708 647v-111h-498v-174h408v-104h-408v-258h-133v647h631z" />
    <glyph glyph-name="G" unicode="G" horiz-adv-x="914" 
d="M449 -13c-60 0 -114.166 7 -162.499 21s-90 35 -125 63s-61.833 62.667 -80.5 104s-28 89 -28 143c0 54.667 9.83301 103.167 29.5 145.5s47.667 78.166 84 107.499s79.666 51.5 129.999 66.5s106.166 22.5 167.499 22.5c72.667 0 135.334 -10.167 188.001 -30.5
s94.167 -48.833 124.5 -85.5s47.5 -80.334 51.5 -131.001h-128c-8.66699 26.667 -22.834 49.834 -42.501 69.501s-45.5 35 -77.5 46s-70.667 16.5 -116 16.5c-58 0 -107.5 -9.33301 -148.5 -28s-72.167 -45 -93.5 -79s-32 -74 -32 -120c0 -44.667 9.33301 -83.167 28 -115.5
s47.5 -57.166 86.5 -74.499s88.833 -26 149.5 -26c46.667 0 87.834 6.16699 123.501 18.5s65.5 29 89.5 50s41 44.5 51 70.5l52 19c-8.66699 -86 -41.167 -153 -97.5 -201s-130.833 -72 -223.5 -72zM736.001 0c0 20.667 1.33301 44.5 4 71.5s6 54.333 10 82l11 76.5h-296v85
h386v-315h-115z" />
    <glyph glyph-name="H" unicode="H" horiz-adv-x="895" 
d="M194 380h513v-111h-513v111zM685 647h133v-647h-133v647zM77 647h133v-647h-133v647z" />
    <glyph glyph-name="I" unicode="I" horiz-adv-x="324" 
d="M96 647h133v-647h-133v647z" />
    <glyph glyph-name="J" unicode="J" horiz-adv-x="683" 
d="M473 253l-0.00292969 394.001h133v-403c0 -34 -6.16699 -66.333 -18.5 -97s-30.666 -57.834 -54.999 -81.501s-54.333 -42.167 -90 -55.5s-77.167 -20 -124.5 -20c-36.667 0 -72.167 4.66699 -106.5 14s-65.166 23.5 -92.499 42.5s-49.333 43 -66 72
s-25.667 63.167 -27 102.5h126c7.33301 -38 26.166 -66.833 56.499 -86.5s66.833 -29.5 109.5 -29.5c36.667 0 66.334 6.5 89.001 19.5s39.334 30.667 50.001 53s16 47.5 16 75.5z" />
    <glyph glyph-name="K" unicode="K" horiz-adv-x="814" 
d="M354 315l-1 56l436 -371h-192l-388 340l345 307h189zM77 647h133v-647h-133v647z" />
    <glyph glyph-name="L" unicode="L" horiz-adv-x="687" 
d="M210 647v-536h430v-111h-563v647h133z" />
    <glyph glyph-name="M" unicode="M" horiz-adv-x="1099" 
d="M580 66h-63l372 581h133v-647h-133v470l32 -9l-297 -461h-149l-297 459l32 9v-468h-133v647h133z" />
    <glyph glyph-name="N" unicode="N" horiz-adv-x="901" 
d="M733 132l-42 -17v532h133v-647h-133l-523 511l42 17v-528h-133v647h133z" />
    <glyph glyph-name="O" unicode="O" horiz-adv-x="924" 
d="M462 -13c-86 0 -159.5 13.5 -220.5 40.5s-107.667 65.5 -140 115.5s-48.5 110 -48.5 180c0 70.667 16.167 131 48.5 181s79 88.5 140 115.5s134.5 40.5 220.5 40.5c86.667 0 160.334 -13.5 221.001 -40.5s107.167 -65.5 139.5 -115.5s48.5 -110.333 48.5 -181
c0 -70 -16.167 -130 -48.5 -180s-78.833 -88.5 -139.5 -115.5s-134.334 -40.5 -221.001 -40.5zM462 102c53.333 0 100.166 8 140.499 24s72 40.333 95 73s34.5 74 34.5 124s-11.5 91.333 -34.5 124s-54.667 57.167 -95 73.5s-87.166 24.5 -140.499 24.5
c-52.667 0 -99.667 -8.16699 -141 -24.5s-73.666 -40.833 -96.999 -73.5s-35 -74 -35 -124s11.667 -91.333 35 -124s55.666 -57 96.999 -73s88.333 -24 141 -24z" />
    <glyph glyph-name="P" unicode="P" horiz-adv-x="784" 
d="M192 210v106h296c35.333 0 63.333 9.5 84 28.5s31 45.5 31 79.5c0 35.333 -10.333 62.333 -31 81s-48.667 28 -84 28h-280v-533h-133v647h401c36 0 69.833 -4.33301 101.5 -13s59.334 -22 83.001 -40s42.167 -41 55.5 -69s20 -61.667 20 -101
c0 -38.667 -6.66699 -71.667 -20 -99s-31.833 -49.5 -55.5 -66.5s-51.334 -29.333 -83.001 -37s-65.5 -11.5 -101.5 -11.5h-284z" />
    <glyph glyph-name="Q" unicode="Q" horiz-adv-x="924" 
d="M397 43h130v-243h-130v243zM462 -13c-86 0 -159.5 13.5 -220.5 40.5s-107.667 65.5 -140 115.5s-48.5 110 -48.5 180c0 70.667 16.167 131 48.5 181s79 88.5 140 115.5s134.5 40.5 220.5 40.5c86.667 0 160.334 -13.5 221.001 -40.5s107.167 -65.5 139.5 -115.5
s48.5 -110.333 48.5 -181c0 -70 -16.167 -130 -48.5 -180s-78.833 -88.5 -139.5 -115.5s-134.334 -40.5 -221.001 -40.5zM462 102c53.333 0 100.166 8 140.499 24s72 40.333 95 73s34.5 74 34.5 124s-11.5 91.333 -34.5 124s-54.667 57.167 -95 73.5
s-87.166 24.5 -140.499 24.5c-52.667 0 -99.667 -8.16699 -141 -24.5s-73.666 -40.833 -96.999 -73.5s-35 -74 -35 -124s11.667 -91.333 35 -124s55.666 -57 96.999 -73s88.333 -24 141 -24z" />
    <glyph glyph-name="R" unicode="R" horiz-adv-x="826" 
d="M77 0v646.998h439c50 0 93.5 -6.83301 130.5 -20.5s65.833 -35 86.5 -64s31 -66.167 31 -111.5c0 -30.667 -5.33301 -56.667 -16 -78s-25.5 -38.666 -44.5 -51.999s-40.833 -23.5 -65.5 -30.5s-51 -11.5 -79 -13.5l-14 8c46.667 -0.666992 85 -4.5 115 -11.5
s52.5 -19.667 67.5 -38s22.5 -45.5 22.5 -81.5v-154h-133v145c0 24.667 -4.33301 43.834 -13 57.501s-24.167 23.167 -46.5 28.5s-54.5 8 -96.5 8h-251v-239h-133zM210 342.998l306 0.000976562c37.333 0 65.833 9 85.5 27s29.5 42.333 29.5 73
c0 29.333 -9.83301 51.666 -29.5 66.999s-48.167 23 -85.5 23h-306v-190z" />
    <glyph glyph-name="S" unicode="S" horiz-adv-x="694" 
d="M34 218l135.003 0.00195312c2.66699 -22.667 13.167 -43.167 31.5 -61.5s42.5 -32.666 72.5 -42.999s63.667 -15.5 101 -15.5c34 0 62 3.66699 84 11s38.333 17.666 49 30.999s16 29.333 16 48c0 18 -6.66699 31.833 -20 41.5s-34.333 17.667 -63 24
s-66.334 12.833 -113.001 19.5c-36.667 5.33301 -71.334 12.833 -104.001 22.5s-61.5 22.167 -86.5 37.5s-44.667 34.166 -59 56.499s-21.5 48.833 -21.5 79.5c0 38 10.833 71.333 32.5 100s53.834 51 96.501 67s95 24 157 24c93.333 0 165.166 -19.833 215.499 -59.5
s74.833 -94.167 73.5 -163.5h-130c-2.66699 39.333 -19.167 67.666 -49.5 84.999s-68.5 26 -114.5 26c-42.667 0 -77.834 -6.33301 -105.501 -19s-41.5 -34.334 -41.5 -65.001c0 -12 3.33301 -22.5 10 -31.5s18 -16.833 34 -23.5s37.667 -13 65 -19s61.333 -12 102 -18
c38 -5.33301 72.5 -12.5 103.5 -21.5s57.667 -20.667 80 -35s39.5 -32.5 51.5 -54.5s18 -49 18 -81c0 -39.333 -10.167 -73.5 -30.5 -102.5s-51.666 -51.5 -93.999 -67.5s-97.166 -24 -164.499 -24c-48 0 -90.333 5.16699 -127 15.5s-68.334 24.166 -95.001 41.499
s-48.334 36.333 -65.001 57s-28.5 41.334 -35.5 62.001s-9.83301 39.334 -8.5 56.001z" />
    <glyph glyph-name="T" unicode="T" horiz-adv-x="722" 
d="M20 647h682v-111h-682v111zM295 550h133v-550h-133v550z" />
    <glyph glyph-name="U" unicode="U" horiz-adv-x="881" 
d="M671 286l0.00292969 361h133v-375c0 -42.667 -6.16699 -80 -18.5 -112s-29.833 -59 -52.5 -81s-49.167 -39.833 -79.5 -53.5s-63.333 -23.5 -99 -29.5s-73.167 -9 -112.5 -9c-40.667 0 -79.334 3 -116.001 9s-70.167 15.833 -100.5 29.5s-56.5 31.5 -78.5 53.5
s-39.167 49 -51.5 81s-18.5 69.333 -18.5 112v375h133v-361c0 -50.667 10 -89.167 30 -115.5s47.5 -44.333 82.5 -54s74.833 -14.5 119.5 -14.5c43.333 0 82.166 4.83301 116.499 14.5s61.666 27.667 81.999 54s30.5 64.833 30.5 115.5z" />
    <glyph glyph-name="V" unicode="V" horiz-adv-x="775" 
d="M306 0l-286 647h147l245 -584h-46l244 584h145l-283 -647h-166z" />
    <glyph glyph-name="W" unicode="W" horiz-adv-x="1300" 
d="M293 0l-273 647h147l231 -573l-43 -1l220 574h153l220 -574l-43 1l231 573h144l-270 -647h-163l-216 561h42l-217 -561h-163z" />
    <glyph glyph-name="X" unicode="X" horiz-adv-x="780" 
d="M576 647h162l-306 -357l-4 -4l-227 -286h-162l315 375l3 3zM211 647l216 -271l2 -3l312 -373h-169l-224 290l-3 2l-296 355h162z" />
    <glyph glyph-name="Y" unicode="Y" horiz-adv-x="740" 
d="M721 647l-284 -443v-204h-134v204l-284 443h154l239 -387h-80l235 387h154z" />
    <glyph glyph-name="Z" unicode="Z" horiz-adv-x="821" 
d="M63 647h695v-111l-577 -462l-12 37h589v-111h-695v111l577 462l12 -37h-589v111z" />
    <glyph glyph-name="bracketleft" unicode="[" horiz-adv-x="408" 
d="M349 -82v-102h-260v984h260v-102h-158v-780h158z" />
    <glyph glyph-name="backslash" unicode="\" horiz-adv-x="481" 
d="M140 753l305 -835l-105 -38l-304 835z" />
    <glyph glyph-name="bracketright" unicode="]" horiz-adv-x="410" 
d="M60 -81h159v779h-159v102h260v-983h-260v102z" />
    <glyph glyph-name="asciicircum" unicode="^" horiz-adv-x="587" 
d="M226 617v-114h-151v114h151z" />
    <glyph glyph-name="underscore" unicode="_" horiz-adv-x="849" 
d="M71 -100h708v-100h-708v100z" />
    <glyph glyph-name="grave" unicode="`" horiz-adv-x="508" 
d="M284 601l-184 158h172l136 -158h-124z" />
    <glyph glyph-name="a" unicode="a" horiz-adv-x="723" 
d="M302 -11c-49.333 0 -94.1689 10.8311 -134.502 32.498s-72.333 52 -96 91s-35.5 84.167 -35.5 135.5c0 52.667 12 98.334 36 137.001s56.5 68.834 97.5 90.501s87.5 32.5 139.5 32.5c57.333 0 103.5 -11.5 138.5 -34.5s60.5 -54.167 76.5 -93.5s24 -83.333 24 -132
c0 -29.333 -4.66699 -59.166 -14 -89.499s-23.666 -58.333 -42.999 -84s-44.666 -46.334 -75.999 -62.001s-69 -23.5 -113 -23.5zM343.997 88.998c39.333 0 73.332 6.66699 101.999 20s50.667 32 66 56s23 51.667 23 83c0 34 -7.83301 62.833 -23.5 86.5
s-37.667 41.667 -66 54s-62.166 18.5 -101.499 18.5c-55.333 0 -98.333 -14.5 -129 -43.5s-46 -67.5 -46 -115.5c0 -32 7.33301 -59.833 22 -83.5s35.167 -42.167 61.5 -55.5s56.833 -20 91.5 -20zM534.996 496.998h130v-497h-121l-2.5 19.5
c-1.66699 13 -3.16699 29.5 -4.5 49.5s-2 39.667 -2 59v369z" />
    <glyph glyph-name="b" unicode="b" horiz-adv-x="744" 
d="M443 -11c-44 0 -81.668 7.83496 -113.001 23.502s-56.666 36.334 -75.999 62.001s-33.666 53.667 -42.999 84s-14 60.166 -14 89.499c0 36.667 4.5 70.667 13.5 102s23.167 58.833 42.5 82.5s44.666 42.167 75.999 55.5s69.333 20 114 20
c51.333 0 96.833 -10.833 136.5 -32.5s71 -51.834 94 -90.501s34.5 -84.334 34.5 -137.001c0 -51.333 -11.667 -96.5 -35 -135.5s-55 -69.333 -95 -91s-85 -32.5 -135 -32.5zM400.999 89.002c35.333 0 66.001 6.66797 92.001 20.001s46.167 31.833 60.5 55.5
s21.5 51.5 21.5 83.5c0 48 -15.167 86.667 -45.5 116s-73.166 44 -128.499 44c-38.667 0 -72.334 -6.33301 -101.001 -19s-50.834 -30.834 -66.501 -54.501s-23.5 -52.5 -23.5 -86.5c0 -31.333 7.66699 -59 23 -83s37.333 -42.667 66 -56s62.667 -20 102 -20zM210 697.003
v-569.002c0 -21.333 -1 -44.166 -3 -68.499s-4 -44.166 -6 -59.499h-121v697h130z" />
    <glyph glyph-name="c" unicode="c" horiz-adv-x="686" 
d="M650 196c-3.33301 -43.333 -17.1699 -80.6689 -41.5029 -112.002s-57.833 -55.166 -100.5 -71.499s-93.334 -24.5 -152.001 -24.5c-61.333 0 -116.166 9.83301 -164.499 29.5s-86.333 48.667 -114 87s-41.5 85.833 -41.5 142.5s13.833 104.334 41.5 143.001
s65.667 68 114 88s103.166 30 164.499 30c58.667 0 109 -8.16699 151 -24.5s75.167 -39.833 99.5 -70.5s38.5 -67.667 42.5 -111h-119c-11.333 33.333 -32.333 59.333 -63 78s-67.667 28 -111 28c-34.667 0 -66.167 -6 -94.5 -18s-51 -29.833 -68 -53.5
s-25.5 -53.5 -25.5 -89.5c0 -35.333 8.33301 -64.833 25 -88.5s39.334 -41.334 68.001 -53.001s60.334 -17.5 95.001 -17.5c46.667 0 84.834 9.33301 114.501 28s49.834 45.334 60.501 80.001h119z" />
    <glyph glyph-name="d" unicode="d" horiz-adv-x="745" 
d="M302 -11c-50 0 -95.1689 10.8311 -135.502 32.498s-72.166 52 -95.499 91s-35 84.167 -35 135.5c0 52.667 11.5 98.334 34.5 137.001s54.5 68.834 94.5 90.501s85.667 32.5 137 32.5c44.667 0 82.667 -6.66699 114 -20s56.666 -31.833 75.999 -55.5
s33.5 -51.167 42.5 -82.5s13.5 -65.333 13.5 -102c0 -29.333 -4.66699 -59.166 -14 -89.499s-23.666 -58.333 -42.999 -84s-44.666 -46.334 -75.999 -62.001s-69 -23.5 -113 -23.5zM343.998 88.998c39.333 0 73.332 6.66602 101.999 19.999s50.667 32 66 56s23 51.667 23 83
c0 34 -7.83301 62.833 -23.5 86.5s-37.667 41.834 -66 54.501s-62.166 19 -101.499 19c-55.333 0 -98.333 -14.667 -129 -44s-46 -68 -46 -116c0 -32 7.33301 -59.833 22 -83.5s35.167 -42.167 61.5 -55.5s56.833 -20 91.5 -20zM534.997 696.997l130 0.00195312v-697h-121
c-2 15.333 -4 35.166 -6 59.499s-3 47.166 -3 68.499v569z" />
    <glyph glyph-name="e" unicode="e" horiz-adv-x="678" 
d="M513 165l126 0.000976562c-5.33301 -34 -19.5 -64.333 -42.5 -91s-54.167 -47.667 -93.5 -63s-87.333 -23 -144 -23c-63.333 0 -119.333 10.167 -168 30.5s-86.667 49.833 -114 88.5s-41 85.334 -41 140.001s13.333 101.5 40 140.5s63.834 68.833 111.501 89.5
s103.5 31 167.5 31c65.333 0 119.666 -10.333 162.999 -31s75.5 -51.834 96.5 -93.501s29.833 -94.834 26.5 -159.501h-474c3.33301 -25.333 12.833 -48.333 28.5 -69s37 -37 64 -49s59.167 -18 96.5 -18c41.333 0 75.833 7.16699 103.5 21.5s45.5 32.833 53.5 55.5z
M349 409.001c-48 0 -87.001 -10.5 -117.001 -31.5s-49.333 -46.833 -58 -77.5h338c-3.33301 33.333 -19.166 59.833 -47.499 79.5s-66.833 29.5 -115.5 29.5z" />
    <glyph glyph-name="f" unicode="f" horiz-adv-x="446" 
d="M25 488h400v-99h-400v99zM329 697h102.999v-105h-72c-19.333 0.666992 -36 -1.33301 -50 -6s-24.667 -13.167 -32 -25.5s-11 -29.833 -11 -52.5v-508h-130v524c0 40 7.33301 72.833 22 98.5s36.334 44.5 65.001 56.5s63.667 18 105 18z" />
    <glyph glyph-name="g" unicode="g" horiz-adv-x="671" 
d="M308 76c-54 0 -101.5 8.16699 -142.5 24.5s-72.833 40.5 -95.5 72.5s-34 70.667 -34 116c0 44.667 11 83.334 33 116.001s53.5 58 94.5 76s89.167 27 144.5 27c15.333 0 30.166 -1 44.499 -3s28.5 -4.66699 42.5 -8l251 -1v-98c-34 -0.666992 -68.5 3.5 -103.5 12.5
s-65.833 18.833 -92.5 29.5l-3 7c22.667 -10.667 44 -23.834 64 -39.501s36.167 -33.667 48.5 -54s18.5 -43.833 18.5 -70.5c0 -43.333 -11 -80.5 -33 -111.5s-53.167 -54.667 -93.5 -71s-88.166 -24.5 -143.499 -24.5zM475 -205v23.9971c0 30.667 -9.83301 52 -29.5 64
s-46.5 18 -80.5 18h-155c-30 0 -55.167 2.33301 -75.5 7s-36.5 11.334 -48.5 20.001s-20.667 18.834 -26 30.501s-8 24.167 -8 37.5c0 26.667 8.66699 46.834 26 60.501s40.666 22.834 69.999 27.501s61.666 5.66699 96.999 3l63 -11
c-42 -1.33301 -73.167 -4.83301 -93.5 -10.5s-30.5 -16.834 -30.5 -33.501c0 -10 4 -17.833 12 -23.5s19.333 -8.5 34 -8.5h163c44.667 0 82.834 -4.83301 114.501 -14.5s55.834 -26 72.501 -49s25 -54.5 25 -94.5v-47h-130zM308 169.997c28.667 0 53.832 4.66699 75.499 14
s38.5 22.833 50.5 40.5s18 38.834 18 63.501c0 25.333 -6 47 -18 65s-28.667 31.833 -50 41.5s-46.666 14.5 -75.999 14.5c-28.667 0 -54 -4.83301 -76 -14.5s-39 -23.5 -51 -41.5s-18 -39.667 -18 -65c0 -24.667 6 -45.834 18 -63.501s28.833 -31.167 50.5 -40.5
s47.167 -14 76.5 -14z" />
    <glyph glyph-name="h" unicode="h" horiz-adv-x="702" 
d="M514 0l0.00195312 273c0 27.333 -4.66699 50 -14 68s-24.166 31.667 -44.499 41s-47.5 14 -81.5 14c-32.667 0 -62.334 -6.16699 -89.001 -18.5s-48.334 -28.333 -65.001 -48s-26 -40.5 -28 -62.5l-1 55c3.33301 22 11 44 23 66s28 42 48 60s44.167 32.5 72.5 43.5
s60.166 16.5 95.499 16.5c30.667 0 59 -3.83301 85 -11.5s48.667 -19.5 68 -35.5s34.333 -35.833 45 -59.5s16 -51.5 16 -83.5v-318h-130zM69.002 0v697h130v-697h-130z" />
    <glyph glyph-name="i" unicode="i" horiz-adv-x="268" 
d="M209 715v-114h-151v114h151zM68 497h130v-497h-130v497z" />
    <glyph glyph-name="j" unicode="j" horiz-adv-x="268" 
d="M70 497h130v-697h-130v697zM209 715v-114h-151v114h151z" />
    <glyph glyph-name="k" unicode="k" horiz-adv-x="649" 
d="M69 697h130v-697h-130v697zM618 497l-296 -261l3 80l316 -316h-165l-274 279l239 218h177z" />
    <glyph glyph-name="l" unicode="l" horiz-adv-x="271" 
d="M70 697h130v-697h-130v697z" />
    <glyph glyph-name="m" unicode="m" horiz-adv-x="1127" 
d="M60 497h130v-497h-130v497zM421 508c30.667 0 59 -4 85 -12s48.667 -20.333 68 -37s34.333 -37.834 45 -63.501s16 -56.167 16 -91.5v-304h-130v281c0 42 -10.167 72.833 -30.5 92.5s-53.5 29.5 -99.5 29.5c-34.667 0 -66 -6.66699 -94 -20s-50.667 -30.166 -68 -50.499
s-27.333 -41.5 -30 -63.5l-1 51c3.33301 23.333 11 46 23 68s28.167 42.167 48.5 60.5s44.5 32.833 72.5 43.5s59.667 16 95 16zM854 508c30.667 0 58.998 -4 84.998 -12s48.667 -20.333 68 -37s34.5 -37.834 45.5 -63.501s16.5 -56.167 16.5 -91.5v-304h-130v281
c0 42 -10.333 72.833 -31 92.5s-54 29.5 -100 29.5c-34.667 0 -66 -6.66699 -94 -20s-50.667 -30.166 -68 -50.499s-27 -41.5 -29 -63.5l-2 54c3.33301 22 11.333 44 24 66s29.334 42 50.001 60s44.834 32.333 72.501 43s58.5 16 92.5 16z" />
    <glyph glyph-name="n" unicode="n" horiz-adv-x="693" 
d="M60 497h130v-497h-130v497zM421 508c30.667 0 59 -4 85 -12s48.667 -20.333 68 -37s34.333 -37.834 45 -63.501s16 -56.167 16 -91.5v-304h-130v281c0 42 -10.167 72.833 -30.5 92.5s-53.5 29.5 -99.5 29.5c-34.667 0 -66 -6.66699 -94 -20s-50.667 -30.166 -68 -50.499
s-27.333 -41.5 -30 -63.5l-1 51c3.33301 23.333 11 46 23 68s28.167 42.167 48.5 60.5s44.5 32.833 72.5 43.5s59.667 16 95 16z" />
    <glyph glyph-name="o" unicode="o" horiz-adv-x="704" 
d="M353 -12c-62.667 0 -117.834 10 -165.501 30s-84.834 49.167 -111.501 87.5s-40 85.5 -40 141.5s13.333 103.5 40 142.5s63.834 68.5 111.501 88.5s102.834 30 165.501 30s117.5 -10 164.5 -30s83.833 -49.5 110.5 -88.5s40 -86.5 40 -142.5s-13.333 -103.167 -40 -141.5
s-63.5 -67.5 -110.5 -87.5s-101.833 -30 -164.5 -30zM353 88c34.667 0 65.832 6.16699 93.499 18.5s49.5 30.333 65.5 54s24 52.5 24 86.5s-8 63.167 -24 87.5s-37.667 42.833 -65 55.5s-58.666 19 -93.999 19c-34.667 0 -66 -6.33301 -94 -19s-50.167 -31 -66.5 -55
s-24.5 -53.333 -24.5 -88c0 -34 8 -62.833 24 -86.5s38 -41.667 66 -54s59.667 -18.5 95 -18.5z" />
    <glyph glyph-name="p" unicode="p" horiz-adv-x="724" 
d="M422 -12c-44 0 -81.501 7.83105 -112.501 23.498s-56.167 36.334 -75.5 62.001s-33.666 53.834 -42.999 84.501s-14 60.667 -14 90c0 36.667 4.5 70.667 13.5 102s23.167 58.833 42.5 82.5s44.5 42.167 75.5 55.5s68.833 20 113.5 20c50 0 95 -11 135 -33
s71.833 -52.5 95.5 -91.5s35.5 -84.167 35.5 -135.5c0 -52.667 -12 -98.5 -36 -137.5s-56 -69.167 -96 -90.5s-84.667 -32 -134 -32zM379.999 88.998c35.333 0 66.167 6.66797 92.5 20.001s46.666 31.833 60.999 55.5s21.5 51.5 21.5 83.5c0 48 -15.167 86.667 -45.5 116
s-73.5 44 -129.5 44c-35.333 0 -67.5 -6.33301 -96.5 -19s-51.833 -30.834 -68.5 -54.501s-25 -52.5 -25 -86.5c0 -32 7.66699 -59.833 23 -83.5s37.333 -42.167 66 -55.5s62.334 -20 101.001 -20zM60 496.999h124l6 -132v-565h-130v697z" />
    <glyph glyph-name="q" unicode="q" horiz-adv-x="745" 
d="M302 -12c-49.333 0 -94.167 10.6689 -134.5 32.002s-72.333 51.5 -96 90.5s-35.5 84.833 -35.5 137.5c0 51.333 11.833 96.5 35.5 135.5s55.667 69.5 96 91.5s85.166 33 134.499 33c44.667 0 82.667 -6.66699 114 -20s56.666 -31.833 75.999 -55.5
s33.5 -51.167 42.5 -82.5s13.5 -65.333 13.5 -102c0 -29.333 -4.66699 -59.333 -14 -90s-23.666 -58.834 -42.999 -84.501s-44.666 -46.334 -75.999 -62.001s-69 -23.5 -113 -23.5zM343.999 89.002c39.333 0 73.332 6.66602 101.999 19.999s50.667 31.833 66 55.5
s23 51.5 23 83.5c0 34 -7.83301 62.833 -23.5 86.5s-37.667 41.834 -66 54.501s-62.166 19 -101.499 19c-55.333 0 -98.333 -14.667 -129 -44s-46 -68 -46 -116c0 -32 7.33301 -59.833 22 -83.5s35.167 -42.167 61.5 -55.5s56.833 -20 91.5 -20zM664.998 497.001v-697h-130
v574l4 123h126z" />
    <glyph glyph-name="r" unicode="r" horiz-adv-x="401" 
d="M60 497h130v-497h-130v497zM381 390c-37.333 0 -69.666 -7.16699 -96.999 -21.5s-49.333 -31.833 -66 -52.5s-28.334 -40.667 -35.001 -60l-1 55c0.666992 8 3.33398 19.833 8.00098 35.5s11.667 32.667 21 51s21.666 36 36.999 53s34 30.833 56 41.5s47.667 16 77 16
v-118z" />
    <glyph glyph-name="s" unicode="s" horiz-adv-x="564" 
d="M40 165l120.001 -0.00195312c7.33301 -22.667 22.5 -41.167 45.5 -55.5s53.167 -21.5 90.5 -21.5c25.333 0 45 2.33301 59 7s23.667 11.5 29 20.5s8 19.167 8 30.5c0 14 -4.33301 24.833 -13 32.5s-22 13.834 -40 18.501s-41 9 -69 13c-28 4.66699 -55 10.334 -81 17.001
s-49 15.5 -69 26.5s-35.833 25 -47.5 42s-17.5 37.833 -17.5 62.5c0 24 5.83301 45.333 17.5 64s28 34.334 49 47.001s45.667 22.334 74 29.001s58.833 10 91.5 10c49.333 0 90.333 -7.16699 123 -21.5s57.167 -34.333 73.5 -60s24.5 -55.167 24.5 -88.5h-115
c-5.33301 24.667 -16 42.5 -32 53.5s-40.667 16.5 -74 16.5c-32.667 0 -57.334 -5 -74.001 -15s-25 -23.667 -25 -41c0 -14 5.16699 -24.833 15.5 -32.5s25.666 -13.834 45.999 -18.501s45.833 -9.66699 76.5 -15c26 -5.33301 50.833 -11.333 74.5 -18
s44.834 -15.167 63.501 -25.5s33.5 -24 44.5 -41s16.5 -38.5 16.5 -64.5c0 -32 -9.16699 -59 -27.5 -81s-44.5 -38.833 -78.5 -50.5s-74.667 -17.5 -122 -17.5c-42 0 -78.167 4.5 -108.5 13.5s-55.5 20.667 -75.5 35s-35.5 29.666 -46.5 45.999s-18.5 31.833 -22.5 46.5
s-5.33301 26.667 -4 36z" />
    <glyph glyph-name="t" unicode="t" horiz-adv-x="434" 
d="M25 497h386v-101h-386v101zM153 633h130v-633h-130v633z" />
    <glyph glyph-name="u" unicode="u" horiz-adv-x="693" 
d="M635 0h-130v497h130v-497zM512 239l0.996094 -34.0059c-1.33301 -9.33301 -4.66602 -22.833 -9.99902 -40.5s-13.5 -36.5 -24.5 -56.5s-25.167 -39.167 -42.5 -57.5s-38.666 -33.333 -63.999 -45s-55.333 -17.5 -90 -17.5c-27.333 0 -54.166 3.33301 -80.499 10
s-50.166 17.834 -71.499 33.501s-38.333 36.834 -51 63.501s-19 60.334 -19 101.001v301h130v-279c0 -32 5.16699 -57.167 15.5 -75.5s25.5 -31.166 45.5 -38.499s43.667 -11 71 -11c36 0 67 7.83301 93 23.5s47.167 34.834 63.5 57.501s27.5 44.334 33.5 65.001z" />
    <glyph glyph-name="v" unicode="v" horiz-adv-x="627" 
d="M334 85h-47l182 412h142l-239 -497h-123l-234 497h143z" />
    <glyph glyph-name="w" unicode="w" horiz-adv-x="988" 
d="M708 90l-41 1l162 406h143l-219 -497h-122l-160 401h44l-165 -401h-122l-213 497h143l156 -407h-41l146 407h149z" />
    <glyph glyph-name="x" unicode="x" horiz-adv-x="657" 
d="M623 497l-258 -277l-186 -220h-159l269 291l176 206h158zM20 497h159l188 -204l270 -293h-159l-193 217z" />
    <glyph glyph-name="y" unicode="y" horiz-adv-x="639" 
d="M15 497h138l215 -477l-112 -20zM623 497l-344 -697h-135l147 274l193 423h139z" />
    <glyph glyph-name="z" unicode="z" horiz-adv-x="622" 
d="M559 398l-395 -338l-14 38h416v-98h-509v98l395 338l14 -38h-409v99h502v-99z" />
    <glyph glyph-name="braceleft" unicode="{" horiz-adv-x="483" 
d="M122 800l272 0.00390625v-102h-156c0 -17.333 3.16699 -36 9.5 -56s13.666 -40.833 21.999 -62.5s15.666 -43.334 21.999 -65.001s9.5 -42.834 9.5 -63.501c0 -29.333 -8.16699 -54.333 -24.5 -75s-39.166 -37 -68.499 -49s-63.333 -20 -102 -24v16
c38.667 -4 72.667 -12 102 -24s52.166 -28.167 68.499 -48.5s24.5 -45.5 24.5 -75.5c0 -20.667 -3.16699 -41.834 -9.5 -63.501s-13.666 -43.334 -21.999 -65.001s-15.666 -42.5 -21.999 -62.5s-9.5 -38.667 -9.5 -56h156v-102h-272
c-5.33301 31.333 -4.66602 63.666 2.00098 96.999s15.834 66 27.501 98l31.5 88c9.33301 26.667 14 48.667 14 66c0 29.333 -11.833 52.833 -35.5 70.5s-61.167 26.5 -112.5 26.5v86c51.333 0 88.833 8.83301 112.5 26.5s35.5 41.167 35.5 70.5
c0 17.333 -4.66699 39.333 -14 66l-31.5 88c-11.667 32 -20.834 64.833 -27.501 98.5s-7.33398 65.834 -2.00098 96.501z" />
    <glyph glyph-name="bar" unicode="|" horiz-adv-x="323" 
d="M100 800h123v-960h-123v960z" />
    <glyph glyph-name="braceright" unicode="}" horiz-adv-x="483" 
d="M286 451c0 -29.333 11.833 -52.8369 35.5 -70.5039s61.167 -26.5 112.5 -26.5v-86c-51.333 0 -88.833 -8.83301 -112.5 -26.5s-35.5 -41.167 -35.5 -70.5c0 -17.333 4.83301 -39.333 14.5 -66l31.5 -88c11.333 -32 20.333 -64.667 27 -98
s7.33398 -65.666 2.00098 -96.999h-272v102h156c0 17.333 -3.16699 36 -9.5 56s-13.666 40.833 -21.999 62.5s-15.666 43.334 -21.999 65.001s-9.5 42.834 -9.5 63.501c0 30 8.16699 55.167 24.5 75.5s39.166 36.5 68.499 48.5s63.333 20 102 24v-16
c-38.667 4 -72.667 12 -102 24s-52.166 28.333 -68.499 49s-24.5 45.667 -24.5 75c0 20.667 3.16699 41.834 9.5 63.501s13.666 43.334 21.999 65.001s15.666 42.5 21.999 62.5s9.5 38.667 9.5 56h-156v102h272c5.33301 -30.667 4.66602 -62.834 -2.00098 -96.501
s-15.667 -66.5 -27 -98.5l-31.5 -88c-9.66699 -26.667 -14.5 -48.667 -14.5 -66z" />
    <glyph glyph-name="asciitilde" unicode="~" horiz-adv-x="311" 
d="M214 330v-114h-151v114h151z" />
    <glyph glyph-name="uni00A0" unicode="&#xa0;" horiz-adv-x="241" 
 />
    <glyph glyph-name="exclamdown" unicode="&#xa1;" horiz-adv-x="305" 
d="M86 -91v461h132v-461h-132zM228 458h-151v114h151v-114z" />
    <glyph glyph-name="cent" unicode="&#xa2;" horiz-adv-x="686" 
d="M531 196l118.998 -0.00390625c-3.33301 -43.333 -17.166 -80.666 -41.499 -111.999s-57.833 -55.166 -100.5 -71.499s-93.334 -24.5 -152.001 -24.5h-10.5h-10.5l-15 -86l-69 13l14 81c-68.667 12.667 -124 40 -166 82s-63 98.333 -63 169
c0 56.667 13.833 104.334 41.5 143.001s65.5 68 113.5 88s102.667 30 164 30l18 100l69 -12l-16 -93c66.667 -8.66699 119.334 -30.5 158.001 -65.5s60.334 -80.167 65.001 -135.5h-119c-8.66699 26.667 -23.667 48.5 -45 65.5s-47 28.833 -77 35.5l-55 -315h4
c46.667 0 84.5 9.33301 113.5 28s49.167 45.334 60.5 80.001zM167.998 246.996c0 -40 10.667 -72.5 32 -97.5s49 -42.167 83 -51.5l55 309c-32 -2 -60.833 -9.16699 -86.5 -21.5s-46 -30 -61 -53s-22.5 -51.5 -22.5 -85.5z" />
    <glyph glyph-name="sterling" unicode="&#xa3;" horiz-adv-x="658" 
d="M34 268v62h419v-62h-419zM289 227c0 -20 -4.50684 -36.9951 -13.5068 -50.9951s-19.667 -25.5 -32 -34.5s-24.5 -15.833 -36.5 -20.5s-21 -8 -27 -10h417v-111h-524v111l11.5 3.5c7.66699 2.33301 17.334 6.16602 29.001 11.499s23.167 12.166 34.5 20.499
s20.833 18.5 28.5 30.5s11.5 26 11.5 42c0 11.333 -2 22.666 -6 33.999s-9.33301 22.333 -16 33c-2 2 -2.83301 4.33301 -2.5 7s1 5.5 2 8.5s1.33301 5.5 1 7.5s-1.83301 3.66699 -4.5 5l-33.5 30.5c-12.333 11 -24.166 23.333 -35.499 37s-20.666 28.667 -27.999 45
s-11 34.5 -11 54.5c0 38.667 11.667 71.167 35 97.5s55.5 46.5 96.5 60.5s87.833 21 140.5 21c42.667 0 81.834 -4.66699 117.501 -14s66.5 -22.833 92.5 -40.5s46.167 -38.834 60.5 -63.501s21.5 -52.334 21.5 -83.001h-137c-0.666992 18 -8 33.667 -22 47
s-32.167 23.666 -54.5 30.999s-46.833 11 -73.5 11s-51.167 -2.83301 -73.5 -8.5s-40.166 -15.167 -53.499 -28.5s-20 -31 -20 -53c0 -23.333 5.33301 -44.666 16 -63.999s22.834 -37.833 36.501 -55.5s25.834 -35.5 36.501 -53.5s16 -37.333 16 -58z" />
    <glyph glyph-name="currency" unicode="&#xa4;" horiz-adv-x="674" 
d="M338 103c-52 0 -97.833 8.66699 -137.5 26s-70.5 41.333 -92.5 72s-33 66.334 -33 107.001s11 76.334 33 107.001s52.833 54.667 92.5 72s85.5 26 137.5 26s97.667 -8.66699 137 -26s69.833 -41.333 91.5 -72s32.5 -66.334 32.5 -107.001s-10.833 -76.334 -32.5 -107.001
s-52.167 -54.667 -91.5 -72s-85 -26 -137 -26zM338 197c41.333 0 74.166 10.833 98.499 32.5s36.5 47.834 36.5 78.501s-12.167 57 -36.5 79s-57.166 33 -98.499 33s-74.5 -10.833 -99.5 -32.5s-37.5 -48.167 -37.5 -79.5c0 -30.667 12.333 -56.834 37 -78.501
s58 -32.5 100 -32.5zM150 41l-52 47l92 102l55 -43zM526 41l-96 106l58 41l90 -100zM195 421l-97 108l52 47l96 -107zM480 420l-51 48l97 108l52 -47z" />
    <glyph glyph-name="yen" unicode="&#xa5;" horiz-adv-x="740" 
d="M303 204l-284 443h154l239 -387h-80l235 387h154l-284 -443h-134zM303 0v83h134v-83h-134zM190 122h360v-68h-360v68zM190 232h360v-68h-360v68z" />
    <glyph glyph-name="brokenbar" unicode="&#xa6;" horiz-adv-x="323" 
d="M223 204v-364h-123v364h123zM223 800v-364h-123v364h123z" />
    <glyph glyph-name="section" unicode="&#xa7;" horiz-adv-x="565" 
d="M324 235l43.001 6.00098c51.333 -14 89.666 -31.5 114.999 -52.5s38 -48.833 38 -83.5c0 -43.333 -19 -77.666 -57 -102.999s-89.667 -38 -155 -38c-46.667 0 -87 6.16699 -121 18.5s-61.833 28 -83.5 47s-37.167 38.667 -46.5 59s-13 38.166 -11 53.499h115
c6 -22 20.5 -40.333 43.5 -55s54.833 -22.334 95.5 -23.001c34 -0.666992 58.667 4.16602 74 14.499s23 24.833 23 43.5c0 15.333 -4.66699 27 -14 35s-23 14.5 -41 19.5s-40.667 10.167 -68 15.5c-46.667 8 -88.167 18 -124.5 30s-64.666 27.5 -84.999 46.5
s-30.5 43.167 -30.5 72.5c0 22.667 8 42.334 24 59.001s41 28.667 75 36s78.333 8.33301 133 3l-54 -6c-40.667 12 -73.5 24.167 -98.5 36.5s-43.167 26.166 -54.5 41.499s-17 33.333 -17 54c0 42.667 19.833 77.5 59.5 104.5s93.5 40.5 161.5 40.5
c71.333 0 127.666 -15.333 168.999 -46s62.333 -71.667 63 -123h-116c-4.66699 24 -17 41.333 -37 52s-47.667 16 -83 16c-28 0 -50.5 -5 -67.5 -15s-25.5 -24 -25.5 -42c0 -14.667 5.16699 -26.334 15.5 -35.001s25.166 -15.667 44.499 -21s42.666 -11 69.999 -17
c44 -8 83.333 -17.667 118 -29s61.834 -26.333 81.501 -45s29.5 -43.667 29.5 -75s-15.667 -56.166 -47 -74.499s-82.666 -25.166 -153.999 -20.499zM167.001 345.001c0 -15.333 5.83203 -27.8311 17.499 -37.498s28.334 -18 50.001 -25s47.167 -13.833 76.5 -20.5
c26.667 3.33301 46.834 11.166 60.501 23.499s20.5 27.833 20.5 46.5c0 16.667 -5 29.667 -15 39s-25 16.833 -45 22.5s-45 11.5 -75 17.5c-28.667 -2.66699 -50.834 -9.83398 -66.501 -21.501s-23.5 -26.5 -23.5 -44.5z" />
    <glyph glyph-name="dieresis" unicode="&#xa8;" horiz-adv-x="541" 
d="M231 716v-114h-151v114h151zM448 716v-114h-151v114h151z" />
    <glyph glyph-name="copyright" unicode="&#xa9;" horiz-adv-x="1014" 
d="M508 7c-92.667 0 -173.166 13.333 -241.499 40s-121 64.334 -158 113.001s-55.5 106 -55.5 172c0 66.667 18.333 123.667 55 171s89.167 83.833 157.5 109.5s149.166 38.5 242.499 38.5s173.833 -12.833 241.5 -38.5s119.834 -62.167 156.501 -109.5s55 -104.333 55 -171
c0 -66 -18.5 -123.333 -55.5 -172s-89.333 -86.334 -157 -113.001s-147.834 -40 -240.501 -40zM508.001 87c53.333 0 101.995 5.5 145.995 16.5s82.333 26.833 115 47.5s57.834 46.334 75.501 77.001s26.5 65.334 26.5 104.001c0 39.333 -8.83301 73.666 -26.5 102.999
s-42.667 54.166 -75 74.499s-70.666 35.5 -114.999 45.5s-93.166 15 -146.499 15c-54 0 -103.333 -5 -148 -15s-83.167 -25.167 -115.5 -45.5s-57.333 -45.166 -75 -74.499s-26.5 -63.666 -26.5 -102.999c0 -38.667 8.83301 -73.334 26.5 -104.001
s42.834 -56.334 75.501 -77.001s71.334 -36.5 116.001 -47.5s93.667 -16.5 147 -16.5zM727.996 310c0 -26 -7.83203 -48.335 -23.499 -67.002s-39.167 -33.167 -70.5 -43.5s-71 -15.5 -119 -15.5c-72.667 0 -129.167 12.833 -169.5 38.5s-60.5 60.834 -60.5 105.501
c0 30.667 9 56.667 27 78s44.167 37.833 78.5 49.5s75.833 17.5 124.5 17.5c48 0 87.5 -5 118.5 -15s54.333 -24.333 70 -43s23.5 -41 23.5 -67h-96c-4.66699 15.333 -16.334 27.333 -35.001 36s-45.667 13 -81 13c-41.333 0 -72.833 -6.16699 -94.5 -18.5
s-32.5 -29.166 -32.5 -50.499s10.667 -37.833 32 -49.5s53 -17.5 95 -17.5c35.333 0 62.5 4.33301 81.5 13s30.833 20.667 35.5 36h96z" />
    <glyph glyph-name="ordfeminine" unicode="&#xaa;" horiz-adv-x="674" 
d="M269 293c-46 0 -86.501 8.8291 -121.501 26.4961s-62.333 41.834 -82 72.501s-29.5 65.334 -29.5 104.001c0 42 9.83301 79 29.5 111s47.5 56.833 83.5 74.5s78.333 26.5 127 26.5c37.333 0 69.833 -5.66699 97.5 -17s50.834 -26.833 69.501 -46.5
s32.667 -42.167 42 -67.5s14 -52 14 -80c0 -19.333 -4.83301 -40.666 -14.5 -63.999s-24 -45.666 -43 -66.999s-43 -38.833 -72 -52.5s-62.5 -20.5 -100.5 -20.5zM304.999 391.996c26 0 50.167 2.83203 72.5 8.49902s41.5 13.167 57.5 22.5s28.5 20.333 37.5 33
s13.5 26 13.5 40c0 18 -4.5 33.833 -13.5 47.5s-21.667 25.334 -38 35.001s-35.5 17 -57.5 22s-46 7.5 -72 7.5c-46.667 0 -81 -10.167 -103 -30.5s-33 -47.5 -33 -81.5c0 -30 11.667 -54.833 35 -74.5s57 -29.5 101 -29.5zM485.999 696.995h130v-393h-121l-2.5 19.5
c-1.66699 13 -3.16699 28.667 -4.5 47s-2 35.5 -2 51.5v275z" />
    <glyph glyph-name="guillemotleft" unicode="&#xab;" horiz-adv-x="584" 
d="M289 540l72 -69l-182 -192l182 -193l-72 -68l-241 261zM427 433l70 -68l-82 -84l82 -85l-71 -67l-138 152z" />
    <glyph glyph-name="logicalnot" unicode="&#xac;" horiz-adv-x="723" 
d="M85 416h538v-256h-114v158h-424v98z" />
    <glyph glyph-name="uni00AD" unicode="&#xad;" horiz-adv-x="600" 
d="M80 320h334v-98h-334v98z" />
    <glyph glyph-name="registered" unicode="&#xae;" horiz-adv-x="973" 
d="M487 77c-86 0 -161.669 13 -227.002 39s-116.166 62 -152.499 108s-54.5 98.667 -54.5 158c0 60 18 112.333 54 157s86.667 79.5 152 104.5s141.333 37.5 228 37.5s162.334 -12.5 227.001 -37.5s115.167 -59.833 151.5 -104.5s54.5 -97 54.5 -157
c0 -59.333 -18.167 -112 -54.5 -158s-87 -82 -152 -108s-140.5 -39 -226.5 -39zM486.998 158c50 0 95.834 5.16699 137.501 15.5s77.834 25.166 108.501 44.499s54.5 42.833 71.5 70.5s25.5 58.834 25.5 93.501s-8.33301 65.5 -25 92.5s-40.334 49.833 -71.001 68.5
s-67 32.834 -109 42.501s-88 14.5 -138 14.5c-50.667 0 -97 -4.83301 -139 -14.5s-78.333 -23.834 -109 -42.501s-54.334 -41.5 -71.001 -68.5s-25 -57.833 -25 -92.5s8.5 -65.834 25.5 -93.501s40.833 -51.167 71.5 -70.5s67 -34.166 109 -44.499s88 -15.5 138 -15.5z
M329.999 243v284.001h220c44.667 0 77.5 -7.83301 98.5 -23.5s31.5 -38.5 31.5 -68.5c0 -22.667 -5.5 -41 -16.5 -55s-31.5 -22 -61.5 -24c20 -2.66699 35 -6.5 45 -11.5s16.833 -11.333 20.5 -19s5.5 -16.834 5.5 -27.501v-55h-87v50c0 8 -1.5 14.333 -4.5 19
s-9.33301 8 -19 10s-24.5 3 -44.5 3h-101v-82h-87zM416.999 393.001l136.998 0.000976562c12.667 0 22.334 2.5 29.001 7.5s10 13.167 10 24.5c0 9.33301 -3.16699 16.166 -9.5 20.499s-16.166 6.5 -29.499 6.5h-137v-59z" />
    <glyph glyph-name="macron" unicode="&#xaf;" horiz-adv-x="507" 
d="M100 609v81h307v-81h-307z" />
    <glyph glyph-name="degree" unicode="&#xb0;" horiz-adv-x="448" 
d="M224 375c-34.667 0 -65.334 5.83301 -92.001 17.5s-47.5 28.167 -62.5 49.5s-22.5 46.333 -22.5 75s7.5 53.5 22.5 74.5s35.833 37.333 62.5 49s57.334 17.5 92.001 17.5c35.333 0 66.333 -5.83301 93 -17.5s47.5 -28 62.5 -49s22.5 -45.833 22.5 -74.5
s-7.5 -53.667 -22.5 -75s-35.833 -37.833 -62.5 -49.5s-57.667 -17.5 -93 -17.5zM224 445c31.333 0 55.166 6.66699 71.499 20s24.5 30.666 24.5 51.999c0 20.667 -8.16699 37.5 -24.5 50.5s-40.166 19.5 -71.499 19.5c-30.667 0 -54.167 -6.5 -70.5 -19.5
s-24.5 -29.833 -24.5 -50.5c0 -21.333 8.16699 -38.666 24.5 -51.999s39.833 -20 70.5 -20z" />
    <glyph glyph-name="plusminus" unicode="&#xb1;" horiz-adv-x="560" 
d="M50 246v95h460v-95h-460zM57 -10v72h446v-72h-446zM226 124v339h108v-339h-108z" />
    <glyph glyph-name="uni00B2" unicode="&#xb2;" horiz-adv-x="333" 
d="M143 461l137 6.00098v-67h-221v63c32 24 59.333 43.167 82 57.5s39.834 27 51.501 38s17.5 23.833 17.5 38.5c0 12.667 -4 23 -12 31s-19.667 12 -35 12c-16 0 -28.5 -5.66699 -37.5 -17s-11.167 -25 -6.5 -41h-66c-5.33301 23.333 -3.5 44.666 5.5 63.999
s23.167 34.833 42.5 46.5s41.666 17.5 66.999 17.5c37.333 0 65.833 -10.167 85.5 -30.5s29.5 -44.5 29.5 -72.5c0 -34 -11.833 -61.5 -35.5 -82.5s-58.5 -42.167 -104.5 -63.5z" />
    <glyph glyph-name="uni00B3" unicode="&#xb3;" horiz-adv-x="328" 
d="M208 549c46.667 -10 70.0029 -35.332 70.0029 -75.999c0 -22.667 -8.83301 -43.5 -26.5 -62.5s-46.167 -28.5 -85.5 -28.5c-42.667 0 -73.167 11.5 -91.5 34.5s-26.5 48.833 -24.5 77.5h66c-0.666992 -8.66699 2.16602 -17.834 8.49902 -27.501
s20.166 -14.5 41.499 -14.5c15.333 0 26.333 3.66699 33 11s10 16.333 10 27c0 22.667 -16 34 -48 34h-55v49h55c16 0 27.333 3.33301 34 10s10 15.334 10 26.001c0 22 -13.667 33 -41 33c-18.667 0 -31.5 -4 -38.5 -12s-10.167 -16.333 -9.5 -25h-61
c-4.66699 28 2.66602 52.5 21.999 73.5s49 31.5 89 31.5c35.333 0 62.166 -8.5 80.499 -25.5s27.5 -38.5 27.5 -64.5c0 -16.667 -5.16699 -31.334 -15.5 -44.001s-27.166 -21.667 -50.499 -27z" />
    <glyph glyph-name="acute" unicode="&#xb4;" horiz-adv-x="484" 
d="M95 601l136 158h172l-184 -158h-124z" />
    <glyph glyph-name="uni00B5" unicode="&#xb5;" horiz-adv-x="745" 
d="M731 -7c-54 0 -97.666 6.99902 -130.999 20.999s-57.5 34.167 -72.5 60.5s-22.5 57.833 -22.5 94.5v328h130v-303c0 -25.333 3.5 -44.166 10.5 -56.499s17.667 -20.5 32 -24.5s32.166 -6 53.499 -6v-114zM512.001 238.999l1 -34.002
c-1.33301 -9.33301 -4 -22.833 -8 -40.5s-10.333 -36.5 -19 -56.5s-20.5 -39.167 -35.5 -57.5s-34 -33.333 -57 -45s-50.833 -17.5 -83.5 -17.5c-34.667 0 -63.5 7.83301 -86.5 23.5s-39.833 39.5 -50.5 71.5l17 21v-304h-130v697h130v-273c0 -34 6 -60.5 18 -79.5
s28.167 -32.333 48.5 -40s43.166 -11.5 68.499 -11.5c36 0 66.833 7.83301 92.5 23.5s46.334 34.834 62.001 57.501s26.5 44.334 32.5 65.001z" />
    <glyph glyph-name="paragraph" unicode="&#xb6;" horiz-adv-x="735" 
d="M658 647l-0.000976562 -647.003h-128v236h-75v-236h-128v236h-49c-48 0 -90.667 7.66699 -128 23s-66.666 38.333 -87.999 69s-32 68.334 -32 113.001s10.333 82.334 31 113.001s49.5 53.834 86.5 69.501s79.5 23.5 127.5 23.5h383zM277.999 343.997l252 0.000976562v188
h-252c-31.333 0 -58.333 -7 -81 -21s-34 -38.667 -34 -74c0 -34.667 11.167 -58.834 33.5 -72.501s49.5 -20.5 81.5 -20.5z" />
    <glyph glyph-name="periodcentered" unicode="&#xb7;" horiz-adv-x="271" 
d="M211 330v-114h-151v114h151z" />
    <glyph glyph-name="cedilla" unicode="&#xb8;" horiz-adv-x="511" 
d="M346 17l-0.000976562 -118.002l-43 69c16 -2.66699 31 -6.5 45 -11.5s26.5 -11.5 37.5 -19.5s19.5 -17.833 25.5 -29.5s9 -25.5 9 -41.5c0 -28 -13.167 -52.5 -39.5 -73.5s-65.833 -31.5 -118.5 -31.5c-33.333 0 -61.833 5.83301 -85.5 17.5s-41.5 27 -53.5 46
s-17.333 38.833 -16 59.5h94c1.33301 -3.33301 3.5 -8.33301 6.5 -15s8.5 -12.667 16.5 -18s19.667 -8 35 -8c18.667 0 31.834 4 39.501 12s11.5 17.333 11.5 28c0 4.66699 -1.5 10.334 -4.5 17.001s-9.5 13.334 -19.5 20.001s-26.333 12 -49 16v81h109z" />
    <glyph glyph-name="uni00B9" unicode="&#xb9;" horiz-adv-x="247" 
d="M40 636v64h147v-300h-68v236h-79z" />
    <glyph glyph-name="ordmasculine" unicode="&#xba;" horiz-adv-x="704" 
d="M354 285c-58.667 0 -109.167 8.5 -151.5 25.5s-75 41.167 -98 72.5s-34.5 69 -34.5 113s11.5 81.833 34.5 113.5s55.667 56 98 73s92.833 25.5 151.5 25.5c58 0 107.833 -8.5 149.5 -25.5s73.834 -41.333 96.501 -73s34 -69.5 34 -113.5s-11.333 -81.667 -34 -113
s-54.834 -55.5 -96.501 -72.5s-91.5 -25.5 -149.5 -25.5zM353 380c34.667 0 63.167 4.99902 85.5 14.999s39 23.667 50 41s16.5 37.333 16.5 60c0 22 -5.33301 41.833 -16 59.5s-27.167 31.667 -49.5 42s-50.833 15.5 -85.5 15.5c-35.333 0 -64.333 -5.16699 -87 -15.5
s-39.667 -24.166 -51 -41.499s-17 -37.333 -17 -60s5.5 -42.667 16.5 -60s27.833 -31 50.5 -41s51.667 -15 87 -15z" />
    <glyph glyph-name="guillemotright" unicode="&#xbb;" horiz-adv-x="590" 
d="M217 471l72 69l241 -261l-241 -261l-73 68l182 193zM80 365l71 68l139 -152l-139 -152l-71 67l82 85z" />
    <glyph glyph-name="onequarter" unicode="&#xbc;" horiz-adv-x="918" 
d="M25 254v87h123v219h-119v87h233v-306h104v-87h-341zM665 700l54 -30l-382 -690l-52 32zM713 0v72h-201v82l213 239h101v-242h52v-79h-52v-72h-113zM623 147h94v126z" />
    <glyph glyph-name="onehalf" unicode="&#xbd;" horiz-adv-x="963" 
d="M25 254v87h123v219h-119v87h233v-306h104v-87h-341zM665 700l54 -30l-382 -690l-52 32zM923 0l-343 -0.00195312v85c33.333 14.667 62.833 28.834 88.5 42.501s47.5 26.834 65.5 39.501s32.5 24.834 43.5 36.501s19.167 22.667 24.5 33s8 20.166 8 29.499
c0 30.667 -20 46 -60 46c-27.333 0 -47 -4.66699 -59 -14s-19 -18.666 -21 -27.999h-97c-1.33301 24.667 4.66699 47 18 67s33.5 36.167 60.5 48.5s60.167 18.5 99.5 18.5c33.333 0 62.666 -4.5 87.999 -13.5s45 -22 59 -39s21 -38.167 21 -63.5
c0 -26 -6.66699 -49.167 -20 -69.5s-31.166 -38.833 -53.499 -55.5s-47.5 -32.334 -75.5 -47.001l-68 -31l221 3v-88z" />
    <glyph glyph-name="threequarters" unicode="&#xbe;" horiz-adv-x="903" 
d="M250 454c28.667 -2 53.5 -6 74.5 -12s37.333 -15.167 49 -27.5s17.5 -29.5 17.5 -51.5c0 -36.667 -15.5 -66.167 -46.5 -88.5s-74.167 -33.5 -129.5 -33.5c-38 0 -70.667 5.66699 -98 17s-48 27.166 -62 47.499s-20.333 43.5 -19 69.5h86
c0.666992 -14.667 8.66699 -26.334 24 -35.001s38 -13 68 -13c26.667 0 45.834 4.16699 57.501 12.5s17.5 20.5 17.5 36.5s-7.5 28.167 -22.5 36.5s-37.167 12.5 -66.5 12.5h-58v55h58c30 0 51.333 4 64 12s19 19.333 19 34c0 12 -5.83301 21.667 -17.5 29
s-29.834 11 -54.501 11c-26 0 -46.5 -3.83301 -61.5 -11.5s-22.833 -17.167 -23.5 -28.5h-86c-1.33301 26.667 5.33398 49.834 20.001 69.501s35.167 34.834 61.5 45.501s55.833 16 88.5 16c55.333 0 98.166 -10.5 128.499 -31.5s45.5 -46.5 45.5 -76.5s-12 -52.667 -36 -68
s-56.667 -24.333 -98 -27zM650 700l54 -30l-382 -690l-52 32zM698 0v72h-201v82l213 239h101v-242h52v-79h-52v-72h-113zM608 147h94v126z" />
    <glyph glyph-name="questiondown" unicode="&#xbf;" horiz-adv-x="625" 
d="M260 472v114h151v-114h-151zM448 91l128 0.00195312c0.666992 -19.333 -2 -39 -8 -59s-15.667 -39.333 -29 -58s-30.333 -35.334 -51 -50.001s-45.334 -26.167 -74.001 -34.5s-61.667 -12.5 -99 -12.5c-44.667 0 -83.5 5.66699 -116.5 17s-60.333 27 -82 47
s-37.834 43.5 -48.501 70.5s-16 56.5 -16 88.5c0 44 10 81.167 30 111.5s46.833 53.666 80.5 69.999s71.167 25.833 112.5 28.5v75h127v-166h-59c-54.667 0 -94.5 -10 -119.5 -30s-37.5 -48.333 -37.5 -85s11.833 -64.667 35.5 -84s55.834 -29 96.501 -29
c28.667 0 52.5 4.5 71.5 13.5s33.333 21 43 36s14.834 31.833 15.501 50.5z" />
    <glyph glyph-name="Agrave" unicode="&#xc0;" horiz-adv-x="789" 
d="M178 141v111h428v-111h-428zM17 0l304 647h144l307 -647h-145l-266 583h64l-264 -583h-144zM338 725l-184 158h172l136 -158h-124z" />
    <glyph glyph-name="Aacute" unicode="&#xc1;" horiz-adv-x="789" 
d="M178 141v111h428v-111h-428zM17 0l304 647h144l307 -647h-145l-266 583h64l-264 -583h-144zM324 725l136 158h172l-184 -158h-124z" />
    <glyph glyph-name="Acircumflex" unicode="&#xc2;" horiz-adv-x="789" 
d="M178 141v111h428v-111h-428zM17 0l304 647h144l307 -647h-145l-266 583h64l-264 -583h-144zM462 883l162 -158h-141l-130 132l82 -1l-131 -131h-141l163 158h136z" />
    <glyph glyph-name="Atilde" unicode="&#xc3;" horiz-adv-x="789" 
d="M178 141v111h428v-111h-428zM17 0l304 647h144l307 -647h-145l-266 583h64l-264 -583h-144zM481 724c-20 0 -37.6729 3 -53.0059 9s-29.666 13.167 -42.999 21.5s-26.666 15.5 -39.999 21.5s-28 9 -44 9c-14 0 -25.167 -3 -33.5 -9s-14.833 -13.667 -19.5 -23
s-9 -18.666 -13 -27.999h-92c5.33301 24.667 14.166 47.5 26.499 68.5s28.5 38 48.5 51s43.667 19.5 71 19.5c20.667 0 38.834 -3 54.501 -9s30.334 -13.167 44.001 -21.5s26.834 -15.5 39.501 -21.5s26.334 -9 41.001 -9s26.167 3.16699 34.5 9.5s15 14.166 20 23.499
s9.16699 18.333 12.5 27h93c-5.33301 -24 -14.166 -46.667 -26.499 -68s-28.5 -38.5 -48.5 -51.5s-44 -19.5 -72 -19.5z" />
    <glyph glyph-name="Adieresis" unicode="&#xc4;" horiz-adv-x="789" 
d="M178 141v111h428v-111h-428zM17 0l304 647h144l307 -647h-145l-266 583h64l-264 -583h-144zM212 654v-114h-151v114h151zM735 654v-114h-151v114h151z" />
    <glyph glyph-name="Aring" unicode="&#xc5;" horiz-adv-x="789" 
d="M178 141v111h428v-111h-428zM17 0l304 647h144l307 -647h-145l-266 583h64l-264 -583h-144zM394 701c-43.333 0 -77.833 10.167 -103.5 30.5s-38.5 47.5 -38.5 81.5c0 33.333 12.833 60.166 38.5 80.499s60.167 30.5 103.5 30.5s77.666 -10.167 102.999 -30.5
s38 -47.166 38 -80.499c0 -34 -12.667 -61.167 -38 -81.5s-59.666 -30.5 -102.999 -30.5zM394 759c23.333 0 40.166 4.5 50.499 13.5s15.5 22.5 15.5 40.5c0 17.333 -5.16699 30.5 -15.5 39.5s-27.166 13.5 -50.499 13.5c-24 0 -41.167 -4.5 -51.5 -13.5
s-15.5 -22.167 -15.5 -39.5c0 -18 5.16699 -31.5 15.5 -40.5s27.5 -13.5 51.5 -13.5z" />
    <glyph glyph-name="AE" unicode="&#xc6;" horiz-adv-x="1158" 
d="M599 270v-159h499v-111h-632v586l29 -7l-335 -579h-143l383 647h697v-111h-498v-161h408v-105h-408zM184 164v98h373v-98h-373z" />
    <glyph glyph-name="Ccedilla" unicode="&#xc7;" horiz-adv-x="885" 
d="M368 -116c1.33301 -3.33301 3.5 -8.33496 6.5 -15.002s8.5 -12.667 16.5 -18s19.667 -8 35 -8c18.667 0 31.834 4 39.501 12s11.5 17.333 11.5 28c0 4.66699 -1.5 10.334 -4.5 17.001s-9.5 13.334 -19.5 20.001s-26.333 12 -49 16l81 28
c18.667 -3.33301 35.667 -9 51 -17s27.666 -18.5 36.999 -31.5s14 -29.5 14 -49.5c0 -28 -13.167 -52.5 -39.5 -73.5s-65.833 -31.5 -118.5 -31.5c-33.333 0 -61.833 5.83301 -85.5 17.5s-41.5 27 -53.5 46s-17.333 38.833 -16 59.5h94zM404 16.998h109v-88l-109 7v81z
M832 232.998c-6 -52 -24.3301 -96.332 -54.9971 -132.999s-72.334 -64.667 -125.001 -84s-115.334 -29 -188.001 -29c-60.667 0 -116.167 7 -166.5 21s-93.666 35 -129.999 63s-64.5 62.833 -84.5 104.5s-30 90.5 -30 146.5s10 105 30 147s48.167 77.167 84.5 105.5
s79.666 49.666 129.999 63.999s105.833 21.5 166.5 21.5c72.667 0 135.5 -10 188.5 -30s94.833 -48.5 125.5 -85.5s48.667 -81.833 54 -134.5h-132c-8.66699 28 -23.167 52.167 -43.5 72.5s-46.5 35.833 -78.5 46.5s-70 16 -114 16c-54.667 0 -102.667 -8.5 -144 -25.5
s-73.333 -42 -96 -75s-34 -73.833 -34 -122.5c0 -48 11.333 -88.333 34 -121s54.667 -57.5 96 -74.5s89.333 -25.5 144 -25.5c44 0 81.833 5.33301 113.5 16s57.667 26 78 46s35.166 43.333 44.499 70h132z" />
    <glyph glyph-name="Egrave" unicode="&#xc8;" horiz-adv-x="769" 
d="M210 270v-159h499v-111h-632v647h631v-111h-498v-161h408v-105h-408zM341 725l-184 158h172l136 -158h-124z" />
    <glyph glyph-name="Eacute" unicode="&#xc9;" horiz-adv-x="769" 
d="M210 270v-159h499v-111h-632v647h631v-111h-498v-161h408v-105h-408zM327 725l136 158h172l-184 -158h-124z" />
    <glyph glyph-name="Ecircumflex" unicode="&#xca;" horiz-adv-x="769" 
d="M210 270v-159h499v-111h-632v647h631v-111h-498v-161h408v-105h-408zM465 883l162 -158h-141l-130 132l82 -1l-131 -131h-141l163 158h136z" />
    <glyph glyph-name="Edieresis" unicode="&#xcb;" horiz-adv-x="769" 
d="M210 270v-159h499v-111h-632v647h631v-111h-498v-161h408v-105h-408zM364 840v-114h-151v114h151zM581 840v-114h-151v114h151z" />
    <glyph glyph-name="Igrave" unicode="&#xcc;" horiz-adv-x="324" 
d="M96 647h133v-647h-133v647zM106 725l-184 158h172l136 -158h-124z" />
    <glyph glyph-name="Iacute" unicode="&#xcd;" horiz-adv-x="324" 
d="M96 647h133v-647h-133v647zM92 725l136 158h172l-184 -158h-124z" />
    <glyph glyph-name="Icircumflex" unicode="&#xce;" horiz-adv-x="324" 
d="M96 647h133v-647h-133v647zM230 883l162 -158h-141l-130 132l82 -1l-131 -131h-141l163 158h136z" />
    <glyph glyph-name="Idieresis" unicode="&#xcf;" horiz-adv-x="324" 
d="M96 647h133v-647h-133v647zM129 840v-114h-151v114h151zM346 840v-114h-151v114h151z" />
    <glyph glyph-name="Eth" unicode="&#xd0;" horiz-adv-x="879" 
d="M447 647c72.667 0 133.333 -8.66602 182 -25.999s87.5 -40.833 116.5 -70.5s49.667 -63.834 62 -102.501s18.5 -79.334 18.5 -122.001s-6.83301 -83.667 -20.5 -123s-35.334 -74.166 -65.001 -104.499s-68.667 -54.333 -117 -72s-107.166 -26.5 -176.499 -26.5h-370v647
h370zM209.999 114.001l234 0.00195312c48 0 87.833 5.83301 119.5 17.5s56.834 27.5 75.501 47.5s32 42.667 40 68s12 51.666 12 78.999s-4 53.333 -12 78s-21.333 46.667 -40 66s-43.834 34.666 -75.501 45.999s-71.5 17 -119.5 17h-234v-419zM-5.00098 361.003h359v-69
h-359v69z" />
    <glyph glyph-name="Ntilde" unicode="&#xd1;" horiz-adv-x="901" 
d="M733 132l-42 -17v532h133v-647h-133l-523 511l42 17v-528h-133v647h133zM544 724c-20 0 -37.6729 3 -53.0059 9s-29.666 13.167 -42.999 21.5s-26.666 15.5 -39.999 21.5s-28 9 -44 9c-14 0 -25.167 -3 -33.5 -9s-14.833 -13.667 -19.5 -23s-9 -18.666 -13 -27.999h-92
c5.33301 24.667 14.166 47.5 26.499 68.5s28.5 38 48.5 51s43.667 19.5 71 19.5c20.667 0 38.834 -3 54.501 -9s30.334 -13.167 44.001 -21.5s26.834 -15.5 39.501 -21.5s26.334 -9 41.001 -9s26.167 3.16699 34.5 9.5s15 14.166 20 23.499s9.16699 18.333 12.5 27h93
c-5.33301 -24 -14.166 -46.667 -26.499 -68s-28.5 -38.5 -48.5 -51.5s-44 -19.5 -72 -19.5z" />
    <glyph glyph-name="Ograve" unicode="&#xd2;" horiz-adv-x="924" 
d="M462 -13c-86 0 -159.5 13.5 -220.5 40.5s-107.667 65.5 -140 115.5s-48.5 110 -48.5 180c0 70.667 16.167 131 48.5 181s79 88.5 140 115.5s134.5 40.5 220.5 40.5c86.667 0 160.334 -13.5 221.001 -40.5s107.167 -65.5 139.5 -115.5s48.5 -110.333 48.5 -181
c0 -70 -16.167 -130 -48.5 -180s-78.833 -88.5 -139.5 -115.5s-134.334 -40.5 -221.001 -40.5zM462 102c53.333 0 100.166 8 140.499 24s72 40.333 95 73s34.5 74 34.5 124s-11.5 91.333 -34.5 124s-54.667 57.167 -95 73.5s-87.166 24.5 -140.499 24.5
c-52.667 0 -99.667 -8.16699 -141 -24.5s-73.666 -40.833 -96.999 -73.5s-35 -74 -35 -124s11.667 -91.333 35 -124s55.666 -57 96.999 -73s88.333 -24 141 -24zM406 729l-184 158h172l136 -158h-124z" />
    <glyph glyph-name="Oacute" unicode="&#xd3;" horiz-adv-x="924" 
d="M462 -13c-86 0 -159.5 13.5 -220.5 40.5s-107.667 65.5 -140 115.5s-48.5 110 -48.5 180c0 70.667 16.167 131 48.5 181s79 88.5 140 115.5s134.5 40.5 220.5 40.5c86.667 0 160.334 -13.5 221.001 -40.5s107.167 -65.5 139.5 -115.5s48.5 -110.333 48.5 -181
c0 -70 -16.167 -130 -48.5 -180s-78.833 -88.5 -139.5 -115.5s-134.334 -40.5 -221.001 -40.5zM462 102c53.333 0 100.166 8 140.499 24s72 40.333 95 73s34.5 74 34.5 124s-11.5 91.333 -34.5 124s-54.667 57.167 -95 73.5s-87.166 24.5 -140.499 24.5
c-52.667 0 -99.667 -8.16699 -141 -24.5s-73.666 -40.833 -96.999 -73.5s-35 -74 -35 -124s11.667 -91.333 35 -124s55.666 -57 96.999 -73s88.333 -24 141 -24zM392 729l136 158h172l-184 -158h-124z" />
    <glyph glyph-name="Ocircumflex" unicode="&#xd4;" horiz-adv-x="924" 
d="M462 -13c-86 0 -159.5 13.5 -220.5 40.5s-107.667 65.5 -140 115.5s-48.5 110 -48.5 180c0 70.667 16.167 131 48.5 181s79 88.5 140 115.5s134.5 40.5 220.5 40.5c86.667 0 160.334 -13.5 221.001 -40.5s107.167 -65.5 139.5 -115.5s48.5 -110.333 48.5 -181
c0 -70 -16.167 -130 -48.5 -180s-78.833 -88.5 -139.5 -115.5s-134.334 -40.5 -221.001 -40.5zM462 102c53.333 0 100.166 8 140.499 24s72 40.333 95 73s34.5 74 34.5 124s-11.5 91.333 -34.5 124s-54.667 57.167 -95 73.5s-87.166 24.5 -140.499 24.5
c-52.667 0 -99.667 -8.16699 -141 -24.5s-73.666 -40.833 -96.999 -73.5s-35 -74 -35 -124s11.667 -91.333 35 -124s55.666 -57 96.999 -73s88.333 -24 141 -24zM530 887l162 -158h-141l-130 132l82 -1l-131 -131h-141l163 158h136z" />
    <glyph glyph-name="Otilde" unicode="&#xd5;" horiz-adv-x="924" 
d="M462 -13c-86 0 -159.5 13.5 -220.5 40.5s-107.667 65.5 -140 115.5s-48.5 110 -48.5 180c0 70.667 16.167 131 48.5 181s79 88.5 140 115.5s134.5 40.5 220.5 40.5c86.667 0 160.334 -13.5 221.001 -40.5s107.167 -65.5 139.5 -115.5s48.5 -110.333 48.5 -181
c0 -70 -16.167 -130 -48.5 -180s-78.833 -88.5 -139.5 -115.5s-134.334 -40.5 -221.001 -40.5zM462 102c53.333 0 100.166 8 140.499 24s72 40.333 95 73s34.5 74 34.5 124s-11.5 91.333 -34.5 124s-54.667 57.167 -95 73.5s-87.166 24.5 -140.499 24.5
c-52.667 0 -99.667 -8.16699 -141 -24.5s-73.666 -40.833 -96.999 -73.5s-35 -74 -35 -124s11.667 -91.333 35 -124s55.666 -57 96.999 -73s88.333 -24 141 -24zM549 728c-20 0 -37.6729 3 -53.0059 9s-29.666 13.167 -42.999 21.5s-26.666 15.5 -39.999 21.5s-28 9 -44 9
c-14 0 -25.167 -3 -33.5 -9s-14.833 -13.667 -19.5 -23s-9 -18.666 -13 -27.999h-92c5.33301 24.667 14.166 47.5 26.499 68.5s28.5 38 48.5 51s43.667 19.5 71 19.5c20.667 0 38.834 -3 54.501 -9s30.334 -13.167 44.001 -21.5s26.834 -15.5 39.501 -21.5
s26.334 -9 41.001 -9s26.167 3.16699 34.5 9.5s15 14.166 20 23.499s9.16699 18.333 12.5 27h93c-5.33301 -24 -14.166 -46.667 -26.499 -68s-28.5 -38.5 -48.5 -51.5s-44 -19.5 -72 -19.5z" />
    <glyph glyph-name="Odieresis" unicode="&#xd6;" horiz-adv-x="925" 
d="M462 -13c-86 0 -159.5 13.5 -220.5 40.5s-107.667 65.5 -140 115.5s-48.5 110 -48.5 180c0 70.667 16.167 131 48.5 181s79 88.5 140 115.5s134.5 40.5 220.5 40.5c86.667 0 160.334 -13.5 221.001 -40.5s107.167 -65.5 139.5 -115.5s48.5 -110.333 48.5 -181
c0 -70 -16.167 -130 -48.5 -180s-78.833 -88.5 -139.5 -115.5s-134.334 -40.5 -221.001 -40.5zM462 102c53.333 0 100.166 8 140.499 24s72 40.333 95 73s34.5 74 34.5 124s-11.5 91.333 -34.5 124s-54.667 57.167 -95 73.5s-87.166 24.5 -140.499 24.5
c-52.667 0 -99.667 -8.16699 -141 -24.5s-73.666 -40.833 -96.999 -73.5s-35 -74 -35 -124s11.667 -91.333 35 -124s55.666 -57 96.999 -73s88.333 -24 141 -24zM227 763v-114h-151v114h151zM860 763v-114h-151v114h151z" />
    <glyph glyph-name="multiply" unicode="&#xd7;" horiz-adv-x="500" 
d="M126 73l315 314l-68 67l-314 -314zM373 73l68 67l-315 314l-67 -67z" />
    <glyph glyph-name="Oslash" unicode="&#xd8;" horiz-adv-x="924" 
d="M462 -13c-86 0 -159.5 13.5 -220.5 40.5s-107.667 65.5 -140 115.5s-48.5 110 -48.5 180c0 70.667 16.167 131 48.5 181s79 88.5 140 115.5s134.5 40.5 220.5 40.5c86.667 0 160.334 -13.5 221.001 -40.5s107.167 -65.5 139.5 -115.5s48.5 -110.333 48.5 -181
c0 -70 -16.167 -130 -48.5 -180s-78.833 -88.5 -139.5 -115.5s-134.334 -40.5 -221.001 -40.5zM462 102c53.333 0 100.166 8 140.499 24s72 40.333 95 73s34.5 74 34.5 124s-11.5 91.333 -34.5 124s-54.667 57.167 -95 73.5s-87.166 24.5 -140.499 24.5
c-52.667 0 -99.667 -8.16699 -141 -24.5s-73.666 -40.833 -96.999 -73.5s-35 -74 -35 -124s11.667 -91.333 35 -124s55.666 -57 96.999 -73s88.333 -24 141 -24zM633 693l54 -30l-398 -719l-52 32z" />
    <glyph glyph-name="Ugrave" unicode="&#xd9;" horiz-adv-x="881" 
d="M671 286l0.00292969 361h133v-375c0 -42.667 -6.16699 -80 -18.5 -112s-29.833 -59 -52.5 -81s-49.167 -39.833 -79.5 -53.5s-63.333 -23.5 -99 -29.5s-73.167 -9 -112.5 -9c-40.667 0 -79.334 3 -116.001 9s-70.167 15.833 -100.5 29.5s-56.5 31.5 -78.5 53.5
s-39.167 49 -51.5 81s-18.5 69.333 -18.5 112v375h133v-361c0 -50.667 10 -89.167 30 -115.5s47.5 -44.333 82.5 -54s74.833 -14.5 119.5 -14.5c43.333 0 82.166 4.83301 116.499 14.5s61.666 27.667 81.999 54s30.5 64.833 30.5 115.5zM386.003 725l-184 158h172l136 -158
h-124z" />
    <glyph glyph-name="Uacute" unicode="&#xda;" horiz-adv-x="881" 
d="M671 286l0.00292969 361h133v-375c0 -42.667 -6.16699 -80 -18.5 -112s-29.833 -59 -52.5 -81s-49.167 -39.833 -79.5 -53.5s-63.333 -23.5 -99 -29.5s-73.167 -9 -112.5 -9c-40.667 0 -79.334 3 -116.001 9s-70.167 15.833 -100.5 29.5s-56.5 31.5 -78.5 53.5
s-39.167 49 -51.5 81s-18.5 69.333 -18.5 112v375h133v-361c0 -50.667 10 -89.167 30 -115.5s47.5 -44.333 82.5 -54s74.833 -14.5 119.5 -14.5c43.333 0 82.166 4.83301 116.499 14.5s61.666 27.667 81.999 54s30.5 64.833 30.5 115.5zM372.003 725l136 158h172l-184 -158
h-124z" />
    <glyph glyph-name="Ucircumflex" unicode="&#xdb;" horiz-adv-x="881" 
d="M671 286l0.00292969 361h133v-375c0 -42.667 -6.16699 -80 -18.5 -112s-29.833 -59 -52.5 -81s-49.167 -39.833 -79.5 -53.5s-63.333 -23.5 -99 -29.5s-73.167 -9 -112.5 -9c-40.667 0 -79.334 3 -116.001 9s-70.167 15.833 -100.5 29.5s-56.5 31.5 -78.5 53.5
s-39.167 49 -51.5 81s-18.5 69.333 -18.5 112v375h133v-361c0 -50.667 10 -89.167 30 -115.5s47.5 -44.333 82.5 -54s74.833 -14.5 119.5 -14.5c43.333 0 82.166 4.83301 116.499 14.5s61.666 27.667 81.999 54s30.5 64.833 30.5 115.5zM510.003 883l162 -158h-141l-130 132
l82 -1l-131 -131h-141l163 158h136z" />
    <glyph glyph-name="Udieresis" unicode="&#xdc;" horiz-adv-x="881" 
d="M671 286l0.00292969 361h133v-375c0 -42.667 -6.16699 -80 -18.5 -112s-29.833 -59 -52.5 -81s-49.167 -39.833 -79.5 -53.5s-63.333 -23.5 -99 -29.5s-73.167 -9 -112.5 -9c-40.667 0 -79.334 3 -116.001 9s-70.167 15.833 -100.5 29.5s-56.5 31.5 -78.5 53.5
s-39.167 49 -51.5 81s-18.5 69.333 -18.5 112v375h133v-361c0 -50.667 10 -89.167 30 -115.5s47.5 -44.333 82.5 -54s74.833 -14.5 119.5 -14.5c43.333 0 82.166 4.83301 116.499 14.5s61.666 27.667 81.999 54s30.5 64.833 30.5 115.5zM407.003 647v-114h-151v114h151z
M624.003 647v-114h-151v114h151z" />
    <glyph glyph-name="Yacute" unicode="&#xdd;" horiz-adv-x="740" 
d="M721 647l-284 -443v-204h-134v204l-284 443h154l239 -387h-80l235 387h154zM300 725l136 158h172l-184 -158h-124z" />
    <glyph glyph-name="Thorn" unicode="&#xde;" horiz-adv-x="759" 
d="M451 540c36 0 69.833 -4.00293 101.5 -12.0029s59.334 -20.667 83.001 -38s42.167 -39.666 55.5 -66.999s20 -60.666 20 -99.999c0 -38.667 -6.66699 -71.667 -20 -99s-31.833 -49.666 -55.5 -66.999s-51.334 -30 -83.001 -38s-65.5 -12 -101.5 -12h-271v108h283
c34 0 61.667 9.5 83 28.5s32 45.5 32 79.5c0 35.333 -10.667 62.333 -32 81s-49 28 -83 28h-283v108h271zM75 646.997h133v-647h-133v647z" />
    <glyph glyph-name="germandbls" unicode="&#xdf;" horiz-adv-x="713" 
d="M349 -173l-0.00195312 100.001c42 0 76.833 2 104.5 6s49.667 10 66 18s27.833 18.333 34.5 31s10 28 10 46c0 16.667 -3.16699 31.167 -9.5 43.5s-17 22.833 -32 31.5s-35.333 15.167 -61 19.5s-58.167 6.5 -97.5 6.5h-35v95l194 208l18 -43h-358v99l453 -1v-87
l-205 -243l-8 47c36 -0.666992 70.333 -3.83398 103 -9.50098s61.834 -15.167 87.501 -28.5s45.834 -31 60.501 -53s22 -49.667 22 -83c0 -34 -8.33301 -63.667 -25 -89s-40.167 -46.5 -70.5 -63.5s-66.833 -29.667 -109.5 -38s-90 -12.5 -142 -12.5zM68.998 0.000976562
l-0.000976562 523.999c0 40 7.33301 72.833 22 98.5s36.334 44.5 65.001 56.5s63.667 18 105 18h113v-105h-92c-24.667 0.666992 -44.667 -5.16602 -60 -17.499s-23 -34.5 -23 -66.5v-508h-130z" />
    <glyph glyph-name="agrave" unicode="&#xe0;" horiz-adv-x="723" 
d="M302 -11c-49.333 0 -94.1689 10.8311 -134.502 32.498s-72.333 52 -96 91s-35.5 84.167 -35.5 135.5c0 52.667 12 98.334 36 137.001s56.5 68.834 97.5 90.501s87.5 32.5 139.5 32.5c57.333 0 103.5 -11.5 138.5 -34.5s60.5 -54.167 76.5 -93.5s24 -83.333 24 -132
c0 -29.333 -4.66699 -59.166 -14 -89.499s-23.666 -58.333 -42.999 -84s-44.666 -46.334 -75.999 -62.001s-69 -23.5 -113 -23.5zM343.997 88.998c39.333 0 73.332 6.66699 101.999 20s50.667 32 66 56s23 51.667 23 83c0 34 -7.83301 62.833 -23.5 86.5
s-37.667 41.667 -66 54s-62.166 18.5 -101.499 18.5c-55.333 0 -98.333 -14.5 -129 -43.5s-46 -67.5 -46 -115.5c0 -32 7.33301 -59.833 22 -83.5s35.167 -42.167 61.5 -55.5s56.833 -20 91.5 -20zM534.996 496.998h130v-497h-121l-2.5 19.5
c-1.66699 13 -3.16699 29.5 -4.5 49.5s-2 39.667 -2 59v369zM287.996 600.998l-184 158h172l136 -158h-124z" />
    <glyph glyph-name="aacute" unicode="&#xe1;" horiz-adv-x="723" 
d="M302 -11c-49.333 0 -94.1689 10.8311 -134.502 32.498s-72.333 52 -96 91s-35.5 84.167 -35.5 135.5c0 52.667 12 98.334 36 137.001s56.5 68.834 97.5 90.501s87.5 32.5 139.5 32.5c57.333 0 103.5 -11.5 138.5 -34.5s60.5 -54.167 76.5 -93.5s24 -83.333 24 -132
c0 -29.333 -4.66699 -59.166 -14 -89.499s-23.666 -58.333 -42.999 -84s-44.666 -46.334 -75.999 -62.001s-69 -23.5 -113 -23.5zM343.997 88.998c39.333 0 73.332 6.66699 101.999 20s50.667 32 66 56s23 51.667 23 83c0 34 -7.83301 62.833 -23.5 86.5
s-37.667 41.667 -66 54s-62.166 18.5 -101.499 18.5c-55.333 0 -98.333 -14.5 -129 -43.5s-46 -67.5 -46 -115.5c0 -32 7.33301 -59.833 22 -83.5s35.167 -42.167 61.5 -55.5s56.833 -20 91.5 -20zM534.996 496.998h130v-497h-121l-2.5 19.5
c-1.66699 13 -3.16699 29.5 -4.5 49.5s-2 39.667 -2 59v369zM273.996 600.998l136 158h172l-184 -158h-124z" />
    <glyph glyph-name="acircumflex" unicode="&#xe2;" horiz-adv-x="723" 
d="M302 -11c-49.333 0 -94.1689 10.8311 -134.502 32.498s-72.333 52 -96 91s-35.5 84.167 -35.5 135.5c0 52.667 12 98.334 36 137.001s56.5 68.834 97.5 90.501s87.5 32.5 139.5 32.5c57.333 0 103.5 -11.5 138.5 -34.5s60.5 -54.167 76.5 -93.5s24 -83.333 24 -132
c0 -29.333 -4.66699 -59.166 -14 -89.499s-23.666 -58.333 -42.999 -84s-44.666 -46.334 -75.999 -62.001s-69 -23.5 -113 -23.5zM343.997 88.998c39.333 0 73.332 6.66699 101.999 20s50.667 32 66 56s23 51.667 23 83c0 34 -7.83301 62.833 -23.5 86.5
s-37.667 41.667 -66 54s-62.166 18.5 -101.499 18.5c-55.333 0 -98.333 -14.5 -129 -43.5s-46 -67.5 -46 -115.5c0 -32 7.33301 -59.833 22 -83.5s35.167 -42.167 61.5 -55.5s56.833 -20 91.5 -20zM534.996 496.998h130v-497h-121l-2.5 19.5
c-1.66699 13 -3.16699 29.5 -4.5 49.5s-2 39.667 -2 59v369zM411.996 758.998l162 -158h-141l-130 132l82 -1l-131 -131h-141l163 158h136z" />
    <glyph glyph-name="atilde" unicode="&#xe3;" horiz-adv-x="723" 
d="M302 -11c-49.333 0 -94.1689 10.8311 -134.502 32.498s-72.333 52 -96 91s-35.5 84.167 -35.5 135.5c0 52.667 12 98.334 36 137.001s56.5 68.834 97.5 90.501s87.5 32.5 139.5 32.5c57.333 0 103.5 -11.5 138.5 -34.5s60.5 -54.167 76.5 -93.5s24 -83.333 24 -132
c0 -29.333 -4.66699 -59.166 -14 -89.499s-23.666 -58.333 -42.999 -84s-44.666 -46.334 -75.999 -62.001s-69 -23.5 -113 -23.5zM343.997 88.998c39.333 0 73.332 6.66699 101.999 20s50.667 32 66 56s23 51.667 23 83c0 34 -7.83301 62.833 -23.5 86.5
s-37.667 41.667 -66 54s-62.166 18.5 -101.499 18.5c-55.333 0 -98.333 -14.5 -129 -43.5s-46 -67.5 -46 -115.5c0 -32 7.33301 -59.833 22 -83.5s35.167 -42.167 61.5 -55.5s56.833 -20 91.5 -20zM534.996 496.998h130v-497h-121l-2.5 19.5
c-1.66699 13 -3.16699 29.5 -4.5 49.5s-2 39.667 -2 59v369zM430.996 599.998c-20 0 -37.6729 3 -53.0059 9s-29.666 13.167 -42.999 21.5s-26.666 15.5 -39.999 21.5s-28 9 -44 9c-14 0 -25.167 -3 -33.5 -9s-14.833 -13.667 -19.5 -23s-9 -18.666 -13 -27.999h-92
c5.33301 24.667 14.166 47.5 26.499 68.5s28.5 38 48.5 51s43.667 19.5 71 19.5c20.667 0 38.834 -3 54.501 -9s30.334 -13.167 44.001 -21.5s26.834 -15.5 39.501 -21.5s26.334 -9 41.001 -9s26.167 3.16699 34.5 9.5s15 14.166 20 23.499s9.16699 18.333 12.5 27h93
c-5.33301 -24 -14.166 -46.667 -26.499 -68s-28.5 -38.5 -48.5 -51.5s-44 -19.5 -72 -19.5z" />
    <glyph glyph-name="adieresis" unicode="&#xe4;" horiz-adv-x="723" 
d="M302 -11c-49.333 0 -94.1689 10.8311 -134.502 32.498s-72.333 52 -96 91s-35.5 84.167 -35.5 135.5c0 52.667 12 98.334 36 137.001s56.5 68.834 97.5 90.501s87.5 32.5 139.5 32.5c57.333 0 103.5 -11.5 138.5 -34.5s60.5 -54.167 76.5 -93.5s24 -83.333 24 -132
c0 -29.333 -4.66699 -59.166 -14 -89.499s-23.666 -58.333 -42.999 -84s-44.666 -46.334 -75.999 -62.001s-69 -23.5 -113 -23.5zM343.997 88.998c39.333 0 73.332 6.66699 101.999 20s50.667 32 66 56s23 51.667 23 83c0 34 -7.83301 62.833 -23.5 86.5
s-37.667 41.667 -66 54s-62.166 18.5 -101.499 18.5c-55.333 0 -98.333 -14.5 -129 -43.5s-46 -67.5 -46 -115.5c0 -32 7.33301 -59.833 22 -83.5s35.167 -42.167 61.5 -55.5s56.833 -20 91.5 -20zM534.996 496.998h130v-497h-121l-2.5 19.5
c-1.66699 13 -3.16699 29.5 -4.5 49.5s-2 39.667 -2 59v369zM310.996 715.998v-114h-151v114h151zM527.996 715.998v-114h-151v114h151z" />
    <glyph glyph-name="aring" unicode="&#xe5;" horiz-adv-x="723" 
d="M302 -11c-49.333 0 -94.1689 10.8311 -134.502 32.498s-72.333 52 -96 91s-35.5 84.167 -35.5 135.5c0 52.667 12 98.334 36 137.001s56.5 68.834 97.5 90.501s87.5 32.5 139.5 32.5c57.333 0 103.5 -11.5 138.5 -34.5s60.5 -54.167 76.5 -93.5s24 -83.333 24 -132
c0 -29.333 -4.66699 -59.166 -14 -89.499s-23.666 -58.333 -42.999 -84s-44.666 -46.334 -75.999 -62.001s-69 -23.5 -113 -23.5zM343.997 88.998c39.333 0 73.332 6.66699 101.999 20s50.667 32 66 56s23 51.667 23 83c0 34 -7.83301 62.833 -23.5 86.5
s-37.667 41.667 -66 54s-62.166 18.5 -101.499 18.5c-55.333 0 -98.333 -14.5 -129 -43.5s-46 -67.5 -46 -115.5c0 -32 7.33301 -59.833 22 -83.5s35.167 -42.167 61.5 -55.5s56.833 -20 91.5 -20zM534.996 496.998h130v-497h-121l-2.5 19.5
c-1.66699 13 -3.16699 29.5 -4.5 49.5s-2 39.667 -2 59v369zM343.996 576.998c-43.333 0 -77.833 10.167 -103.5 30.5s-38.5 47.5 -38.5 81.5c0 33.333 12.833 60.166 38.5 80.499s60.167 30.5 103.5 30.5s77.666 -10.167 102.999 -30.5s38 -47.166 38 -80.499
c0 -34 -12.667 -61.167 -38 -81.5s-59.666 -30.5 -102.999 -30.5zM343.996 634.998c23.333 0 40.166 4.5 50.499 13.5s15.5 22.5 15.5 40.5c0 17.333 -5.16699 30.5 -15.5 39.5s-27.166 13.5 -50.499 13.5c-24 0 -41.167 -4.5 -51.5 -13.5s-15.5 -22.167 -15.5 -39.5
c0 -18 5.16699 -31.5 15.5 -40.5s27.5 -13.5 51.5 -13.5z" />
    <glyph glyph-name="ae" unicode="&#xe6;" horiz-adv-x="1266" 
d="M302 -11c-49.333 0 -94.1689 10.8311 -134.502 32.498s-72.333 52 -96 91s-35.5 84.167 -35.5 135.5c0 52.667 12 98.334 36 137.001s56.5 68.834 97.5 90.501s87.5 32.5 139.5 32.5c57.333 0 103.5 -11.5 138.5 -34.5s60.5 -54.167 76.5 -93.5s24 -83.333 24 -132
c0 -29.333 -4.66699 -59.166 -14 -89.499s-23.666 -58.333 -42.999 -84s-44.666 -46.334 -75.999 -62.001s-69 -23.5 -113 -23.5zM343.997 88.998c39.333 0 73.332 6.66699 101.999 20s50.667 32 66 56s23 51.667 23 83c0 34 -7.83301 62.833 -23.5 86.5
s-37.667 41.667 -66 54s-62.166 18.5 -101.499 18.5c-55.333 0 -98.333 -14.5 -129 -43.5s-46 -67.5 -46 -115.5c0 -32 7.33301 -59.833 22 -83.5s35.167 -42.167 61.5 -55.5s56.833 -20 91.5 -20zM534.996 496.998l130 0.00195312v-497h-121c-2 15.333 -4 35.166 -6 59.499
s-3 47.166 -3 68.499v369zM1101 163l126 0.000976562c-5.33301 -34 -19.5 -64.333 -42.5 -91s-54.167 -47.667 -93.5 -63s-87.333 -23 -144 -23c-63.333 0 -119.333 10.167 -168 30.5s-86.667 49.833 -114 88.5s-41 85.334 -41 140.001s13.333 101.5 40 140.5
s63.834 68.833 111.501 89.5s103.5 31 167.5 31c65.333 0 119.666 -10.333 162.999 -31s75.5 -51.834 96.5 -93.501s29.833 -94.834 26.5 -159.501h-474c3.33301 -25.333 12.833 -48.333 28.5 -69s37 -37 64 -49s59.167 -18 96.5 -18c41.333 0 75.833 7.16699 103.5 21.5
s45.5 32.833 53.5 55.5zM936.996 407.001c-48 0 -87.001 -10.5 -117.001 -31.5s-49.333 -46.833 -58 -77.5h338c-3.33301 33.333 -19.166 59.833 -47.499 79.5s-66.833 29.5 -115.5 29.5z" />
    <glyph glyph-name="ccedilla" unicode="&#xe7;" horiz-adv-x="686" 
d="M260 -126c1.33301 -3.33301 3.5 -8.33496 6.5 -15.002s8.5 -12.667 16.5 -18s19.667 -8 35 -8c18.667 0 31.834 4 39.501 12s11.5 17.333 11.5 28c0 4.66699 -1.5 10.334 -4.5 17.001s-9.5 13.334 -19.5 20.001s-26.333 12 -49 16l81 28
c18.667 -3.33301 35.667 -9 51 -17s27.666 -18.5 36.999 -31.5s14 -29.5 14 -49.5c0 -28 -13.167 -52.5 -39.5 -73.5s-65.833 -31.5 -118.5 -31.5c-33.333 0 -61.833 5.83301 -85.5 17.5s-41.5 27 -53.5 46s-17.333 38.833 -16 59.5h94zM296 6.99805h109v-88l-109 7v81z
M650 195.998c-3.33301 -43.333 -17.1699 -80.6689 -41.5029 -112.002s-57.833 -55.166 -100.5 -71.499s-93.334 -24.5 -152.001 -24.5c-61.333 0 -116.166 9.83301 -164.499 29.5s-86.333 48.667 -114 87s-41.5 85.833 -41.5 142.5s13.833 104.334 41.5 143.001
s65.667 68 114 88s103.166 30 164.499 30c58.667 0 109 -8.16699 151 -24.5s75.167 -39.833 99.5 -70.5s38.5 -67.667 42.5 -111h-119c-11.333 33.333 -32.333 59.333 -63 78s-67.667 28 -111 28c-34.667 0 -66.167 -6 -94.5 -18s-51 -29.833 -68 -53.5
s-25.5 -53.5 -25.5 -89.5c0 -35.333 8.33301 -64.833 25 -88.5s39.334 -41.334 68.001 -53.001s60.334 -17.5 95.001 -17.5c46.667 0 84.834 9.33301 114.501 28s49.834 45.334 60.501 80.001h119z" />
    <glyph glyph-name="egrave" unicode="&#xe8;" horiz-adv-x="678" 
d="M513 165l126 0.000976562c-5.33301 -34 -19.5 -64.333 -42.5 -91s-54.167 -47.667 -93.5 -63s-87.333 -23 -144 -23c-63.333 0 -119.333 10.167 -168 30.5s-86.667 49.833 -114 88.5s-41 85.334 -41 140.001s13.333 101.5 40 140.5s63.834 68.833 111.501 89.5
s103.5 31 167.5 31c65.333 0 119.666 -10.333 162.999 -31s75.5 -51.834 96.5 -93.501s29.833 -94.834 26.5 -159.501h-474c3.33301 -25.333 12.833 -48.333 28.5 -69s37 -37 64 -49s59.167 -18 96.5 -18c41.333 0 75.833 7.16699 103.5 21.5s45.5 32.833 53.5 55.5z
M349 409.001c-48 0 -87.001 -10.5 -117.001 -31.5s-49.333 -46.833 -58 -77.5h338c-3.33301 33.333 -19.166 59.833 -47.499 79.5s-66.833 29.5 -115.5 29.5zM295.999 601.001l-184 158h172l136 -158h-124z" />
    <glyph glyph-name="eacute" unicode="&#xe9;" horiz-adv-x="678" 
d="M513 165l126 0.000976562c-5.33301 -34 -19.5 -64.333 -42.5 -91s-54.167 -47.667 -93.5 -63s-87.333 -23 -144 -23c-63.333 0 -119.333 10.167 -168 30.5s-86.667 49.833 -114 88.5s-41 85.334 -41 140.001s13.333 101.5 40 140.5s63.834 68.833 111.501 89.5
s103.5 31 167.5 31c65.333 0 119.666 -10.333 162.999 -31s75.5 -51.834 96.5 -93.501s29.833 -94.834 26.5 -159.501h-474c3.33301 -25.333 12.833 -48.333 28.5 -69s37 -37 64 -49s59.167 -18 96.5 -18c41.333 0 75.833 7.16699 103.5 21.5s45.5 32.833 53.5 55.5z
M349 409.001c-48 0 -87.001 -10.5 -117.001 -31.5s-49.333 -46.833 -58 -77.5h338c-3.33301 33.333 -19.166 59.833 -47.499 79.5s-66.833 29.5 -115.5 29.5zM281.999 601.001l136 158h172l-184 -158h-124z" />
    <glyph glyph-name="ecircumflex" unicode="&#xea;" horiz-adv-x="678" 
d="M513 165l126 0.000976562c-5.33301 -34 -19.5 -64.333 -42.5 -91s-54.167 -47.667 -93.5 -63s-87.333 -23 -144 -23c-63.333 0 -119.333 10.167 -168 30.5s-86.667 49.833 -114 88.5s-41 85.334 -41 140.001s13.333 101.5 40 140.5s63.834 68.833 111.501 89.5
s103.5 31 167.5 31c65.333 0 119.666 -10.333 162.999 -31s75.5 -51.834 96.5 -93.501s29.833 -94.834 26.5 -159.501h-474c3.33301 -25.333 12.833 -48.333 28.5 -69s37 -37 64 -49s59.167 -18 96.5 -18c41.333 0 75.833 7.16699 103.5 21.5s45.5 32.833 53.5 55.5z
M349 409.001c-48 0 -87.001 -10.5 -117.001 -31.5s-49.333 -46.833 -58 -77.5h338c-3.33301 33.333 -19.166 59.833 -47.499 79.5s-66.833 29.5 -115.5 29.5zM419.999 759.001l162 -158h-141l-130 132l82 -1l-131 -131h-141l163 158h136z" />
    <glyph glyph-name="edieresis" unicode="&#xeb;" horiz-adv-x="678" 
d="M513 165l126 0.000976562c-5.33301 -34 -19.5 -64.333 -42.5 -91s-54.167 -47.667 -93.5 -63s-87.333 -23 -144 -23c-63.333 0 -119.333 10.167 -168 30.5s-86.667 49.833 -114 88.5s-41 85.334 -41 140.001s13.333 101.5 40 140.5s63.834 68.833 111.501 89.5
s103.5 31 167.5 31c65.333 0 119.666 -10.333 162.999 -31s75.5 -51.834 96.5 -93.501s29.833 -94.834 26.5 -159.501h-474c3.33301 -25.333 12.833 -48.333 28.5 -69s37 -37 64 -49s59.167 -18 96.5 -18c41.333 0 75.833 7.16699 103.5 21.5s45.5 32.833 53.5 55.5z
M349 409.001c-48 0 -87.001 -10.5 -117.001 -31.5s-49.333 -46.833 -58 -77.5h338c-3.33301 33.333 -19.166 59.833 -47.499 79.5s-66.833 29.5 -115.5 29.5zM318.999 716.001v-114h-151v114h151zM535.999 716.001v-114h-151v114h151z" />
    <glyph glyph-name="igrave" unicode="&#xec;" horiz-adv-x="247" 
d="M58 497h130v-497h-130v497zM67 599l-184 158h172l136 -158h-124z" />
    <glyph glyph-name="iacute" unicode="&#xed;" horiz-adv-x="247" 
d="M58 497h130v-497h-130v497zM53 599l136 158h172l-184 -158h-124z" />
    <glyph glyph-name="icircumflex" unicode="&#xee;" horiz-adv-x="247" 
d="M58 497h130v-497h-130v497zM191 757l162 -158h-141l-130 132l82 -1l-131 -131h-141l163 158h136z" />
    <glyph glyph-name="idieresis" unicode="&#xef;" horiz-adv-x="247" 
d="M58 497h130v-497h-130v497zM131 716v-114h-151v114h151zM294 716v-114h-151v114h151z" />
    <glyph glyph-name="eth" unicode="&#xf0;" horiz-adv-x="692" 
d="M350 89c26 0 50.166 3.66602 72.499 10.999s41.833 17.833 58.5 31.5s29.834 30.167 39.501 49.5s14.5 41 14.5 65c0 24.667 -5 46.5 -15 65.5s-23.667 35.167 -41 48.5s-37.333 23.333 -60 30s-46.667 10 -72 10c-55.333 0 -98.833 -14.167 -130.5 -42.5
s-47.5 -66.166 -47.5 -113.499c0 -48.667 16.5 -86.667 49.5 -114s76.833 -41 131.5 -41zM526.999 708.999l55 -59l-133 -119l-52 60zM160.999 613.999l19.9961 95.001c64 -12.667 120 -28.834 168 -48.501s89.333 -41.834 124 -66.501s63.334 -51 86.001 -79
s40.667 -56.5 54 -85.5s22.666 -57.667 27.999 -86s8 -55.5 8 -81.5c0 -32 -4.83301 -62 -14.5 -90s-23.5 -53.167 -41.5 -75.5s-39.5 -41.666 -64.5 -57.999s-53 -28.833 -84 -37.5s-64.5 -13 -100.5 -13c-64 0 -119 10.833 -165 32.5s-81.333 52.167 -106 91.5
s-37 84.666 -37 135.999c0 39.333 6.5 74.5 19.5 105.5s31.333 57.333 55 79s51.334 38.167 83.001 49.5s65.834 17 102.501 17c43.333 0 81 -6.5 113 -19.5s58.5 -31.333 79.5 -55s36.5 -51.167 46.5 -82.5l-6 6c-6.66699 30 -18.167 58.333 -34.5 85
s-39.166 51.334 -68.499 74.001s-65.666 43 -108.999 61s-95.333 33.333 -156 46z" />
    <glyph glyph-name="ntilde" unicode="&#xf1;" horiz-adv-x="693" 
d="M60 497h130v-497h-130v497zM421 508c30.667 0 59 -4 85 -12s48.667 -20.333 68 -37s34.333 -37.834 45 -63.501s16 -56.167 16 -91.5v-304h-130v281c0 42 -10.167 72.833 -30.5 92.5s-53.5 29.5 -99.5 29.5c-34.667 0 -66 -6.66699 -94 -20s-50.667 -30.166 -68 -50.499
s-27.333 -41.5 -30 -63.5l-1 51c3.33301 23.333 11 46 23 68s28.167 42.167 48.5 60.5s44.5 32.833 72.5 43.5s59.667 16 95 16zM467 600c-20 0 -37.6729 3 -53.0059 9s-29.666 13.167 -42.999 21.5s-26.666 15.5 -39.999 21.5s-28 9 -44 9c-14 0 -25.167 -3 -33.5 -9
s-14.833 -13.667 -19.5 -23s-9 -18.666 -13 -27.999h-92c5.33301 24.667 14.166 47.5 26.499 68.5s28.5 38 48.5 51s43.667 19.5 71 19.5c20.667 0 38.834 -3 54.501 -9s30.334 -13.167 44.001 -21.5s26.834 -15.5 39.501 -21.5s26.334 -9 41.001 -9
s26.167 3.16699 34.5 9.5s15 14.166 20 23.499s9.16699 18.333 12.5 27h93c-5.33301 -24 -14.166 -46.667 -26.499 -68s-28.5 -38.5 -48.5 -51.5s-44 -19.5 -72 -19.5z" />
    <glyph glyph-name="ograve" unicode="&#xf2;" horiz-adv-x="704" 
d="M353 -12c-62.667 0 -117.834 10 -165.501 30s-84.834 49.167 -111.501 87.5s-40 85.5 -40 141.5s13.333 103.5 40 142.5s63.834 68.5 111.501 88.5s102.834 30 165.501 30s117.5 -10 164.5 -30s83.833 -49.5 110.5 -88.5s40 -86.5 40 -142.5s-13.333 -103.167 -40 -141.5
s-63.5 -67.5 -110.5 -87.5s-101.833 -30 -164.5 -30zM353 88c34.667 0 65.832 6.16699 93.499 18.5s49.5 30.333 65.5 54s24 52.5 24 86.5s-8 63.167 -24 87.5s-37.667 42.833 -65 55.5s-58.666 19 -93.999 19c-34.667 0 -66 -6.33301 -94 -19s-50.167 -31 -66.5 -55
s-24.5 -53.333 -24.5 -88c0 -34 8 -62.833 24 -86.5s38 -41.667 66 -54s59.667 -18.5 95 -18.5zM296.998 601l-184 158h172l136 -158h-124z" />
    <glyph glyph-name="oacute" unicode="&#xf3;" horiz-adv-x="704" 
d="M353 -12c-62.667 0 -117.834 10 -165.501 30s-84.834 49.167 -111.501 87.5s-40 85.5 -40 141.5s13.333 103.5 40 142.5s63.834 68.5 111.501 88.5s102.834 30 165.501 30s117.5 -10 164.5 -30s83.833 -49.5 110.5 -88.5s40 -86.5 40 -142.5s-13.333 -103.167 -40 -141.5
s-63.5 -67.5 -110.5 -87.5s-101.833 -30 -164.5 -30zM353 88c34.667 0 65.832 6.16699 93.499 18.5s49.5 30.333 65.5 54s24 52.5 24 86.5s-8 63.167 -24 87.5s-37.667 42.833 -65 55.5s-58.666 19 -93.999 19c-34.667 0 -66 -6.33301 -94 -19s-50.167 -31 -66.5 -55
s-24.5 -53.333 -24.5 -88c0 -34 8 -62.833 24 -86.5s38 -41.667 66 -54s59.667 -18.5 95 -18.5zM282.998 601l136 158h172l-184 -158h-124z" />
    <glyph glyph-name="ocircumflex" unicode="&#xf4;" horiz-adv-x="704" 
d="M353 -12c-62.667 0 -117.834 10 -165.501 30s-84.834 49.167 -111.501 87.5s-40 85.5 -40 141.5s13.333 103.5 40 142.5s63.834 68.5 111.501 88.5s102.834 30 165.501 30s117.5 -10 164.5 -30s83.833 -49.5 110.5 -88.5s40 -86.5 40 -142.5s-13.333 -103.167 -40 -141.5
s-63.5 -67.5 -110.5 -87.5s-101.833 -30 -164.5 -30zM353 88c34.667 0 65.832 6.16699 93.499 18.5s49.5 30.333 65.5 54s24 52.5 24 86.5s-8 63.167 -24 87.5s-37.667 42.833 -65 55.5s-58.666 19 -93.999 19c-34.667 0 -66 -6.33301 -94 -19s-50.167 -31 -66.5 -55
s-24.5 -53.333 -24.5 -88c0 -34 8 -62.833 24 -86.5s38 -41.667 66 -54s59.667 -18.5 95 -18.5zM420.998 759l162 -158h-141l-130 132l82 -1l-131 -131h-141l163 158h136z" />
    <glyph glyph-name="otilde" unicode="&#xf5;" horiz-adv-x="704" 
d="M353 -12c-62.667 0 -117.834 10 -165.501 30s-84.834 49.167 -111.501 87.5s-40 85.5 -40 141.5s13.333 103.5 40 142.5s63.834 68.5 111.501 88.5s102.834 30 165.501 30s117.5 -10 164.5 -30s83.833 -49.5 110.5 -88.5s40 -86.5 40 -142.5s-13.333 -103.167 -40 -141.5
s-63.5 -67.5 -110.5 -87.5s-101.833 -30 -164.5 -30zM353 88c34.667 0 65.832 6.16699 93.499 18.5s49.5 30.333 65.5 54s24 52.5 24 86.5s-8 63.167 -24 87.5s-37.667 42.833 -65 55.5s-58.666 19 -93.999 19c-34.667 0 -66 -6.33301 -94 -19s-50.167 -31 -66.5 -55
s-24.5 -53.333 -24.5 -88c0 -34 8 -62.833 24 -86.5s38 -41.667 66 -54s59.667 -18.5 95 -18.5zM439.998 600c-20 0 -37.6729 3 -53.0059 9s-29.666 13.167 -42.999 21.5s-26.666 15.5 -39.999 21.5s-28 9 -44 9c-14 0 -25.167 -3 -33.5 -9s-14.833 -13.667 -19.5 -23
s-9 -18.666 -13 -27.999h-92c5.33301 24.667 14.166 47.5 26.499 68.5s28.5 38 48.5 51s43.667 19.5 71 19.5c20.667 0 38.834 -3 54.501 -9s30.334 -13.167 44.001 -21.5s26.834 -15.5 39.501 -21.5s26.334 -9 41.001 -9s26.167 3.16699 34.5 9.5s15 14.166 20 23.499
s9.16699 18.333 12.5 27h93c-5.33301 -24 -14.166 -46.667 -26.499 -68s-28.5 -38.5 -48.5 -51.5s-44 -19.5 -72 -19.5z" />
    <glyph glyph-name="odieresis" unicode="&#xf6;" horiz-adv-x="704" 
d="M353 -12c-62.667 0 -117.834 10 -165.501 30s-84.834 49.167 -111.501 87.5s-40 85.5 -40 141.5s13.333 103.5 40 142.5s63.834 68.5 111.501 88.5s102.834 30 165.501 30s117.5 -10 164.5 -30s83.833 -49.5 110.5 -88.5s40 -86.5 40 -142.5s-13.333 -103.167 -40 -141.5
s-63.5 -67.5 -110.5 -87.5s-101.833 -30 -164.5 -30zM353 88c34.667 0 65.832 6.16699 93.499 18.5s49.5 30.333 65.5 54s24 52.5 24 86.5s-8 63.167 -24 87.5s-37.667 42.833 -65 55.5s-58.666 19 -93.999 19c-34.667 0 -66 -6.33301 -94 -19s-50.167 -31 -66.5 -55
s-24.5 -53.333 -24.5 -88c0 -34 8 -62.833 24 -86.5s38 -41.667 66 -54s59.667 -18.5 95 -18.5zM319.998 716v-114h-151v114h151zM536.998 716v-114h-151v114h151z" />
    <glyph glyph-name="divide" unicode="&#xf7;" horiz-adv-x="530" 
d="M50 316h430v-98h-430v98zM327 163v-102h-151v102h151zM327 472v-103h-151v103h151z" />
    <glyph glyph-name="oslash" unicode="&#xf8;" horiz-adv-x="704" 
d="M489 543l54 -30l-330 -557l-52 32zM353 -12c-62.667 0 -117.834 10 -165.501 30s-84.834 49.167 -111.501 87.5s-40 85.5 -40 141.5s13.333 103.5 40 142.5s63.834 68.5 111.501 88.5s102.834 30 165.501 30s117.5 -10 164.5 -30s83.833 -49.5 110.5 -88.5
s40 -86.5 40 -142.5s-13.333 -103.167 -40 -141.5s-63.5 -67.5 -110.5 -87.5s-101.833 -30 -164.5 -30zM353 88c34.667 0 65.832 6.16699 93.499 18.5s49.5 30.333 65.5 54s24 52.5 24 86.5s-8 63.167 -24 87.5s-37.667 42.833 -65 55.5s-58.666 19 -93.999 19
c-34.667 0 -66 -6.33301 -94 -19s-50.167 -31 -66.5 -55s-24.5 -53.333 -24.5 -88c0 -34 8 -62.833 24 -86.5s38 -41.667 66 -54s59.667 -18.5 95 -18.5z" />
    <glyph glyph-name="ugrave" unicode="&#xf9;" horiz-adv-x="693" 
d="M635 0h-130v497h130v-497zM512 239l0.996094 -34.0059c-1.33301 -9.33301 -4.66602 -22.833 -9.99902 -40.5s-13.5 -36.5 -24.5 -56.5s-25.167 -39.167 -42.5 -57.5s-38.666 -33.333 -63.999 -45s-55.333 -17.5 -90 -17.5c-27.333 0 -54.166 3.33301 -80.499 10
s-50.166 17.834 -71.499 33.501s-38.333 36.834 -51 63.501s-19 60.334 -19 101.001v301h130v-279c0 -32 5.16699 -57.167 15.5 -75.5s25.5 -31.166 45.5 -38.499s43.667 -11 71 -11c36 0 67 7.83301 93 23.5s47.167 34.834 63.5 57.501s27.5 44.334 33.5 65.001z
M300.996 600.994l-184 158h172l136 -158h-124z" />
    <glyph glyph-name="uacute" unicode="&#xfa;" horiz-adv-x="693" 
d="M635 0h-130v497h130v-497zM512 239l0.996094 -34.0059c-1.33301 -9.33301 -4.66602 -22.833 -9.99902 -40.5s-13.5 -36.5 -24.5 -56.5s-25.167 -39.167 -42.5 -57.5s-38.666 -33.333 -63.999 -45s-55.333 -17.5 -90 -17.5c-27.333 0 -54.166 3.33301 -80.499 10
s-50.166 17.834 -71.499 33.501s-38.333 36.834 -51 63.501s-19 60.334 -19 101.001v301h130v-279c0 -32 5.16699 -57.167 15.5 -75.5s25.5 -31.166 45.5 -38.499s43.667 -11 71 -11c36 0 67 7.83301 93 23.5s47.167 34.834 63.5 57.501s27.5 44.334 33.5 65.001z
M286.996 600.994l136 158h172l-184 -158h-124z" />
    <glyph glyph-name="ucircumflex" unicode="&#xfb;" horiz-adv-x="693" 
d="M635 0h-130v497h130v-497zM512 239l0.996094 -34.0059c-1.33301 -9.33301 -4.66602 -22.833 -9.99902 -40.5s-13.5 -36.5 -24.5 -56.5s-25.167 -39.167 -42.5 -57.5s-38.666 -33.333 -63.999 -45s-55.333 -17.5 -90 -17.5c-27.333 0 -54.166 3.33301 -80.499 10
s-50.166 17.834 -71.499 33.501s-38.333 36.834 -51 63.501s-19 60.334 -19 101.001v301h130v-279c0 -32 5.16699 -57.167 15.5 -75.5s25.5 -31.166 45.5 -38.499s43.667 -11 71 -11c36 0 67 7.83301 93 23.5s47.167 34.834 63.5 57.501s27.5 44.334 33.5 65.001z
M424.996 758.994l162 -158h-141l-130 132l82 -1l-131 -131h-141l163 158h136z" />
    <glyph glyph-name="udieresis" unicode="&#xfc;" horiz-adv-x="693" 
d="M635 0h-130v497h130v-497zM512 239l0.996094 -34.0059c-1.33301 -9.33301 -4.66602 -22.833 -9.99902 -40.5s-13.5 -36.5 -24.5 -56.5s-25.167 -39.167 -42.5 -57.5s-38.666 -33.333 -63.999 -45s-55.333 -17.5 -90 -17.5c-27.333 0 -54.166 3.33301 -80.499 10
s-50.166 17.834 -71.499 33.501s-38.333 36.834 -51 63.501s-19 60.334 -19 101.001v301h130v-279c0 -32 5.16699 -57.167 15.5 -75.5s25.5 -31.166 45.5 -38.499s43.667 -11 71 -11c36 0 67 7.83301 93 23.5s47.167 34.834 63.5 57.501s27.5 44.334 33.5 65.001z
M323.996 715.994v-114h-151v114h151zM540.996 715.994v-114h-151v114h151z" />
    <glyph glyph-name="yacute" unicode="&#xfd;" horiz-adv-x="639" 
d="M15 497h138l215 -477l-112 -20zM623 497l-344 -697h-135l147 274l193 423h139zM250 601l136 158h172l-184 -158h-124z" />
    <glyph glyph-name="thorn" unicode="&#xfe;" horiz-adv-x="724" 
d="M422 -12c-44 0 -81.501 7.83105 -112.501 23.498s-56.167 36.334 -75.5 62.001s-33.666 53.834 -42.999 84.501s-14 60.667 -14 90c0 36.667 4.5 70.667 13.5 102s23.167 58.833 42.5 82.5s44.5 42.167 75.5 55.5s68.833 20 113.5 20c50 0 95 -11 135 -33
s71.833 -52.5 95.5 -91.5s35.5 -84.167 35.5 -135.5c0 -52.667 -12 -98.5 -36 -137.5s-56 -69.167 -96 -90.5s-84.667 -32 -134 -32zM379.999 88.998c35.333 0 66.167 6.66797 92.5 20.001s46.666 31.833 60.999 55.5s21.5 51.5 21.5 83.5c0 48 -15.167 86.667 -45.5 116
s-73.5 44 -129.5 44c-35.333 0 -67.5 -6.33301 -96.5 -19s-51.833 -30.834 -68.5 -54.501s-25 -52.5 -25 -86.5c0 -32 7.66699 -59.833 23 -83.5s37.333 -42.167 66 -55.5s62.334 -20 101.001 -20zM60 695.999h130v-331v-565h-130v896z" />
    <glyph glyph-name="ydieresis" unicode="&#xff;" horiz-adv-x="639" 
d="M15 497h138l215 -477l-112 -20zM623 497l-344 -697h-135l147 274l193 423h139zM287 716v-114h-151v114h151zM504 716v-114h-151v114h151z" />
    <glyph glyph-name="Amacron" unicode="&#x100;" horiz-adv-x="789" 
d="M178 141v111h428v-111h-428zM17 0l304 647h144l307 -647h-145l-266 583h64l-264 -583h-144zM241 733v81h307v-81h-307z" />
    <glyph glyph-name="amacron" unicode="&#x101;" horiz-adv-x="723" 
d="M302 -11c-49.333 0 -94.1689 10.8311 -134.502 32.498s-72.333 52 -96 91s-35.5 84.167 -35.5 135.5c0 52.667 12 98.334 36 137.001s56.5 68.834 97.5 90.501s87.5 32.5 139.5 32.5c57.333 0 103.5 -11.5 138.5 -34.5s60.5 -54.167 76.5 -93.5s24 -83.333 24 -132
c0 -29.333 -4.66699 -59.166 -14 -89.499s-23.666 -58.333 -42.999 -84s-44.666 -46.334 -75.999 -62.001s-69 -23.5 -113 -23.5zM343.997 88.998c39.333 0 73.332 6.66699 101.999 20s50.667 32 66 56s23 51.667 23 83c0 34 -7.83301 62.833 -23.5 86.5
s-37.667 41.667 -66 54s-62.166 18.5 -101.499 18.5c-55.333 0 -98.333 -14.5 -129 -43.5s-46 -67.5 -46 -115.5c0 -32 7.33301 -59.833 22 -83.5s35.167 -42.167 61.5 -55.5s56.833 -20 91.5 -20zM534.996 496.998h130v-497h-121l-2.5 19.5
c-1.66699 13 -3.16699 29.5 -4.5 49.5s-2 39.667 -2 59v369zM190.996 608.998v81h307v-81h-307z" />
    <glyph glyph-name="Abreve" unicode="&#x102;" horiz-adv-x="789" 
d="M178 141v111h428v-111h-428zM17 0l304 647h144l307 -647h-145l-266 583h64l-264 -583h-144zM604 854c-4 -28.667 -13.9971 -54.5 -29.9971 -77.5s-38.833 -41 -68.5 -54s-66.834 -19.5 -111.501 -19.5s-81.667 6.5 -111 19.5s-52 31 -68 54s-26.333 48.833 -31 77.5h95
c5.33301 -22.667 17.166 -40.167 35.499 -52.5s44.833 -18.5 79.5 -18.5c35.333 0 62.166 6.16699 80.499 18.5s29.833 29.833 34.5 52.5h95z" />
    <glyph glyph-name="abreve" unicode="&#x103;" horiz-adv-x="723" 
d="M302 -11c-49.333 0 -94.1689 10.8311 -134.502 32.498s-72.333 52 -96 91s-35.5 84.167 -35.5 135.5c0 52.667 12 98.334 36 137.001s56.5 68.834 97.5 90.501s87.5 32.5 139.5 32.5c57.333 0 103.5 -11.5 138.5 -34.5s60.5 -54.167 76.5 -93.5s24 -83.333 24 -132
c0 -29.333 -4.66699 -59.166 -14 -89.499s-23.666 -58.333 -42.999 -84s-44.666 -46.334 -75.999 -62.001s-69 -23.5 -113 -23.5zM343.997 88.998c39.333 0 73.332 6.66699 101.999 20s50.667 32 66 56s23 51.667 23 83c0 34 -7.83301 62.833 -23.5 86.5
s-37.667 41.667 -66 54s-62.166 18.5 -101.499 18.5c-55.333 0 -98.333 -14.5 -129 -43.5s-46 -67.5 -46 -115.5c0 -32 7.33301 -59.833 22 -83.5s35.167 -42.167 61.5 -55.5s56.833 -20 91.5 -20zM534.996 496.998h130v-497h-121l-2.5 19.5
c-1.66699 13 -3.16699 29.5 -4.5 49.5s-2 39.667 -2 59v369zM553.996 729.998c-4 -28.667 -13.9971 -54.5 -29.9971 -77.5s-38.833 -41 -68.5 -54s-66.834 -19.5 -111.501 -19.5s-81.667 6.5 -111 19.5s-52 31 -68 54s-26.333 48.833 -31 77.5h95
c5.33301 -22.667 17.166 -40.167 35.499 -52.5s44.833 -18.5 79.5 -18.5c35.333 0 62.166 6.16699 80.499 18.5s29.833 29.833 34.5 52.5h95z" />
    <glyph glyph-name="Aogonek" unicode="&#x104;" horiz-adv-x="789" 
d="M750 -216c-68 0 -121.999 11.1689 -161.999 33.502s-60 52.833 -60 91.5c0 26.667 8.66699 48.167 26 64.5s40.666 28.833 69.999 37.5s62.333 14.667 99 18v-22c-27.333 -4.66699 -49.833 -13.334 -67.5 -26.001s-26.5 -30.334 -26.5 -53.001c0 -16 5 -29.5 15 -40.5
s24.167 -19.5 42.5 -25.5s39.5 -9 63.5 -9v-69zM178.001 141.002v111h428v-111h-428zM17.001 0.00195312l304 647h144l307 -647h-145l-266 583h64l-264 -583h-144z" />
    <glyph glyph-name="aogonek" unicode="&#x105;" horiz-adv-x="723" 
d="M642 -223c-68 0 -121.999 11.1689 -161.999 33.502s-60 52.833 -60 91.5c0 26.667 8.66699 48.167 26 64.5s40.666 28.833 69.999 37.5s62.333 14.667 99 18v-22c-27.333 -4.66699 -49.833 -13.334 -67.5 -26.001s-26.5 -30.334 -26.5 -53.001c0 -16 5 -29.5 15 -40.5
s24.167 -19.5 42.5 -25.5s39.5 -9 63.5 -9v-69zM302.001 -10.998c-49.333 0 -94.1689 10.8311 -134.502 32.498s-72.333 52 -96 91s-35.5 84.167 -35.5 135.5c0 52.667 12 98.334 36 137.001s56.5 68.834 97.5 90.501s87.5 32.5 139.5 32.5
c57.333 0 103.5 -11.5 138.5 -34.5s60.5 -54.167 76.5 -93.5s24 -83.333 24 -132c0 -29.333 -4.66699 -59.166 -14 -89.499s-23.666 -58.333 -42.999 -84s-44.666 -46.334 -75.999 -62.001s-69 -23.5 -113 -23.5zM343.998 89c39.333 0 73.332 6.66699 101.999 20
s50.667 32 66 56s23 51.667 23 83c0 34 -7.83301 62.833 -23.5 86.5s-37.667 41.667 -66 54s-62.166 18.5 -101.499 18.5c-55.333 0 -98.333 -14.5 -129 -43.5s-46 -67.5 -46 -115.5c0 -32 7.33301 -59.833 22 -83.5s35.167 -42.167 61.5 -55.5s56.833 -20 91.5 -20z
M534.997 497h130v-497h-121l-2.5 19.5c-1.66699 13 -3.16699 29.5 -4.5 49.5s-2 39.667 -2 59v369z" />
    <glyph glyph-name="Cacute" unicode="&#x106;" horiz-adv-x="885" 
d="M832 233c-6 -52 -24.3301 -96.332 -54.9971 -132.999s-72.334 -64.667 -125.001 -84s-115.334 -29 -188.001 -29c-60.667 0 -116.167 7 -166.5 21s-93.666 35 -129.999 63s-64.5 62.833 -84.5 104.5s-30 90.5 -30 146.5s10 105 30 147s48.167 77.167 84.5 105.5
s79.666 49.666 129.999 63.999s105.833 21.5 166.5 21.5c72.667 0 135.5 -10 188.5 -30s94.833 -48.5 125.5 -85.5s48.667 -81.833 54 -134.5h-132c-8.66699 28 -23.167 52.167 -43.5 72.5s-46.5 35.833 -78.5 46.5s-70 16 -114 16c-54.667 0 -102.667 -8.5 -144 -25.5
s-73.333 -42 -96 -75s-34 -73.833 -34 -122.5c0 -48 11.333 -88.333 34 -121s54.667 -57.5 96 -74.5s89.333 -25.5 144 -25.5c44 0 81.833 5.33301 113.5 16s57.667 26 78 46s35.166 43.333 44.499 70h132zM384.003 729.001l136 158h172l-184 -158h-124z" />
    <glyph glyph-name="cacute" unicode="&#x107;" horiz-adv-x="686" 
d="M650 196c-3.33301 -43.333 -17.1699 -80.6689 -41.5029 -112.002s-57.833 -55.166 -100.5 -71.499s-93.334 -24.5 -152.001 -24.5c-61.333 0 -116.166 9.83301 -164.499 29.5s-86.333 48.667 -114 87s-41.5 85.833 -41.5 142.5s13.833 104.334 41.5 143.001
s65.667 68 114 88s103.166 30 164.499 30c58.667 0 109 -8.16699 151 -24.5s75.167 -39.833 99.5 -70.5s38.5 -67.667 42.5 -111h-119c-11.333 33.333 -32.333 59.333 -63 78s-67.667 28 -111 28c-34.667 0 -66.167 -6 -94.5 -18s-51 -29.833 -68 -53.5
s-25.5 -53.5 -25.5 -89.5c0 -35.333 8.33301 -64.833 25 -88.5s39.334 -41.334 68.001 -53.001s60.334 -17.5 95.001 -17.5c46.667 0 84.834 9.33301 114.501 28s49.834 45.334 60.501 80.001h119zM278.996 600.997l136 158h172l-184 -158h-124z" />
    <glyph glyph-name="Cdotaccent" unicode="&#x10a;" horiz-adv-x="885" 
d="M832 233c-6 -52 -24.3301 -96.332 -54.9971 -132.999s-72.334 -64.667 -125.001 -84s-115.334 -29 -188.001 -29c-60.667 0 -116.167 7 -166.5 21s-93.666 35 -129.999 63s-64.5 62.833 -84.5 104.5s-30 90.5 -30 146.5s10 105 30 147s48.167 77.167 84.5 105.5
s79.666 49.666 129.999 63.999s105.833 21.5 166.5 21.5c72.667 0 135.5 -10 188.5 -30s94.833 -48.5 125.5 -85.5s48.667 -81.833 54 -134.5h-132c-8.66699 28 -23.167 52.167 -43.5 72.5s-46.5 35.833 -78.5 46.5s-70 16 -114 16c-54.667 0 -102.667 -8.5 -144 -25.5
s-73.333 -42 -96 -75s-34 -73.833 -34 -122.5c0 -48 11.333 -88.333 34 -121s54.667 -57.5 96 -74.5s89.333 -25.5 144 -25.5c44 0 81.833 5.33301 113.5 16s57.667 26 78 46s35.166 43.333 44.499 70h132zM530.003 845.001v-114h-151v114h151z" />
    <glyph glyph-name="cdotaccent" unicode="&#x10b;" horiz-adv-x="686" 
d="M650 196c-3.33301 -43.333 -17.1699 -80.6689 -41.5029 -112.002s-57.833 -55.166 -100.5 -71.499s-93.334 -24.5 -152.001 -24.5c-61.333 0 -116.166 9.83301 -164.499 29.5s-86.333 48.667 -114 87s-41.5 85.833 -41.5 142.5s13.833 104.334 41.5 143.001
s65.667 68 114 88s103.166 30 164.499 30c58.667 0 109 -8.16699 151 -24.5s75.167 -39.833 99.5 -70.5s38.5 -67.667 42.5 -111h-119c-11.333 33.333 -32.333 59.333 -63 78s-67.667 28 -111 28c-34.667 0 -66.167 -6 -94.5 -18s-51 -29.833 -68 -53.5
s-25.5 -53.5 -25.5 -89.5c0 -35.333 8.33301 -64.833 25 -88.5s39.334 -41.334 68.001 -53.001s60.334 -17.5 95.001 -17.5c46.667 0 84.834 9.33301 114.501 28s49.834 45.334 60.501 80.001h119zM424.996 716.997v-114h-151v114h151z" />
    <glyph glyph-name="Ccaron" unicode="&#x10c;" horiz-adv-x="885" 
d="M832 233c-6 -52 -24.3301 -96.332 -54.9971 -132.999s-72.334 -64.667 -125.001 -84s-115.334 -29 -188.001 -29c-60.667 0 -116.167 7 -166.5 21s-93.666 35 -129.999 63s-64.5 62.833 -84.5 104.5s-30 90.5 -30 146.5s10 105 30 147s48.167 77.167 84.5 105.5
s79.666 49.666 129.999 63.999s105.833 21.5 166.5 21.5c72.667 0 135.5 -10 188.5 -30s94.833 -48.5 125.5 -85.5s48.667 -81.833 54 -134.5h-132c-8.66699 28 -23.167 52.167 -43.5 72.5s-46.5 35.833 -78.5 46.5s-70 16 -114 16c-54.667 0 -102.667 -8.5 -144 -25.5
s-73.333 -42 -96 -75s-34 -73.833 -34 -122.5c0 -48 11.333 -88.333 34 -121s54.667 -57.5 96 -74.5s89.333 -25.5 144 -25.5c44 0 81.833 5.33301 113.5 16s57.667 26 78 46s35.166 43.333 44.499 70h132zM498.003 757.001h-82l127 130h141l-159 -158h-136l-159 158h141z
" />
    <glyph glyph-name="ccaron" unicode="&#x10d;" horiz-adv-x="686" 
d="M650 196c-3.33301 -43.333 -17.1699 -80.6689 -41.5029 -112.002s-57.833 -55.166 -100.5 -71.499s-93.334 -24.5 -152.001 -24.5c-61.333 0 -116.166 9.83301 -164.499 29.5s-86.333 48.667 -114 87s-41.5 85.833 -41.5 142.5s13.833 104.334 41.5 143.001
s65.667 68 114 88s103.166 30 164.499 30c58.667 0 109 -8.16699 151 -24.5s75.167 -39.833 99.5 -70.5s38.5 -67.667 42.5 -111h-119c-11.333 33.333 -32.333 59.333 -63 78s-67.667 28 -111 28c-34.667 0 -66.167 -6 -94.5 -18s-51 -29.833 -68 -53.5
s-25.5 -53.5 -25.5 -89.5c0 -35.333 8.33301 -64.833 25 -88.5s39.334 -41.334 68.001 -53.001s60.334 -17.5 95.001 -17.5c46.667 0 84.834 9.33301 114.501 28s49.834 45.334 60.501 80.001h119zM392.996 628.997h-82l127 130h141l-159 -158h-136l-159 158h141z" />
    <glyph glyph-name="Dcaron" unicode="&#x10e;" horiz-adv-x="879" 
d="M447 647c72.667 0 133.333 -8.66602 182 -25.999s87.5 -40.833 116.5 -70.5s49.667 -63.834 62 -102.501s18.5 -79.334 18.5 -122.001s-6.83301 -83.667 -20.5 -123s-35.334 -74.166 -65.001 -104.499s-68.667 -54.333 -117 -72s-107.166 -26.5 -176.499 -26.5h-370v647
h370zM209.999 114.001l234 0.00195312c48 0 87.833 5.83301 119.5 17.5s56.834 27.5 75.501 47.5s32 42.667 40 68s12 51.666 12 78.999s-4 53.333 -12 78s-21.333 46.667 -40 66s-43.834 34.666 -75.501 45.999s-71.5 17 -119.5 17h-234v-419zM453.999 774.003h-82l127 130
h141l-159 -158h-136l-159 158h141z" />
    <glyph glyph-name="dcaron" unicode="&#x10f;" horiz-adv-x="745" 
d="M302 -11c-50 0 -95.1689 10.8311 -135.502 32.498s-72.166 52 -95.499 91s-35 84.167 -35 135.5c0 52.667 11.5 98.334 34.5 137.001s54.5 68.834 94.5 90.501s85.667 32.5 137 32.5c44.667 0 82.667 -6.66699 114 -20s56.666 -31.833 75.999 -55.5
s33.5 -51.167 42.5 -82.5s13.5 -65.333 13.5 -102c0 -29.333 -4.66699 -59.166 -14 -89.499s-23.666 -58.333 -42.999 -84s-44.666 -46.334 -75.999 -62.001s-69 -23.5 -113 -23.5zM343.998 88.998c39.333 0 73.332 6.66602 101.999 19.999s50.667 32 66 56s23 51.667 23 83
c0 34 -7.83301 62.833 -23.5 86.5s-37.667 41.834 -66 54.501s-62.166 19 -101.499 19c-55.333 0 -98.333 -14.667 -129 -44s-46 -68 -46 -116c0 -32 7.33301 -59.833 22 -83.5s35.167 -42.167 61.5 -55.5s56.833 -20 91.5 -20zM534.997 696.997l130 0.00195312v-697h-121
c-2 15.333 -4 35.166 -6 59.499s-3 47.166 -3 68.499v569zM827.997 486.999h-69l-42 124v86h153v-86z" />
    <glyph glyph-name="Dcroat" unicode="&#x110;" horiz-adv-x="879" 
d="M447 647c72.667 0 133.333 -8.66602 182 -25.999s87.5 -40.833 116.5 -70.5s49.667 -63.834 62 -102.501s18.5 -79.334 18.5 -122.001s-6.83301 -83.667 -20.5 -123s-35.334 -74.166 -65.001 -104.499s-68.667 -54.333 -117 -72s-107.166 -26.5 -176.499 -26.5h-370v647
h370zM209.999 114.001l234 0.00195312c48 0 87.833 5.83301 119.5 17.5s56.834 27.5 75.501 47.5s32 42.667 40 68s12 51.666 12 78.999s-4 53.333 -12 78s-21.333 46.667 -40 66s-43.834 34.666 -75.501 45.999s-71.5 17 -119.5 17h-234v-419zM-5.00098 361.003h359v-69
h-359v69z" />
    <glyph glyph-name="dcroat" unicode="&#x111;" horiz-adv-x="745" 
d="M302 -11c-50 0 -95.1689 10.8311 -135.502 32.498s-72.166 52 -95.499 91s-35 84.167 -35 135.5c0 52.667 11.5 98.334 34.5 137.001s54.5 68.834 94.5 90.501s85.667 32.5 137 32.5c44.667 0 82.667 -6.66699 114 -20s56.666 -31.833 75.999 -55.5
s33.5 -51.167 42.5 -82.5s13.5 -65.333 13.5 -102c0 -29.333 -4.66699 -59.166 -14 -89.499s-23.666 -58.333 -42.999 -84s-44.666 -46.334 -75.999 -62.001s-69 -23.5 -113 -23.5zM343.998 88.998c39.333 0 73.332 6.66602 101.999 19.999s50.667 32 66 56s23 51.667 23 83
c0 34 -7.83301 62.833 -23.5 86.5s-37.667 41.834 -66 54.501s-62.166 19 -101.499 19c-55.333 0 -98.333 -14.667 -129 -44s-46 -68 -46 -116c0 -32 7.33301 -59.833 22 -83.5s35.167 -42.167 61.5 -55.5s56.833 -20 91.5 -20zM534.997 696.997l130 0.00195312v-697h-121
c-2 15.333 -4 35.166 -6 59.499s-3 47.166 -3 68.499v569zM370.997 634.999h359v-69h-359v69z" />
    <glyph glyph-name="Emacron" unicode="&#x112;" horiz-adv-x="769" 
d="M210 270v-159h499v-111h-632v647h631v-111h-498v-161h408v-105h-408zM244 733v81h307v-81h-307z" />
    <glyph glyph-name="emacron" unicode="&#x113;" horiz-adv-x="678" 
d="M513 165l126 0.000976562c-5.33301 -34 -19.5 -64.333 -42.5 -91s-54.167 -47.667 -93.5 -63s-87.333 -23 -144 -23c-63.333 0 -119.333 10.167 -168 30.5s-86.667 49.833 -114 88.5s-41 85.334 -41 140.001s13.333 101.5 40 140.5s63.834 68.833 111.501 89.5
s103.5 31 167.5 31c65.333 0 119.666 -10.333 162.999 -31s75.5 -51.834 96.5 -93.501s29.833 -94.834 26.5 -159.501h-474c3.33301 -25.333 12.833 -48.333 28.5 -69s37 -37 64 -49s59.167 -18 96.5 -18c41.333 0 75.833 7.16699 103.5 21.5s45.5 32.833 53.5 55.5z
M349 409.001c-48 0 -87.001 -10.5 -117.001 -31.5s-49.333 -46.833 -58 -77.5h338c-3.33301 33.333 -19.166 59.833 -47.499 79.5s-66.833 29.5 -115.5 29.5zM198.999 609.001v81h307v-81h-307z" />
    <glyph glyph-name="Edotaccent" unicode="&#x116;" horiz-adv-x="769" 
d="M210 270v-159h499v-111h-632v647h631v-111h-498v-161h408v-105h-408zM473 841v-114h-151v114h151z" />
    <glyph glyph-name="edotaccent" unicode="&#x117;" horiz-adv-x="678" 
d="M513 165l126 0.000976562c-5.33301 -34 -19.5 -64.333 -42.5 -91s-54.167 -47.667 -93.5 -63s-87.333 -23 -144 -23c-63.333 0 -119.333 10.167 -168 30.5s-86.667 49.833 -114 88.5s-41 85.334 -41 140.001s13.333 101.5 40 140.5s63.834 68.833 111.501 89.5
s103.5 31 167.5 31c65.333 0 119.666 -10.333 162.999 -31s75.5 -51.834 96.5 -93.501s29.833 -94.834 26.5 -159.501h-474c3.33301 -25.333 12.833 -48.333 28.5 -69s37 -37 64 -49s59.167 -18 96.5 -18c41.333 0 75.833 7.16699 103.5 21.5s45.5 32.833 53.5 55.5z
M349 409.001c-48 0 -87.001 -10.5 -117.001 -31.5s-49.333 -46.833 -58 -77.5h338c-3.33301 33.333 -19.166 59.833 -47.499 79.5s-66.833 29.5 -115.5 29.5zM427.999 717.001v-114h-151v114h151z" />
    <glyph glyph-name="Eogonek" unicode="&#x118;" horiz-adv-x="769" 
d="M736 -223c-68 0 -121.999 11.1689 -161.999 33.502s-60 52.833 -60 91.5c0 26.667 8.66699 48.167 26 64.5s40.666 28.833 69.999 37.5s62.333 14.667 99 18v-22c-27.333 -4.66699 -49.833 -13.334 -67.5 -26.001s-26.5 -30.334 -26.5 -53.001c0 -16 5 -29.5 15 -40.5
s24.167 -19.5 42.5 -25.5s39.5 -9 63.5 -9v-69zM210.001 270.002v-159h499v-111h-632v647h631v-111h-498v-161h408v-105h-408z" />
    <glyph glyph-name="eogonek" unicode="&#x119;" horiz-adv-x="678" 
d="M555 -223c-68.667 0 -123 11.1689 -163 33.502s-60 52.833 -60 91.5c0 26.667 8.66699 48.5 26 65.5s40.833 31.167 70.5 42.5s62.834 22.333 99.501 33v-22c-27.333 -14.667 -50 -29.334 -68 -44.001s-27 -33.334 -27 -56.001c0 -16 5.16699 -29.667 15.5 -41
s24.666 -20 42.999 -26s39.5 -9 63.5 -9v-68zM513 165.002l126 0.000976562c-5.33301 -34 -19.5 -64.333 -42.5 -91s-54.167 -47.667 -93.5 -63s-87.333 -23 -144 -23c-63.333 0 -119.333 10.167 -168 30.5s-86.667 49.833 -114 88.5s-41 85.334 -41 140.001
s13.333 101.5 40 140.5s63.834 68.833 111.501 89.5s103.5 31 167.5 31c65.333 0 119.666 -10.333 162.999 -31s75.5 -51.834 96.5 -93.501s29.833 -94.834 26.5 -159.501h-474c3.33301 -25.333 12.833 -48.333 28.5 -69s37 -37 64 -49s59.167 -18 96.5 -18
c41.333 0 75.833 7.16699 103.5 21.5s45.5 32.833 53.5 55.5zM349 409.003c-48 0 -87.001 -10.5 -117.001 -31.5s-49.333 -46.833 -58 -77.5h338c-3.33301 33.333 -19.166 59.833 -47.499 79.5s-66.833 29.5 -115.5 29.5z" />
    <glyph glyph-name="Ecaron" unicode="&#x11a;" horiz-adv-x="769" 
d="M210 270v-159h499v-111h-632v647h631v-111h-498v-161h408v-105h-408zM441 753h-82l127 130h141l-159 -158h-136l-159 158h141z" />
    <glyph glyph-name="ecaron" unicode="&#x11b;" horiz-adv-x="678" 
d="M513 165l126 0.000976562c-5.33301 -34 -19.5 -64.333 -42.5 -91s-54.167 -47.667 -93.5 -63s-87.333 -23 -144 -23c-63.333 0 -119.333 10.167 -168 30.5s-86.667 49.833 -114 88.5s-41 85.334 -41 140.001s13.333 101.5 40 140.5s63.834 68.833 111.501 89.5
s103.5 31 167.5 31c65.333 0 119.666 -10.333 162.999 -31s75.5 -51.834 96.5 -93.501s29.833 -94.834 26.5 -159.501h-474c3.33301 -25.333 12.833 -48.333 28.5 -69s37 -37 64 -49s59.167 -18 96.5 -18c41.333 0 75.833 7.16699 103.5 21.5s45.5 32.833 53.5 55.5z
M349 409.001c-48 0 -87.001 -10.5 -117.001 -31.5s-49.333 -46.833 -58 -77.5h338c-3.33301 33.333 -19.166 59.833 -47.499 79.5s-66.833 29.5 -115.5 29.5zM395.999 629.001h-82l127 130h141l-159 -158h-136l-159 158h141z" />
    <glyph glyph-name="Gbreve" unicode="&#x11e;" horiz-adv-x="914" 
d="M449 -13c-60 0 -114.166 7 -162.499 21s-90 35 -125 63s-61.833 62.667 -80.5 104s-28 89 -28 143c0 54.667 9.83301 103.167 29.5 145.5s47.667 78.166 84 107.499s79.666 51.5 129.999 66.5s106.166 22.5 167.499 22.5c72.667 0 135.334 -10.167 188.001 -30.5
s94.167 -48.833 124.5 -85.5s47.5 -80.334 51.5 -131.001h-128c-8.66699 26.667 -22.834 49.834 -42.501 69.501s-45.5 35 -77.5 46s-70.667 16.5 -116 16.5c-58 0 -107.5 -9.33301 -148.5 -28s-72.167 -45 -93.5 -79s-32 -74 -32 -120c0 -44.667 9.33301 -83.167 28 -115.5
s47.5 -57.166 86.5 -74.499s88.833 -26 149.5 -26c46.667 0 87.834 6.16699 123.501 18.5s65.5 29 89.5 50s41 44.5 51 70.5l52 19c-8.66699 -86 -41.167 -153 -97.5 -201s-130.833 -72 -223.5 -72zM736.001 0c0 20.667 1.33301 44.5 4 71.5s6 54.333 10 82l11 76.5h-296v85
h386v-315h-115zM664.001 858c-4 -28.667 -13.9971 -54.5 -29.9971 -77.5s-38.833 -41 -68.5 -54s-66.834 -19.5 -111.501 -19.5s-81.667 6.5 -111 19.5s-52 31 -68 54s-26.333 48.833 -31 77.5h95c5.33301 -22.667 17.166 -40.167 35.499 -52.5s44.833 -18.5 79.5 -18.5
c35.333 0 62.166 6.16699 80.499 18.5s29.833 29.833 34.5 52.5h95z" />
    <glyph glyph-name="gbreve" unicode="&#x11f;" horiz-adv-x="671" 
d="M308 76c-54 0 -101.5 8.16699 -142.5 24.5s-72.833 40.5 -95.5 72.5s-34 70.667 -34 116c0 44.667 11 83.334 33 116.001s53.5 58 94.5 76s89.167 27 144.5 27c15.333 0 30.166 -1 44.499 -3s28.5 -4.66699 42.5 -8l251 -1v-98c-34 -0.666992 -68.5 3.5 -103.5 12.5
s-65.833 18.833 -92.5 29.5l-3 7c22.667 -10.667 44 -23.834 64 -39.501s36.167 -33.667 48.5 -54s18.5 -43.833 18.5 -70.5c0 -43.333 -11 -80.5 -33 -111.5s-53.167 -54.667 -93.5 -71s-88.166 -24.5 -143.499 -24.5zM475 -205v23.9971c0 30.667 -9.83301 52 -29.5 64
s-46.5 18 -80.5 18h-155c-30 0 -55.167 2.33301 -75.5 7s-36.5 11.334 -48.5 20.001s-20.667 18.834 -26 30.501s-8 24.167 -8 37.5c0 26.667 8.66699 46.834 26 60.501s40.666 22.834 69.999 27.501s61.666 5.66699 96.999 3l63 -11
c-42 -1.33301 -73.167 -4.83301 -93.5 -10.5s-30.5 -16.834 -30.5 -33.501c0 -10 4 -17.833 12 -23.5s19.333 -8.5 34 -8.5h163c44.667 0 82.834 -4.83301 114.501 -14.5s55.834 -26 72.501 -49s25 -54.5 25 -94.5v-47h-130zM308 169.997c28.667 0 53.832 4.66699 75.499 14
s38.5 22.833 50.5 40.5s18 38.834 18 63.501c0 25.333 -6 47 -18 65s-28.667 31.833 -50 41.5s-46.666 14.5 -75.999 14.5c-28.667 0 -54 -4.83301 -76 -14.5s-39 -23.5 -51 -41.5s-18 -39.667 -18 -65c0 -24.667 6 -45.834 18 -63.501s28.833 -31.167 50.5 -40.5
s47.167 -14 76.5 -14zM517.998 729.997c-4 -28.667 -13.9971 -54.5 -29.9971 -77.5s-38.833 -41 -68.5 -54s-66.834 -19.5 -111.501 -19.5s-81.667 6.5 -111 19.5s-52 31 -68 54s-26.333 48.833 -31 77.5h95c5.33301 -22.667 17.166 -40.167 35.499 -52.5
s44.833 -18.5 79.5 -18.5c35.333 0 62.166 6.16699 80.499 18.5s29.833 29.833 34.5 52.5h95z" />
    <glyph glyph-name="Gdotaccent" unicode="&#x120;" horiz-adv-x="914" 
d="M449 -13c-60 0 -114.166 7 -162.499 21s-90 35 -125 63s-61.833 62.667 -80.5 104s-28 89 -28 143c0 54.667 9.83301 103.167 29.5 145.5s47.667 78.166 84 107.499s79.666 51.5 129.999 66.5s106.166 22.5 167.499 22.5c72.667 0 135.334 -10.167 188.001 -30.5
s94.167 -48.833 124.5 -85.5s47.5 -80.334 51.5 -131.001h-128c-8.66699 26.667 -22.834 49.834 -42.501 69.501s-45.5 35 -77.5 46s-70.667 16.5 -116 16.5c-58 0 -107.5 -9.33301 -148.5 -28s-72.167 -45 -93.5 -79s-32 -74 -32 -120c0 -44.667 9.33301 -83.167 28 -115.5
s47.5 -57.166 86.5 -74.499s88.833 -26 149.5 -26c46.667 0 87.834 6.16699 123.501 18.5s65.5 29 89.5 50s41 44.5 51 70.5l52 19c-8.66699 -86 -41.167 -153 -97.5 -201s-130.833 -72 -223.5 -72zM736.001 0c0 20.667 1.33301 44.5 4 71.5s6 54.333 10 82l11 76.5h-296v85
h386v-315h-115zM530.001 845v-114h-151v114h151z" />
    <glyph glyph-name="gdotaccent" unicode="&#x121;" horiz-adv-x="671" 
d="M308 76c-54 0 -101.5 8.16699 -142.5 24.5s-72.833 40.5 -95.5 72.5s-34 70.667 -34 116c0 44.667 11 83.334 33 116.001s53.5 58 94.5 76s89.167 27 144.5 27c15.333 0 30.166 -1 44.499 -3s28.5 -4.66699 42.5 -8l251 -1v-98c-34 -0.666992 -68.5 3.5 -103.5 12.5
s-65.833 18.833 -92.5 29.5l-3 7c22.667 -10.667 44 -23.834 64 -39.501s36.167 -33.667 48.5 -54s18.5 -43.833 18.5 -70.5c0 -43.333 -11 -80.5 -33 -111.5s-53.167 -54.667 -93.5 -71s-88.166 -24.5 -143.499 -24.5zM475 -205v23.9971c0 30.667 -9.83301 52 -29.5 64
s-46.5 18 -80.5 18h-155c-30 0 -55.167 2.33301 -75.5 7s-36.5 11.334 -48.5 20.001s-20.667 18.834 -26 30.501s-8 24.167 -8 37.5c0 26.667 8.66699 46.834 26 60.501s40.666 22.834 69.999 27.501s61.666 5.66699 96.999 3l63 -11
c-42 -1.33301 -73.167 -4.83301 -93.5 -10.5s-30.5 -16.834 -30.5 -33.501c0 -10 4 -17.833 12 -23.5s19.333 -8.5 34 -8.5h163c44.667 0 82.834 -4.83301 114.501 -14.5s55.834 -26 72.501 -49s25 -54.5 25 -94.5v-47h-130zM308 169.997c28.667 0 53.832 4.66699 75.499 14
s38.5 22.833 50.5 40.5s18 38.834 18 63.501c0 25.333 -6 47 -18 65s-28.667 31.833 -50 41.5s-46.666 14.5 -75.999 14.5c-28.667 0 -54 -4.83301 -76 -14.5s-39 -23.5 -51 -41.5s-18 -39.667 -18 -65c0 -24.667 6 -45.834 18 -63.501s28.833 -31.167 50.5 -40.5
s47.167 -14 76.5 -14zM383.998 716.997v-114h-151v114h151z" />
    <glyph glyph-name="uni0122" unicode="&#x122;" horiz-adv-x="914" 
d="M449 -13c-60 0 -114.166 7 -162.499 21s-90 35 -125 63s-61.833 62.667 -80.5 104s-28 89 -28 143c0 54.667 9.83301 103.167 29.5 145.5s47.667 78.166 84 107.499s79.666 51.5 129.999 66.5s106.166 22.5 167.499 22.5c72.667 0 135.334 -10.167 188.001 -30.5
s94.167 -48.833 124.5 -85.5s47.5 -80.334 51.5 -131.001h-128c-8.66699 26.667 -22.834 49.834 -42.501 69.501s-45.5 35 -77.5 46s-70.667 16.5 -116 16.5c-58 0 -107.5 -9.33301 -148.5 -28s-72.167 -45 -93.5 -79s-32 -74 -32 -120c0 -44.667 9.33301 -83.167 28 -115.5
s47.5 -57.166 86.5 -74.499s88.833 -26 149.5 -26c46.667 0 87.834 6.16699 123.501 18.5s65.5 29 89.5 50s41 44.5 51 70.5l52 19c-8.66699 -86 -41.167 -153 -97.5 -201s-130.833 -72 -223.5 -72zM736.001 0c0 20.667 1.33301 44.5 4 71.5s6 54.333 10 82l11 76.5h-296v85
h386v-315h-115zM399.001 -249l-12 34c14 6.66699 26 14.5 36 23.5s15.333 18.167 16 27.5l-62 11v92h153v-52c0 -36 -11.167 -65.5 -33.5 -88.5s-54.833 -38.833 -97.5 -47.5v0z" />
    <glyph glyph-name="uni0123" unicode="&#x123;" horiz-adv-x="671" 
d="M308 76c-54 0 -101.5 8.16699 -142.5 24.5s-72.833 40.5 -95.5 72.5s-34 70.667 -34 116c0 44.667 11 83.334 33 116.001s53.5 58 94.5 76s89.167 27 144.5 27c15.333 0 30.166 -1 44.499 -3s28.5 -4.66699 42.5 -8l251 -1v-98c-34 -0.666992 -68.5 3.5 -103.5 12.5
s-65.833 18.833 -92.5 29.5l-3 7c22.667 -10.667 44 -23.834 64 -39.501s36.167 -33.667 48.5 -54s18.5 -43.833 18.5 -70.5c0 -43.333 -11 -80.5 -33 -111.5s-53.167 -54.667 -93.5 -71s-88.166 -24.5 -143.499 -24.5zM475 -205v23.9971c0 30.667 -9.83301 52 -29.5 64
s-46.5 18 -80.5 18h-155c-30 0 -55.167 2.33301 -75.5 7s-36.5 11.334 -48.5 20.001s-20.667 18.834 -26 30.501s-8 24.167 -8 37.5c0 26.667 8.66699 46.834 26 60.501s40.666 22.834 69.999 27.501s61.666 5.66699 96.999 3l63 -11
c-42 -1.33301 -73.167 -4.83301 -93.5 -10.5s-30.5 -16.834 -30.5 -33.501c0 -10 4 -17.833 12 -23.5s19.333 -8.5 34 -8.5h163c44.667 0 82.834 -4.83301 114.501 -14.5s55.834 -26 72.501 -49s25 -54.5 25 -94.5v-47h-130zM308 169.997c28.667 0 53.832 4.66699 75.499 14
s38.5 22.833 50.5 40.5s18 38.834 18 63.501c0 25.333 -6 47 -18 65s-28.667 31.833 -50 41.5s-46.666 14.5 -75.999 14.5c-28.667 0 -54 -4.83301 -76 -14.5s-39 -23.5 -51 -41.5s-18 -39.667 -18 -65c0 -24.667 6 -45.834 18 -63.501s28.833 -31.167 50.5 -40.5
s47.167 -14 76.5 -14zM362.998 758.997l12 -33.999c-10.667 -4.66699 -21.667 -11.834 -33 -21.501s-17.333 -19.5 -18 -29.5l61 -11v-92h-153v52c0 36 11.167 65.5 33.5 88.5s54.833 38.833 97.5 47.5z" />
    <glyph glyph-name="Hbar" unicode="&#x126;" horiz-adv-x="895" 
d="M37 536h821v-75h-821v75zM194 380h513v-111h-513v111zM685 647h133v-647h-133v647zM77 647h133v-647h-133v647z" />
    <glyph glyph-name="hbar" unicode="&#x127;" horiz-adv-x="702" 
d="M514 0l0.00195312 273c0 27.333 -4.66699 50 -14 68s-24.166 31.667 -44.499 41s-47.5 14 -81.5 14c-32.667 0 -62.334 -6.16699 -89.001 -18.5s-48.334 -28.333 -65.001 -48s-26 -40.5 -28 -62.5l-1 55c3.33301 22 11 44 23 66s28 42 48 60s44.167 32.5 72.5 43.5
s60.166 16.5 95.499 16.5c30.667 0 59 -3.83301 85 -11.5s48.667 -19.5 68 -35.5s34.333 -35.833 45 -59.5s16 -51.5 16 -83.5v-318h-130zM69.002 0v697h130v-697h-130zM0.00195312 637h359v-69h-359v69z" />
    <glyph glyph-name="Imacron" unicode="&#x12a;" horiz-adv-x="324" 
d="M96 647h133v-647h-133v647zM9 733v81h307v-81h-307z" />
    <glyph glyph-name="imacron" unicode="&#x12b;" horiz-adv-x="247" 
d="M58 497h130v-497h-130v497zM-30 607v81h307v-81h-307z" />
    <glyph glyph-name="Iogonek" unicode="&#x12e;" horiz-adv-x="324" 
d="M204 -223c-68 0 -121.999 11.1689 -161.999 33.502s-60 52.833 -60 91.5c0 26.667 8.66699 48.167 26 64.5s40.666 28.833 69.999 37.5s62.333 14.667 99 18v-22c-27.333 -4.66699 -49.833 -13.334 -67.5 -26.001s-26.5 -30.334 -26.5 -53.001c0 -16 5 -29.5 15 -40.5
s24.167 -19.5 42.5 -25.5s39.5 -9 63.5 -9v-69zM96.001 647.002h133v-647h-133v647z" />
    <glyph glyph-name="iogonek" unicode="&#x12f;" horiz-adv-x="268" 
d="M179 -223c-68 0 -121.999 11.1689 -161.999 33.502s-60 52.833 -60 91.5c0 26.667 8.66699 48.167 26 64.5s40.666 28.833 69.999 37.5s62.333 14.667 99 18v-22c-27.333 -4.66699 -49.833 -13.334 -67.5 -26.001s-26.5 -30.334 -26.5 -53.001c0 -16 5 -29.5 15 -40.5
s24.167 -19.5 42.5 -25.5s39.5 -9 63.5 -9v-69zM209.001 715.002v-114h-151v114h151zM68.001 497.002h130v-497h-130v497z" />
    <glyph glyph-name="Idotaccent" unicode="&#x130;" horiz-adv-x="324" 
d="M96 647h133v-647h-133v647zM238 841v-114h-151v114h151z" />
    <glyph glyph-name="dotlessi" unicode="&#x131;" horiz-adv-x="247" 
d="M58 497h130v-497h-130v497z" />
    <glyph glyph-name="IJ" unicode="&#x132;" horiz-adv-x="754" 
d="M96 647h130v-358h-130v358zM544 253l-0.00292969 394.001h133v-403c0 -34 -6.16699 -66.333 -18.5 -97s-30.666 -57.834 -54.999 -81.501s-54.333 -42.167 -90 -55.5s-77.167 -20 -124.5 -20c-36.667 0 -72.167 4.66699 -106.5 14s-65.166 23.5 -92.499 42.5
s-49.333 43 -66 72s-25.667 63.167 -27 102.5h126c7.33301 -38 26.166 -66.833 56.499 -86.5s66.833 -29.5 109.5 -29.5c36.667 0 66.334 6.5 89.001 19.5s39.334 30.667 50.001 53s16 47.5 16 75.5z" />
    <glyph glyph-name="ij" unicode="&#x133;" horiz-adv-x="536" 
d="M209 715v-114h-151v114h151zM68 497h130v-497h-130v497zM338 497h130v-697h-130v697zM477 715v-114h-151v114h151z" />
    <glyph glyph-name="uni0136" unicode="&#x136;" horiz-adv-x="814" 
d="M354 315l-1 56l436 -371h-192l-388 340l345 307h189zM77 647h133v-647h-133v647zM330 -249l-12 34c14 6.66699 26 14.5 36 23.5s15.333 18.167 16 27.5l-62 11v92h153v-52c0 -36 -11.167 -65.5 -33.5 -88.5s-54.833 -38.833 -97.5 -47.5v0z" />
    <glyph glyph-name="uni0137" unicode="&#x137;" horiz-adv-x="649" 
d="M69 697h130v-697h-130v697zM618 497l-296 -261l3 80l316 -316h-165l-274 279l239 218h177zM269 -249l-12 34c14 6.66699 26 14.5 36 23.5s15.333 18.167 16 27.5l-62 11v92h153v-52c0 -36 -11.167 -65.5 -33.5 -88.5s-54.833 -38.833 -97.5 -47.5v0z" />
    <glyph glyph-name="Lacute" unicode="&#x139;" horiz-adv-x="687" 
d="M210 647v-536h430v-111h-563v647h133zM73 725l136 158h172l-184 -158h-124z" />
    <glyph glyph-name="lacute" unicode="&#x13a;" horiz-adv-x="271" 
d="M70 697h130v-697h-130v697zM70 791l136 158h172l-184 -158h-124z" />
    <glyph glyph-name="uni013B" unicode="&#x13b;" horiz-adv-x="687" 
d="M210 647v-536h430v-111h-563v647h133zM335 -249l-12 34c14 6.66699 26 14.5 36 23.5s15.333 18.167 16 27.5l-62 11v92h153v-52c0 -36 -11.167 -65.5 -33.5 -88.5s-54.833 -38.833 -97.5 -47.5v0z" />
    <glyph glyph-name="uni013C" unicode="&#x13c;" horiz-adv-x="271" 
d="M70 697h130v-697h-130v697zM81 -249l-12 34c14 6.66699 26 14.5 36 23.5s15.333 18.167 16 27.5l-62 11v92h153v-52c0 -36 -11.167 -65.5 -33.5 -88.5s-54.833 -38.833 -97.5 -47.5v0z" />
    <glyph glyph-name="Lcaron" unicode="&#x13d;" horiz-adv-x="687" 
d="M210 647v-536h430v-111h-563v647h133zM480 487h-69l-42 124v86h153v-86z" />
    <glyph glyph-name="lcaron" unicode="&#x13e;" horiz-adv-x="420" 
d="M70 697h130v-697h-130v697zM359 487h-69l-42 124v86h153v-86z" />
    <glyph glyph-name="Ldot" unicode="&#x13f;" horiz-adv-x="687" 
d="M210 647v-536h430v-111h-563v647h133zM503 422v-114h-151v114h151z" />
    <glyph glyph-name="ldot" unicode="&#x140;" horiz-adv-x="457" 
d="M70 697h130v-697h-130v697zM386 384v-114h-151v114h151z" />
    <glyph glyph-name="Lslash" unicode="&#x141;" horiz-adv-x="687" 
d="M210 647v-536h430v-111h-563v647h133zM377 506l37 -53l-410 -280l-35 53z" />
    <glyph glyph-name="lslash" unicode="&#x142;" horiz-adv-x="292" 
d="M274 476l37 -53l-296 -202l-35 53zM80 697h130v-697h-130v697z" />
    <glyph glyph-name="Nacute" unicode="&#x143;" horiz-adv-x="901" 
d="M733 132l-42 -17v532h133v-647h-133l-523 511l42 17v-528h-133v647h133zM387 725l136 158h172l-184 -158h-124z" />
    <glyph glyph-name="nacute" unicode="&#x144;" horiz-adv-x="693" 
d="M60 497h130v-497h-130v497zM421 508c30.667 0 59 -4 85 -12s48.667 -20.333 68 -37s34.333 -37.834 45 -63.501s16 -56.167 16 -91.5v-304h-130v281c0 42 -10.167 72.833 -30.5 92.5s-53.5 29.5 -99.5 29.5c-34.667 0 -66 -6.66699 -94 -20s-50.667 -30.166 -68 -50.499
s-27.333 -41.5 -30 -63.5l-1 51c3.33301 23.333 11 46 23 68s28.167 42.167 48.5 60.5s44.5 32.833 72.5 43.5s59.667 16 95 16zM310 601l136 158h172l-184 -158h-124z" />
    <glyph glyph-name="uni0145" unicode="&#x145;" horiz-adv-x="901" 
d="M733 132l-42 -17v532h133v-647h-133l-523 511l42 17v-528h-133v647h133zM405 -249l-12 34c14 6.66699 26 14.5 36 23.5s15.333 18.167 16 27.5l-62 11v92h153v-52c0 -36 -11.167 -65.5 -33.5 -88.5s-54.833 -38.833 -97.5 -47.5v0z" />
    <glyph glyph-name="uni0146" unicode="&#x146;" horiz-adv-x="693" 
d="M60 497h130v-497h-130v497zM421 508c30.667 0 59 -4 85 -12s48.667 -20.333 68 -37s34.333 -37.834 45 -63.501s16 -56.167 16 -91.5v-304h-130v281c0 42 -10.167 72.833 -30.5 92.5s-53.5 29.5 -99.5 29.5c-34.667 0 -66 -6.66699 -94 -20s-50.667 -30.166 -68 -50.499
s-27.333 -41.5 -30 -63.5l-1 51c3.33301 23.333 11 46 23 68s28.167 42.167 48.5 60.5s44.5 32.833 72.5 43.5s59.667 16 95 16zM293 -249l-12 34c14 6.66699 26 14.5 36 23.5s15.333 18.167 16 27.5l-62 11v92h153v-52c0 -36 -11.167 -65.5 -33.5 -88.5
s-54.833 -38.833 -97.5 -47.5v0z" />
    <glyph glyph-name="Ncaron" unicode="&#x147;" horiz-adv-x="901" 
d="M733 132l-42 -17v532h133v-647h-133l-523 511l42 17v-528h-133v647h133zM501 753h-82l127 130h141l-159 -158h-136l-159 158h141z" />
    <glyph glyph-name="ncaron" unicode="&#x148;" horiz-adv-x="693" 
d="M60 497h130v-497h-130v497zM421 508c30.667 0 59 -4 85 -12s48.667 -20.333 68 -37s34.333 -37.834 45 -63.501s16 -56.167 16 -91.5v-304h-130v281c0 42 -10.167 72.833 -30.5 92.5s-53.5 29.5 -99.5 29.5c-34.667 0 -66 -6.66699 -94 -20s-50.667 -30.166 -68 -50.499
s-27.333 -41.5 -30 -63.5l-1 51c3.33301 23.333 11 46 23 68s28.167 42.167 48.5 60.5s44.5 32.833 72.5 43.5s59.667 16 95 16zM424 629h-82l127 130h141l-159 -158h-136l-159 158h141z" />
    <glyph glyph-name="Eng" unicode="&#x14a;" horiz-adv-x="901" 
d="M733 132l-42 -16.999v532h133v-680c0 -28.667 -5.33301 -53.334 -16 -74.001s-25 -37.667 -43 -51s-38.167 -23.833 -60.5 -31.5s-45.5 -13 -69.5 -16s-47.333 -4.5 -70 -4.5v108c22 0 42.667 2.66699 62 8s34.833 15.333 46.5 30s17.5 36 17.5 64l-523 511l42 17v-528
h-133v647h133z" />
    <glyph glyph-name="eng" unicode="&#x14b;" horiz-adv-x="693" 
d="M372 -212l-0.00292969 107.001c32 0 57.667 3.66699 77 11s33.5 18.833 42.5 34.5s13.5 35.5 13.5 59.5v281c0 42 -10.167 72.833 -30.5 92.5s-53.5 29.5 -99.5 29.5c-34.667 0 -66 -6.66699 -94 -20s-50.667 -30.166 -68 -50.499s-27.333 -41.5 -30 -63.5l-1 51
c3.33301 23.333 11 46 23 68s28.167 42.167 48.5 60.5s44.5 32.833 72.5 43.5s59.667 16 95 16c30.667 0 59 -4 85 -12s48.667 -20.333 68 -37s34.333 -37.834 45 -63.501s16 -56.167 16 -91.5v-340c0 -28.667 -5.16699 -53.834 -15.5 -75.501s-26.166 -40 -47.499 -55
s-48.666 -26.333 -81.999 -34s-72.666 -11.5 -117.999 -11.5zM59.9971 0.000976562v497h130v-497h-130z" />
    <glyph glyph-name="Omacron" unicode="&#x14c;" horiz-adv-x="924" 
d="M462 -13c-86 0 -159.5 13.5 -220.5 40.5s-107.667 65.5 -140 115.5s-48.5 110 -48.5 180c0 70.667 16.167 131 48.5 181s79 88.5 140 115.5s134.5 40.5 220.5 40.5c86.667 0 160.334 -13.5 221.001 -40.5s107.167 -65.5 139.5 -115.5s48.5 -110.333 48.5 -181
c0 -70 -16.167 -130 -48.5 -180s-78.833 -88.5 -139.5 -115.5s-134.334 -40.5 -221.001 -40.5zM462 102c53.333 0 100.166 8 140.499 24s72 40.333 95 73s34.5 74 34.5 124s-11.5 91.333 -34.5 124s-54.667 57.167 -95 73.5s-87.166 24.5 -140.499 24.5
c-52.667 0 -99.667 -8.16699 -141 -24.5s-73.666 -40.833 -96.999 -73.5s-35 -74 -35 -124s11.667 -91.333 35 -124s55.666 -57 96.999 -73s88.333 -24 141 -24zM309 737v81h307v-81h-307z" />
    <glyph glyph-name="omacron" unicode="&#x14d;" horiz-adv-x="704" 
d="M353 -12c-62.667 0 -117.834 10 -165.501 30s-84.834 49.167 -111.501 87.5s-40 85.5 -40 141.5s13.333 103.5 40 142.5s63.834 68.5 111.501 88.5s102.834 30 165.501 30s117.5 -10 164.5 -30s83.833 -49.5 110.5 -88.5s40 -86.5 40 -142.5s-13.333 -103.167 -40 -141.5
s-63.5 -67.5 -110.5 -87.5s-101.833 -30 -164.5 -30zM353 88c34.667 0 65.832 6.16699 93.499 18.5s49.5 30.333 65.5 54s24 52.5 24 86.5s-8 63.167 -24 87.5s-37.667 42.833 -65 55.5s-58.666 19 -93.999 19c-34.667 0 -66 -6.33301 -94 -19s-50.167 -31 -66.5 -55
s-24.5 -53.333 -24.5 -88c0 -34 8 -62.833 24 -86.5s38 -41.667 66 -54s59.667 -18.5 95 -18.5zM199.998 609v81h307v-81h-307z" />
    <glyph glyph-name="Ohungarumlaut" unicode="&#x150;" horiz-adv-x="924" 
d="M462 -13c-86 0 -159.5 13.5 -220.5 40.5s-107.667 65.5 -140 115.5s-48.5 110 -48.5 180c0 70.667 16.167 131 48.5 181s79 88.5 140 115.5s134.5 40.5 220.5 40.5c86.667 0 160.334 -13.5 221.001 -40.5s107.167 -65.5 139.5 -115.5s48.5 -110.333 48.5 -181
c0 -70 -16.167 -130 -48.5 -180s-78.833 -88.5 -139.5 -115.5s-134.334 -40.5 -221.001 -40.5zM462 102c53.333 0 100.166 8 140.499 24s72 40.333 95 73s34.5 74 34.5 124s-11.5 91.333 -34.5 124s-54.667 57.167 -95 73.5s-87.166 24.5 -140.499 24.5
c-52.667 0 -99.667 -8.16699 -141 -24.5s-73.666 -40.833 -96.999 -73.5s-35 -74 -35 -124s11.667 -91.333 35 -124s55.666 -57 96.999 -73s88.333 -24 141 -24zM502 729l121 158h136l-155 -158h-102zM286 729l115 158h136l-149 -158h-102z" />
    <glyph glyph-name="ohungarumlaut" unicode="&#x151;" horiz-adv-x="704" 
d="M353 -12c-62.667 0 -117.834 10 -165.501 30s-84.834 49.167 -111.501 87.5s-40 85.5 -40 141.5s13.333 103.5 40 142.5s63.834 68.5 111.501 88.5s102.834 30 165.501 30s117.5 -10 164.5 -30s83.833 -49.5 110.5 -88.5s40 -86.5 40 -142.5s-13.333 -103.167 -40 -141.5
s-63.5 -67.5 -110.5 -87.5s-101.833 -30 -164.5 -30zM353 88c34.667 0 65.832 6.16699 93.499 18.5s49.5 30.333 65.5 54s24 52.5 24 86.5s-8 63.167 -24 87.5s-37.667 42.833 -65 55.5s-58.666 19 -93.999 19c-34.667 0 -66 -6.33301 -94 -19s-50.167 -31 -66.5 -55
s-24.5 -53.333 -24.5 -88c0 -34 8 -62.833 24 -86.5s38 -41.667 66 -54s59.667 -18.5 95 -18.5zM392.998 601l121 158h136l-155 -158h-102zM176.998 601l115 158h136l-149 -158h-102z" />
    <glyph glyph-name="OE" unicode="&#x152;" horiz-adv-x="1277" 
d="M1217 112v-112h-674l222 112h452zM1125 375v-105h-281v105h281zM1216 647v-112h-495l-178 112h673zM462 -13c-86 0 -159.5 13.5 -220.5 40.5s-107.667 65.5 -140 115.5s-48.5 110 -48.5 180c0 70.667 16.167 131 48.5 181s79 88.5 140 115.5s134.5 40.5 220.5 40.5
c86.667 0 160.334 -13.5 221.001 -40.5s107.167 -65.5 139.5 -115.5s48.5 -110.333 48.5 -181c0 -70 -16.167 -130 -48.5 -180s-78.833 -88.5 -139.5 -115.5s-134.334 -40.5 -221.001 -40.5zM462 102c53.333 0 100.166 8 140.499 24s72 40.333 95 73s34.5 74 34.5 124
s-11.5 91.333 -34.5 124s-54.667 57.167 -95 73.5s-87.166 24.5 -140.499 24.5c-52.667 0 -99.667 -8.16699 -141 -24.5s-73.666 -40.833 -96.999 -73.5s-35 -74 -35 -124s11.667 -91.333 35 -124s55.666 -57 96.999 -73s88.333 -24 141 -24z" />
    <glyph glyph-name="oe" unicode="&#x153;" horiz-adv-x="1230" 
d="M353 -12c-62.667 0 -117.834 10 -165.501 30s-84.834 49.167 -111.501 87.5s-40 85.5 -40 141.5s13.333 103.5 40 142.5s63.834 68.5 111.501 88.5s102.834 30 165.501 30s117.5 -10 164.5 -30s83.833 -49.5 110.5 -88.5s40 -86.5 40 -142.5s-13.333 -103.167 -40 -141.5
s-63.5 -67.5 -110.5 -87.5s-101.833 -30 -164.5 -30zM353 88c34.667 0 65.832 6.16699 93.499 18.5s49.5 30.333 65.5 54s24 52.5 24 86.5s-8 63.167 -24 87.5s-37.667 42.833 -65 55.5s-58.666 19 -93.999 19c-34.667 0 -66 -6.33301 -94 -19s-50.167 -31 -66.5 -55
s-24.5 -53.333 -24.5 -88c0 -34 8 -62.833 24 -86.5s38 -41.667 66 -54s59.667 -18.5 95 -18.5zM1065 165l126 0.000976562c-5.33301 -34 -19.5 -64.333 -42.5 -91s-54.167 -47.667 -93.5 -63s-87.333 -23 -144 -23c-63.333 0 -119.333 10.167 -168 30.5
s-86.667 49.833 -114 88.5s-41 85.334 -41 140.001s13.333 101.5 40 140.5s63.834 68.833 111.501 89.5s103.5 31 167.5 31c65.333 0 119.666 -10.333 162.999 -31s75.5 -51.834 96.5 -93.501s29.833 -94.834 26.5 -159.501h-474c3.33301 -25.333 12.833 -48.333 28.5 -69
s37 -37 64 -49s59.167 -18 96.5 -18c41.333 0 75.833 7.16699 103.5 21.5s45.5 32.833 53.5 55.5zM900.998 409.001c-48 0 -87.001 -10.5 -117.001 -31.5s-49.333 -46.833 -58 -77.5h338c-3.33301 33.333 -19.166 59.833 -47.499 79.5s-66.833 29.5 -115.5 29.5z" />
    <glyph glyph-name="Racute" unicode="&#x154;" horiz-adv-x="826" 
d="M77 0v646.998h439c50 0 93.5 -6.83301 130.5 -20.5s65.833 -35 86.5 -64s31 -66.167 31 -111.5c0 -30.667 -5.33301 -56.667 -16 -78s-25.5 -38.666 -44.5 -51.999s-40.833 -23.5 -65.5 -30.5s-51 -11.5 -79 -13.5l-14 8c46.667 -0.666992 85 -4.5 115 -11.5
s52.5 -19.667 67.5 -38s22.5 -45.5 22.5 -81.5v-154h-133v145c0 24.667 -4.33301 43.834 -13 57.501s-24.167 23.167 -46.5 28.5s-54.5 8 -96.5 8h-251v-239h-133zM210 342.998l306 0.000976562c37.333 0 65.833 9 85.5 27s29.5 42.333 29.5 73
c0 29.333 -9.83301 51.666 -29.5 66.999s-48.167 23 -85.5 23h-306v-190zM338 724.999l136 158h172l-184 -158h-124z" />
    <glyph glyph-name="racute" unicode="&#x155;" horiz-adv-x="401" 
d="M60 497h130v-497h-130v497zM381 390c-37.333 0 -69.666 -7.16699 -96.999 -21.5s-49.333 -31.833 -66 -52.5s-28.334 -40.667 -35.001 -60l-1 55c0.666992 8 3.33398 19.833 8.00098 35.5s11.667 32.667 21 51s21.666 36 36.999 53s34 30.833 56 41.5s47.667 16 77 16
v-118zM166 601l136 158h172l-184 -158h-124z" />
    <glyph glyph-name="uni0156" unicode="&#x156;" horiz-adv-x="826" 
d="M77 0v646.998h439c50 0 93.5 -6.83301 130.5 -20.5s65.833 -35 86.5 -64s31 -66.167 31 -111.5c0 -30.667 -5.33301 -56.667 -16 -78s-25.5 -38.666 -44.5 -51.999s-40.833 -23.5 -65.5 -30.5s-51 -11.5 -79 -13.5l-14 8c46.667 -0.666992 85 -4.5 115 -11.5
s52.5 -19.667 67.5 -38s22.5 -45.5 22.5 -81.5v-154h-133v145c0 24.667 -4.33301 43.834 -13 57.501s-24.167 23.167 -46.5 28.5s-54.5 8 -96.5 8h-251v-239h-133zM210 342.998l306 0.000976562c37.333 0 65.833 9 85.5 27s29.5 42.333 29.5 73
c0 29.333 -9.83301 51.666 -29.5 66.999s-48.167 23 -85.5 23h-306v-190zM350 -254.001l-12 34c14 6.66699 26 14.5 36 23.5s15.333 18.167 16 27.5l-62 11v92h153v-52c0 -36 -11.167 -65.5 -33.5 -88.5s-54.833 -38.833 -97.5 -47.5v0z" />
    <glyph glyph-name="uni0157" unicode="&#x157;" horiz-adv-x="401" 
d="M60 497h130v-497h-130v497zM381 390c-37.333 0 -69.666 -7.16699 -96.999 -21.5s-49.333 -31.833 -66 -52.5s-28.334 -40.667 -35.001 -60l-1 55c0.666992 8 3.33398 19.833 8.00098 35.5s11.667 32.667 21 51s21.666 36 36.999 53s34 30.833 56 41.5s47.667 16 77 16
v-118zM71 -249l-12 34c14 6.66699 26 14.5 36 23.5s15.333 18.167 16 27.5l-62 11v92h153v-52c0 -36 -11.167 -65.5 -33.5 -88.5s-54.833 -38.833 -97.5 -47.5v0z" />
    <glyph glyph-name="Rcaron" unicode="&#x158;" horiz-adv-x="826" 
d="M77 0v646.998h439c50 0 93.5 -6.83301 130.5 -20.5s65.833 -35 86.5 -64s31 -66.167 31 -111.5c0 -30.667 -5.33301 -56.667 -16 -78s-25.5 -38.666 -44.5 -51.999s-40.833 -23.5 -65.5 -30.5s-51 -11.5 -79 -13.5l-14 8c46.667 -0.666992 85 -4.5 115 -11.5
s52.5 -19.667 67.5 -38s22.5 -45.5 22.5 -81.5v-154h-133v145c0 24.667 -4.33301 43.834 -13 57.501s-24.167 23.167 -46.5 28.5s-54.5 8 -96.5 8h-251v-239h-133zM210 342.998l306 0.000976562c37.333 0 65.833 9 85.5 27s29.5 42.333 29.5 73
c0 29.333 -9.83301 51.666 -29.5 66.999s-48.167 23 -85.5 23h-306v-190zM452 752.999h-82l127 130h141l-159 -158h-136l-159 158h141z" />
    <glyph glyph-name="rcaron" unicode="&#x159;" horiz-adv-x="401" 
d="M60 497h130v-497h-130v497zM381 390c-37.333 0 -69.666 -7.16699 -96.999 -21.5s-49.333 -31.833 -66 -52.5s-28.334 -40.667 -35.001 -60l-1 55c0.666992 8 3.33398 19.833 8.00098 35.5s11.667 32.667 21 51s21.666 36 36.999 53s34 30.833 56 41.5s47.667 16 77 16
v-118zM280 629h-82l127 130h141l-159 -158h-136l-159 158h141z" />
    <glyph glyph-name="Sacute" unicode="&#x15a;" horiz-adv-x="694" 
d="M34 218l135.003 0.00195312c2.66699 -22.667 13.167 -43.167 31.5 -61.5s42.5 -32.666 72.5 -42.999s63.667 -15.5 101 -15.5c34 0 62 3.66699 84 11s38.333 17.666 49 30.999s16 29.333 16 48c0 18 -6.66699 31.833 -20 41.5s-34.333 17.667 -63 24
s-66.334 12.833 -113.001 19.5c-36.667 5.33301 -71.334 12.833 -104.001 22.5s-61.5 22.167 -86.5 37.5s-44.667 34.166 -59 56.499s-21.5 48.833 -21.5 79.5c0 38 10.833 71.333 32.5 100s53.834 51 96.501 67s95 24 157 24c93.333 0 165.166 -19.833 215.499 -59.5
s74.833 -94.167 73.5 -163.5h-130c-2.66699 39.333 -19.167 67.666 -49.5 84.999s-68.5 26 -114.5 26c-42.667 0 -77.834 -6.33301 -105.501 -19s-41.5 -34.334 -41.5 -65.001c0 -12 3.33301 -22.5 10 -31.5s18 -16.833 34 -23.5s37.667 -13 65 -19s61.333 -12 102 -18
c38 -5.33301 72.5 -12.5 103.5 -21.5s57.667 -20.667 80 -35s39.5 -32.5 51.5 -54.5s18 -49 18 -81c0 -39.333 -10.167 -73.5 -30.5 -102.5s-51.666 -51.5 -93.999 -67.5s-97.166 -24 -164.499 -24c-48 0 -90.333 5.16699 -127 15.5s-68.334 24.166 -95.001 41.499
s-48.334 36.333 -65.001 57s-28.5 41.334 -35.5 62.001s-9.83301 39.334 -8.5 56.001zM269.003 729.002l136 158h172l-184 -158h-124z" />
    <glyph glyph-name="sacute" unicode="&#x15b;" horiz-adv-x="564" 
d="M40 165l120.001 -0.00195312c7.33301 -22.667 22.5 -41.167 45.5 -55.5s53.167 -21.5 90.5 -21.5c25.333 0 45 2.33301 59 7s23.667 11.5 29 20.5s8 19.167 8 30.5c0 14 -4.33301 24.833 -13 32.5s-22 13.834 -40 18.501s-41 9 -69 13c-28 4.66699 -55 10.334 -81 17.001
s-49 15.5 -69 26.5s-35.833 25 -47.5 42s-17.5 37.833 -17.5 62.5c0 24 5.83301 45.333 17.5 64s28 34.334 49 47.001s45.667 22.334 74 29.001s58.833 10 91.5 10c49.333 0 90.333 -7.16699 123 -21.5s57.167 -34.333 73.5 -60s24.5 -55.167 24.5 -88.5h-115
c-5.33301 24.667 -16 42.5 -32 53.5s-40.667 16.5 -74 16.5c-32.667 0 -57.334 -5 -74.001 -15s-25 -23.667 -25 -41c0 -14 5.16699 -24.833 15.5 -32.5s25.666 -13.834 45.999 -18.501s45.833 -9.66699 76.5 -15c26 -5.33301 50.833 -11.333 74.5 -18
s44.834 -15.167 63.501 -25.5s33.5 -24 44.5 -41s16.5 -38.5 16.5 -64.5c0 -32 -9.16699 -59 -27.5 -81s-44.5 -38.833 -78.5 -50.5s-74.667 -17.5 -122 -17.5c-42 0 -78.167 4.5 -108.5 13.5s-55.5 20.667 -75.5 35s-35.5 29.666 -46.5 45.999s-18.5 31.833 -22.5 46.5
s-5.33301 26.667 -4 36zM210.001 600.998l136 158h172l-184 -158h-124z" />
    <glyph glyph-name="Scedilla" unicode="&#x15e;" horiz-adv-x="694" 
d="M249 -121c1.33301 -3.33301 3.5 -8.33496 6.5 -15.002s8.5 -12.667 16.5 -18s19.667 -8 35 -8c18.667 0 31.834 4 39.501 12s11.5 17.333 11.5 28c0 4.66699 -1.5 10.334 -4.5 17.001s-9.5 13.334 -19.5 20.001s-26.333 12 -49 16l81 28
c18.667 -3.33301 35.667 -9 51 -17s27.666 -18.5 36.999 -31.5s14 -29.5 14 -49.5c0 -28 -13.167 -52.5 -39.5 -73.5s-65.833 -31.5 -118.5 -31.5c-33.333 0 -61.833 5.83301 -85.5 17.5s-41.5 27 -53.5 46s-17.333 38.833 -16 59.5h94zM285 11.998h109v-88l-109 7v81z
M34 217.998l135.003 0.00195312c2.66699 -22.667 13.167 -43.167 31.5 -61.5s42.5 -32.666 72.5 -42.999s63.667 -15.5 101 -15.5c34 0 62 3.66699 84 11s38.333 17.666 49 30.999s16 29.333 16 48c0 18 -6.66699 31.833 -20 41.5s-34.333 17.667 -63 24
s-66.334 12.833 -113.001 19.5c-36.667 5.33301 -71.334 12.833 -104.001 22.5s-61.5 22.167 -86.5 37.5s-44.667 34.166 -59 56.499s-21.5 48.833 -21.5 79.5c0 38 10.833 71.333 32.5 100s53.834 51 96.501 67s95 24 157 24c93.333 0 165.166 -19.833 215.499 -59.5
s74.833 -94.167 73.5 -163.5h-130c-2.66699 39.333 -19.167 67.666 -49.5 84.999s-68.5 26 -114.5 26c-42.667 0 -77.834 -6.33301 -105.501 -19s-41.5 -34.334 -41.5 -65.001c0 -12 3.33301 -22.5 10 -31.5s18 -16.833 34 -23.5s37.667 -13 65 -19s61.333 -12 102 -18
c38 -5.33301 72.5 -12.5 103.5 -21.5s57.667 -20.667 80 -35s39.5 -32.5 51.5 -54.5s18 -49 18 -81c0 -39.333 -10.167 -73.5 -30.5 -102.5s-51.666 -51.5 -93.999 -67.5s-97.166 -24 -164.499 -24c-48 0 -90.333 5.16699 -127 15.5s-68.334 24.166 -95.001 41.499
s-48.334 36.333 -65.001 57s-28.5 41.334 -35.5 62.001s-9.83301 39.334 -8.5 56.001z" />
    <glyph glyph-name="scedilla" unicode="&#x15f;" horiz-adv-x="564" 
d="M209 -126c1.33301 -3.33301 3.5 -8.33496 6.5 -15.002s8.5 -12.667 16.5 -18s19.667 -8 35 -8c18.667 0 31.834 4 39.501 12s11.5 17.333 11.5 28c0 4.66699 -1.5 10.334 -4.5 17.001s-9.5 13.334 -19.5 20.001s-26.333 12 -49 16l81 28
c18.667 -3.33301 35.667 -9 51 -17s27.666 -18.5 36.999 -31.5s14 -29.5 14 -49.5c0 -28 -13.167 -52.5 -39.5 -73.5s-65.833 -31.5 -118.5 -31.5c-33.333 0 -61.833 5.83301 -85.5 17.5s-41.5 27 -53.5 46s-17.333 38.833 -16 59.5h94zM245 6.99805h109v-88l-109 7v81z
M40 164.998l120.001 -0.00195312c7.33301 -22.667 22.5 -41.167 45.5 -55.5s53.167 -21.5 90.5 -21.5c25.333 0 45 2.33301 59 7s23.667 11.5 29 20.5s8 19.167 8 30.5c0 14 -4.33301 24.833 -13 32.5s-22 13.834 -40 18.501s-41 9 -69 13
c-28 4.66699 -55 10.334 -81 17.001s-49 15.5 -69 26.5s-35.833 25 -47.5 42s-17.5 37.833 -17.5 62.5c0 24 5.83301 45.333 17.5 64s28 34.334 49 47.001s45.667 22.334 74 29.001s58.833 10 91.5 10c49.333 0 90.333 -7.16699 123 -21.5s57.167 -34.333 73.5 -60
s24.5 -55.167 24.5 -88.5h-115c-5.33301 24.667 -16 42.5 -32 53.5s-40.667 16.5 -74 16.5c-32.667 0 -57.334 -5 -74.001 -15s-25 -23.667 -25 -41c0 -14 5.16699 -24.833 15.5 -32.5s25.666 -13.834 45.999 -18.501s45.833 -9.66699 76.5 -15
c26 -5.33301 50.833 -11.333 74.5 -18s44.834 -15.167 63.501 -25.5s33.5 -24 44.5 -41s16.5 -38.5 16.5 -64.5c0 -32 -9.16699 -59 -27.5 -81s-44.5 -38.833 -78.5 -50.5s-74.667 -17.5 -122 -17.5c-42 0 -78.167 4.5 -108.5 13.5s-55.5 20.667 -75.5 35
s-35.5 29.666 -46.5 45.999s-18.5 31.833 -22.5 46.5s-5.33301 26.667 -4 36z" />
    <glyph glyph-name="Scaron" unicode="&#x160;" horiz-adv-x="694" 
d="M34 218l135.003 0.00195312c2.66699 -22.667 13.167 -43.167 31.5 -61.5s42.5 -32.666 72.5 -42.999s63.667 -15.5 101 -15.5c34 0 62 3.66699 84 11s38.333 17.666 49 30.999s16 29.333 16 48c0 18 -6.66699 31.833 -20 41.5s-34.333 17.667 -63 24
s-66.334 12.833 -113.001 19.5c-36.667 5.33301 -71.334 12.833 -104.001 22.5s-61.5 22.167 -86.5 37.5s-44.667 34.166 -59 56.499s-21.5 48.833 -21.5 79.5c0 38 10.833 71.333 32.5 100s53.834 51 96.501 67s95 24 157 24c93.333 0 165.166 -19.833 215.499 -59.5
s74.833 -94.167 73.5 -163.5h-130c-2.66699 39.333 -19.167 67.666 -49.5 84.999s-68.5 26 -114.5 26c-42.667 0 -77.834 -6.33301 -105.501 -19s-41.5 -34.334 -41.5 -65.001c0 -12 3.33301 -22.5 10 -31.5s18 -16.833 34 -23.5s37.667 -13 65 -19s61.333 -12 102 -18
c38 -5.33301 72.5 -12.5 103.5 -21.5s57.667 -20.667 80 -35s39.5 -32.5 51.5 -54.5s18 -49 18 -81c0 -39.333 -10.167 -73.5 -30.5 -102.5s-51.666 -51.5 -93.999 -67.5s-97.166 -24 -164.499 -24c-48 0 -90.333 5.16699 -127 15.5s-68.334 24.166 -95.001 41.499
s-48.334 36.333 -65.001 57s-28.5 41.334 -35.5 62.001s-9.83301 39.334 -8.5 56.001zM383.003 757.002h-82l127 130h141l-159 -158h-136l-159 158h141z" />
    <glyph glyph-name="scaron" unicode="&#x161;" horiz-adv-x="564" 
d="M40 165l120.001 -0.00195312c7.33301 -22.667 22.5 -41.167 45.5 -55.5s53.167 -21.5 90.5 -21.5c25.333 0 45 2.33301 59 7s23.667 11.5 29 20.5s8 19.167 8 30.5c0 14 -4.33301 24.833 -13 32.5s-22 13.834 -40 18.501s-41 9 -69 13c-28 4.66699 -55 10.334 -81 17.001
s-49 15.5 -69 26.5s-35.833 25 -47.5 42s-17.5 37.833 -17.5 62.5c0 24 5.83301 45.333 17.5 64s28 34.334 49 47.001s45.667 22.334 74 29.001s58.833 10 91.5 10c49.333 0 90.333 -7.16699 123 -21.5s57.167 -34.333 73.5 -60s24.5 -55.167 24.5 -88.5h-115
c-5.33301 24.667 -16 42.5 -32 53.5s-40.667 16.5 -74 16.5c-32.667 0 -57.334 -5 -74.001 -15s-25 -23.667 -25 -41c0 -14 5.16699 -24.833 15.5 -32.5s25.666 -13.834 45.999 -18.501s45.833 -9.66699 76.5 -15c26 -5.33301 50.833 -11.333 74.5 -18
s44.834 -15.167 63.501 -25.5s33.5 -24 44.5 -41s16.5 -38.5 16.5 -64.5c0 -32 -9.16699 -59 -27.5 -81s-44.5 -38.833 -78.5 -50.5s-74.667 -17.5 -122 -17.5c-42 0 -78.167 4.5 -108.5 13.5s-55.5 20.667 -75.5 35s-35.5 29.666 -46.5 45.999s-18.5 31.833 -22.5 46.5
s-5.33301 26.667 -4 36zM324.001 628.998h-82l127 130h141l-159 -158h-136l-159 158h141z" />
    <glyph glyph-name="uni0162" unicode="&#x162;" horiz-adv-x="722" 
d="M266 -116c1.33301 -3.33301 3.5 -8.33496 6.5 -15.002s8.5 -12.667 16.5 -18s19.667 -8 35 -8c18.667 0 31.834 4 39.501 12s11.5 17.333 11.5 28c0 4.66699 -1.5 10.334 -4.5 17.001s-9.5 13.334 -19.5 20.001s-26.333 12 -49 16l81 28
c18.667 -3.33301 35.667 -9 51 -17s27.666 -18.5 36.999 -31.5s14 -29.5 14 -49.5c0 -28 -13.167 -52.5 -39.5 -73.5s-65.833 -31.5 -118.5 -31.5c-33.333 0 -61.833 5.83301 -85.5 17.5s-41.5 27 -53.5 46s-17.333 38.833 -16 59.5h94zM302 16.998h109v-88l-109 7v81z
M20 646.998h682v-111h-682v111zM295 549.998h133v-550h-133v550z" />
    <glyph glyph-name="uni0163" unicode="&#x163;" horiz-adv-x="434" 
d="M123 -116c1.33301 -3.33301 3.5 -8.33496 6.5 -15.002s8.5 -12.667 16.5 -18s19.667 -8 35 -8c18.667 0 31.834 4 39.501 12s11.5 17.333 11.5 28c0 4.66699 -1.5 10.334 -4.5 17.001s-9.5 13.334 -19.5 20.001s-26.333 12 -49 16l81 28
c18.667 -3.33301 35.667 -9 51 -17s27.666 -18.5 36.999 -31.5s14 -29.5 14 -49.5c0 -28 -13.167 -52.5 -39.5 -73.5s-65.833 -31.5 -118.5 -31.5c-33.333 0 -61.833 5.83301 -85.5 17.5s-41.5 27 -53.5 46s-17.333 38.833 -16 59.5h94zM159 16.998h109v-88l-109 7v81z
M25 496.998h386v-101h-386v101zM153 632.998h130v-633h-130v633z" />
    <glyph glyph-name="Tcaron" unicode="&#x164;" horiz-adv-x="722" 
d="M20 647h682v-111h-682v111zM295 550h133v-550h-133v550zM405 753h-82l127 130h141l-159 -158h-136l-159 158h141z" />
    <glyph glyph-name="tcaron" unicode="&#x165;" horiz-adv-x="433" 
d="M25 497h386v-101h-386v101zM153 633h130v-633h-130v633zM439 546h-69l-42 124v86h153v-86z" />
    <glyph glyph-name="Tbar" unicode="&#x166;" horiz-adv-x="722" 
d="M20 361h682v-75h-682v75zM20 647h682v-111h-682v111zM295 550h133v-550h-133v550z" />
    <glyph glyph-name="tbar" unicode="&#x167;" horiz-adv-x="433" 
d="M24 323h385v-75h-385v75zM25 497h386v-101h-386v101zM153 633h130v-633h-130v633z" />
    <glyph glyph-name="Umacron" unicode="&#x16a;" horiz-adv-x="881" 
d="M671 286l0.00292969 361h133v-375c0 -42.667 -6.16699 -80 -18.5 -112s-29.833 -59 -52.5 -81s-49.167 -39.833 -79.5 -53.5s-63.333 -23.5 -99 -29.5s-73.167 -9 -112.5 -9c-40.667 0 -79.334 3 -116.001 9s-70.167 15.833 -100.5 29.5s-56.5 31.5 -78.5 53.5
s-39.167 49 -51.5 81s-18.5 69.333 -18.5 112v375h133v-361c0 -50.667 10 -89.167 30 -115.5s47.5 -44.333 82.5 -54s74.833 -14.5 119.5 -14.5c43.333 0 82.166 4.83301 116.499 14.5s61.666 27.667 81.999 54s30.5 64.833 30.5 115.5zM289.003 733v81h307v-81h-307z" />
    <glyph glyph-name="umacron" unicode="&#x16b;" horiz-adv-x="693" 
d="M635 0h-130v497h130v-497zM512 239l0.996094 -34.0059c-1.33301 -9.33301 -4.66602 -22.833 -9.99902 -40.5s-13.5 -36.5 -24.5 -56.5s-25.167 -39.167 -42.5 -57.5s-38.666 -33.333 -63.999 -45s-55.333 -17.5 -90 -17.5c-27.333 0 -54.166 3.33301 -80.499 10
s-50.166 17.834 -71.499 33.501s-38.333 36.834 -51 63.501s-19 60.334 -19 101.001v301h130v-279c0 -32 5.16699 -57.167 15.5 -75.5s25.5 -31.166 45.5 -38.499s43.667 -11 71 -11c36 0 67 7.83301 93 23.5s47.167 34.834 63.5 57.501s27.5 44.334 33.5 65.001z
M203.996 608.994v81h307v-81h-307z" />
    <glyph glyph-name="Uring" unicode="&#x16e;" horiz-adv-x="881" 
d="M671 286l0.00292969 361h133v-375c0 -42.667 -6.16699 -80 -18.5 -112s-29.833 -59 -52.5 -81s-49.167 -39.833 -79.5 -53.5s-63.333 -23.5 -99 -29.5s-73.167 -9 -112.5 -9c-40.667 0 -79.334 3 -116.001 9s-70.167 15.833 -100.5 29.5s-56.5 31.5 -78.5 53.5
s-39.167 49 -51.5 81s-18.5 69.333 -18.5 112v375h133v-361c0 -50.667 10 -89.167 30 -115.5s47.5 -44.333 82.5 -54s74.833 -14.5 119.5 -14.5c43.333 0 82.166 4.83301 116.499 14.5s61.666 27.667 81.999 54s30.5 64.833 30.5 115.5zM442.003 701
c-43.333 0 -77.833 10.167 -103.5 30.5s-38.5 47.5 -38.5 81.5c0 33.333 12.833 60.166 38.5 80.499s60.167 30.5 103.5 30.5s77.666 -10.167 102.999 -30.5s38 -47.166 38 -80.499c0 -34 -12.667 -61.167 -38 -81.5s-59.666 -30.5 -102.999 -30.5zM442.003 759
c23.333 0 40.166 4.5 50.499 13.5s15.5 22.5 15.5 40.5c0 17.333 -5.16699 30.5 -15.5 39.5s-27.166 13.5 -50.499 13.5c-24 0 -41.167 -4.5 -51.5 -13.5s-15.5 -22.167 -15.5 -39.5c0 -18 5.16699 -31.5 15.5 -40.5s27.5 -13.5 51.5 -13.5z" />
    <glyph glyph-name="uring" unicode="&#x16f;" horiz-adv-x="693" 
d="M635 0h-130v497h130v-497zM512 239l0.996094 -34.0059c-1.33301 -9.33301 -4.66602 -22.833 -9.99902 -40.5s-13.5 -36.5 -24.5 -56.5s-25.167 -39.167 -42.5 -57.5s-38.666 -33.333 -63.999 -45s-55.333 -17.5 -90 -17.5c-27.333 0 -54.166 3.33301 -80.499 10
s-50.166 17.834 -71.499 33.501s-38.333 36.834 -51 63.501s-19 60.334 -19 101.001v301h130v-279c0 -32 5.16699 -57.167 15.5 -75.5s25.5 -31.166 45.5 -38.499s43.667 -11 71 -11c36 0 67 7.83301 93 23.5s47.167 34.834 63.5 57.501s27.5 44.334 33.5 65.001z
M356.996 576.994c-43.333 0 -77.833 10.167 -103.5 30.5s-38.5 47.5 -38.5 81.5c0 33.333 12.833 60.166 38.5 80.499s60.167 30.5 103.5 30.5s77.666 -10.167 102.999 -30.5s38 -47.166 38 -80.499c0 -34 -12.667 -61.167 -38 -81.5s-59.666 -30.5 -102.999 -30.5z
M356.996 634.994c23.333 0 40.166 4.5 50.499 13.5s15.5 22.5 15.5 40.5c0 17.333 -5.16699 30.5 -15.5 39.5s-27.166 13.5 -50.499 13.5c-24 0 -41.167 -4.5 -51.5 -13.5s-15.5 -22.167 -15.5 -39.5c0 -18 5.16699 -31.5 15.5 -40.5s27.5 -13.5 51.5 -13.5z" />
    <glyph glyph-name="Uhungarumlaut" unicode="&#x170;" horiz-adv-x="881" 
d="M671 286l0.00292969 361h133v-375c0 -42.667 -6.16699 -80 -18.5 -112s-29.833 -59 -52.5 -81s-49.167 -39.833 -79.5 -53.5s-63.333 -23.5 -99 -29.5s-73.167 -9 -112.5 -9c-40.667 0 -79.334 3 -116.001 9s-70.167 15.833 -100.5 29.5s-56.5 31.5 -78.5 53.5
s-39.167 49 -51.5 81s-18.5 69.333 -18.5 112v375h133v-361c0 -50.667 10 -89.167 30 -115.5s47.5 -44.333 82.5 -54s74.833 -14.5 119.5 -14.5c43.333 0 82.166 4.83301 116.499 14.5s61.666 27.667 81.999 54s30.5 64.833 30.5 115.5zM491.003 662l121 158h136l-155 -158
h-102zM275.003 662l115 158h136l-149 -158h-102z" />
    <glyph glyph-name="uhungarumlaut" unicode="&#x171;" horiz-adv-x="693" 
d="M635 0h-130v497h130v-497zM512 239l0.996094 -34.0059c-1.33301 -9.33301 -4.66602 -22.833 -9.99902 -40.5s-13.5 -36.5 -24.5 -56.5s-25.167 -39.167 -42.5 -57.5s-38.666 -33.333 -63.999 -45s-55.333 -17.5 -90 -17.5c-27.333 0 -54.166 3.33301 -80.499 10
s-50.166 17.834 -71.499 33.501s-38.333 36.834 -51 63.501s-19 60.334 -19 101.001v301h130v-279c0 -32 5.16699 -57.167 15.5 -75.5s25.5 -31.166 45.5 -38.499s43.667 -11 71 -11c36 0 67 7.83301 93 23.5s47.167 34.834 63.5 57.501s27.5 44.334 33.5 65.001z
M396.996 600.994l121 158h136l-155 -158h-102zM180.996 600.994l115 158h136l-149 -158h-102z" />
    <glyph glyph-name="Uogonek" unicode="&#x172;" horiz-adv-x="881" 
d="M643 -228c-68 0 -121.999 11.166 -161.999 33.499s-60 52.833 -60 91.5c0 26.667 8.66699 48.334 26 65.001s40.666 30.167 69.999 40.5s62.333 18.833 99 25.5v-19c-27.333 -10.667 -49.833 -23.167 -67.5 -37.5s-26.5 -32.5 -26.5 -54.5c0 -16 5 -29.667 15 -41
s24.167 -20 42.5 -26s39.5 -9 63.5 -9v-69zM671.001 285.999l0.00292969 361h133v-375c0 -42.667 -6.16699 -80 -18.5 -112s-29.833 -59 -52.5 -81s-49.167 -39.833 -79.5 -53.5s-63.333 -23.5 -99 -29.5s-73.167 -9 -112.5 -9c-40.667 0 -79.334 3 -116.001 9
s-70.167 15.833 -100.5 29.5s-56.5 31.5 -78.5 53.5s-39.167 49 -51.5 81s-18.5 69.333 -18.5 112v375h133v-361c0 -50.667 10 -89.167 30 -115.5s47.5 -44.333 82.5 -54s74.833 -14.5 119.5 -14.5c43.333 0 82.166 4.83301 116.499 14.5s61.666 27.667 81.999 54
s30.5 64.833 30.5 115.5z" />
    <glyph glyph-name="uogonek" unicode="&#x173;" horiz-adv-x="693" 
d="M616 -223c-68 0 -121.999 11.1689 -161.999 33.502s-60 52.833 -60 91.5c0 26.667 8.66699 48.167 26 64.5s40.666 28.833 69.999 37.5s62.333 14.667 99 18v-22c-27.333 -4.66699 -49.833 -13.334 -67.5 -26.001s-26.5 -30.334 -26.5 -53.001c0 -16 5 -29.5 15 -40.5
s24.167 -19.5 42.5 -25.5s39.5 -9 63.5 -9v-69zM635.001 0.00195312h-130v497h130v-497zM512.001 239.002l0.996094 -34.0059c-1.33301 -9.33301 -4.66602 -22.833 -9.99902 -40.5s-13.5 -36.5 -24.5 -56.5s-25.167 -39.167 -42.5 -57.5s-38.666 -33.333 -63.999 -45
s-55.333 -17.5 -90 -17.5c-27.333 0 -54.166 3.33301 -80.499 10s-50.166 17.834 -71.499 33.501s-38.333 36.834 -51 63.501s-19 60.334 -19 101.001v301h130v-279c0 -32 5.16699 -57.167 15.5 -75.5s25.5 -31.166 45.5 -38.499s43.667 -11 71 -11c36 0 67 7.83301 93 23.5
s47.167 34.834 63.5 57.501s27.5 44.334 33.5 65.001z" />
    <glyph glyph-name="Wcircumflex" unicode="&#x174;" horiz-adv-x="1300" 
d="M293 0l-273 647h147l231 -573l-43 -1l220 574h153l220 -574l-43 1l231 573h144l-270 -647h-163l-216 561h42l-217 -561h-163zM722 899l162 -158h-141l-130 132l82 -1l-131 -131h-141l163 158h136z" />
    <glyph glyph-name="wcircumflex" unicode="&#x175;" horiz-adv-x="988" 
d="M708 90l-41 1l162 406h143l-219 -497h-122l-160 401h44l-165 -401h-122l-213 497h143l156 -407h-41l146 407h149zM559 759l162 -158h-141l-130 132l82 -1l-131 -131h-141l163 158h136z" />
    <glyph glyph-name="Ycircumflex" unicode="&#x176;" horiz-adv-x="740" 
d="M721 647l-284 -443v-204h-134v204l-284 443h154l239 -387h-80l235 387h154zM438 883l162 -158h-141l-130 132l82 -1l-131 -131h-141l163 158h136z" />
    <glyph glyph-name="ycircumflex" unicode="&#x177;" horiz-adv-x="639" 
d="M15 497h138l215 -477l-112 -20zM623 497l-344 -697h-135l147 274l193 423h139zM388 759l162 -158h-141l-130 132l82 -1l-131 -131h-141l163 158h136z" />
    <glyph glyph-name="Ydieresis" unicode="&#x178;" horiz-adv-x="740" 
d="M721 647l-284 -443v-204h-134v204l-284 443h154l239 -387h-80l235 387h154zM337 840v-114h-151v114h151zM554 840v-114h-151v114h151z" />
    <glyph glyph-name="Zacute" unicode="&#x179;" horiz-adv-x="821" 
d="M63 647h695v-111l-577 -462l-12 37h589v-111h-695v111l577 462l12 -37h-589v111zM341 741l136 158h172l-184 -158h-124z" />
    <glyph glyph-name="zacute" unicode="&#x17a;" horiz-adv-x="622" 
d="M559 398l-395 -338l-14 38h416v-98h-509v98l395 338l14 -38h-409v99h502v-99zM239 601l136 158h172l-184 -158h-124z" />
    <glyph glyph-name="Zdotaccent" unicode="&#x17b;" horiz-adv-x="821" 
d="M63 647h695v-111l-577 -462l-12 37h589v-111h-695v111l577 462l12 -37h-589v111zM487 857v-114h-151v114h151z" />
    <glyph glyph-name="zdotaccent" unicode="&#x17c;" horiz-adv-x="622" 
d="M559 398l-395 -338l-14 38h416v-98h-509v98l395 338l14 -38h-409v99h502v-99zM385 717v-114h-151v114h151z" />
    <glyph glyph-name="Zcaron" unicode="&#x17d;" horiz-adv-x="821" 
d="M63 647h695v-111l-577 -462l-12 37h589v-111h-695v111l577 462l12 -37h-589v111zM455 769h-82l127 130h141l-159 -158h-136l-159 158h141z" />
    <glyph glyph-name="zcaron" unicode="&#x17e;" horiz-adv-x="622" 
d="M559 398l-395 -338l-14 38h416v-98h-509v98l395 338l14 -38h-409v99h502v-99zM353 629h-82l127 130h141l-159 -158h-136l-159 158h141z" />
    <glyph glyph-name="florin" unicode="&#x192;" horiz-adv-x="905" 
d="M641 660c49.333 0 90.834 -8.66602 124.501 -25.999s59.167 -41 76.5 -71s26 -64.667 26 -104h-124c-0.666992 26.667 -9.66699 48.334 -27 65.001s-42.666 25 -75.999 25c-17.333 0 -33.5 -2.66699 -48.5 -8s-28.167 -14.5 -39.5 -27.5s-20.166 -31 -26.499 -54
s-9.5 -52.5 -9.5 -88.5v-103c0 -65.333 -10.5 -118.5 -31.5 -159.5s-49.833 -71 -86.5 -90s-78.667 -28.5 -126 -28.5c-46.667 0 -87.834 8.83301 -123.501 26.5s-63.334 41.5 -83.001 71.5s-29.5 63.333 -29.5 100h124c0.666992 -26.667 11.5 -47.834 32.5 -63.501
s47.5 -23.5 79.5 -23.5c22 0 41.667 4.66699 59 14s30.833 26.166 40.5 50.499s14.5 58.5 14.5 102.5v103c0 70.667 11.167 127 33.5 169s52.666 72.5 90.999 91.5s81.5 28.5 129.5 28.5zM251.001 364.001h395v-69h-395v69z" />
    <glyph glyph-name="uni0218" unicode="&#x218;" horiz-adv-x="694" 
d="M34 218l135.003 0.00195312c2.66699 -22.667 13.167 -43.167 31.5 -61.5s42.5 -32.666 72.5 -42.999s63.667 -15.5 101 -15.5c34 0 62 3.66699 84 11s38.333 17.666 49 30.999s16 29.333 16 48c0 18 -6.66699 31.833 -20 41.5s-34.333 17.667 -63 24
s-66.334 12.833 -113.001 19.5c-36.667 5.33301 -71.334 12.833 -104.001 22.5s-61.5 22.167 -86.5 37.5s-44.667 34.166 -59 56.499s-21.5 48.833 -21.5 79.5c0 38 10.833 71.333 32.5 100s53.834 51 96.501 67s95 24 157 24c93.333 0 165.166 -19.833 215.499 -59.5
s74.833 -94.167 73.5 -163.5h-130c-2.66699 39.333 -19.167 67.666 -49.5 84.999s-68.5 26 -114.5 26c-42.667 0 -77.834 -6.33301 -105.501 -19s-41.5 -34.334 -41.5 -65.001c0 -12 3.33301 -22.5 10 -31.5s18 -16.833 34 -23.5s37.667 -13 65 -19s61.333 -12 102 -18
c38 -5.33301 72.5 -12.5 103.5 -21.5s57.667 -20.667 80 -35s39.5 -32.5 51.5 -54.5s18 -49 18 -81c0 -39.333 -10.167 -73.5 -30.5 -102.5s-51.666 -51.5 -93.999 -67.5s-97.166 -24 -164.499 -24c-48 0 -90.333 5.16699 -127 15.5s-68.334 24.166 -95.001 41.499
s-48.334 36.333 -65.001 57s-28.5 41.334 -35.5 62.001s-9.83301 39.334 -8.5 56.001zM289.003 -253.998l-12 34c14 6.66699 26 14.5 36 23.5s15.333 18.167 16 27.5l-62 11v92h153v-52c0 -36 -11.167 -65.5 -33.5 -88.5s-54.833 -38.833 -97.5 -47.5v0z" />
    <glyph glyph-name="uni0219" unicode="&#x219;" horiz-adv-x="564" 
d="M40 165l120.001 -0.00195312c7.33301 -22.667 22.5 -41.167 45.5 -55.5s53.167 -21.5 90.5 -21.5c25.333 0 45 2.33301 59 7s23.667 11.5 29 20.5s8 19.167 8 30.5c0 14 -4.33301 24.833 -13 32.5s-22 13.834 -40 18.501s-41 9 -69 13c-28 4.66699 -55 10.334 -81 17.001
s-49 15.5 -69 26.5s-35.833 25 -47.5 42s-17.5 37.833 -17.5 62.5c0 24 5.83301 45.333 17.5 64s28 34.334 49 47.001s45.667 22.334 74 29.001s58.833 10 91.5 10c49.333 0 90.333 -7.16699 123 -21.5s57.167 -34.333 73.5 -60s24.5 -55.167 24.5 -88.5h-115
c-5.33301 24.667 -16 42.5 -32 53.5s-40.667 16.5 -74 16.5c-32.667 0 -57.334 -5 -74.001 -15s-25 -23.667 -25 -41c0 -14 5.16699 -24.833 15.5 -32.5s25.666 -13.834 45.999 -18.501s45.833 -9.66699 76.5 -15c26 -5.33301 50.833 -11.333 74.5 -18
s44.834 -15.167 63.501 -25.5s33.5 -24 44.5 -41s16.5 -38.5 16.5 -64.5c0 -32 -9.16699 -59 -27.5 -81s-44.5 -38.833 -78.5 -50.5s-74.667 -17.5 -122 -17.5c-42 0 -78.167 4.5 -108.5 13.5s-55.5 20.667 -75.5 35s-35.5 29.666 -46.5 45.999s-18.5 31.833 -22.5 46.5
s-5.33301 26.667 -4 36zM249.001 -259.002l-12 34c14 6.66699 26 14.5 36 23.5s15.333 18.167 16 27.5l-62 11v92h153v-52c0 -36 -11.167 -65.5 -33.5 -88.5s-54.833 -38.833 -97.5 -47.5v0z" />
    <glyph glyph-name="uni021A" unicode="&#x21a;" horiz-adv-x="722" 
d="M20 647h682v-111h-682v111zM295 550h133v-550h-133v550zM306 -249l-12 34c14 6.66699 26 14.5 36 23.5s15.333 18.167 16 27.5l-62 11v92h153v-52c0 -36 -11.167 -65.5 -33.5 -88.5s-54.833 -38.833 -97.5 -47.5v0z" />
    <glyph glyph-name="uni021B" unicode="&#x21b;" horiz-adv-x="434" 
d="M25 497h386v-101h-386v101zM153 633h130v-633h-130v633zM163 -249l-12 34c14 6.66699 26 14.5 36 23.5s15.333 18.167 16 27.5l-62 11v92h153v-52c0 -36 -11.167 -65.5 -33.5 -88.5s-54.833 -38.833 -97.5 -47.5v0z" />
    <glyph glyph-name="uni022E" unicode="&#x22e;" horiz-adv-x="924" 
d="M462 -13c-86 0 -159.5 13.5 -220.5 40.5s-107.667 65.5 -140 115.5s-48.5 110 -48.5 180c0 70.667 16.167 131 48.5 181s79 88.5 140 115.5s134.5 40.5 220.5 40.5c86.667 0 160.334 -13.5 221.001 -40.5s107.167 -65.5 139.5 -115.5s48.5 -110.333 48.5 -181
c0 -70 -16.167 -130 -48.5 -180s-78.833 -88.5 -139.5 -115.5s-134.334 -40.5 -221.001 -40.5zM462 102c53.333 0 100.166 8 140.499 24s72 40.333 95 73s34.5 74 34.5 124s-11.5 91.333 -34.5 124s-54.667 57.167 -95 73.5s-87.166 24.5 -140.499 24.5
c-52.667 0 -99.667 -8.16699 -141 -24.5s-73.666 -40.833 -96.999 -73.5s-35 -74 -35 -124s11.667 -91.333 35 -124s55.666 -57 96.999 -73s88.333 -24 141 -24zM538 845v-114h-151v114h151z" />
    <glyph glyph-name="circumflex" unicode="&#x2c6;" horiz-adv-x="668" 
d="M402 759l162 -158h-141l-130 132l82 -1l-131 -131h-141l163 158h136z" />
    <glyph glyph-name="caron" unicode="&#x2c7;" horiz-adv-x="662" 
d="M375 629h-82l127 130h141l-159 -158h-136l-159 158h141z" />
    <glyph glyph-name="breve" unicode="&#x2d8;" horiz-adv-x="639" 
d="M529 730c-4 -28.667 -13.9971 -54.5 -29.9971 -77.5s-38.833 -41 -68.5 -54s-66.834 -19.5 -111.501 -19.5s-81.667 6.5 -111 19.5s-52 31 -68 54s-26.333 48.833 -31 77.5h95c5.33301 -22.667 17.166 -40.167 35.499 -52.5s44.833 -18.5 79.5 -18.5
c35.333 0 62.166 6.16699 80.499 18.5s29.833 29.833 34.5 52.5h95z" />
    <glyph glyph-name="dotaccent" unicode="&#x2d9;" horiz-adv-x="304" 
d="M226 717v-114h-151v114h151z" />
    <glyph glyph-name="ring" unicode="&#x2da;" horiz-adv-x="490" 
d="M245 577c-43.333 0 -77.833 10.167 -103.5 30.5s-38.5 47.5 -38.5 81.5c0 33.333 12.833 60.166 38.5 80.499s60.167 30.5 103.5 30.5s77.666 -10.167 102.999 -30.5s38 -47.166 38 -80.499c0 -34 -12.667 -61.167 -38 -81.5s-59.666 -30.5 -102.999 -30.5zM245 635
c23.333 0 40.166 4.5 50.499 13.5s15.5 22.5 15.5 40.5c0 17.333 -5.16699 30.5 -15.5 39.5s-27.166 13.5 -50.499 13.5c-24 0 -41.167 -4.5 -51.5 -13.5s-15.5 -22.167 -15.5 -39.5c0 -18 5.16699 -31.5 15.5 -40.5s27.5 -13.5 51.5 -13.5z" />
    <glyph glyph-name="ogonek" unicode="&#x2db;" horiz-adv-x="422" 
d="M322 -223c-68 0 -121.999 11.1689 -161.999 33.502s-60 52.833 -60 91.5c0 26.667 8.66699 48.167 26 64.5s40.666 28.833 69.999 37.5s62.333 14.667 99 18v-22c-27.333 -4.66699 -49.833 -13.334 -67.5 -26.001s-26.5 -30.334 -26.5 -53.001c0 -16 5 -29.5 15 -40.5
s24.167 -19.5 42.5 -25.5s39.5 -9 63.5 -9v-69z" />
    <glyph glyph-name="tilde" unicode="&#x2dc;" horiz-adv-x="673" 
d="M423 600c-20 0 -37.6729 3 -53.0059 9s-29.666 13.167 -42.999 21.5s-26.666 15.5 -39.999 21.5s-28 9 -44 9c-14 0 -25.167 -3 -33.5 -9s-14.833 -13.667 -19.5 -23s-9 -18.666 -13 -27.999h-92c5.33301 24.667 14.166 47.5 26.499 68.5s28.5 38 48.5 51
s43.667 19.5 71 19.5c20.667 0 38.834 -3 54.501 -9s30.334 -13.167 44.001 -21.5s26.834 -15.5 39.501 -21.5s26.334 -9 41.001 -9s26.167 3.16699 34.5 9.5s15 14.166 20 23.499s9.16699 18.333 12.5 27h93c-5.33301 -24 -14.166 -46.667 -26.499 -68
s-28.5 -38.5 -48.5 -51.5s-44 -19.5 -72 -19.5z" />
    <glyph glyph-name="hungarumlaut" unicode="&#x2dd;" horiz-adv-x="638" 
d="M316 601l121 158h136l-155 -158h-102zM100 601l115 158h136l-149 -158h-102z" />
    <glyph glyph-name="gravecomb" unicode="&#x300;" 
d="M284 601l-184 158h172l136 -158h-124z" />
    <glyph glyph-name="acutecomb" unicode="&#x301;" 
d="M95 601l136 158h172l-184 -158h-124z" />
    <glyph glyph-name="uni0302" unicode="&#x302;" 
d="M402 759l162 -158h-141l-130 132l82 -1l-131 -131h-141l163 158h136z" />
    <glyph glyph-name="tildecomb" unicode="&#x303;" 
d="M423 600c-20 0 -37.6729 3 -53.0059 9s-29.666 13.167 -42.999 21.5s-26.666 15.5 -39.999 21.5s-28 9 -44 9c-14 0 -25.167 -3 -33.5 -9s-14.833 -13.667 -19.5 -23s-9 -18.666 -13 -27.999h-92c5.33301 24.667 14.166 47.5 26.499 68.5s28.5 38 48.5 51
s43.667 19.5 71 19.5c20.667 0 38.834 -3 54.501 -9s30.334 -13.167 44.001 -21.5s26.834 -15.5 39.501 -21.5s26.334 -9 41.001 -9s26.167 3.16699 34.5 9.5s15 14.166 20 23.499s9.16699 18.333 12.5 27h93c-5.33301 -24 -14.166 -46.667 -26.499 -68
s-28.5 -38.5 -48.5 -51.5s-44 -19.5 -72 -19.5z" />
    <glyph glyph-name="uni0304" unicode="&#x304;" 
d="M100 609v81h307v-81h-307z" />
    <glyph glyph-name="uni0306" unicode="&#x306;" 
d="M529 730c-4 -28.667 -13.9971 -54.5 -29.9971 -77.5s-38.833 -41 -68.5 -54s-66.834 -19.5 -111.501 -19.5s-81.667 6.5 -111 19.5s-52 31 -68 54s-26.333 48.833 -31 77.5h95c5.33301 -22.667 17.166 -40.167 35.499 -52.5s44.833 -18.5 79.5 -18.5
c35.333 0 62.166 6.16699 80.499 18.5s29.833 29.833 34.5 52.5h95z" />
    <glyph glyph-name="uni0307" unicode="&#x307;" 
d="M226 717v-114h-151v114h151z" />
    <glyph glyph-name="uni0308" unicode="&#x308;" 
d="M231 716v-114h-151v114h151zM448 716v-114h-151v114h151z" />
    <glyph glyph-name="uni030A" unicode="&#x30a;" 
d="M245 577c-43.333 0 -77.833 10.167 -103.5 30.5s-38.5 47.5 -38.5 81.5c0 33.333 12.833 60.166 38.5 80.499s60.167 30.5 103.5 30.5s77.666 -10.167 102.999 -30.5s38 -47.166 38 -80.499c0 -34 -12.667 -61.167 -38 -81.5s-59.666 -30.5 -102.999 -30.5zM245 635
c23.333 0 40.166 4.5 50.499 13.5s15.5 22.5 15.5 40.5c0 17.333 -5.16699 30.5 -15.5 39.5s-27.166 13.5 -50.499 13.5c-24 0 -41.167 -4.5 -51.5 -13.5s-15.5 -22.167 -15.5 -39.5c0 -18 5.16699 -31.5 15.5 -40.5s27.5 -13.5 51.5 -13.5z" />
    <glyph glyph-name="uni030B" unicode="&#x30b;" 
d="M316 601l121 158h136l-155 -158h-102zM100 601l115 158h136l-149 -158h-102z" />
    <glyph glyph-name="uni030C" unicode="&#x30c;" 
d="M375 629h-82l127 130h141l-159 -158h-136l-159 158h141z" />
    <glyph glyph-name="uni0312" unicode="&#x312;" 
d="M363 759l12 -33.999c-10.667 -4.66699 -21.667 -11.834 -33 -21.501s-17.333 -19.5 -18 -29.5l61 -11v-92h-153v52c0 36 11.167 65.5 33.5 88.5s54.833 38.833 97.5 47.5z" />
    <glyph glyph-name="uni0326" unicode="&#x326;" 
d="M52 -249l-12 34c14 6.66699 26 14.5 36 23.5s15.333 18.167 16 27.5l-62 11v92h153v-52c0 -36 -11.167 -65.5 -33.5 -88.5s-54.833 -38.833 -97.5 -47.5v0z" />
    <glyph glyph-name="uni0327" unicode="&#x327;" 
d="M346 17l-0.000976562 -118.002l-43 69c16 -2.66699 31 -6.5 45 -11.5s26.5 -11.5 37.5 -19.5s19.5 -17.833 25.5 -29.5s9 -25.5 9 -41.5c0 -28 -13.167 -52.5 -39.5 -73.5s-65.833 -31.5 -118.5 -31.5c-33.333 0 -61.833 5.83301 -85.5 17.5s-41.5 27 -53.5 46
s-17.333 38.833 -16 59.5h94c1.33301 -3.33301 3.5 -8.33301 6.5 -15s8.5 -12.667 16.5 -18s19.667 -8 35 -8c18.667 0 31.834 4 39.501 12s11.5 17.333 11.5 28c0 4.66699 -1.5 10.334 -4.5 17.001s-9.5 13.334 -19.5 20.001s-26.333 12 -49 16v81h109z" />
    <glyph glyph-name="uni0328" unicode="&#x328;" 
d="M322 -223c-68 0 -121.999 11.1689 -161.999 33.502s-60 52.833 -60 91.5c0 26.667 8.66699 48.167 26 64.5s40.666 28.833 69.999 37.5s62.333 14.667 99 18v-22c-27.333 -4.66699 -49.833 -13.334 -67.5 -26.001s-26.5 -30.334 -26.5 -53.001c0 -16 5 -29.5 15 -40.5
s24.167 -19.5 42.5 -25.5s39.5 -9 63.5 -9v-69z" />
    <glyph glyph-name="uni0335" unicode="&#x335;" 
d="M75 426h359v-69h-359v69z" />
    <glyph glyph-name="uni0336" unicode="&#x336;" 
d="M75 424h400v-60h-400v60z" />
    <glyph glyph-name="uni0337" unicode="&#x337;" 
d="M483 564l37 -53l-410 -280l-35 53z" />
    <glyph glyph-name="uni0338" unicode="&#x338;" 
d="M471 720l54 -30l-398 -719l-52 32z" />
    <glyph glyph-name="uni0394" unicode="&#x394;" horiz-adv-x="747" 
d="M374 700l333 -700h-667zM374 468l-162 -366h323z" />
    <glyph glyph-name="uni03A9" unicode="&#x3a9;" horiz-adv-x="814" 
d="M46 0l0.00390625 101.999l194 -6v32c-34.667 9.33301 -65.5 21.333 -92.5 36s-50 32.167 -69 52.5s-33.5 43 -43.5 68s-15 52.167 -15 81.5c0 40.667 9 78.667 27 114s44 66.5 78 93.5s74.833 48.167 122.5 63.5s100.834 23 159.501 23
c59.333 0 112.666 -7.66699 159.999 -23s88 -36.5 122 -63.5s60 -58.167 78 -93.5s27 -73.333 27 -114c0 -34.667 -6.33301 -65.5 -19 -92.5s-29.667 -50.167 -51 -69.5s-44.833 -35.333 -70.5 -48s-51.5 -22 -77.5 -28v-32l192 6v-102h-296v152
c31.333 10.667 61.5 24.5 90.5 41.5s52.667 38.5 71 64.5s27.5 57.667 27.5 95s-9.33301 70.5 -28 99.5s-46.834 51.833 -84.501 68.5s-84.834 25 -141.501 25s-103.834 -8.33301 -141.501 -25s-65.834 -39.5 -84.501 -68.5s-28 -62.167 -28 -99.5
c0 -38.667 9.5 -71.167 28.5 -97.5s43.5 -47.666 73.5 -63.999s61 -29.5 93 -39.5v-152h-302z" />
    <glyph glyph-name="uni03BC" unicode="&#x3bc;" horiz-adv-x="759" 
d="M731 -7c-54 0 -97.666 6.99902 -130.999 20.999s-57.5 34.167 -72.5 60.5s-22.5 57.833 -22.5 94.5v328h130v-303c0 -25.333 3.5 -44.166 10.5 -56.499s17.667 -20.5 32 -24.5s32.166 -6 53.499 -6v-114zM512.001 238.999l1 -34.002
c-1.33301 -9.33301 -4 -22.833 -8 -40.5s-10.333 -36.5 -19 -56.5s-20.5 -39.167 -35.5 -57.5s-34 -33.333 -57 -45s-50.833 -17.5 -83.5 -17.5c-34.667 0 -63.5 7.83301 -86.5 23.5s-39.833 39.5 -50.5 71.5l17 21v-304h-130v697h130v-273c0 -34 6 -60.5 18 -79.5
s28.167 -32.333 48.5 -40s43.166 -11.5 68.499 -11.5c36 0 66.833 7.83301 92.5 23.5s46.334 34.834 62.001 57.501s26.5 44.334 32.5 65.001z" />
    <glyph glyph-name="pi" unicode="&#x3c0;" horiz-adv-x="783" 
d="M172 427h130v-427h-130v427zM733 497v-99h-683v99h683zM611 191c0 -28.667 3.83203 -50.1689 11.499 -64.502s20.334 -23.666 38.001 -27.999s41.5 -6.5 71.5 -6.5v-102c-58.667 0 -106.5 7.5 -143.5 22.5s-64.167 36.833 -81.5 65.5s-26 64.334 -26 107.001v242h130
v-236z" />
    <glyph glyph-name="Wgrave" unicode="&#x1e80;" horiz-adv-x="1300" 
d="M293 0l-273 647h147l231 -573l-43 -1l220 574h153l220 -574l-43 1l231 573h144l-270 -647h-163l-216 561h42l-217 -561h-163zM598 741l-184 158h172l136 -158h-124z" />
    <glyph glyph-name="wgrave" unicode="&#x1e81;" horiz-adv-x="988" 
d="M708 90l-41 1l162 406h143l-219 -497h-122l-160 401h44l-165 -401h-122l-213 497h143l156 -407h-41l146 407h149zM435 601l-184 158h172l136 -158h-124z" />
    <glyph glyph-name="Wacute" unicode="&#x1e82;" horiz-adv-x="1300" 
d="M293 0l-273 647h147l231 -573l-43 -1l220 574h153l220 -574l-43 1l231 573h144l-270 -647h-163l-216 561h42l-217 -561h-163zM584 741l136 158h172l-184 -158h-124z" />
    <glyph glyph-name="wacute" unicode="&#x1e83;" horiz-adv-x="988" 
d="M708 90l-41 1l162 406h143l-219 -497h-122l-160 401h44l-165 -401h-122l-213 497h143l156 -407h-41l146 407h149zM421 601l136 158h172l-184 -158h-124z" />
    <glyph glyph-name="Wdieresis" unicode="&#x1e84;" horiz-adv-x="1300" 
d="M293 0l-273 647h147l231 -573l-43 -1l220 574h153l220 -574l-43 1l231 573h144l-270 -647h-163l-216 561h42l-217 -561h-163zM435 677v-114h-151v114h151zM1018 677v-114h-151v114h151z" />
    <glyph glyph-name="wdieresis" unicode="&#x1e85;" horiz-adv-x="988" 
d="M708 90l-41 1l162 406h143l-219 -497h-122l-160 401h44l-165 -401h-122l-213 497h143l156 -407h-41l146 407h149zM458 716v-114h-151v114h151zM675 716v-114h-151v114h151z" />
    <glyph glyph-name="Ygrave" unicode="&#x1ef2;" horiz-adv-x="740" 
d="M721 647l-284 -443v-204h-134v204l-284 443h154l239 -387h-80l235 387h154zM314 725l-184 158h172l136 -158h-124z" />
    <glyph glyph-name="ygrave" unicode="&#x1ef3;" horiz-adv-x="639" 
d="M15 497h138l215 -477l-112 -20zM623 497l-344 -697h-135l147 274l193 423h139zM264 601l-184 158h172l136 -158h-124z" />
    <glyph glyph-name="endash" unicode="&#x2013;" horiz-adv-x="604" 
d="M80 321h444v-100h-444v100z" />
    <glyph glyph-name="emdash" unicode="&#x2014;" horiz-adv-x="844" 
d="M60 322h724v-100h-724v100z" />
    <glyph glyph-name="quoteleft" unicode="&#x2018;" horiz-adv-x="231" 
d="M163 702l19 -34c-10.667 -14.667 -20.5 -31 -29.5 -49s-14.167 -36.667 -15.5 -56l55 -10v-115h-153v82c0 47.333 11.167 85.5 33.5 114.5s52.5 51.5 90.5 67.5z" />
    <glyph glyph-name="quoteright" unicode="&#x2019;" horiz-adv-x="231" 
d="M67 389l-18.001 34c10 14.667 19.833 31.167 29.5 49.5s14.834 36.833 15.501 55.5l-55 11v114h153v-82c0 -46.667 -11.167 -84.5 -33.5 -113.5s-52.833 -51.833 -91.5 -68.5z" />
    <glyph glyph-name="quotesinglbase" unicode="&#x201a;" horiz-adv-x="231" 
d="M67 -149l-18.001 34c10 14.667 19.833 31 29.5 49s14.834 36.333 15.501 55l-55 11v115h153v-82c0 -47.333 -11.167 -85.5 -33.5 -114.5s-52.833 -51.5 -91.5 -67.5z" />
    <glyph glyph-name="quotedblleft" unicode="&#x201c;" horiz-adv-x="429" 
d="M163 702l19 -34c-10.667 -14.667 -20.5 -31 -29.5 -49s-14.167 -36.667 -15.5 -56l55 -10v-115h-153v82c0 47.333 11.167 85.5 33.5 114.5s52.5 51.5 90.5 67.5zM361 702l19 -34c-10.667 -14.667 -20.5 -31 -29.5 -49s-14.167 -36.667 -15.5 -56l55 -10v-115h-153v82
c0 47.333 11.167 85.5 33.5 114.5s52.5 51.5 90.5 67.5z" />
    <glyph glyph-name="quotedblright" unicode="&#x201d;" horiz-adv-x="429" 
d="M67 389l-18.001 34c10 14.667 19.833 31.167 29.5 49.5s14.834 36.833 15.501 55.5l-55 11v114h153v-82c0 -46.667 -11.167 -84.5 -33.5 -113.5s-52.833 -51.833 -91.5 -68.5zM264.999 389l-18.001 34c10 14.667 19.833 31.167 29.5 49.5s14.834 36.833 15.501 55.5
l-55 11v114h153v-82c0 -46.667 -11.167 -84.5 -33.5 -113.5s-52.833 -51.833 -91.5 -68.5z" />
    <glyph glyph-name="quotedblbase" unicode="&#x201e;" horiz-adv-x="429" 
d="M67 -150l-18.001 34c10 14.667 19.833 31.167 29.5 49.5s14.834 36.833 15.501 55.5l-55 11v114h153v-82c0 -46.667 -11.167 -84.5 -33.5 -113.5s-52.833 -51.833 -91.5 -68.5zM264.999 -150l-18.001 34c10 14.667 19.833 31.167 29.5 49.5s14.834 36.833 15.501 55.5
l-55 11v114h153v-82c0 -46.667 -11.167 -84.5 -33.5 -113.5s-52.833 -51.833 -91.5 -68.5z" />
    <glyph glyph-name="dagger" unicode="&#x2020;" horiz-adv-x="763" 
d="M96 500h571v-111h-571v111zM316 700h130v-900h-130v900z" />
    <glyph glyph-name="daggerdbl" unicode="&#x2021;" horiz-adv-x="732" 
d="M301 -200v900h130v-900h-130zM80 5v111h571v-111h-571zM80 389v111h571v-111h-571z" />
    <glyph glyph-name="bullet" unicode="&#x2022;" horiz-adv-x="456" 
d="M97 393h262v-262h-262v262z" />
    <glyph glyph-name="ellipsis" unicode="&#x2026;" horiz-adv-x="691" 
d="M631 114v-114h-151v114h151zM211 114v-114h-151v114h151zM421 114v-114h-151v114h151z" />
    <glyph glyph-name="perthousand" unicode="&#x2030;" horiz-adv-x="1053" 
d="M228 333c-38 0 -71.168 6.66699 -99.501 20s-50.166 32.333 -65.499 57s-23 54 -23 88c0 52.667 17 93.5 51 122.5s79.667 43.5 137 43.5s102.833 -14.5 136.5 -43.5s50.5 -69.833 50.5 -122.5c0 -34 -7.66699 -63.333 -23 -88s-37 -43.667 -65 -57s-61 -20 -99 -20z
M227.999 415c25.333 0 45.833 7.5 61.5 22.5s23.5 35.167 23.5 60.5c0 26 -7.83301 46.5 -23.5 61.5s-36.167 22.5 -61.5 22.5c-26 0 -46.833 -7.5 -62.5 -22.5s-23.5 -35.5 -23.5 -61.5c0 -25.333 7.83301 -45.5 23.5 -60.5s36.5 -22.5 62.5 -22.5zM825.999 248
c-38 0 -71.168 6.66699 -99.501 20s-50.166 32.333 -65.499 57s-23 54 -23 88c0 52 17 92.667 51 122s79.667 44 137 44s102.833 -14.667 136.5 -44s50.5 -70 50.5 -122c0 -34 -7.66699 -63.333 -23 -88s-37 -43.667 -65 -57s-61 -20 -99 -20zM825.998 330
c25.333 0 45.833 7.5 61.5 22.5s23.5 35.167 23.5 60.5c0 26 -7.83301 46.5 -23.5 61.5s-36.167 22.5 -61.5 22.5c-26 0 -46.833 -7.5 -62.5 -22.5s-23.5 -35.5 -23.5 -61.5c0 -25.333 7.83301 -45.5 23.5 -60.5s36.5 -22.5 62.5 -22.5zM631.998 -100
c-38 0 -71 6.66602 -99 19.999s-49.833 32.333 -65.5 57s-23.5 54.334 -23.5 89.001c0 52 17.167 92.5 51.5 121.5s79.833 43.5 136.5 43.5c57.333 0 102.833 -14.667 136.5 -44s50.5 -69.666 50.5 -120.999c0 -34.667 -7.66699 -64.334 -23 -89.001s-37 -43.667 -65 -57
s-61 -20 -99 -20zM631.998 -18.001c25.333 0 45.833 7.5 61.5 22.5s23.5 35.5 23.5 61.5c0 25.333 -7.83301 45.5 -23.5 60.5s-36.167 22.5 -61.5 22.5s-46 -7.5 -62 -22.5s-24 -35.167 -24 -60.5c0 -26 7.83301 -46.5 23.5 -61.5s36.5 -22.5 62.5 -22.5zM617.998 685.999
l54 -30l-382 -690l-52 32z" />
    <glyph glyph-name="guilsinglleft" unicode="&#x2039;" horiz-adv-x="423" 
d="M60 279l241 261l72 -69l-243 -256zM60 279l70 64l243 -257l-72 -68z" />
    <glyph glyph-name="guilsinglright" unicode="&#x203a;" horiz-adv-x="423" 
d="M363 279l-70 -64l-243 256l72 69zM363 279l-241 -261l-72 68l243 257z" />
    <glyph glyph-name="fraction" unicode="&#x2044;" horiz-adv-x="84" 
d="M210 700l54 -30l-382 -690l-52 32z" />
    <glyph glyph-name="uni2074" unicode="&#x2074;" horiz-adv-x="314" 
d="M254 536h40v-60h-40v-76h-63v76h-151v60l147 167h67v-167zM191 536v90l-78 -90h78z" />
    <glyph glyph-name="Euro" unicode="&#x20ac;" horiz-adv-x="964" 
d="M511 233h-491l60 56h485zM616 342h-596l60 59h590zM290 244c11.333 -31.333 29.333 -57.667 54 -79s54.5 -37.333 89.5 -48s73.5 -16 115.5 -16s78.5 5.16699 109.5 15.5s56.667 25.5 77 45.5s34.833 43.667 43.5 71h132c-5.33301 -52 -23.333 -96.333 -54 -133
s-72 -64.667 -124 -84s-113.333 -29 -184 -29c-52 0 -100.667 5.5 -146 16.5s-85.833 27.333 -121.5 49s-65.167 48.5 -88.5 80.5s-39 69 -47 111h144zM728 472.999c-20 23.333 -45.334 40.835 -76.001 52.502s-65 17.5 -103 17.5c-46.667 0 -88.5 -6.5 -125.5 -19.5
s-67.667 -31.833 -92 -56.5s-40.833 -55.334 -49.5 -92.001h-140c6 47.333 19.833 88.666 41.5 123.999s49.667 65 84 89s73.5 42 117.5 54s91.333 18 142 18c65.333 0 122.833 -7.83301 172.5 -23.5s89.834 -38.167 120.501 -67.5z" />
    <glyph glyph-name="trademark" unicode="&#x2122;" horiz-adv-x="1115" 
d="M323 397h-117v155h-129v95h379v-95h-133v-155zM782 470l138 177h118v-250h-116l-1 117l-79 -119h-118l-80 118v-116h-116v250h117zM1038 233h-950v94h950v-94z" />
    <glyph glyph-name="uni2150" unicode="&#x2150;" horiz-adv-x="979" 
d="M25 254v87h123v219h-119v87h233v-306h104v-87h-341zM665 700l54 -30l-382 -690l-52 32zM618 308v85h338v-86l-158 -307h-122l165 308h-223z" />
    <glyph glyph-name="uni2151" unicode="&#x2151;" horiz-adv-x="976" 
d="M25 254v87h123v219h-119v87h233v-306h104v-87h-341zM665 700l54 -30l-382 -690l-52 32zM755 403c40 0 74.499 -5.83008 103.499 -17.4971s51.167 -27.834 66.5 -48.501s23 -44 23 -70c0 -12.667 -1.83301 -25.667 -5.5 -39s-11.167 -28 -22.5 -44
c-4 -6.66699 -10.833 -17.167 -20.5 -31.5l-32.5 -47.5l-34.5 -50l-27.5 -39.5l-11 -15.5h-122l117 136c-8.66699 -4.66699 -17.5 -8.33398 -26.5 -11.001s-19.167 -4 -30.5 -4c-48.667 0 -87 12.667 -115 38s-42 58.666 -42 99.999c0 44 15.833 79 47.5 105
s75.834 39 132.501 39zM757.999 196.003c27.333 0 49 5.5 65 16.5s24 25.5 24 43.5c0 17.333 -8 31.5 -24 42.5s-37.667 16.5 -65 16.5s-47.833 -5.5 -61.5 -16.5s-20.5 -25.167 -20.5 -42.5c0 -18 7 -32.5 21 -43.5s34.333 -16.5 61 -16.5z" />
    <glyph glyph-name="uni2152" unicode="&#x2152;" horiz-adv-x="1491" 
d="M25 254v87h123v219h-119v87h233v-306h104v-87h-341zM667 700l54 -30l-382 -690l-52 32zM657 0v87h123v219h-119v87h233v-306h104v-87h-341zM1230 402c45.333 0 83.166 -8.66699 113.499 -26s53.333 -41.666 69 -72.999s23.5 -67.666 23.5 -108.999
s-7.83301 -77.5 -23.5 -108.5s-38.667 -55.167 -69 -72.5s-68.166 -26 -113.499 -26c-44.667 0 -82.167 8.66699 -112.5 26s-53.333 41.5 -69 72.5s-23.5 67.167 -23.5 108.5s7.83301 77.666 23.5 108.999s38.667 55.666 69 72.999s67.833 26 112.5 26zM1230 87
c31.333 0 55 9.66699 71 29s24 45.333 24 78c0 33.333 -8 59.333 -24 78s-39.667 28 -71 28c-30.667 0 -54.167 -9.33301 -70.5 -28s-24.5 -44.667 -24.5 -78c0 -32.667 8.16699 -58.667 24.5 -78s39.833 -29 70.5 -29z" />
    <glyph glyph-name="uni2153" unicode="&#x2153;" horiz-adv-x="966" 
d="M25 254v87h123v219h-119v87h233v-306h104v-87h-341zM665 700l54 -30l-382 -690l-52 32zM792 201c28 -2 52.333 -6.16797 73 -12.501s36.667 -15.833 48 -28.5s17 -29.667 17 -51c0 -36.667 -15.5 -66.167 -46.5 -88.5s-74.167 -33.5 -129.5 -33.5
c-38 0 -70.667 5.66699 -98 17s-48 27.166 -62 47.499s-20.333 43.5 -19 69.5h86c0.666992 -14.667 8.66699 -26.167 24 -34.5s38 -12.5 68 -12.5c26.667 0 45.834 4 57.501 12s17.5 20 17.5 36c0 16.667 -7.5 29 -22.5 37s-37.167 12 -66.5 12h-58v55h58
c30 0 51.333 4 64 12s19 19.333 19 34c0 12 -5.83301 21.667 -17.5 29s-29.834 11 -54.501 11c-26 0 -46.5 -3.83301 -61.5 -11.5s-22.833 -17.167 -23.5 -28.5h-86c-1.33301 26.667 5.33398 49.834 20.001 69.501s35.167 34.834 61.5 45.501s55.833 16 88.5 16
c55.333 0 98.166 -10.5 128.499 -31.5s45.5 -46.5 45.5 -76.5s-11.833 -52.5 -35.5 -67.5s-55.5 -23.833 -95.5 -26.5z" />
    <glyph glyph-name="uni2154" unicode="&#x2154;" horiz-adv-x="984" 
d="M384 254l-343 -0.00292969v85c33.333 14.667 62.833 28.834 88.5 42.501s47.5 26.834 65.5 39.501s32.5 24.667 43.5 36s19.167 22.333 24.5 33s8 20.667 8 30c0 30 -20 45 -60 45c-27.333 0 -47 -4.5 -59 -13.5s-19 -18.167 -21 -27.5h-97
c-1.33301 24 4.66699 46.167 18 66.5s33.5 36.5 60.5 48.5s60.167 18 99.5 18c33.333 0 62.666 -4.33301 87.999 -13s45 -21.667 59 -39s21 -38.666 21 -63.999s-6.66699 -48.166 -20 -68.499s-31.166 -38.833 -53.499 -55.5s-47.5 -32.334 -75.5 -47.001l-68 -31l221 3v-88
zM683 699.997l54 -30l-382 -690l-52 32zM810 200.997c28 -2 52.333 -6.16797 73 -12.501s36.667 -15.833 48 -28.5s17 -29.667 17 -51c0 -36.667 -15.5 -66.167 -46.5 -88.5s-74.167 -33.5 -129.5 -33.5c-38 0 -70.667 5.66699 -98 17s-48 27.166 -62 47.499
s-20.333 43.5 -19 69.5h86c0.666992 -14.667 8.66699 -26.167 24 -34.5s38 -12.5 68 -12.5c26.667 0 45.834 4 57.501 12s17.5 20 17.5 36c0 16.667 -7.5 29 -22.5 37s-37.167 12 -66.5 12h-58v55h58c30 0 51.333 4 64 12s19 19.333 19 34c0 12 -5.83301 21.667 -17.5 29
s-29.834 11 -54.501 11c-26 0 -46.5 -3.83301 -61.5 -11.5s-22.833 -17.167 -23.5 -28.5h-86c-1.33301 26.667 5.33398 49.834 20.001 69.501s35.167 34.834 61.5 45.501s55.833 16 88.5 16c55.333 0 98.166 -10.5 128.499 -31.5s45.5 -46.5 45.5 -76.5
s-11.833 -52.5 -35.5 -67.5s-55.5 -23.833 -95.5 -26.5z" />
    <glyph glyph-name="uni2155" unicode="&#x2155;" horiz-adv-x="1005" 
d="M25 254v87h123v219h-119v87h233v-306h104v-87h-341zM665 700l54 -30l-382 -690l-52 32zM813 252c28.667 0 53.834 -5.16602 75.501 -15.499s38.667 -25 51 -44s18.5 -42.167 18.5 -69.5c0 -42.667 -15.333 -76 -46 -100s-74.334 -36 -131.001 -36
c-35.333 0 -66.666 5.33301 -93.999 16s-48.833 26.167 -64.5 46.5s-24.167 44.166 -25.5 71.499h91c1.33301 -14.667 10.5 -26.5 27.5 -35.5s39.833 -13.5 68.5 -13.5c21.333 0 38.5 4.83301 51.5 14.5s19.5 23.5 19.5 41.5c0 18.667 -6.33301 32.5 -19 41.5
s-29 13.5 -49 13.5c-16 0 -30.667 -1 -44 -3s-24.333 -5.16699 -33 -9.5s-14.334 -9.83301 -17.001 -16.5l-80 21l14 219h293v-85h-214l-8 -98c13.333 14 29.333 24.333 48 31s41 10 67 10z" />
    <glyph glyph-name="uni2156" unicode="&#x2156;" horiz-adv-x="1023" 
d="M384 254l-343 -0.00292969v85c33.333 14.667 62.833 28.834 88.5 42.501s47.5 26.834 65.5 39.501s32.5 24.667 43.5 36s19.167 22.333 24.5 33s8 20.667 8 30c0 30 -20 45 -60 45c-27.333 0 -47 -4.5 -59 -13.5s-19 -18.167 -21 -27.5h-97
c-1.33301 24 4.66699 46.167 18 66.5s33.5 36.5 60.5 48.5s60.167 18 99.5 18c33.333 0 62.666 -4.33301 87.999 -13s45 -21.667 59 -39s21 -38.666 21 -63.999s-6.66699 -48.166 -20 -68.499s-31.166 -38.833 -53.499 -55.5s-47.5 -32.334 -75.5 -47.001l-68 -31l221 3v-88
zM683 699.997l54 -30l-382 -690l-52 32zM831 251.997c28.667 0 53.834 -5.16602 75.501 -15.499s38.667 -25 51 -44s18.5 -42.167 18.5 -69.5c0 -42.667 -15.333 -76 -46 -100s-74.334 -36 -131.001 -36c-35.333 0 -66.666 5.33301 -93.999 16s-48.833 26.167 -64.5 46.5
s-24.167 44.166 -25.5 71.499h91c1.33301 -14.667 10.5 -26.5 27.5 -35.5s39.833 -13.5 68.5 -13.5c21.333 0 38.5 4.83301 51.5 14.5s19.5 23.5 19.5 41.5c0 18.667 -6.33301 32.5 -19 41.5s-29 13.5 -49 13.5c-16 0 -30.667 -1 -44 -3s-24.333 -5.16699 -33 -9.5
s-14.334 -9.83301 -17.001 -16.5l-80 21l14 219h293v-85h-214l-8 -98c13.333 14 29.333 24.333 48 31s41 10 67 10z" />
    <glyph glyph-name="uni2157" unicode="&#x2157;" horiz-adv-x="990" 
d="M250 454c28.667 -2 53.5 -6 74.5 -12s37.333 -15.167 49 -27.5s17.5 -29.5 17.5 -51.5c0 -36.667 -15.5 -66.167 -46.5 -88.5s-74.167 -33.5 -129.5 -33.5c-38 0 -70.667 5.66699 -98 17s-48 27.166 -62 47.499s-20.333 43.5 -19 69.5h86
c0.666992 -14.667 8.66699 -26.334 24 -35.001s38 -13 68 -13c26.667 0 45.834 4.16699 57.501 12.5s17.5 20.5 17.5 36.5s-7.5 28.167 -22.5 36.5s-37.167 12.5 -66.5 12.5h-58v55h58c30 0 51.333 4 64 12s19 19.333 19 34c0 12 -5.83301 21.667 -17.5 29
s-29.834 11 -54.501 11c-26 0 -46.5 -3.83301 -61.5 -11.5s-22.833 -17.167 -23.5 -28.5h-86c-1.33301 26.667 5.33398 49.834 20.001 69.501s35.167 34.834 61.5 45.501s55.833 16 88.5 16c55.333 0 98.166 -10.5 128.499 -31.5s45.5 -46.5 45.5 -76.5s-12 -52.667 -36 -68
s-56.667 -24.333 -98 -27zM650 700l54 -30l-382 -690l-52 32zM798 252c28.667 0 53.834 -5.16602 75.501 -15.499s38.667 -25 51 -44s18.5 -42.167 18.5 -69.5c0 -42.667 -15.333 -76 -46 -100s-74.334 -36 -131.001 -36c-35.333 0 -66.666 5.33301 -93.999 16
s-48.833 26.167 -64.5 46.5s-24.167 44.166 -25.5 71.499h91c1.33301 -14.667 10.5 -26.5 27.5 -35.5s39.833 -13.5 68.5 -13.5c21.333 0 38.5 4.83301 51.5 14.5s19.5 23.5 19.5 41.5c0 18.667 -6.33301 32.5 -19 41.5s-29 13.5 -49 13.5c-16 0 -30.667 -1 -44 -3
s-24.333 -5.16699 -33 -9.5s-14.334 -9.83301 -17.001 -16.5l-80 21l14 219h293v-85h-214l-8 -98c13.333 14 29.333 24.333 48 31s41 10 67 10z" />
    <glyph glyph-name="uni2158" unicode="&#x2158;" horiz-adv-x="1029" 
d="M248 254v71h-201v83l213 239h101v-242h52v-80h-52v-71h-113zM158 401h94v126zM689 700l54 -30l-382 -690l-52 32zM837 252c28.667 0 53.834 -5.16602 75.501 -15.499s38.667 -25 51 -44s18.5 -42.167 18.5 -69.5c0 -42.667 -15.333 -76 -46 -100
s-74.334 -36 -131.001 -36c-35.333 0 -66.666 5.33301 -93.999 16s-48.833 26.167 -64.5 46.5s-24.167 44.166 -25.5 71.499h91c1.33301 -14.667 10.5 -26.5 27.5 -35.5s39.833 -13.5 68.5 -13.5c21.333 0 38.5 4.83301 51.5 14.5s19.5 23.5 19.5 41.5
c0 18.667 -6.33301 32.5 -19 41.5s-29 13.5 -49 13.5c-16 0 -30.667 -1 -44 -3s-24.333 -5.16699 -33 -9.5s-14.334 -9.83301 -17.001 -16.5l-80 21l14 219h293v-85h-214l-8 -98c13.333 14 29.333 24.333 48 31s41 10 67 10z" />
    <glyph glyph-name="uni2159" unicode="&#x2159;" horiz-adv-x="936" 
d="M25 254v87h123v219h-119v87h233v-306h104v-87h-341zM665 700l54 -30l-382 -690l-52 32zM750 269c45.333 0 81.666 -12.667 108.999 -38s41 -58.666 41 -99.999c0 -44 -15.333 -79 -46 -105s-73.667 -39 -129 -39c-41.333 0 -76.666 5.83301 -105.999 17.5
s-51.833 27.834 -67.5 48.501s-23.5 43.667 -23.5 69c0 13.333 1.83301 26.666 5.5 39.999s11.167 27.666 22.5 42.999c4 7.33301 10.667 18.333 20 33l32 48.5l34.5 50.5l27.5 40l11 16h122l-119 -141c9.33301 5.33301 19.333 9.5 30 12.5s22.667 4.5 36 4.5zM719 74
c28.667 0 49.832 5.66699 63.499 17s20.5 25.666 20.5 42.999c0 18 -7 32.5 -21 43.5s-35.333 16.5 -64 16.5c-27.333 0 -49.166 -5.5 -65.499 -16.5s-24.5 -25.5 -24.5 -43.5c0 -17.333 8.16699 -31.666 24.5 -42.999s38.5 -17 66.5 -17z" />
    <glyph glyph-name="uni215A" unicode="&#x215a;" horiz-adv-x="947" 
d="M274 506c28.667 0 53.834 -5.16699 75.501 -15.5s38.667 -25.166 51 -44.499s18.5 -42.666 18.5 -69.999c0 -42.667 -15.333 -75.834 -46 -99.501s-74.334 -35.5 -131.001 -35.5c-35.333 0 -66.666 5.33301 -93.999 16s-48.833 26.167 -64.5 46.5
s-24.167 44.166 -25.5 71.499h91c1.33301 -14.667 10.5 -26.5 27.5 -35.5s39.833 -13.5 68.5 -13.5c21.333 0 38.5 4.66699 51.5 14s19.5 23.333 19.5 42s-6.33301 32.5 -19 41.5s-29 13.5 -49 13.5c-16 0 -30.667 -1.16699 -44 -3.5s-24.333 -5.5 -33 -9.5
s-14.334 -9.33301 -17.001 -16l-80 20l14 219h293v-84h-214l-8 -98c13.333 14 29.5 24.333 48.5 31s41.167 10 66.5 10zM676 700l54 -30l-382 -690l-52 32zM761 269c45.333 0 81.666 -12.667 108.999 -38s41 -58.666 41 -99.999c0 -44 -15.333 -79 -46 -105
s-73.667 -39 -129 -39c-41.333 0 -76.666 5.83301 -105.999 17.5s-51.833 27.834 -67.5 48.501s-23.5 43.667 -23.5 69c0 13.333 1.83301 26.666 5.5 39.999s11.167 27.666 22.5 42.999c4 7.33301 10.667 18.333 20 33l32 48.5l34.5 50.5l27.5 40l11 16h122l-119 -141
c9.33301 5.33301 19.333 9.5 30 12.5s22.667 4.5 36 4.5zM730 74c28.667 0 49.832 5.66699 63.499 17s20.5 25.666 20.5 42.999c0 18 -7 32.5 -21 43.5s-35.333 16.5 -64 16.5c-27.333 0 -49.166 -5.5 -65.499 -16.5s-24.5 -25.5 -24.5 -43.5
c0 -17.333 8.16699 -31.666 24.5 -42.999s38.5 -17 66.5 -17z" />
    <glyph glyph-name="oneeighth" unicode="&#x215b;" horiz-adv-x="981" 
d="M25 254v87h123v219h-119v87h233v-306h104v-87h-341zM665 700l54 -30l-382 -690l-52 32zM842 202c18 -2.66699 34.3301 -8.00098 48.9971 -16.001s26.334 -18.5 35.001 -31.5s13 -28.5 13 -46.5c0 -24 -6.66699 -45 -20 -63s-33.333 -32.167 -60 -42.5
s-59.667 -15.5 -99 -15.5s-72.333 5.16699 -99 15.5s-46.667 24.5 -60 42.5s-20 39 -20 63c0 18 4.16699 33.5 12.5 46.5s19.5 23.5 33.5 31.5s29.333 13.667 46 17c-14.667 3.33301 -28.167 8.83301 -40.5 16.5s-22.166 17.334 -29.499 29.001s-11 25.5 -11 41.5
c0 34.667 14.333 62 43 82s70.334 30 125.001 30s96.167 -10 124.5 -30s42.5 -47.333 42.5 -82c0 -24 -8 -43.333 -24 -58s-36.333 -24.667 -61 -30zM759.997 315.999c-22 0 -38.167 -3.66699 -48.5 -11s-15.5 -17.333 -15.5 -30s5.33301 -23 16 -31s26.667 -12 48 -12
s37.666 4 48.999 12s17 18.333 17 31s-5.66699 22.667 -17 30s-27.666 11 -48.999 11zM759.997 71.999c25.333 0 44.5 4.33301 57.5 13s19.5 20.334 19.5 35.001c0 15.333 -6.5 27.333 -19.5 36s-32.167 13 -57.5 13c-26 0 -45.167 -4.33301 -57.5 -13
s-18.5 -20.667 -18.5 -36c0 -14.667 6.16699 -26.334 18.5 -35.001s31.5 -13 57.5 -13z" />
    <glyph glyph-name="threeeighths" unicode="&#x215c;" horiz-adv-x="966" 
d="M250 454c28.667 -2 53.5 -6 74.5 -12s37.333 -15.167 49 -27.5s17.5 -29.5 17.5 -51.5c0 -36.667 -15.5 -66.167 -46.5 -88.5s-74.167 -33.5 -129.5 -33.5c-38 0 -70.667 5.66699 -98 17s-48 27.166 -62 47.499s-20.333 43.5 -19 69.5h86
c0.666992 -14.667 8.66699 -26.334 24 -35.001s38 -13 68 -13c26.667 0 45.834 4.16699 57.501 12.5s17.5 20.5 17.5 36.5s-7.5 28.167 -22.5 36.5s-37.167 12.5 -66.5 12.5h-58v55h58c30 0 51.333 4 64 12s19 19.333 19 34c0 12 -5.83301 21.667 -17.5 29
s-29.834 11 -54.501 11c-26 0 -46.5 -3.83301 -61.5 -11.5s-22.833 -17.167 -23.5 -28.5h-86c-1.33301 26.667 5.33398 49.834 20.001 69.501s35.167 34.834 61.5 45.501s55.833 16 88.5 16c55.333 0 98.166 -10.5 128.499 -31.5s45.5 -46.5 45.5 -76.5s-12 -52.667 -36 -68
s-56.667 -24.333 -98 -27zM650 700l54 -30l-382 -690l-52 32zM827 202c18 -2.66699 34.3301 -8.00098 48.9971 -16.001s26.334 -18.5 35.001 -31.5s13 -28.5 13 -46.5c0 -24 -6.66699 -45 -20 -63s-33.333 -32.167 -60 -42.5s-59.667 -15.5 -99 -15.5
s-72.333 5.16699 -99 15.5s-46.667 24.5 -60 42.5s-20 39 -20 63c0 18 4.16699 33.5 12.5 46.5s19.5 23.5 33.5 31.5s29.333 13.667 46 17c-14.667 3.33301 -28.167 8.83301 -40.5 16.5s-22.166 17.334 -29.499 29.001s-11 25.5 -11 41.5c0 34.667 14.333 62 43 82
s70.334 30 125.001 30s96.167 -10 124.5 -30s42.5 -47.333 42.5 -82c0 -24 -8 -43.333 -24 -58s-36.333 -24.667 -61 -30zM744.997 315.999c-22 0 -38.167 -3.66699 -48.5 -11s-15.5 -17.333 -15.5 -30s5.33301 -23 16 -31s26.667 -12 48 -12s37.666 4 48.999 12
s17 18.333 17 31s-5.66699 22.667 -17 30s-27.666 11 -48.999 11zM744.997 71.999c25.333 0 44.5 4.33301 57.5 13s19.5 20.334 19.5 35.001c0 15.333 -6.5 27.333 -19.5 36s-32.167 13 -57.5 13c-26 0 -45.167 -4.33301 -57.5 -13s-18.5 -20.667 -18.5 -36
c0 -14.667 6.16699 -26.334 18.5 -35.001s31.5 -13 57.5 -13z" />
    <glyph glyph-name="fiveeighths" unicode="&#x215d;" horiz-adv-x="992" 
d="M274 506c28.667 0 53.834 -5.16699 75.501 -15.5s38.667 -25.166 51 -44.499s18.5 -42.666 18.5 -69.999c0 -42.667 -15.333 -75.834 -46 -99.501s-74.334 -35.5 -131.001 -35.5c-35.333 0 -66.666 5.33301 -93.999 16s-48.833 26.167 -64.5 46.5
s-24.167 44.166 -25.5 71.499h91c1.33301 -14.667 10.5 -26.5 27.5 -35.5s39.833 -13.5 68.5 -13.5c21.333 0 38.5 4.66699 51.5 14s19.5 23.333 19.5 42s-6.33301 32.5 -19 41.5s-29 13.5 -49 13.5c-16 0 -30.667 -1.16699 -44 -3.5s-24.333 -5.5 -33 -9.5
s-14.334 -9.33301 -17.001 -16l-80 20l14 219h293v-84h-214l-8 -98c13.333 14 29.5 24.333 48.5 31s41.167 10 66.5 10zM676 700l54 -30l-382 -690l-52 32zM853 202c18 -2.66699 34.3301 -8.00098 48.9971 -16.001s26.334 -18.5 35.001 -31.5s13 -28.5 13 -46.5
c0 -24 -6.66699 -45 -20 -63s-33.333 -32.167 -60 -42.5s-59.667 -15.5 -99 -15.5s-72.333 5.16699 -99 15.5s-46.667 24.5 -60 42.5s-20 39 -20 63c0 18 4.16699 33.5 12.5 46.5s19.5 23.5 33.5 31.5s29.333 13.667 46 17c-14.667 3.33301 -28.167 8.83301 -40.5 16.5
s-22.166 17.334 -29.499 29.001s-11 25.5 -11 41.5c0 34.667 14.333 62 43 82s70.334 30 125.001 30s96.167 -10 124.5 -30s42.5 -47.333 42.5 -82c0 -24 -8 -43.333 -24 -58s-36.333 -24.667 -61 -30zM770.997 315.999c-22 0 -38.167 -3.66699 -48.5 -11
s-15.5 -17.333 -15.5 -30s5.33301 -23 16 -31s26.667 -12 48 -12s37.666 4 48.999 12s17 18.333 17 31s-5.66699 22.667 -17 30s-27.666 11 -48.999 11zM770.997 71.999c25.333 0 44.5 4.33301 57.5 13s19.5 20.334 19.5 35.001c0 15.333 -6.5 27.333 -19.5 36
s-32.167 13 -57.5 13c-26 0 -45.167 -4.33301 -57.5 -13s-18.5 -20.667 -18.5 -36c0 -14.667 6.16699 -26.334 18.5 -35.001s31.5 -13 57.5 -13z" />
    <glyph glyph-name="seveneighths" unicode="&#x215e;" horiz-adv-x="880" 
d="M23 561v86h338v-87l-158 -306h-122l165 307h-223zM564 700l54 -30l-382 -690l-52 32zM741 202c18 -2.66699 34.3301 -8.00098 48.9971 -16.001s26.334 -18.5 35.001 -31.5s13 -28.5 13 -46.5c0 -24 -6.66699 -45 -20 -63s-33.333 -32.167 -60 -42.5
s-59.667 -15.5 -99 -15.5s-72.333 5.16699 -99 15.5s-46.667 24.5 -60 42.5s-20 39 -20 63c0 18 4.16699 33.5 12.5 46.5s19.5 23.5 33.5 31.5s29.333 13.667 46 17c-14.667 3.33301 -28.167 8.83301 -40.5 16.5s-22.166 17.334 -29.499 29.001s-11 25.5 -11 41.5
c0 34.667 14.333 62 43 82s70.334 30 125.001 30s96.167 -10 124.5 -30s42.5 -47.333 42.5 -82c0 -24 -8 -43.333 -24 -58s-36.333 -24.667 -61 -30zM658.997 315.999c-22 0 -38.167 -3.66699 -48.5 -11s-15.5 -17.333 -15.5 -30s5.33301 -23 16 -31s26.667 -12 48 -12
s37.666 4 48.999 12s17 18.333 17 31s-5.66699 22.667 -17 30s-27.666 11 -48.999 11zM658.997 71.999c25.333 0 44.5 4.33301 57.5 13s19.5 20.334 19.5 35.001c0 15.333 -6.5 27.333 -19.5 36s-32.167 13 -57.5 13c-26 0 -45.167 -4.33301 -57.5 -13
s-18.5 -20.667 -18.5 -36c0 -14.667 6.16699 -26.334 18.5 -35.001s31.5 -13 57.5 -13z" />
    <glyph glyph-name="uni2189" unicode="&#x2189;" horiz-adv-x="994" 
d="M241 655c45.333 0 83.166 -8.66699 113.499 -26s53.333 -41.5 69 -72.5s23.5 -67.167 23.5 -108.5s-7.83301 -77.5 -23.5 -108.5s-38.667 -55.167 -69 -72.5s-68.166 -26 -113.499 -26c-44.667 0 -82.167 8.66699 -112.5 26s-53.333 41.5 -69 72.5
s-23.5 67.167 -23.5 108.5s7.83301 77.5 23.5 108.5s38.667 55.167 69 72.5s67.833 26 112.5 26zM241 341c31.333 0 55 9.5 71 28.5s24 45.167 24 78.5c0 32.667 -8 58.5 -24 77.5s-39.667 28.5 -71 28.5c-30.667 0 -54.167 -9.5 -70.5 -28.5s-24.5 -44.833 -24.5 -77.5
s8.16699 -58.667 24.5 -78s39.833 -29 70.5 -29zM693 700l54 -30l-382 -690l-52 32zM820 201c28 -2 52.333 -6.16797 73 -12.501s36.667 -15.833 48 -28.5s17 -29.667 17 -51c0 -36.667 -15.5 -66.167 -46.5 -88.5s-74.167 -33.5 -129.5 -33.5c-38 0 -70.667 5.66699 -98 17
s-48 27.166 -62 47.499s-20.333 43.5 -19 69.5h86c0.666992 -14.667 8.66699 -26.167 24 -34.5s38 -12.5 68 -12.5c26.667 0 45.834 4 57.501 12s17.5 20 17.5 36c0 16.667 -7.5 29 -22.5 37s-37.167 12 -66.5 12h-58v55h58c30 0 51.333 4 64 12s19 19.333 19 34
c0 12 -5.83301 21.667 -17.5 29s-29.834 11 -54.501 11c-26 0 -46.5 -3.83301 -61.5 -11.5s-22.833 -17.167 -23.5 -28.5h-86c-1.33301 26.667 5.33398 49.834 20.001 69.501s35.167 34.834 61.5 45.501s55.833 16 88.5 16c55.333 0 98.166 -10.5 128.499 -31.5
s45.5 -46.5 45.5 -76.5s-11.833 -52.5 -35.5 -67.5s-55.5 -23.833 -95.5 -26.5z" />
    <glyph glyph-name="arrowleft" unicode="&#x2190;" horiz-adv-x="873" 
d="M301 18l-241 261l241 261l72 -69l-137 -145l76 2h521v-98h-521l-77 2l138 -146z" />
    <glyph glyph-name="arrowup" unicode="&#x2191;" horiz-adv-x="703" 
d="M303 -46v521l2 76l-145 -137l-69 72l261 241l261 -241l-68 -72l-146 138l2 -77v-521h-98z" />
    <glyph glyph-name="arrowright" unicode="&#x2192;" horiz-adv-x="873" 
d="M572 18l-72 68l138 146l-77 -2h-521v98h521l76 -2l-137 145l72 69l241 -261z" />
    <glyph glyph-name="arrowdown" unicode="&#x2193;" horiz-adv-x="703" 
d="M351 -66l-261 242l69 72l145 -137l-2 76v521h98v-521l-2 -77l145 138l70 -72z" />
    <glyph glyph-name="arrowboth" unicode="&#x2194;" horiz-adv-x="1074" 
d="M301 18l-241 261l241 261l72 -69l-137 -145l61 2h480l61 -2l-137 145l72 69l241 -261l-241 -261l-73 68l138 146l-61 -2h-480l-62 2l138 -146z" />
    <glyph glyph-name="arrowupdn" unicode="&#x2195;" horiz-adv-x="703" 
d="M351 -142l-261 241l69 72l145 -137l-2 61v448l2 61l-145 -137l-69 72l261 241l262 -241l-70 -72l-145 138l2 -62v-448l-2 -62l145 138l70 -72z" />
    <glyph glyph-name="uni2196" unicode="&#x2196;" horiz-adv-x="796" 
d="M626 55l-368 368l-53 56l-5 -201l-100 3l14 355l355 14l2 -99l-198 -6l54 -52l369 -369z" />
    <glyph glyph-name="uni2197" unicode="&#x2197;" horiz-adv-x="796" 
d="M170 52l-70 70l369 369l55 52l-200 6l2 99l356 -14l14 -355l-100 -3l-5 200l-53 -55z" />
    <glyph glyph-name="uni2198" unicode="&#x2198;" horiz-adv-x="796" 
d="M326 -5l-2 100l200 5l-55 53l-369 368l70 70l368 -369l53 -55l5 199l100 -1l-14 -356z" />
    <glyph glyph-name="uni2199" unicode="&#x2199;" horiz-adv-x="796" 
d="M469 -5l-355 14l-14 356l100 1l5 -199l53 55l368 369l70 -70l-369 -368l-55 -53l200 -5z" />
    <glyph glyph-name="partialdiff" unicode="&#x2202;" horiz-adv-x="702" 
d="M344 -12c-64 0 -119.004 10.834 -165.004 32.501s-81.333 52.167 -106 91.5s-37 84.666 -37 135.999c0 39.333 6.5 74.5 19.5 105.5s31.333 57.333 55 79s51.334 38.167 83.001 49.5s65.834 17 102.501 17c43.333 0 81 -6.5 113 -19.5s58.5 -31.333 79.5 -55
s36.5 -51.167 46.5 -82.5l-6 6c-6.66699 30 -18.167 58.333 -34.5 85s-39.166 51.334 -68.499 74.001s-65.666 43 -108.999 61s-95.333 33.333 -156 46l20 95c64 -12.667 120 -28.834 168 -48.501s89.333 -41.834 124 -66.501s63.334 -51 86.001 -79s40.667 -56.5 54 -85.5
s22.666 -57.667 27.999 -86s8 -55.5 8 -81.5c0 -32 -4.83301 -62 -14.5 -90s-23.5 -53.167 -41.5 -75.5s-39.5 -41.666 -64.5 -57.999s-53 -28.833 -84 -37.5s-64.5 -13 -100.5 -13zM349.996 89.001c34.667 0 65.832 6.33105 93.499 18.998s49.834 30.834 66.501 54.501
s25 51.5 25 83.5c0 24.667 -5 46.5 -15 65.5s-23.667 35.167 -41 48.5s-37.333 23.333 -60 30s-46.667 10 -72 10c-55.333 0 -98.833 -14.167 -130.5 -42.5s-47.5 -66.166 -47.5 -113.499c0 -48.667 16.5 -86.667 49.5 -114s76.833 -41 131.5 -41z" />
    <glyph glyph-name="emptyset" unicode="&#x2205;" horiz-adv-x="796" 
d="M224 -68l-61.0039 34.999l57 99c-50 22 -89.167 53.333 -117.5 94s-42.5 88.334 -42.5 143.001c0 40.667 8 77.667 24 111s38.833 61.833 68.5 85.5s65.334 42 107.001 55s87.834 19.5 138.501 19.5c19.333 0 38.166 -1 56.499 -3s35.833 -5 52.5 -9l64 111l60 -35
l-56 -97c50.667 -22 90.167 -53.5 118.5 -94.5s42.5 -88.833 42.5 -143.5c0 -40.667 -8 -77.667 -24 -111s-38.833 -61.833 -68.5 -85.5s-65.167 -42 -106.5 -55s-87.666 -19.5 -138.999 -19.5c-19.333 0 -38.166 1 -56.499 3s-36.166 5 -53.499 9zM273.996 158.999
l181.001 312.998c-8.66699 2 -17.834 3.5 -27.501 4.5s-19.5 1.5 -29.5 1.5c-41.333 0 -78 -7.66699 -110 -23s-57 -36.166 -75 -62.499s-27 -56.166 -27 -89.499c0 -30.667 7.83301 -58.5 23.5 -83.5s37.167 -45.167 64.5 -60.5zM397.997 127.997
c41.333 0 78 7.66895 110 23.002s57 36.166 75 62.499s27 56.166 27 89.499c0 31.333 -7.83301 59.5 -23.5 84.5s-37.167 45.167 -64.5 60.5l-182 -314c9.33301 -2 18.833 -3.5 28.5 -4.5s19.5 -1.5 29.5 -1.5z" />
    <glyph glyph-name="product" unicode="&#x220f;" horiz-adv-x="857" 
d="M192 567h130v-567h-130v567zM817 647v-112h-777v112h777zM665 0h-130v567h130v-567z" />
    <glyph glyph-name="summation" unicode="&#x2211;" horiz-adv-x="727" 
d="M84 647h551v-111h-462l-3 62l316 -284l-312 -262l-1 59h462v-111h-551v110l271 247l-26 -61l-245 237v114z" />
    <glyph glyph-name="minus" unicode="&#x2212;" horiz-adv-x="490" 
d="M50 319h390v-98h-390v98z" />
    <glyph glyph-name="uni2215" unicode="&#x2215;" horiz-adv-x="434" 
d="M380 700l54 -30l-382 -690l-52 32z" />
    <glyph glyph-name="radical" unicode="&#x221a;" horiz-adv-x="807" 
d="M794 647v-111h-189l-234 -536h-122l-234 497h143l151 -353l209 503h276z" />
    <glyph glyph-name="infinity" unicode="&#x221e;" horiz-adv-x="1104" 
d="M809 80c-31.333 0 -59.5029 4.16699 -84.5029 12.5s-47.5 19.5 -67.5 33.5s-38.167 30 -54.5 48s-32.166 36.667 -47.499 56c-20.667 -25.333 -43.167 -49.5 -67.5 -72.5s-52 -41.5 -83 -55.5s-67.5 -21 -109.5 -21c-47.333 0 -89.166 9.5 -125.499 28.5
s-64.833 44.667 -85.5 77s-31 68.833 -31 109.5c0 40 10.333 76 31 108s48.667 57.333 84 76s75.333 28 120 28c33.333 0 63 -4.16699 89 -12.5s49.667 -19.833 71 -34.5s40.666 -31.167 57.999 -49.5s34 -37.166 50 -56.499c15.333 19.333 31.333 38.166 48 56.499
s35.167 34.833 55.5 49.5s43.333 26.167 69 34.5s54.834 12.5 87.501 12.5c44.667 0 84.667 -9.33301 120 -28s63.333 -44 84 -76s31 -68.333 31 -109s-10.333 -77.167 -31 -109.5s-49.167 -58 -85.5 -77s-78.166 -28.5 -125.499 -28.5zM312.997 177
c30 0 56.498 5.16504 79.498 15.498s43.667 24.333 62 42s35.833 36.834 52.5 57.501c-17.333 22 -35.5 42 -54.5 60s-40.333 32.5 -64 43.5s-50.834 16.5 -81.501 16.5c-21.333 0 -41.666 -4.83301 -60.999 -14.5s-35 -23.167 -47 -40.5s-18 -37.666 -18 -60.999
c0 -18 3.83301 -34.333 11.5 -49s17.834 -27.167 30.501 -37.5s26.834 -18.333 42.501 -24s31.5 -8.5 47.5 -8.5zM790.995 175.998c16 0 31.832 2.83496 47.499 8.50195s29.834 13.667 42.501 24s22.834 22.833 30.501 37.5s11.5 31 11.5 49c0 24 -6 44.667 -18 62
s-27.5 30.833 -46.5 40.5s-39.5 14.5 -61.5 14.5c-28 0 -53.333 -5.5 -76 -16.5s-43.334 -25.5 -62.001 -43.5s-36.667 -38 -54 -60c16.667 -20.667 34 -39.834 52 -57.501s38 -31.834 60 -42.501s46.667 -16 74 -16z" />
    <glyph glyph-name="integral" unicode="&#x222b;" horiz-adv-x="504" 
d="M357 760h123.002v-114h-73c-24.667 0.666992 -45.834 -5.33301 -63.501 -18s-26.5 -36.667 -26.5 -72v-496c0 -40 -7.5 -72.5 -22.5 -97.5s-35.5 -43.333 -61.5 -55s-55.667 -17.5 -89 -17.5h-121v114h74c25.333 -0.666992 46.666 5.33301 63.999 18s26 36.667 26 72v496
c0 60 15.833 103.333 47.5 130s72.5 40 122.5 40z" />
    </font>
</defs>
</svg>
