<svg width="1304" height="234" viewBox="0 0 1304 234" fill="none" xmlns="http://www.w3.org/2000/svg">
<path d="M164.691 6.09961L204.334 1.68533C211.882 1.13392 216.163 2.13676 217.179 4.69386C218.415 7.03239 219.1 8.80406 219.231 10.0089C219.998 17.0371 217.931 26.1953 213.028 37.4835C208.346 48.5531 204.667 54.1857 201.988 54.3814C199.554 54.5592 198.249 53.845 198.073 52.2385L199.022 33.9525C198.364 27.9284 194.308 23.367 186.853 20.2683C179.619 16.951 171.742 15.6037 163.22 16.2263C154.699 16.8488 148.423 17.8133 144.394 19.1197C140.608 20.4083 137.552 22.7569 135.224 26.1655C125.25 40.4555 112.873 66.4582 98.0941 104.174L179.169 98.2504L179.567 98.525C179.721 99.9306 178.323 102.866 175.375 107.332C172.405 111.597 169.824 113.81 167.633 113.97L92.0361 119.493C73.5933 168.609 65.2927 201.6 67.1341 218.468C67.463 221.48 68.191 223.653 69.3184 224.988L22.2072 228.43C26.2817 205.058 37.1411 169.653 54.7854 122.215L34.6993 123.682C32.7515 123.824 31.7228 123.394 31.6132 122.39C31.394 120.381 33.411 117.502 37.6642 113.75C41.9175 109.998 45.5049 108.016 48.4265 107.802L60.8434 106.895C77.1318 65.0213 90.1305 36.8478 99.8393 22.3748C45.5169 32.8206 13.7217 46.1747 4.45366 62.4371C4.27596 63.0573 3.70017 63.403 2.7263 63.4742C1.75242 63.5453 1.21068 63.0789 1.10107 62.0748C0.969535 60.87 1.00358 60.0579 1.2032 59.6385C8.17509 38.0788 23.7041 24.0914 47.7902 17.6763C58.7705 14.8501 73.6342 12.7521 92.3813 11.3825L164.691 6.09961Z" fill="#FCF4DF"/>
<path d="M254.469 49.94L253.008 50.0467C248.139 50.4025 243.578 52.4562 239.324 56.2078C235.315 59.9417 232.533 63.687 230.98 67.4438C224.431 65.8983 220.871 62.515 220.301 57.294C219.731 52.0731 222.083 46.6387 227.356 40.9909C232.607 35.1422 237.911 32.0222 243.267 31.6309C248.624 31.2396 252.751 31.9501 255.648 33.7625C258.545 35.5749 260.169 38.0875 260.52 41.3004C260.849 44.3125 258.832 47.1924 254.469 49.94ZM209.142 93.3282L227.435 92.2953L231.087 92.0285C227.455 94.7228 222.933 101.631 217.521 112.754C212.353 123.859 208.482 132.239 205.909 137.892C203.335 143.545 200.484 151.141 197.353 160.68C194.466 170.202 193.34 177.874 193.976 183.698C194.612 189.521 197.243 192.264 201.869 191.926C205.034 191.695 209.23 189.668 214.457 185.845C219.905 181.803 224.248 177.742 227.483 173.66C230.697 169.377 234.166 164.063 237.891 157.719C241.859 151.356 245.184 145.851 247.867 141.202C250.793 136.535 252.5 134.184 252.987 134.148C254.448 134.042 255.386 135.896 255.803 139.711C256.198 143.326 255.364 146.929 253.302 150.52C245.653 163.629 238.515 174.675 231.888 183.66C225.483 192.427 217.872 200.27 209.057 207.188C200.241 214.107 191.938 217.851 184.147 218.42C170.512 219.416 162.84 212.083 161.13 196.42C158.478 172.123 165.644 144.477 182.629 113.482C189.835 100.811 198.673 94.093 209.142 93.3282Z" fill="#FCF4DF"/>
<path d="M341.061 31.1657C329.876 38.8647 318.392 57.3131 306.61 86.5109L343.495 83.8161L343.894 84.0906C344.003 85.0947 342.861 86.9998 340.468 89.8059C338.053 92.4112 335.872 93.785 333.924 93.9273L302.517 96.2219C287.579 136.985 280.725 162.989 281.952 174.234C282.785 181.865 286.123 185.467 291.967 185.04C300.488 184.417 309.813 177.664 319.94 164.779C322.333 161.973 325.381 157.298 329.084 150.753C338.662 135.075 343.694 127.218 344.181 127.182C345.641 127.076 346.547 128.629 346.898 131.842C347.487 139.49 339.006 155.088 321.453 178.635C315.668 186.344 308.49 193.649 299.918 200.55C291.346 207.451 283.286 211.177 275.738 211.729C261.861 212.743 254.045 205.217 252.291 189.153C250.822 175.699 253.03 159.952 258.913 141.913L258.881 141.612C255.022 148.978 251.575 154.492 248.539 158.155C245.746 161.8 244.107 163.64 243.62 163.676C242.646 163.747 242.027 162.578 241.764 160.168C241.479 157.558 242.613 153.325 245.164 147.472C247.959 141.6 251.663 133.942 256.276 124.496C261.133 115.033 264.981 106.453 267.822 98.7566L243.354 100.544C242.623 100.598 242.214 100.223 242.127 99.4195C242.017 98.4154 242.694 96.7467 244.157 94.4134C245.863 92.0622 247.204 90.851 248.178 90.7799L275.933 88.7521C289.67 52.7321 305.547 34.0639 323.564 32.7476C334.033 31.9828 339.865 31.4555 341.061 31.1657Z" fill="#FCF4DF"/>
<path d="M443.988 105.095C436.425 120.119 432.157 127.667 431.183 127.738C430.574 127.783 430.182 127.002 430.007 125.395C429.821 123.688 430.027 122.206 430.626 120.948C435.67 112.078 439.297 103.717 441.508 95.8638C441.852 94.523 442.307 93.6295 442.872 93.1835C443.425 92.637 444.433 92.3104 445.894 92.2037L447.354 92.0969L463.538 91.9772C464.104 90.4178 465.02 87.5678 466.286 83.4271C467.674 79.2776 468.739 76.1131 469.483 73.9334C470.227 71.7538 471.375 68.7856 472.928 65.0288C474.481 61.272 475.934 58.2816 477.287 56.0575C478.639 53.8334 480.451 51.3228 482.722 48.5255C484.983 45.6279 487.314 43.3829 489.717 41.7905C495.553 37.9232 502.062 35.7272 509.244 35.2025C521.905 34.2775 528.657 37.6805 529.501 45.4116C529.819 48.3232 529.069 51.0093 527.252 53.4698C525.556 55.9213 523.065 57.2672 519.778 57.5073C518.195 57.6229 516.757 57.3738 515.463 56.7599C514.291 56.1371 513.655 55.3739 513.557 54.4703C513.447 53.4663 514.19 51.8433 515.786 49.6015C517.371 47.2592 518.081 45.3351 517.917 43.829C517.741 42.2226 516.808 40.9751 515.115 40.0867C513.545 39.1894 511.725 38.8164 509.656 38.9676C506.004 39.2344 502.527 41.1076 499.226 44.5873C495.924 48.067 493.037 52.5285 490.564 57.9718C486.205 67.4998 482.459 77.5902 479.328 88.2429C479.261 88.7539 479.177 89.1142 479.078 89.3239C478.8 90.1538 478.573 90.8788 478.395 91.499C497.629 90.0938 508.508 88.5906 511.033 86.9893C509.801 90.3178 506.623 92.6752 501.498 94.0617C496.373 95.4482 488.039 96.6642 476.496 97.71L472.582 110.748C466.985 129.171 462.485 141.897 459.08 148.926C455.665 155.855 452.333 161.867 449.086 166.962C445.96 172.048 442.741 176.281 439.428 179.661C431.94 187.494 423.752 191.736 414.865 192.385C408.9 192.821 404.392 191.986 401.34 189.882C398.166 187.786 396.42 185.282 396.102 182.37C395.796 179.559 396.329 177.142 397.704 175.119C399.078 173.095 400.739 172.013 402.687 171.87C404.634 171.728 406.133 171.973 407.184 172.604C408.246 173.336 408.82 174.104 408.908 174.907C409.007 175.811 408.546 177.211 407.526 179.107C406.395 181.112 405.901 182.768 406.043 184.073C406.186 185.378 406.733 186.452 407.683 187.293C408.634 188.134 410.205 188.475 412.396 188.315C414.588 188.155 417.106 187.06 419.952 185.03C422.688 183.11 425.274 180.391 427.712 176.873C436.79 163.357 447.883 137.398 460.991 98.9945L455.879 99.368C449.67 99.8216 445.707 101.73 443.988 105.095Z" fill="#FCF4DF"/>
<path d="M536.776 65.0702L536.046 65.1235C533.611 65.3014 531.331 66.3283 529.204 68.2041C527.199 70.071 525.808 71.9437 525.032 73.8221C521.757 73.0493 519.977 71.3577 519.692 68.7472C519.407 66.1367 520.583 63.4195 523.22 60.5956C525.845 57.6713 528.497 56.1113 531.175 55.9156C533.854 55.7199 535.917 56.0752 537.366 56.9814C538.814 57.8876 539.626 59.1439 539.802 60.7504C539.966 62.2564 538.958 63.6964 536.776 65.0702ZM514.113 86.7642L523.259 86.2478L525.085 86.1144C523.269 87.4615 521.008 90.9159 518.302 96.4773C515.718 102.03 513.783 106.219 512.496 109.046C511.21 111.872 509.784 115.671 508.218 120.44C506.775 125.201 506.212 129.037 506.53 131.949C506.848 134.861 508.163 136.232 510.476 136.063C512.059 135.947 514.157 134.934 516.77 133.023C519.495 131.002 521.666 128.971 523.283 126.93C524.89 124.788 526.625 122.132 528.487 118.959C530.471 115.778 532.134 113.026 533.475 110.701C534.939 108.368 535.792 107.192 536.035 107.174C536.766 107.121 537.235 108.048 537.443 109.956C537.641 111.763 537.224 113.565 536.193 115.36C532.368 121.914 528.799 127.438 525.486 131.93C522.283 136.314 518.478 140.235 514.07 143.694C509.662 147.154 505.511 149.026 501.615 149.31C494.798 149.808 490.962 146.142 490.107 138.31C488.781 126.162 492.364 112.338 500.856 96.8411C504.459 90.5056 508.878 87.1467 514.113 86.7642Z" fill="#FCF4DF"/>
<path d="M615.77 109.547C611.945 116.101 608.376 121.624 605.063 126.117C601.86 130.5 598.055 134.421 593.647 137.881C589.239 141.34 585.088 143.212 581.192 143.497C574.01 144.021 570.062 141.021 569.35 134.494C568.637 127.968 571.772 114.532 578.754 94.1861C579.142 93.2469 579.281 92.2753 579.172 91.2713C578.942 89.1628 577.183 88.2286 573.896 88.4688C570.731 88.7 567.659 89.7847 564.681 91.7228C561.813 93.5515 559.27 96.1156 557.054 99.4148C554.826 102.614 552.853 105.895 551.134 109.259C549.404 112.523 547.851 116.28 546.475 120.53C545.22 124.771 544.198 128.337 543.409 131.228C542.731 134.01 542.02 137.048 541.275 140.341C540.641 143.524 540.28 145.271 540.191 145.581L522.478 146.875C522.248 144.767 526.284 132.277 534.585 109.406C537.838 98.744 539.24 91.3549 538.791 87.2384C538.681 86.2343 538.417 85.4947 537.997 85.0193L545.666 84.459C549.927 84.1478 552.704 84.2991 553.998 84.9129C555.292 85.5268 556.005 86.4362 556.136 87.641C556.268 88.8458 555.867 91.3546 554.933 95.1674C564.282 86.3881 574.13 81.6204 584.478 80.8645C591.417 80.3575 595.171 82.7145 595.741 87.9355C595.927 89.6423 595.809 91.3714 595.387 93.1227C594.965 94.874 593.816 98.3989 591.94 103.697C587.811 115.334 585.955 123.06 586.372 126.875C586.635 129.285 587.862 130.409 590.053 130.249C591.636 130.134 593.728 129.07 596.331 127.058C599.055 125.037 601.226 123.007 602.844 120.966C604.573 118.815 606.373 116.204 608.247 113.132C610.231 109.951 611.894 107.199 613.235 104.874C614.576 102.55 615.369 101.378 615.612 101.361C616.343 101.307 616.812 102.234 617.02 104.142C617.218 105.949 616.801 107.751 615.77 109.547Z" fill="#FCF4DF"/>
<path d="M659.604 49.8726C654.011 53.7221 648.269 62.9463 642.378 77.5452L660.821 76.1978L661.02 76.335C661.075 76.8371 660.504 77.7896 659.307 79.1927C658.1 80.4953 657.009 81.1822 656.035 81.2534L640.332 82.4007C632.863 102.782 629.435 115.784 630.049 121.407C630.466 125.222 632.135 127.023 635.057 126.81C639.317 126.498 643.98 123.122 649.043 116.679C650.24 115.276 651.764 112.939 653.615 109.666C658.404 101.827 660.92 97.8987 661.164 97.8809C661.894 97.8276 662.347 98.6041 662.522 100.211C662.817 104.035 658.576 111.834 649.8 123.607C646.907 127.462 643.318 131.114 639.032 134.565C634.746 138.015 630.716 139.878 626.942 140.154C620.004 140.661 616.096 136.898 615.219 128.866C614.484 122.139 615.588 114.266 618.53 105.246L618.514 105.096C616.584 108.779 614.861 111.536 613.343 113.367C611.946 115.19 611.127 116.11 610.883 116.128C610.396 116.163 610.087 115.579 609.955 114.374C609.813 113.069 610.379 110.952 611.655 108.026C613.052 105.09 614.905 101.261 617.211 96.5379C619.64 91.8063 621.564 87.5163 622.984 83.668L610.75 84.5618C610.385 84.5885 610.18 84.4011 610.137 83.9995C610.082 83.4974 610.42 82.6631 611.152 81.4964C612.005 80.3208 612.675 79.7152 613.162 79.6797L627.04 78.6658C633.908 60.6558 641.847 51.3217 650.855 50.6635C656.09 50.2811 659.006 50.0175 659.604 49.8726Z" fill="#FCF4DF"/>
<path d="M726.656 92.4889C727.386 92.4356 727.861 93.4129 728.08 95.421C728.289 97.3286 727.567 99.709 725.915 102.562C724.263 105.415 722.595 108.118 720.91 110.67C719.347 113.213 717.159 116.207 714.344 119.651C711.53 123.095 708.705 125.882 705.87 128.012C698.705 133.191 691.227 136.065 683.436 136.634C675.767 137.194 669.383 136.041 664.285 133.175C659.175 130.209 656.254 125.362 655.519 118.635C654.401 108.394 657.93 98.5726 666.107 89.1705C674.283 79.7684 684.458 74.6227 696.632 73.7333C702.11 73.3331 706.624 74.2178 710.173 76.3873C713.712 78.4564 715.663 81.1477 716.024 84.4609C716.638 90.0835 713.906 94.8373 707.826 98.7224C701.747 102.607 694.325 104.87 685.56 105.51C680.447 105.884 676.613 105.608 674.058 104.681C672.304 109.97 671.641 114.573 672.068 118.489C672.989 126.923 677.771 130.824 686.414 130.192C691.527 129.819 696.586 127.83 701.592 124.226C706.708 120.512 710.934 116.51 714.269 112.218C717.715 107.817 721.456 101.623 725.493 93.6366C725.903 92.8982 726.291 92.5156 726.656 92.4889ZM706.001 82.0053C705.683 79.0936 703.82 77.7623 700.412 78.0113C695.664 78.3582 690.632 81.1547 685.315 86.401C679.997 91.6472 677.503 95.7763 677.832 98.7884C678.051 100.796 680.474 101.632 685.1 101.294C689.726 100.956 694.331 98.7469 698.917 94.6673C703.624 90.5789 705.986 86.3582 706.001 82.0053Z" fill="#FCF4DF"/>
<path d="M795.776 96.092C788.016 109.309 780.692 118.649 773.803 124.111C766.915 129.574 757.566 132.736 745.758 133.599C738.941 134.097 733.104 133.461 728.248 131.69C723.381 129.819 720.717 126.775 720.257 122.559C719.994 120.149 720.605 117.878 722.09 115.745C723.575 113.613 725.778 112.44 728.7 112.226C731.743 112.004 733.79 112.765 734.839 114.51C732.734 116.587 731.819 118.88 732.093 121.39C732.641 126.41 736.324 128.671 743.141 128.173C747.158 127.88 750.502 126.472 753.171 123.949C755.962 121.417 757.21 118.796 756.914 116.085C756.607 113.274 755.608 110.867 753.917 108.866C752.226 106.864 750.258 105.136 748.013 103.68C745.768 102.225 743.524 100.77 741.279 99.3145C735.86 95.7634 732.877 91.4778 732.329 86.4577C731.77 81.3371 733.617 76.901 737.87 73.1494C742.234 69.2884 748.494 67.06 756.65 66.4641C761.763 66.0906 766.167 66.5279 769.862 67.776C773.556 69.0241 775.579 71.2547 775.93 74.4675C776.27 77.58 775.409 80.3754 773.348 82.8536C771.287 85.3319 768.248 86.7178 764.231 87.0112C760.336 87.2958 758.224 85.9321 757.895 82.92C757.818 82.2172 759.103 81.0607 761.749 79.4505C764.396 77.8403 765.637 76.2822 765.472 74.7761C765.308 73.2701 764.396 72.2235 762.737 71.6363C761.188 70.9398 759.014 70.6938 756.214 70.8984C753.414 71.1029 750.763 72.1063 748.26 73.9084C745.879 75.7016 744.831 77.9034 745.116 80.5139C745.401 83.1244 747.009 85.4864 749.939 87.6C752.869 89.7136 756.005 91.458 759.345 92.8332C762.686 94.2084 765.854 96.254 768.85 98.9701C771.835 101.586 773.503 104.5 773.854 107.713C774.193 110.825 773.587 113.703 772.035 116.347C770.605 118.981 768.755 121.141 766.484 122.825C773.039 119.917 779.624 113.363 786.241 103.164C786.884 102.308 787.981 100.558 789.533 97.9144C793.103 91.2777 795.132 87.9416 795.619 87.906C796.349 87.8527 796.818 88.7798 797.027 90.6875C797.224 92.4947 796.807 94.2963 795.776 96.092Z" fill="#FCF4DF"/>
<path d="M864.787 91.0502C857.027 104.268 849.702 113.607 842.814 119.07C835.925 124.532 826.577 127.694 814.768 128.557C807.951 129.055 802.115 128.419 797.259 126.648C792.391 124.778 789.728 121.734 789.267 117.517C789.004 115.107 789.615 112.836 791.1 110.703C792.585 108.571 794.789 107.398 797.71 107.184C800.754 106.962 802.8 107.723 803.85 109.468C801.745 111.545 800.83 113.838 801.104 116.348C801.652 121.368 805.334 123.63 812.151 123.131C816.169 122.838 819.512 121.43 822.182 118.907C824.973 116.376 826.22 113.754 825.924 111.043C825.618 108.232 824.619 105.826 822.928 103.824C821.237 101.822 819.269 100.094 817.024 98.6385C814.779 97.1832 812.534 95.728 810.289 94.2727C804.871 90.7216 801.887 86.436 801.339 81.4159C800.78 76.2953 802.627 71.8592 806.881 68.1076C811.245 64.2466 817.505 62.0182 825.661 61.4223C830.774 61.0488 835.177 61.4861 838.872 62.7342C842.567 63.9824 844.59 66.2129 844.94 69.4258C845.28 72.5382 844.42 75.3336 842.359 77.8118C840.298 80.2901 837.259 81.676 833.242 81.9695C829.346 82.2541 827.234 80.8903 826.905 77.8782C826.828 77.1754 828.113 76.0189 830.76 74.4087C833.406 72.7985 834.647 71.2404 834.483 69.7344C834.318 68.2283 833.407 67.1817 831.747 66.5945C830.199 65.898 828.025 65.652 825.225 65.8566C822.425 66.0611 819.773 67.0645 817.271 68.8666C814.89 70.6598 813.842 72.8616 814.127 75.4721C814.412 78.0826 816.019 80.4446 818.949 82.5582C821.88 84.6718 825.015 86.4162 828.356 87.7914C831.696 89.1666 834.864 91.2122 837.86 93.9283C840.845 96.5439 842.513 99.4581 842.864 102.671C843.204 105.784 842.598 108.662 841.046 111.305C839.616 113.94 837.765 116.099 835.495 117.783C842.049 114.875 848.635 108.322 855.252 98.1227C855.894 97.2661 856.992 95.5161 858.544 92.8726C862.114 86.2359 864.142 82.8998 864.629 82.8642C865.36 82.8109 865.829 83.738 866.037 85.6457C866.235 87.4529 865.818 89.2545 864.787 91.0502Z" fill="#FCF4DF"/>
<path d="M984.566 74.2536C985.297 74.2003 985.766 75.1274 985.974 77.0351C986.182 78.9427 985.405 81.3778 983.643 84.3403C982.002 87.2938 980.655 89.5681 979.602 91.1631C978.66 92.6488 976.964 95.1004 974.515 98.5178C972.066 101.935 969.884 104.422 967.968 105.979C966.051 107.536 963.615 109.384 960.658 111.523C955.653 115.127 948.828 117.245 940.185 117.876C931.664 118.499 925.264 117.195 920.984 113.966C916.816 110.627 914.419 106.096 913.795 100.373C912.644 89.831 916.096 79.8632 924.15 70.47C932.316 60.9676 942.546 55.7672 954.841 54.8689C960.319 54.4687 964.833 55.3534 968.383 57.5229C971.922 59.592 973.873 62.2833 974.234 65.5965C974.585 68.8094 973.796 71.7008 971.868 74.2705C969.94 76.8403 967.576 78.2274 964.776 78.432C959.298 78.8322 956.356 77.1749 955.951 73.46C955.819 72.2551 957.215 70.9893 960.138 69.6625C961.311 69.172 962.324 68.3389 963.178 67.1633C964.031 65.9878 964.359 64.4964 964.162 62.6891C963.877 60.0786 962.03 58.8979 958.621 59.1469C951.317 59.6805 944.551 64.5772 938.322 73.837C932.094 83.0968 929.429 91.8432 930.327 100.076C931.215 108.209 935.981 111.959 944.624 111.328C956.676 110.448 967.584 101.908 977.35 85.7108C979.335 82.5298 980.942 79.8316 982.172 77.6164C983.525 75.3924 984.323 74.2714 984.566 74.2536Z" fill="#FCF4DF"/>
<path d="M1050.31 68.8433C1051.04 68.7899 1051.51 69.7673 1051.73 71.7753C1051.94 73.683 1051.22 76.0634 1049.57 78.9166C1047.92 81.7698 1046.25 84.4723 1044.56 87.0243C1043 89.5674 1040.81 92.561 1038 96.0051C1035.18 99.4492 1032.36 102.236 1029.52 104.366C1022.36 109.545 1014.88 112.419 1007.09 112.988C999.421 113.549 993.037 112.396 987.939 109.53C982.829 106.563 979.907 101.717 979.173 94.9896C978.055 84.7485 981.584 74.9269 989.761 65.5249C997.937 56.1228 1008.11 50.9771 1020.29 50.0877C1025.76 49.6875 1030.28 50.5721 1033.83 52.7417C1037.37 54.8108 1039.32 57.502 1039.68 60.8153C1040.29 66.4379 1037.56 71.1917 1031.48 75.0767C1025.4 78.9618 1017.98 81.2245 1009.21 81.8649C1004.1 82.2384 1000.27 81.9619 997.712 81.0353C995.958 86.3248 995.295 90.9275 995.722 94.8432C996.643 103.277 1001.42 107.178 1010.07 106.547C1015.18 106.173 1020.24 104.184 1025.25 100.58C1030.36 96.8666 1034.59 92.864 1037.92 88.5721C1041.37 84.171 1045.11 77.9773 1049.15 69.9909C1049.56 69.2525 1049.94 68.87 1050.31 68.8433ZM1029.66 58.3597C1029.34 55.448 1027.47 54.1167 1024.07 54.3657C1019.32 54.7125 1014.29 57.5091 1008.97 62.7553C1003.65 68.0015 1001.16 72.1307 1001.49 75.1428C1001.71 77.1508 1004.13 77.9859 1008.75 77.6479C1013.38 77.31 1017.99 75.1012 1022.57 71.0217C1027.28 66.9332 1029.64 62.7126 1029.66 58.3597Z" fill="#FCF4DF"/>
<path d="M1129.87 71.9872C1126.05 78.5412 1122.48 84.0646 1119.16 88.5572C1115.96 92.9405 1112.16 96.8619 1107.75 100.321C1103.34 103.781 1099.19 105.653 1095.29 105.937C1088.11 106.462 1084.16 103.461 1083.45 96.9349C1082.74 90.4087 1085.87 76.9727 1092.86 56.6267C1093.24 55.6875 1093.38 54.7159 1093.27 53.7118C1093.04 51.6034 1091.28 50.6692 1088 50.9093C1084.83 51.1406 1081.76 52.2252 1078.78 54.1633C1075.91 55.9921 1073.37 58.5561 1071.15 61.8554C1068.93 65.0542 1066.95 68.3357 1065.24 71.6998C1063.51 74.9635 1061.95 78.7203 1060.58 82.9702C1059.32 87.2112 1058.3 90.7774 1057.51 93.6687C1056.83 96.4508 1056.12 99.4882 1055.38 102.781C1054.74 105.965 1054.38 107.712 1054.29 108.022L1036.58 109.316C1036.35 107.207 1040.39 94.7175 1048.69 71.8462C1051.94 61.1846 1053.34 53.7955 1052.89 49.6789C1052.78 48.6749 1052.52 47.9352 1052.1 47.4599L1059.77 46.8996C1064.03 46.5883 1066.81 46.7396 1068.1 47.3535C1069.39 47.9674 1070.11 48.8767 1070.24 50.0816C1070.37 51.2864 1069.97 53.7952 1069.03 57.6079C1078.38 48.8286 1088.23 44.061 1098.58 43.305C1105.52 42.7981 1109.27 45.1551 1109.84 50.376C1110.03 52.0829 1109.91 53.812 1109.49 55.5633C1109.07 57.3146 1107.92 60.8395 1106.04 66.1379C1101.91 77.7743 1100.06 85.5002 1100.47 89.3155C1100.74 91.7252 1101.96 92.85 1104.15 92.6899C1105.74 92.5743 1107.83 91.5106 1110.43 89.4988C1113.16 87.4781 1115.33 85.4472 1116.95 83.4061C1118.67 81.2558 1120.47 78.6447 1122.35 75.5729C1124.33 72.3919 1125.99 69.6391 1127.34 67.3146C1128.68 64.9901 1129.47 63.819 1129.71 63.8012C1130.44 63.7478 1130.91 64.675 1131.12 66.5826C1131.32 68.3899 1130.9 70.1914 1129.87 71.9872Z" fill="#FCF4DF"/>
<path d="M1173.7 12.3132C1168.11 16.1626 1162.37 25.3868 1156.48 39.9858L1174.92 38.6384L1175.12 38.7756C1175.18 39.2776 1174.61 40.2302 1173.41 41.6332C1172.2 42.9359 1171.11 43.6228 1170.14 43.694L1154.43 44.8412C1146.96 65.2228 1143.54 78.2249 1144.15 83.8474C1144.57 87.6627 1146.24 89.4637 1149.16 89.2502C1153.42 88.9389 1158.08 85.5622 1163.14 79.12C1164.34 77.717 1165.87 75.3791 1167.72 72.1066C1172.51 64.2676 1175.02 60.3393 1175.26 60.3215C1176 60.2681 1176.45 61.0447 1176.62 62.6511C1176.92 66.4753 1172.68 74.2742 1163.9 86.0478C1161.01 89.9025 1157.42 93.555 1153.13 97.0054C1148.85 100.456 1144.82 102.319 1141.04 102.595C1134.1 103.102 1130.2 99.339 1129.32 91.3067C1128.59 84.5798 1129.69 76.7064 1132.63 67.6868L1132.61 67.5362C1130.69 71.2193 1128.96 73.9765 1127.44 75.8079C1126.05 77.6303 1125.23 78.5504 1124.98 78.5682C1124.5 78.6038 1124.19 78.0192 1124.06 76.8143C1123.91 75.5091 1124.48 73.393 1125.76 70.4661C1127.15 67.5304 1129.01 63.7011 1131.31 58.9784C1133.74 54.2469 1135.67 49.9569 1137.09 46.1086L1124.85 47.0024C1124.49 47.0291 1124.28 46.8416 1124.24 46.44C1124.18 45.938 1124.52 45.1037 1125.25 43.937C1126.11 42.7614 1126.78 42.1558 1127.26 42.1202L1141.14 41.1064C1148.01 23.0963 1155.95 13.7622 1164.96 13.1041C1170.19 12.7217 1173.11 12.458 1173.7 12.3132Z" fill="#FCF4DF"/>
<path d="M1240.76 54.9295C1241.49 54.8761 1241.96 55.8535 1242.18 57.8616C1242.39 59.7692 1241.67 62.1496 1240.02 65.0028C1238.36 67.856 1236.7 70.5585 1235.01 73.1105C1233.45 75.6536 1231.26 78.6472 1228.45 82.0913C1225.63 85.5354 1222.81 88.3225 1219.97 90.4525C1212.81 95.6313 1205.33 98.5053 1197.54 99.0745C1189.87 99.6348 1183.48 98.482 1178.39 95.6159C1173.28 92.6495 1170.35 87.8028 1169.62 81.0758C1168.5 70.8347 1172.03 61.0131 1180.21 51.6111C1188.38 42.209 1198.56 37.0633 1210.73 36.1739C1216.21 35.7737 1220.72 36.6583 1224.27 38.8279C1227.81 40.897 1229.76 43.5882 1230.13 46.9015C1230.74 52.5241 1228.01 57.2779 1221.93 61.1629C1215.85 65.048 1208.43 67.3107 1199.66 67.9511C1194.55 68.3246 1190.71 68.0481 1188.16 67.1215C1186.41 72.4111 1185.74 77.0137 1186.17 80.9294C1187.09 89.3632 1191.87 93.2644 1200.52 92.633C1205.63 92.2594 1210.69 90.2705 1215.69 86.6663C1220.81 82.9528 1225.04 78.9502 1228.37 74.6583C1231.82 70.2572 1235.56 64.0635 1239.59 56.0771C1240 55.3387 1240.39 54.9562 1240.76 54.9295ZM1220.1 44.4459C1219.78 41.5342 1217.92 40.2029 1214.51 40.4519C1209.77 40.7987 1204.73 43.5953 1199.42 48.8415C1194.1 54.0878 1191.6 58.2169 1191.93 61.229C1192.15 63.2371 1194.58 64.0721 1199.2 63.7341C1203.83 63.3962 1208.43 61.1874 1213.02 57.1079C1217.73 53.0194 1220.09 48.7988 1220.1 44.4459Z" fill="#FCF4DF"/>
<path d="M1279.76 30.5234L1289.09 29.9937L1290.92 29.8603C1289.21 31.0981 1286.95 34.5524 1284.14 40.2232C1281.44 45.8851 1279.39 50.1839 1278 53.1197C1276.71 55.9462 1275.29 59.7945 1273.74 64.6646C1272.29 69.4254 1271.73 73.2617 1272.05 76.1734C1272.36 79.0851 1273.74 80.452 1276.18 80.2741C1277.75 80.0581 1279.84 78.9944 1282.45 77.083C1285.18 75.0623 1287.35 73.0314 1288.97 70.9903C1290.7 68.84 1292.49 66.1787 1294.35 63.0065C1296.33 59.7251 1297.98 56.9221 1299.32 54.5976C1300.78 52.1638 1301.62 50.938 1301.87 50.9203C1302.72 50.858 1303.25 51.7807 1303.46 53.6884C1303.66 55.4956 1303.24 57.2971 1302.21 59.0929C1297.75 66.6039 1294.03 72.3916 1291.04 76.456C1288.04 80.5203 1284.29 84.3368 1279.77 87.9054C1275.36 91.3648 1271.21 93.2367 1267.31 93.5213C1260.38 94.0283 1256.45 90.0648 1255.53 81.631C1254.9 75.908 1255.53 69.3342 1257.42 61.9095C1259.31 54.4849 1262.51 47.2178 1267.01 40.1084C1263.05 43.231 1258.94 44.9479 1254.68 45.2592C1253.34 45.357 1251.92 45.2083 1250.4 44.813C1243.29 59.5008 1239.37 66.8714 1238.64 66.9248C1238.03 66.9693 1237.64 66.1883 1237.47 64.5818C1237.28 62.875 1237.76 60.5124 1238.9 57.494C1240.16 54.3662 1241.49 51.3847 1242.89 48.5493C1244.42 45.705 1245.23 44.1278 1245.32 43.8177C1240.74 42.3307 1238.23 39.5791 1237.8 35.563C1237.58 33.5549 1238.11 31.6943 1239.4 29.9811C1240.8 28.2591 1242.85 27.3002 1245.52 27.1045C1248.2 26.9089 1250.47 27.4516 1252.33 28.7327C1252.15 29.3529 1252.13 30.2654 1252.26 31.4703C1252.55 34.1812 1253.95 36.2553 1256.43 37.6928C1259.03 39.021 1262.04 39.5605 1265.45 39.3115C1266.42 39.2404 1267.14 39.1368 1267.62 39.0008C1271.33 33.6694 1275.38 30.8436 1279.76 30.5234Z" fill="#FCF4DF"/>
</svg>
