
<svg width="0" height="0" class="hidden">

<!-- [ PICTURES ] -->
<!-- picture: FIT logo --> 
  <symbol fill="none" xmlns="http://www.w3.org/2000/svg" viewBox="0 0 346 263" id="logo">
    <path d="M172.415 85.904l10.464-.48c1.984 0 3.072.416 3.264 1.248.256.768.384 1.344.384 1.728 0 2.24-.8 5.088-2.4 8.544-1.536 3.392-2.656 5.088-3.36 5.088-.64 0-.96-.256-.96-.768l.768-5.76c0-1.92-.928-3.456-2.784-4.608-1.792-1.216-3.808-1.824-6.048-1.824s-3.904.16-4.992.48c-1.024.32-1.888.992-2.592 2.016-3.008 4.288-6.976 12.224-11.904 23.808h21.312l.096.096c0 .448-.448 1.344-1.344 2.688-.896 1.28-1.632 1.92-2.208 1.92h-19.872c-6.208 15.104-9.312 25.344-9.312 30.72 0 .96.128 1.664.384 2.112h-12.384c1.728-7.296 5.568-18.24 11.52-32.832h-5.28c-.512 0-.768-.16-.768-.48 0-.64.608-1.504 1.824-2.592 1.216-1.088 2.208-1.632 2.976-1.632h3.264c5.44-12.864 9.632-21.472 12.576-25.824-14.464 2.048-23.136 5.536-26.016 10.464-.064.192-.224.288-.48.288s-.384-.16-.384-.48c0-.384.032-.64.096-.768 2.432-6.656 6.88-10.72 13.344-12.192 2.944-.64 6.88-.96 11.808-.96h19.008zm22.165 15.936h-.384c-1.28 0-2.528.544-3.744 1.632-1.152 1.088-1.984 2.208-2.496 3.36-1.664-.64-2.496-1.792-2.496-3.456s.768-3.328 2.304-4.992c1.536-1.728 3.008-2.592 4.416-2.592 1.408 0 2.464.32 3.168.96.704.64 1.056 1.472 1.056 2.496 0 .96-.608 1.824-1.824 2.592zm-13.056 12.672l4.8.096h.96c-1.024.768-2.4 2.848-4.128 6.24a1266.778 1266.778 0 00-3.744 7.68c-.832 1.728-1.792 4.064-2.88 7.008-1.024 2.944-1.536 5.344-1.536 7.2 0 1.856.608 2.784 1.824 2.784.832 0 1.984-.544 3.456-1.632 1.536-1.152 2.784-2.336 3.744-3.552.96-1.28 2.016-2.88 3.168-4.8 1.216-1.92 2.24-3.584 3.072-4.992.896-1.408 1.408-2.112 1.536-2.112.384 0 .576.608.576 1.824 0 1.152-.32 2.272-.96 3.36-2.368 3.968-4.544 7.296-6.528 9.984a35.739 35.739 0 01-6.624 6.912c-2.496 1.984-4.768 2.976-6.816 2.976-3.584 0-5.376-2.496-5.376-7.488 0-7.744 2.656-16.32 7.968-25.728 2.24-3.84 4.736-5.76 7.488-5.76zm36.172-16.608c-3.136 2.176-6.656 7.744-10.56 16.704h9.696l.096.096c0 .32-.352.896-1.056 1.728-.704.768-1.312 1.152-1.824 1.152h-8.256c-5.056 12.544-7.584 20.608-7.584 24.192 0 2.432.768 3.648 2.304 3.648 2.24 0 4.864-1.92 7.872-5.76.704-.832 1.632-2.24 2.784-4.224 2.944-4.736 4.48-7.104 4.608-7.104.384 0 .576.512.576 1.536-.064 2.432-2.72 7.168-7.968 14.208-1.728 2.304-3.808 4.448-6.24 6.432-2.432 1.984-4.64 2.976-6.624 2.976-3.648 0-5.472-2.56-5.472-7.68 0-4.288 1.024-9.216 3.072-14.784v-.096c-1.216 2.24-2.272 3.904-3.168 4.992-.832 1.088-1.312 1.632-1.44 1.632-.256 0-.384-.384-.384-1.152 0-.832.416-2.144 1.248-3.936.896-1.792 2.08-4.128 3.552-7.008 1.536-2.88 2.784-5.504 3.744-7.872h-6.432c-.192 0-.288-.128-.288-.384 0-.32.224-.832.672-1.536.512-.704.896-1.056 1.152-1.056h7.296C203.68 103.536 208.352 98 213.088 98c2.752 0 4.288-.032 4.608-.096zm-81.965 94.88h8.136c-1.656 1.272-3.936 5.208-6.84 11.808-.744 1.68-1.596 3.888-2.556 6.624-.936 2.712-1.404 4.692-1.404 5.94 0 .336.048.588.144.756h-4.644c.672-2.904 2.088-6.936 4.248-12.096 2.88-6.864 4.74-10.764 5.58-11.7-2.04.048-4.116.468-6.228 1.26-2.088.768-3.3 1.692-3.636 2.772-.024.072-.072.108-.144.108-.216 0-.324-.156-.324-.468 0-.048.024-.168.072-.36.456-1.32 1.116-2.34 1.98-3.06.864-.72 1.704-1.164 2.52-1.332.84-.168 1.872-.252 3.096-.252zm29.455 2.556l-5.076-.216c-.24 0-1.032 1.44-2.376 4.32a101.595 101.595 0 00-3.492 8.316c-.984 2.688-1.476 4.632-1.476 5.832 0 1.176.372 1.764 1.116 1.764.768 0 1.728-.78 2.88-2.34.12-.144.24-.216.36-.216s.18.108.18.324c0 .216-.168.612-.504 1.188a13.48 13.48 0 01-1.26 1.872c-.528.648-1.212 1.224-2.052 1.728-.84.528-1.704.792-2.592.792-1.32 0-1.98-.912-1.98-2.736 0-2.256 1.14-6.096 3.42-11.52 1.632-3.816 3.132-6.984 4.5-9.504h-.468l-3.708-.072c-2.064 0-3.864.264-5.4.792-.84.288-1.512.72-2.016 1.296-.48.552-.72 1.224-.72 2.016l.288 1.512c0 .24-.12.36-.36.36-.312 0-.564-.3-.756-.9-.192-.624-.288-1.164-.288-1.62 0-1.128.264-2.088.792-2.88.528-.792 1.248-1.392 2.16-1.8 1.728-.768 3.636-1.152 5.724-1.152s4.452.132 7.092.396c2.64.24 5.04.36 7.2.36s3.564-.336 4.212-1.008c.072.168.108.336.108.504 0 .792-.504 1.428-1.512 1.908-1.008.456-2.34.684-3.996.684zm8.215 11.304c-1.8 3.432-2.796 5.148-2.988 5.148-.12 0-.18-.192-.18-.576 0-.408.072-.756.216-1.044 1.176-2.016 2.064-3.936 2.664-5.76.096-.312.204-.516.324-.612.12-.12.324-.18.612-.18h.288l3.168.252c.144-.36.384-1.02.72-1.98.36-.96.636-1.692.828-2.196.192-.504.48-1.188.864-2.052.384-.864.732-1.548 1.044-2.052.312-.504.72-1.068 1.224-1.692.504-.648 1.008-1.14 1.512-1.476 1.224-.816 2.544-1.224 3.96-1.224 2.496 0 3.744.924 3.744 2.772a3.07 3.07 0 01-.612 1.872c-.384.552-.9.828-1.548.828-.312 0-.588-.084-.828-.252-.216-.168-.324-.36-.324-.576 0-.24.18-.612.54-1.116.36-.528.54-.972.54-1.332 0-.384-.156-.696-.468-.936a1.577 1.577 0 00-1.044-.36c-.72 0-1.44.384-2.16 1.152-.72.768-1.38 1.776-1.98 3.024a61.446 61.446 0 00-2.844 6.984c-.024.12-.048.204-.072.252-.072.192-.132.36-.18.504 3.792 0 5.952-.168 6.48-.504-.312.768-.984 1.272-2.016 1.512s-2.688.384-4.968.432l-1.044 3.024c-1.488 4.272-2.64 7.212-3.456 8.82-.816 1.584-1.596 2.952-2.34 4.104-.72 1.152-1.44 2.1-2.16 2.844-1.632 1.728-3.324 2.592-5.076 2.592-1.176 0-2.04-.276-2.592-.828-.576-.552-.864-1.176-.864-1.872 0-.672.156-1.236.468-1.692.312-.456.66-.684 1.044-.684s.672.084.864.252c.192.192.288.384.288.576 0 .216-.12.54-.36.972-.264.456-.396.84-.396 1.152 0 .312.084.576.252.792.168.216.468.324.9.324s.948-.216 1.548-.648c.576-.408 1.14-1.008 1.692-1.8 2.064-3.048 4.788-9.012 8.172-17.892h-1.008c-1.224 0-2.04.384-2.448 1.152zm23.431-3.132l1.8.036h.36c-.792.648-1.764 2.292-2.916 4.932-1.152 2.616-1.728 4.524-1.728 5.724 0 .624.216.936.648.936 1.392 0 3.168-2.052 5.328-6.156.096-.168.18-.252.252-.252.144 0 .216.228.216.684 0 .432-.12.852-.36 1.26-2.952 4.968-5.424 7.452-7.416 7.452-1.296 0-1.944-.996-1.944-2.988 0-1.488.252-2.952.756-4.392-2.736 4.848-5.268 7.272-7.596 7.272-1.608 0-2.412-1.104-2.412-3.312 0-1.68.36-3.384 1.08-5.112.744-1.728 1.8-3.192 3.168-4.392 1.368-1.224 2.868-1.836 4.5-1.836.768 0 1.488.18 2.16.54.672.336 1.116.888 1.332 1.656.264-.552.672-1.032 1.224-1.44.552-.408 1.068-.612 1.548-.612zm-2.988 2.376c-.24-.768-.804-1.152-1.692-1.152-1.584 0-3.12 1.104-4.608 3.312-1.488 2.184-2.232 4.14-2.232 5.868 0 .744.288 1.116.864 1.116.624 0 1.356-.384 2.196-1.152a14.437 14.437 0 002.268-2.772c1.488-2.352 2.556-4.092 3.204-5.22zm19.608 2.808c.144 0 .216.228.216.684 0 .456-.204 1.02-.612 1.692a27.983 27.983 0 01-.936 1.548c-.216.336-.6.888-1.152 1.656-.552.768-1.032 1.32-1.44 1.656-.408.336-.924.732-1.548 1.188-1.056.768-2.436 1.152-4.14 1.152-1.68 0-2.904-.42-3.672-1.26-.744-.864-1.116-1.98-1.116-3.348 0-2.52.888-4.824 2.664-6.912 1.8-2.112 3.912-3.168 6.336-3.168 1.08 0 1.944.288 2.592.864.648.552.972 1.224.972 2.016 0 .768-.216 1.44-.648 2.016-.432.576-.924.864-1.476.864-1.08 0-1.62-.444-1.62-1.332 0-.288.3-.564.9-.828.24-.096.456-.276.648-.54s.288-.612.288-1.044c0-.624-.336-.936-1.008-.936-1.44 0-2.868 1.044-4.284 3.132s-2.124 4.116-2.124 6.084c0 1.944.852 2.916 2.556 2.916 2.376 0 4.692-1.836 6.948-5.508.456-.72.828-1.332 1.116-1.836.312-.504.492-.756.54-.756zm12.254-5.292l1.728.036c.36 0 .588-.012.684-.036-.672.456-1.644 2.052-2.916 4.788-1.248 2.712-1.872 4.668-1.872 5.868 0 .72.24 1.08.72 1.08.312 0 .732-.204 1.26-.612a7.463 7.463 0 001.404-1.332c.384-.504.792-1.116 1.224-1.836.456-.72.84-1.344 1.152-1.872.336-.528.528-.792.576-.792.144 0 .216.228.216.684 0 .456-.132.888-.396 1.296-2.976 4.968-5.46 7.452-7.452 7.452-1.344 0-2.016-.996-2.016-2.988 0-.624.048-1.224.144-1.8-2.256 3.192-4.404 4.788-6.444 4.788-.6 0-1.092-.252-1.476-.756-.36-.504-.54-1.248-.54-2.232 0-.984.348-2.604 1.044-4.86.696-2.28 1.548-4.152 2.556-5.616.24-.36.492-.576.756-.648.288-.096.816-.144 1.584-.144h1.728c-.6.816-1.248 1.92-1.944 3.312-1.584 3.288-2.376 5.7-2.376 7.236 0 .912.324 1.368.972 1.368.672 0 1.464-.636 2.376-1.908.912-1.272 1.884-2.916 2.916-4.932 1.056-2.04 1.668-3.192 1.836-3.456.888-1.392 1.74-2.088 2.556-2.088zm16.136-7.452c-.864 1.752-2.184 3.744-3.96 5.976-1.776 2.208-3.372 3.984-4.788 5.328l-.576 1.656c-.288.84-.564 1.86-.828 3.06s-.384 2.052-.36 2.556c0 .72.264 1.08.792 1.08s1.152-.3 1.872-.9c.744-.6 1.284-1.116 1.62-1.548.336-.456.72-1.044 1.152-1.764.456-.72.84-1.344 1.152-1.872.336-.528.528-.792.576-.792.144 0 .216.228.216.684 0 .432-.12.852-.36 1.26-1.32 2.232-2.388 3.804-3.204 4.716-1.656 1.824-3.36 2.736-5.112 2.736-1.344 0-2.016-.912-2.016-2.736 0-1.8.804-4.944 2.412-9.432.12-.384.396-1.188.828-2.412.432-1.224.804-2.172 1.116-2.844.312-.696.732-1.608 1.26-2.736.528-1.128 1.032-2.028 1.512-2.7a38.856 38.856 0 011.656-2.052c1.176-1.392 2.448-2.088 3.816-2.088 1.368 0 2.052.624 2.052 1.872 0 .96-.276 1.944-.828 2.952zm-.756-3.924h-.252c-1.464 0-3.804 4.392-7.02 13.176 3.288-3.864 5.532-7.032 6.732-9.504.672-1.512 1.008-2.496 1.008-2.952 0-.48-.156-.72-.468-.72zm7.131 5.256c-1.176.816-2.496 2.904-3.96 6.264h3.636l.036.036c0 .12-.132.336-.396.648-.264.288-.492.432-.684.432h-3.096c-1.896 4.704-2.844 7.728-2.844 9.072 0 .912.288 1.368.864 1.368.84 0 1.824-.72 2.952-2.16.264-.312.612-.84 1.044-1.584 1.104-1.776 1.68-2.664 1.728-2.664.144 0 .216.192.216.576-.024.912-1.02 2.688-2.988 5.328a13.832 13.832 0 01-2.34 2.412c-.912.744-1.74 1.116-2.484 1.116-1.368 0-2.052-.96-2.052-2.88 0-1.608.384-3.456 1.152-5.544v-.036c-.456.84-.852 1.464-1.188 1.872-.312.408-.492.612-.54.612-.096 0-.144-.144-.144-.432 0-.312.156-.804.468-1.476.336-.672.78-1.548 1.332-2.628a31.537 31.537 0 001.404-2.952h-2.412c-.072 0-.108-.048-.108-.144 0-.12.084-.312.252-.576.192-.264.336-.396.432-.396h2.736c1.728-4.152 3.48-6.228 5.256-6.228 1.032 0 1.608-.012 1.728-.036zm12.349 6.588h1.476c-.744.456-1.5 1.584-2.268 3.384a76.866 76.866 0 00-1.584 4.14 382.787 382.787 0 01-.792 2.232c-.096.264-.324.912-.684 1.944a51.625 51.625 0 01-.828 2.34c-.6 1.68-1.296 3.012-2.088 3.996a8.576 8.576 0 01-2.952 2.34c-1.176.6-2.364.9-3.564.9-1.2 0-2.22-.24-3.06-.72-.864-.456-1.296-1.188-1.296-2.196 0-.528.168-1.008.504-1.44.312-.408.684-.612 1.116-.612.408 0 .756.096 1.044.288.288.192.492.408.612.648-.432.144-.648.648-.648 1.512 0 .456.156.816.468 1.08.336.288.756.432 1.26.432 1.944 0 3.576-1.74 4.896-5.22l2.052-5.472c-1.128 1.416-2.112 2.484-2.952 3.204-.816.696-1.464 1.116-1.944 1.26-.456.144-1.008.216-1.656.216-.624 0-1.128-.252-1.512-.756-.384-.528-.576-1.284-.576-2.268.024-1.008.312-2.436.864-4.284.576-1.848 1.2-3.312 1.872-4.392.696-1.08 1.404-1.776 2.124-2.088.744-.312 1.752-.468 3.024-.468.096 0 .144.048.144.144 0 .096-.072.216-.216.36-.984.864-1.992 2.412-3.024 4.644-1.008 2.232-1.512 4.116-1.512 5.652 0 .816.228 1.224.684 1.224.864 0 1.968-.864 3.312-2.592 1.344-1.728 2.376-3.456 3.096-5.184.096-.24.228-.588.396-1.044l.396-.936c.072-.168.18-.396.324-.684.168-.312.312-.516.432-.612.12-.12.276-.264.468-.432.216-.168.432-.276.648-.324a9.63 9.63 0 011.944-.216zm-128.579 38.772c-1.8 3.432-2.796 5.148-2.988 5.148-.12 0-.18-.192-.18-.576 0-.408.072-.756.216-1.044 1.176-2.016 2.064-3.936 2.664-5.76.096-.312.204-.516.324-.612.12-.12.324-.18.612-.18h.288l3.168.252c.144-.36.384-1.02.72-1.98.36-.96.636-1.692.828-2.196.192-.504.48-1.188.864-2.052.384-.864.732-1.548 1.044-2.052.312-.504.72-1.068 1.224-1.692.504-.648 1.008-1.14 1.512-1.476 1.224-.816 2.544-1.224 3.96-1.224 2.496 0 3.744.924 3.744 2.772a3.07 3.07 0 01-.612 1.872c-.384.552-.9.828-1.548.828-.312 0-.588-.084-.828-.252-.216-.168-.324-.36-.324-.576 0-.24.18-.612.54-1.116.36-.528.54-.972.54-1.332 0-.384-.156-.696-.468-.936a1.577 1.577 0 00-1.044-.36c-.72 0-1.44.384-2.16 1.152-.72.768-1.38 1.776-1.98 3.024a61.446 61.446 0 00-2.844 6.984c-.024.12-.048.204-.072.252-.072.192-.132.36-.18.504 3.792 0 5.952-.168 6.48-.504-.312.768-.984 1.272-2.016 1.512s-2.688.384-4.968.432l-1.044 3.024c-1.488 4.272-2.64 7.212-3.456 8.82-.816 1.584-1.596 2.952-2.34 4.104-.72 1.152-1.44 2.1-2.16 2.844-1.632 1.728-3.324 2.592-5.076 2.592-1.176 0-2.04-.276-2.592-.828-.576-.552-.864-1.176-.864-1.872 0-.672.156-1.236.468-1.692.312-.456.66-.684 1.044-.684s.672.084.864.252c.192.192.288.384.288.576 0 .216-.12.54-.36.972-.264.456-.396.84-.396 1.152 0 .312.084.576.252.792.168.216.468.324.9.324s.948-.216 1.548-.648c.576-.408 1.14-1.008 1.692-1.8 2.064-3.048 4.788-9.012 8.172-17.892h-1.008c-1.224 0-2.04.384-2.448 1.152zm19.003-7.884h-.144c-.48 0-.948.204-1.404.612-.432.408-.744.828-.936 1.26-.624-.24-.936-.672-.936-1.296s.288-1.248.864-1.872c.576-.648 1.128-.972 1.656-.972s.924.12 1.188.36c.264.24.396.552.396.936 0 .36-.228.684-.684.972zm-4.896 4.752l1.8.036h.36c-.384.288-.9 1.068-1.548 2.34a475.042 475.042 0 00-1.404 2.88c-.312.648-.672 1.524-1.08 2.628-.384 1.104-.576 2.004-.576 2.7 0 .696.228 1.044.684 1.044.312 0 .744-.204 1.296-.612.576-.432 1.044-.876 1.404-1.332.36-.48.756-1.08 1.188-1.8.456-.72.84-1.344 1.152-1.872.336-.528.528-.792.576-.792.144 0 .216.228.216.684 0 .432-.12.852-.36 1.26-.888 1.488-1.704 2.736-2.448 3.744a13.402 13.402 0 01-2.484 2.592c-.936.744-1.788 1.116-2.556 1.116-1.344 0-2.016-.936-2.016-2.808 0-2.904.996-6.12 2.988-9.648.84-1.44 1.776-2.16 2.808-2.16zm19.397 7.164c-.888 1.488-1.704 2.736-2.448 3.744a13.402 13.402 0 01-2.484 2.592c-.936.744-1.788 1.116-2.556 1.116-1.416 0-2.124-.78-2.124-2.34 0-1.56.9-4.692 2.7-9.396.096-.216.144-.444.144-.684 0-.504-.324-.756-.972-.756-.624 0-1.248.204-1.872.612-.6.384-1.152.948-1.656 1.692-.504.72-.96 1.464-1.368 2.232a18.949 18.949 0 00-1.152 2.592c-.336.984-.612 1.812-.828 2.484-.192.648-.396 1.356-.612 2.124-.192.744-.3 1.152-.324 1.224h-3.492c0-.504 1.056-3.396 3.168-8.676.864-2.472 1.296-4.2 1.296-5.184 0-.24-.036-.42-.108-.54h1.512c.84 0 1.38.084 1.62.252.24.168.36.396.36.684 0 .288-.132.876-.396 1.764 2.016-1.92 4.044-2.88 6.084-2.88 1.368 0 2.052.624 2.052 1.872 0 .408-.06.816-.18 1.224-.12.408-.42 1.224-.9 2.448-1.056 2.688-1.584 4.488-1.584 5.4 0 .576.216.864.648.864.312 0 .744-.216 1.296-.648.576-.432 1.044-.876 1.404-1.332a18.28 18.28 0 001.224-1.764c.456-.72.84-1.344 1.152-1.872.312-.528.492-.792.54-.792.144 0 .216.228.216.684 0 .432-.12.852-.36 1.26zm9.847-13.392c-1.176.816-2.496 2.904-3.96 6.264h3.636l.036.036c0 .12-.132.336-.396.648-.264.288-.492.432-.684.432h-3.096c-1.896 4.704-2.844 7.728-2.844 9.072 0 .912.288 1.368.864 1.368.84 0 1.824-.72 2.952-2.16.264-.312.612-.84 1.044-1.584 1.104-1.776 1.68-2.664 1.728-2.664.144 0 .216.192.216.576-.024.912-1.02 2.688-2.988 5.328a13.832 13.832 0 01-2.34 2.412c-.912.744-1.74 1.116-2.484 1.116-1.368 0-2.052-.96-2.052-2.88 0-1.608.384-3.456 1.152-5.544v-.036c-.456.84-.852 1.464-1.188 1.872-.312.408-.492.612-.54.612-.096 0-.144-.144-.144-.432 0-.312.156-.804.468-1.476.336-.672.78-1.548 1.332-2.628a31.537 31.537 0 001.404-2.952h-2.412c-.072 0-.108-.048-.108-.144 0-.12.084-.312.252-.576.192-.264.336-.396.432-.396h2.736c1.728-4.152 3.48-6.228 5.256-6.228 1.032 0 1.608-.012 1.728-.036zm12.205 11.268c.144 0 .216.24.216.72 0 .456-.192 1.008-.576 1.656-.384.648-.768 1.26-1.152 1.836-.36.576-.852 1.248-1.476 2.016s-1.236 1.38-1.836 1.836c-1.512 1.104-3.036 1.656-4.572 1.656-1.512 0-2.736-.384-3.672-1.152-.936-.792-1.404-1.992-1.404-3.6 0-2.448.9-4.716 2.7-6.804 1.8-2.088 3.9-3.132 6.3-3.132 1.08 0 1.944.288 2.592.864.648.552.972 1.224.972 2.016 0 1.344-.636 2.424-1.908 3.24-1.272.816-2.772 1.224-4.5 1.224-1.008 0-1.752-.132-2.232-.396-.456 1.224-.684 2.304-.684 3.24 0 2.016.852 3.024 2.556 3.024 1.008 0 2.04-.384 3.096-1.152 1.08-.792 1.992-1.668 2.736-2.628.768-.984 1.632-2.388 2.592-4.212.096-.168.18-.252.252-.252zm-3.816-2.844c0-.696-.336-1.044-1.008-1.044-.936 0-1.98.576-3.132 1.728-1.152 1.152-1.728 2.088-1.728 2.808 0 .48.456.72 1.368.72.912 0 1.86-.444 2.844-1.332 1.008-.888 1.56-1.848 1.656-2.88zm17.259 4.896c-1.8 3-3.432 5.088-4.896 6.264-1.464 1.176-3.36 1.764-5.688 1.764-1.344 0-2.472-.252-3.384-.756-.912-.528-1.368-1.296-1.368-2.304 0-.576.168-1.104.504-1.584.336-.48.792-.72 1.368-.72.6 0 .984.216 1.152.648-.456.456-.684.984-.684 1.584 0 1.2.672 1.8 2.016 1.8.792 0 1.476-.276 2.052-.828.6-.552.9-1.152.9-1.8 0-.672-.144-1.26-.432-1.764a5.698 5.698 0 00-1.044-1.332l-1.224-1.152c-.984-.936-1.476-2.004-1.476-3.204 0-1.224.456-2.244 1.368-3.06.936-.84 2.208-1.26 3.816-1.26 1.008 0 1.86.18 2.556.54.696.36 1.044.924 1.044 1.692 0 .744-.228 1.392-.684 1.944-.456.552-1.08.828-1.872.828-.768 0-1.152-.36-1.152-1.08 0-.168.276-.42.828-.756.552-.336.828-.684.828-1.044s-.156-.624-.468-.792c-.288-.192-.708-.288-1.26-.288s-1.092.192-1.62.576c-.504.384-.756.888-.756 1.512s.264 1.212.792 1.764a8.69 8.69 0 001.728 1.404c.624.384 1.2.924 1.728 1.62.528.672.792 1.392.792 2.16 0 .744-.18 1.416-.54 2.016-.336.6-.744 1.08-1.224 1.44 1.344-.576 2.772-2.016 4.284-4.32.144-.192.396-.588.756-1.188.84-1.512 1.308-2.268 1.404-2.268.144 0 .216.228.216.684 0 .432-.12.852-.36 1.26zm13.605 0c-1.8 3-3.432 5.088-4.896 6.264-1.464 1.176-3.36 1.764-5.688 1.764-1.344 0-2.472-.252-3.384-.756-.912-.528-1.368-1.296-1.368-2.304 0-.576.168-1.104.504-1.584.336-.48.792-.72 1.368-.72.6 0 .984.216 1.152.648-.456.456-.684.984-.684 1.584 0 1.2.672 1.8 2.016 1.8.792 0 1.476-.276 2.052-.828.6-.552.9-1.152.9-1.8 0-.672-.144-1.26-.432-1.764a5.698 5.698 0 00-1.044-1.332l-1.224-1.152c-.984-.936-1.476-2.004-1.476-3.204 0-1.224.456-2.244 1.368-3.06.936-.84 2.208-1.26 3.816-1.26 1.008 0 1.86.18 2.556.54.696.36 1.044.924 1.044 1.692 0 .744-.228 1.392-.684 1.944-.456.552-1.08.828-1.872.828-.768 0-1.152-.36-1.152-1.08 0-.168.276-.42.828-.756.552-.336.828-.684.828-1.044s-.156-.624-.468-.792c-.288-.192-.708-.288-1.26-.288s-1.092.192-1.62.576c-.504.384-.756.888-.756 1.512s.264 1.212.792 1.764a8.69 8.69 0 001.728 1.404c.624.384 1.2.924 1.728 1.62.528.672.792 1.392.792 2.16 0 .744-.18 1.416-.54 2.016-.336.6-.744 1.08-1.224 1.44 1.344-.576 2.772-2.016 4.284-4.32.144-.192.396-.588.756-1.188.84-1.512 1.308-2.268 1.404-2.268.144 0 .216.228.216.684 0 .432-.12.852-.36 1.26zm23.787-1.908c.144 0 .216.228.216.684 0 .456-.204 1.02-.612 1.692a27.983 27.983 0 01-.936 1.548c-.216.336-.6.888-1.152 1.656-.552.768-1.032 1.32-1.44 1.656-.408.336-.924.732-1.548 1.188-1.056.768-2.436 1.152-4.14 1.152-1.68 0-2.904-.42-3.672-1.26-.744-.864-1.116-1.98-1.116-3.348 0-2.52.888-4.824 2.664-6.912 1.8-2.112 3.912-3.168 6.336-3.168 1.08 0 1.944.288 2.592.864.648.552.972 1.224.972 2.016 0 .768-.216 1.44-.648 2.016-.432.576-.924.864-1.476.864-1.08 0-1.62-.444-1.62-1.332 0-.288.3-.564.9-.828.24-.096.456-.276.648-.54s.288-.612.288-1.044c0-.624-.336-.936-1.008-.936-1.44 0-2.868 1.044-4.284 3.132s-2.124 4.116-2.124 6.084c0 1.944.852 2.916 2.556 2.916 2.376 0 4.692-1.836 6.948-5.508.456-.72.828-1.332 1.116-1.836.312-.504.492-.756.54-.756zm12.974-.144c.144 0 .216.24.216.72 0 .456-.192 1.008-.576 1.656-.384.648-.768 1.26-1.152 1.836-.36.576-.852 1.248-1.476 2.016s-1.236 1.38-1.836 1.836c-1.512 1.104-3.036 1.656-4.572 1.656-1.512 0-2.736-.384-3.672-1.152-.936-.792-1.404-1.992-1.404-3.6 0-2.448.9-4.716 2.7-6.804 1.8-2.088 3.9-3.132 6.3-3.132 1.08 0 1.944.288 2.592.864.648.552.972 1.224.972 2.016 0 1.344-.636 2.424-1.908 3.24-1.272.816-2.772 1.224-4.5 1.224-1.008 0-1.752-.132-2.232-.396-.456 1.224-.684 2.304-.684 3.24 0 2.016.852 3.024 2.556 3.024 1.008 0 2.04-.384 3.096-1.152 1.08-.792 1.992-1.668 2.736-2.628.768-.984 1.632-2.388 2.592-4.212.096-.168.18-.252.252-.252zm-3.816-2.844c0-.696-.336-1.044-1.008-1.044-.936 0-1.98.576-3.132 1.728-1.152 1.152-1.728 2.088-1.728 2.808 0 .48.456.72 1.368.72.912 0 1.86-.444 2.844-1.332 1.008-.888 1.56-1.848 1.656-2.88zm19.31 4.968c-.888 1.488-1.704 2.736-2.448 3.744a13.402 13.402 0 01-2.484 2.592c-.936.744-1.788 1.116-2.556 1.116-1.416 0-2.124-.78-2.124-2.34 0-1.56.9-4.692 2.7-9.396.096-.216.144-.444.144-.684 0-.504-.324-.756-.972-.756-.624 0-1.248.204-1.872.612-.6.384-1.152.948-1.656 1.692-.504.72-.96 1.464-1.368 2.232a18.949 18.949 0 00-1.152 2.592c-.336.984-.612 1.812-.828 2.484-.192.648-.396 1.356-.612 2.124-.192.744-.3 1.152-.324 1.224h-3.492c0-.504 1.056-3.396 3.168-8.676.864-2.472 1.296-4.2 1.296-5.184 0-.24-.036-.42-.108-.54h1.512c.84 0 1.38.084 1.62.252.24.168.36.396.36.684 0 .288-.132.876-.396 1.764 2.016-1.92 4.044-2.88 6.084-2.88 1.368 0 2.052.624 2.052 1.872 0 .408-.06.816-.18 1.224-.12.408-.42 1.224-.9 2.448-1.056 2.688-1.584 4.488-1.584 5.4 0 .576.216.864.648.864.312 0 .744-.216 1.296-.648.576-.432 1.044-.876 1.404-1.332a18.28 18.28 0 001.224-1.764c.456-.72.84-1.344 1.152-1.872.312-.528.492-.792.54-.792.144 0 .216.228.216.684 0 .432-.12.852-.36 1.26zm9.848-13.392c-1.176.816-2.496 2.904-3.96 6.264h3.636l.036.036c0 .12-.132.336-.396.648-.264.288-.492.432-.684.432h-3.096c-1.896 4.704-2.844 7.728-2.844 9.072 0 .912.288 1.368.864 1.368.84 0 1.824-.72 2.952-2.16.264-.312.612-.84 1.044-1.584 1.104-1.776 1.68-2.664 1.728-2.664.144 0 .216.192.216.576-.024.912-1.02 2.688-2.988 5.328a13.832 13.832 0 01-2.34 2.412c-.912.744-1.74 1.116-2.484 1.116-1.368 0-2.052-.96-2.052-2.88 0-1.608.384-3.456 1.152-5.544v-.036c-.456.84-.852 1.464-1.188 1.872-.312.408-.492.612-.54.612-.096 0-.144-.144-.144-.432 0-.312.156-.804.468-1.476.336-.672.78-1.548 1.332-2.628a31.537 31.537 0 001.404-2.952h-2.412c-.072 0-.108-.048-.108-.144 0-.12.084-.312.252-.576.192-.264.336-.396.432-.396h2.736c1.728-4.152 3.48-6.228 5.256-6.228 1.032 0 1.608-.012 1.728-.036zm12.205 11.268c.144 0 .216.24.216.72 0 .456-.192 1.008-.576 1.656-.384.648-.768 1.26-1.152 1.836-.36.576-.852 1.248-1.476 2.016s-1.236 1.38-1.836 1.836c-1.512 1.104-3.036 1.656-4.572 1.656-1.512 0-2.736-.384-3.672-1.152-.936-.792-1.404-1.992-1.404-3.6 0-2.448.9-4.716 2.7-6.804 1.8-2.088 3.9-3.132 6.3-3.132 1.08 0 1.944.288 2.592.864.648.552.972 1.224.972 2.016 0 1.344-.636 2.424-1.908 3.24-1.272.816-2.772 1.224-4.5 1.224-1.008 0-1.752-.132-2.232-.396-.456 1.224-.684 2.304-.684 3.24 0 2.016.852 3.024 2.556 3.024 1.008 0 2.04-.384 3.096-1.152 1.08-.792 1.992-1.668 2.736-2.628.768-.984 1.632-2.388 2.592-4.212.096-.168.18-.252.252-.252zm-3.816-2.844c0-.696-.336-1.044-1.008-1.044-.936 0-1.98.576-3.132 1.728-1.152 1.152-1.728 2.088-1.728 2.808 0 .48.456.72 1.368.72.912 0 1.86-.444 2.844-1.332 1.008-.888 1.56-1.848 1.656-2.88zm11.966-2.268l1.836.036h.36c-.36.264-.876 1.044-1.548 2.34l-1.476 2.952c-.312.648-.672 1.536-1.08 2.664-.384 1.104-.576 2.004-.576 2.7 0 .696.24 1.044.72 1.044.312-.024.744-.24 1.296-.648.576-.432 1.044-.876 1.404-1.332.384-.48.792-1.08 1.224-1.8.456-.744.84-1.38 1.152-1.908.336-.552.528-.828.576-.828.168 0 .252.228.252.684 0 .432-.12.852-.36 1.26-1.032 1.704-1.884 3.012-2.556 3.924a13.457 13.457 0 01-2.448 2.52c-.936.744-1.788 1.116-2.556 1.116-1.368 0-2.052-1.008-2.052-3.024 0-1.368.264-2.916.792-4.644a20.139 20.139 0 012.34-5.004c-.84.672-1.68 1.008-2.52 1.008-.264 0-.54-.06-.828-.18-1.704 3.36-2.628 5.04-2.772 5.04-.12 0-.18-.192-.18-.576 0-.408.144-.96.432-1.656.312-.72.636-1.404.972-2.052.36-.648.552-1.008.576-1.08-.864-.432-1.296-1.128-1.296-2.088 0-.48.144-.912.432-1.296.312-.384.732-.576 1.26-.576s.96.168 1.296.504c-.048.144-.072.36-.072.648 0 .648.228 1.164.684 1.548.48.36 1.056.54 1.728.54.192 0 .336-.012.432-.036.84-1.2 1.692-1.8 2.556-1.8z" fill="#FCF4DF"></path>
    <path stroke="#F5DC54" stroke-width="2" d="M187.199 175.912h-60"></path>
    <path d="M260.181 161.287L304.199 4 5 84.17l89.119 95.001" stroke="#F5DC54" stroke-width="5"></path>
  </symbol>

<!-- background picture: "FIT" text --> 
  <symbol fill="none" xmlns="http://www.w3.org/2000/svg" viewBox="0 0 436 556" id="FIT-img">
    <path d="M0 555.216V0h119.712v68.8H69.488v169.248h36.464v69.488H69.488v247.68H0zm4.816-4.816h59.856V302.72h36.464v-59.856H64.672V63.984h50.224V4.816H4.816V550.4zm153.155 4.816V0h69.488v555.216h-69.488zm4.816-4.816h59.856V4.816h-59.856V550.4zm152.586 4.816V69.488h-50.224V0h169.936v69.488h-50.224v485.728h-69.488zm4.816-4.816h59.856V64.672h50.224V4.816H269.965v59.856h50.224V550.4z" fill="#FCF4DF"></path>
  </symbol>

<!-- background picture: dots --> 
  <symbol fill="none" xmlns="http://www.w3.org/2000/svg" viewBox="0 0 525 355" id="dots">
    <g fill="#FCF4DF">
      <circle cx="92.5" cy="7.5" r="7.5"></circle>
      <circle cx="7.5" cy="7.5" r="7.5"></circle>
      <circle cx="177.5" cy="7.5" r="7.5"></circle>
      <circle cx="262.5" cy="7.5" r="7.5"></circle>
      <circle cx="347.5" cy="7.5" r="7.5"></circle>
      <circle cx="432.5" cy="7.5" r="7.5"></circle>
      <circle cx="517.5" cy="7.5" r="7.5"></circle>
      <circle cx="92.5" cy="92.5" r="7.5"></circle>
      <circle cx="7.5" cy="92.5" r="7.5"></circle>
      <circle cx="177.5" cy="92.5" r="7.5"></circle>
      <circle cx="262.5" cy="92.5" r="7.5"></circle>
      <circle cx="347.5" cy="92.5" r="7.5"></circle>
      <circle cx="432.5" cy="92.5" r="7.5"></circle>
      <circle cx="517.5" cy="92.5" r="7.5"></circle>
      <circle cx="92.5" cy="177.5" r="7.5"></circle>
      <circle cx="7.5" cy="177.5" r="7.5"></circle>
      <circle cx="177.5" cy="177.5" r="7.5"></circle>
      <circle cx="262.5" cy="177.5" r="7.5"></circle>
      <circle cx="347.5" cy="177.5" r="7.5"></circle>
      <circle cx="432.5" cy="177.5" r="7.5"></circle>
      <circle cx="517.5" cy="177.5" r="7.5"></circle>
      <circle cx="92.5" cy="262.5" r="7.5"></circle>
      <circle cx="7.5" cy="262.5" r="7.5"></circle>
      <circle cx="177.5" cy="262.5" r="7.5"></circle>
      <circle cx="262.5" cy="262.5" r="7.5"></circle>
      <circle cx="347.5" cy="262.5" r="7.5"></circle>
      <circle cx="432.5" cy="262.5" r="7.5"></circle>
      <circle cx="517.5" cy="262.5" r="7.5"></circle>
      <circle cx="92.5" cy="347.5" r="7.5"></circle>
      <circle cx="7.5" cy="347.5" r="7.5"></circle>
      <circle cx="177.5" cy="347.5" r="7.5"></circle>
      <circle cx="262.5" cy="347.5" r="7.5"></circle>
      <circle cx="347.5" cy="347.5" r="7.5"></circle>
      <circle cx="432.5" cy="347.5" r="7.5"></circle>
      <circle cx="517.5" cy="347.5" r="7.5"></circle>
    </g>
  </symbol>

<!-- background picture: "FIT fitness center" (footer) --> 
  <symbol fill="none" xmlns="http://www.w3.org/2000/svg" viewBox="0 0 1304 234" id="fit-fullname">
    <path d="M164.691 6.1l39.643-4.415c7.548-.551 11.829.452 12.845 3.009 1.236 2.338 1.921 4.11 2.052 5.315.767 7.028-1.3 16.186-6.203 27.474-4.682 11.07-8.361 16.703-11.04 16.898-2.434.178-3.739-.536-3.915-2.142l.949-18.286c-.658-6.025-4.714-10.586-12.169-13.685-7.234-3.317-15.111-4.664-23.633-4.042-8.521.623-14.797 1.587-18.826 2.894-3.786 1.288-6.842 3.637-9.17 7.046-9.974 14.29-22.351 40.292-37.13 78.008l81.075-5.924.398.275c.154 1.406-1.244 4.341-4.192 8.807-2.97 4.265-5.551 6.478-7.742 6.638l-75.597 5.523c-18.443 49.116-26.743 82.107-24.902 98.975.329 3.012 1.057 5.185 2.184 6.52l-47.11 3.442c4.074-23.372 14.933-58.777 32.577-106.215L34.7 123.682c-1.947.142-2.976-.288-3.086-1.292-.219-2.009 1.798-4.888 6.051-8.64 4.253-3.752 7.84-5.734 10.762-5.948l12.417-.907C77.132 65.021 90.13 36.848 99.84 22.375 45.517 32.82 13.722 46.175 4.454 62.437c-.178.62-.754.966-1.728 1.037-.974.071-1.515-.395-1.625-1.4-.131-1.204-.097-2.016.102-2.435C8.175 38.079 23.704 24.09 47.79 17.675c10.98-2.826 25.844-4.924 44.591-6.293l72.31-5.283zm89.778 43.84l-1.461.107c-4.869.356-9.43 2.41-13.684 6.16-4.009 3.735-6.791 7.48-8.344 11.237-6.549-1.546-10.109-4.929-10.679-10.15-.57-5.22 1.782-10.655 7.055-16.303 5.251-5.849 10.555-8.969 15.911-9.36 5.357-.391 9.484.32 12.381 2.132 2.897 1.812 4.521 4.325 4.872 7.537.329 3.013-1.688 5.892-6.051 8.64zm-45.327 43.388l18.293-1.033 3.652-.267c-3.632 2.695-8.154 9.603-13.566 20.726-5.168 11.105-9.039 19.485-11.612 25.138-2.574 5.653-5.425 13.249-8.556 22.788-2.887 9.522-4.013 17.194-3.377 23.018.636 5.823 3.267 8.566 7.893 8.228 3.165-.231 7.361-2.258 12.588-6.081 5.448-4.042 9.791-8.103 13.026-12.185 3.214-4.283 6.683-9.597 10.408-15.941 3.968-6.363 7.293-11.868 9.976-16.517 2.926-4.667 4.633-7.018 5.12-7.054 1.461-.106 2.399 1.748 2.816 5.563.395 3.615-.439 7.218-2.501 10.809-7.649 13.109-14.787 24.155-21.414 33.14-6.405 8.767-14.016 16.61-22.831 23.528-8.816 6.919-17.119 10.663-24.91 11.232-13.635.996-21.307-6.337-23.017-22-2.652-24.297 4.514-51.943 21.499-82.938 7.206-12.671 16.044-19.389 26.513-20.154z" fill="#FCF4DF"></path>
    <path d="M341.061 31.166c-11.185 7.699-22.669 26.147-34.451 55.345l36.885-2.695.399.275c.109 1.004-1.033 2.909-3.426 5.715-2.415 2.605-4.596 3.979-6.544 4.121l-31.407 2.295c-14.938 40.763-21.792 66.767-20.565 78.012.833 7.631 4.171 11.233 10.015 10.806 8.521-.623 17.846-7.376 27.973-20.261 2.393-2.806 5.441-7.481 9.144-14.026 9.578-15.678 14.61-23.535 15.097-23.571 1.46-.106 2.366 1.447 2.717 4.66.589 7.648-7.892 23.246-25.445 46.793-5.785 7.709-12.963 15.014-21.535 21.915-8.572 6.901-16.632 10.627-24.18 11.179-13.877 1.014-21.693-6.512-23.447-22.576-1.469-13.454.739-29.201 6.622-47.24l-.032-.301c-3.859 7.366-7.306 12.88-10.342 16.543-2.793 3.645-4.432 5.485-4.919 5.521-.974.071-1.593-1.098-1.856-3.508-.285-2.61.849-6.843 3.4-12.696 2.795-5.872 6.499-13.53 11.112-22.976 4.857-9.463 8.705-18.043 11.546-25.74l-24.468 1.788c-.731.054-1.14-.321-1.227-1.124-.11-1.005.567-2.673 2.03-5.007 1.706-2.35 3.047-3.562 4.021-3.633l27.755-2.028c13.737-36.02 29.614-54.688 47.631-56.004 10.469-.765 16.301-1.292 17.497-1.582zm102.927 73.929c-7.563 15.024-11.831 22.572-12.805 22.643-.609.045-1.001-.736-1.176-2.343-.186-1.707.02-3.189.619-4.447 5.044-8.87 8.671-17.231 10.882-25.084.344-1.341.799-2.235 1.364-2.68.553-.547 1.561-.874 3.022-.98l1.46-.107 16.184-.12c.566-1.56 1.482-4.41 2.748-8.55a1777.9 1777.9 0 013.197-9.494c.744-2.18 1.892-5.147 3.445-8.904 1.553-3.757 3.006-6.747 4.359-8.971 1.352-2.225 3.164-4.735 5.435-7.532 2.261-2.898 4.592-5.143 6.995-6.736 5.836-3.867 12.345-6.063 19.527-6.587 12.661-.925 19.413 2.477 20.257 10.209.318 2.911-.432 5.597-2.249 8.058-1.696 2.451-4.187 3.797-7.474 4.037-1.583.116-3.021-.133-4.315-.747-1.172-.623-1.808-1.386-1.906-2.29-.11-1.004.633-2.627 2.229-4.868 1.585-2.343 2.295-4.267 2.131-5.773-.176-1.606-1.109-2.854-2.802-3.742-1.57-.898-3.39-1.27-5.459-1.12-3.652.267-7.129 2.14-10.43 5.62-3.302 3.48-6.189 7.941-8.662 13.385-4.359 9.528-8.105 19.618-11.236 30.27-.067.512-.151.872-.25 1.082-.278.83-.505 1.555-.683 2.175 19.234-1.405 30.113-2.908 32.638-4.51-1.232 3.329-4.41 5.686-9.535 7.073-5.125 1.386-13.459 2.602-25.002 3.648l-3.914 13.038c-5.597 18.423-10.097 31.149-13.502 38.178-3.415 6.929-6.747 12.941-9.994 18.036-3.126 5.086-6.345 9.319-9.658 12.699-7.488 7.833-15.676 12.075-24.563 12.724-5.965.436-10.473-.399-13.525-2.503-3.174-2.096-4.92-4.6-5.238-7.512-.306-2.811.227-5.228 1.602-7.251 1.374-2.024 3.035-3.106 4.983-3.249 1.947-.142 3.446.103 4.497.734 1.062.732 1.636 1.5 1.724 2.303.099.904-.362 2.304-1.382 4.2-1.131 2.005-1.625 3.661-1.483 4.966.143 1.305.69 2.379 1.64 3.22.951.841 2.522 1.182 4.713 1.022 2.192-.16 4.71-1.255 7.556-3.285 2.736-1.92 5.322-4.639 7.76-8.157 9.078-13.516 20.171-39.475 33.279-77.878l-5.112.373c-6.209.454-10.172 2.362-11.891 5.727z" fill="#FCF4DF"></path>
    <path d="M536.776 65.07l-.73.054c-2.435.177-4.715 1.204-6.842 3.08-2.005 1.867-3.396 3.74-4.172 5.618-3.275-.773-5.055-2.464-5.34-5.075-.285-2.61.891-5.328 3.528-8.151 2.625-2.925 5.277-4.485 7.955-4.68 2.679-.196 4.742.16 6.191 1.065 1.448.907 2.26 2.163 2.436 3.77.164 1.505-.844 2.945-3.026 4.32zm-22.663 21.694l9.146-.516 1.826-.134c-1.816 1.347-4.077 4.802-6.783 10.363a1808.019 1808.019 0 00-5.806 12.569c-1.286 2.826-2.712 6.625-4.278 11.394-1.443 4.761-2.006 8.597-1.688 11.509.318 2.912 1.633 4.283 3.946 4.114 1.583-.116 3.681-1.129 6.294-3.04 2.725-2.021 4.896-4.052 6.513-6.093 1.607-2.142 3.342-4.798 5.204-7.971 1.984-3.181 3.647-5.933 4.988-8.258 1.464-2.333 2.317-3.509 2.56-3.527.731-.053 1.2.874 1.408 2.782.198 1.807-.219 3.609-1.25 5.404-3.825 6.554-7.394 12.078-10.707 16.57-3.203 4.384-7.008 8.305-11.416 11.764-4.408 3.46-8.559 5.332-12.455 5.616-6.817.498-10.653-3.168-11.508-11-1.326-12.148 2.257-25.972 10.749-41.469 3.603-6.335 8.022-9.694 13.257-10.077z" fill="#FCF4DF"></path>
    <path d="M615.77 109.547c-3.825 6.554-7.394 12.077-10.707 16.57-3.203 4.383-7.008 8.304-11.416 11.764-4.408 3.459-8.559 5.331-12.455 5.616-7.182.524-11.13-2.476-11.842-9.003-.713-6.526 2.422-19.962 9.404-40.308.388-.94.527-1.91.418-2.915-.23-2.108-1.989-3.042-5.276-2.802-3.165.231-6.237 1.316-9.215 3.254-2.868 1.829-5.411 4.393-7.627 7.692a84.495 84.495 0 00-5.92 9.844c-1.73 3.264-3.283 7.021-4.659 11.271a537.94 537.94 0 00-3.066 10.698 568.539 568.539 0 00-2.134 9.113c-.634 3.183-.995 4.93-1.084 5.24l-17.713 1.294c-.23-2.108 3.806-14.598 12.107-37.469 3.253-10.662 4.655-18.051 4.206-22.168-.11-1.004-.374-1.743-.794-2.219l7.669-.56c4.261-.311 7.038-.16 8.332.454 1.294.614 2.007 1.523 2.138 2.728.132 1.205-.269 3.714-1.203 7.526 9.349-8.779 19.197-13.547 29.545-14.302 6.939-.507 10.693 1.85 11.263 7.07a15.04 15.04 0 01-.354 5.188c-.422 1.751-1.571 5.276-3.447 10.574-4.129 11.637-5.985 19.363-5.568 23.178.263 2.41 1.49 3.534 3.681 3.374 1.583-.115 3.675-1.179 6.278-3.191 2.724-2.021 4.895-4.051 6.513-6.092 1.729-2.151 3.529-4.762 5.403-7.834 1.984-3.181 3.647-5.933 4.988-8.258 1.341-2.324 2.134-3.496 2.377-3.513.731-.054 1.2.873 1.408 2.781.198 1.807-.219 3.609-1.25 5.405z" fill="#FCF4DF"></path>
    <path d="M659.604 49.873c-5.593 3.85-11.335 13.073-17.226 27.672l18.443-1.347.199.137c.055.502-.516 1.455-1.713 2.858-1.207 1.302-2.298 1.99-3.272 2.06l-15.703 1.148c-7.469 20.381-10.897 33.383-10.283 39.006.417 3.815 2.086 5.616 5.008 5.403 4.26-.312 8.923-3.688 13.986-10.131 1.197-1.403 2.721-3.74 4.572-7.013 4.789-7.839 7.305-11.767 7.549-11.785.73-.053 1.183.723 1.358 2.33.295 3.824-3.946 11.623-12.722 23.396-2.893 3.855-6.482 7.507-10.768 10.958-4.286 3.45-8.316 5.313-12.09 5.589-6.938.507-10.846-3.256-11.723-11.288-.735-6.727.369-14.6 3.311-23.62l-.016-.15c-1.93 3.683-3.653 6.44-5.171 8.271-1.397 1.823-2.216 2.743-2.46 2.761-.487.035-.796-.549-.928-1.754-.142-1.305.424-3.422 1.7-6.348a1330.11 1330.11 0 015.556-11.488c2.429-4.732 4.353-9.022 5.773-12.87l-12.234.894c-.365.026-.57-.16-.613-.563-.055-.502.283-1.336 1.015-2.503.853-1.175 1.523-1.78 2.01-1.816l13.878-1.014c6.868-18.01 14.807-27.344 23.815-28.002 5.235-.383 8.151-.647 8.749-.791z" fill="#FCF4DF"></path>
    <path d="M726.656 92.489c.73-.053 1.205.924 1.424 2.932.209 1.908-.513 4.288-2.165 7.141a162.519 162.519 0 01-5.005 8.108c-1.563 2.543-3.751 5.537-6.566 8.981-2.814 3.444-5.639 6.231-8.474 8.361-7.165 5.179-14.643 8.053-22.434 8.622-7.669.56-14.053-.593-19.151-3.459-5.11-2.966-8.031-7.813-8.766-14.54-1.118-10.241 2.411-20.062 10.588-29.465 8.176-9.402 18.351-14.547 30.525-15.437 5.478-.4 9.992.485 13.541 2.654 3.539 2.07 5.49 4.76 5.851 8.074.614 5.623-2.118 10.376-8.198 14.261-6.079 3.885-13.501 6.148-22.266 6.788-5.113.374-8.947.098-11.502-.829-1.754 5.289-2.417 9.892-1.99 13.808.921 8.434 5.703 12.335 14.346 11.703 5.113-.373 10.172-2.362 15.178-5.966 5.116-3.714 9.342-7.716 12.677-12.008 3.446-4.401 7.187-10.595 11.224-18.581.41-.739.798-1.121 1.163-1.148zm-20.655-10.484c-.318-2.911-2.181-4.243-5.589-3.994-4.748.347-9.78 3.144-15.097 8.39-5.318 5.246-7.812 9.375-7.483 12.387.219 2.008 2.642 2.844 7.268 2.506 4.626-.338 9.231-2.547 13.817-6.627 4.707-4.088 7.069-8.309 7.084-12.662z" fill="#FCF4DF"></path>
    <path d="M795.776 96.092c-7.76 13.217-15.084 22.557-21.973 28.019-6.888 5.463-16.237 8.625-28.045 9.488-6.817.498-12.654-.138-17.51-1.909-4.867-1.871-7.531-4.915-7.991-9.131-.263-2.41.348-4.681 1.833-6.814 1.485-2.132 3.688-3.305 6.61-3.519 3.043-.222 5.09.539 6.139 2.284-2.105 2.077-3.02 4.37-2.746 6.88.548 5.02 4.231 7.281 11.048 6.783 4.017-.293 7.361-1.701 10.03-4.224 2.791-2.532 4.039-5.153 3.743-7.864-.307-2.811-1.306-5.218-2.997-7.219a26.676 26.676 0 00-5.904-5.186l-6.734-4.366c-5.419-3.55-8.402-7.836-8.95-12.856-.559-5.12 1.288-9.557 5.541-13.309 4.364-3.86 10.624-6.089 18.78-6.685 5.113-.373 9.517.064 13.212 1.312 3.694 1.248 5.717 3.479 6.068 6.692.34 3.112-.521 5.907-2.582 8.386-2.061 2.478-5.1 3.864-9.117 4.157-3.895.285-6.007-1.079-6.336-4.091-.077-.703 1.208-1.86 3.854-3.47 2.647-1.61 3.888-3.168 3.723-4.674-.164-1.506-1.076-2.552-2.735-3.14-1.549-.696-3.723-.942-6.523-.738-2.8.205-5.451 1.208-7.954 3.01-2.381 1.794-3.429 3.995-3.144 6.606.285 2.61 1.893 4.972 4.823 7.086a45.884 45.884 0 009.406 5.233c3.341 1.375 6.509 3.421 9.505 6.137 2.985 2.616 4.653 5.53 5.004 8.743.339 3.112-.267 5.99-1.819 8.634-1.43 2.634-3.28 4.794-5.551 6.478 6.555-2.908 13.14-9.462 19.757-19.661.643-.856 1.74-2.606 3.292-5.25 3.57-6.636 5.599-9.972 6.086-10.008.73-.053 1.199.874 1.408 2.781.197 1.808-.22 3.61-1.251 5.405z" fill="#FCF4DF"></path>
    <path d="M864.787 91.05c-7.76 13.218-15.085 22.557-21.973 28.02-6.889 5.462-16.237 8.624-28.046 9.487-6.817.498-12.653-.138-17.509-1.909-4.868-1.87-7.531-4.914-7.992-9.131-.263-2.41.348-4.681 1.833-6.814 1.485-2.132 3.689-3.305 6.61-3.519 3.044-.222 5.09.539 6.14 2.284-2.105 2.077-3.02 4.37-2.746 6.88.548 5.02 4.23 7.282 11.047 6.783 4.018-.293 7.361-1.701 10.031-4.224 2.791-2.531 4.038-5.153 3.742-7.864-.306-2.811-1.305-5.217-2.996-7.219a26.661 26.661 0 00-5.904-5.186l-6.735-4.365c-5.418-3.551-8.402-7.837-8.95-12.857-.559-5.12 1.288-9.557 5.542-13.308 4.364-3.861 10.624-6.09 18.78-6.686 5.113-.373 9.516.064 13.211 1.312 3.695 1.248 5.718 3.479 6.068 6.692.34 3.112-.52 5.908-2.581 8.386-2.061 2.478-5.1 3.864-9.117 4.157-3.896.285-6.008-1.079-6.337-4.09-.077-.704 1.208-1.86 3.855-3.47 2.646-1.61 3.887-3.169 3.723-4.675-.165-1.506-1.076-2.552-2.736-3.14-1.548-.696-3.722-.942-6.522-.737-2.8.204-5.452 1.207-7.954 3.01-2.381 1.793-3.429 3.995-3.144 6.605.285 2.61 1.892 4.973 4.822 7.086a45.892 45.892 0 009.407 5.233c3.34 1.376 6.508 3.421 9.504 6.137 2.985 2.616 4.653 5.53 5.004 8.743.34 3.113-.266 5.991-1.818 8.634-1.43 2.635-3.281 4.794-5.551 6.478 6.554-2.908 13.14-9.461 19.757-19.66.642-.857 1.74-2.607 3.292-5.25 3.57-6.637 5.598-9.973 6.085-10.009.731-.053 1.2.874 1.408 2.782.198 1.807-.219 3.608-1.25 5.404zm119.779-16.796c.731-.054 1.2.873 1.408 2.781.208 1.908-.569 4.343-2.331 7.305-1.641 2.954-2.988 5.228-4.041 6.823-.942 1.486-2.638 3.937-5.087 7.355-2.449 3.417-4.631 5.904-6.547 7.461-1.917 1.557-4.353 3.405-7.31 5.544-5.005 3.604-11.83 5.722-20.473 6.353-8.521.623-14.921-.681-19.201-3.91-4.168-3.339-6.565-7.87-7.189-13.593-1.151-10.542 2.301-20.51 10.355-29.903 8.166-9.502 18.396-14.703 30.691-15.601 5.478-.4 9.992.484 13.542 2.654 3.539 2.069 5.49 4.76 5.851 8.074.351 3.212-.438 6.104-2.366 8.674-1.928 2.57-4.292 3.956-7.092 4.161-5.478.4-8.42-1.257-8.825-4.972-.132-1.205 1.264-2.47 4.187-3.797 1.173-.491 2.186-1.324 3.04-2.5.853-1.175 1.181-2.667.984-4.474-.285-2.61-2.132-3.791-5.541-3.542-7.304.534-14.07 5.43-20.299 14.69-6.228 9.26-8.893 18.006-7.995 26.239.888 8.133 5.654 11.883 14.297 11.252 12.052-.88 22.96-9.42 32.726-25.617 1.985-3.181 3.592-5.88 4.822-8.095 1.353-2.224 2.151-3.345 2.394-3.362z" fill="#FCF4DF"></path>
    <path d="M1050.31 68.843c.73-.053 1.2.924 1.42 2.932.21 1.908-.51 4.288-2.16 7.142a157.388 157.388 0 01-5.01 8.107c-1.56 2.543-3.75 5.537-6.56 8.981-2.82 3.444-5.64 6.231-8.48 8.361-7.16 5.179-14.64 8.053-22.43 8.622-7.669.561-14.053-.592-19.151-3.458-5.11-2.967-8.032-7.813-8.766-14.54-1.118-10.241 2.411-20.063 10.588-29.465 8.176-9.402 18.349-14.548 30.529-15.437 5.47-.4 9.99.484 13.54 2.654 3.54 2.069 5.49 4.76 5.85 8.073.61 5.623-2.12 10.377-8.2 14.262-6.08 3.885-13.5 6.148-22.27 6.788-5.11.373-8.94.097-11.498-.83-1.754 5.29-2.417 9.892-1.99 13.808.921 8.434 5.698 12.335 14.348 11.704 5.11-.374 10.17-2.363 15.18-5.967 5.11-3.713 9.34-7.716 12.67-12.008 3.45-4.401 7.19-10.595 11.23-18.581.41-.739.79-1.121 1.16-1.148zm-20.65-10.483c-.32-2.912-2.19-4.243-5.59-3.994-4.75.346-9.78 3.143-15.1 8.39-5.32 5.245-7.81 9.375-7.48 12.387.22 2.008 2.64 2.843 7.26 2.505 4.63-.338 9.24-2.547 13.82-6.626 4.71-4.089 7.07-8.31 7.09-12.662z" fill="#FCF4DF"></path>
    <path d="M1129.87 71.987c-3.82 6.554-7.39 12.078-10.71 16.57-3.2 4.383-7 8.305-11.41 11.764-4.41 3.46-8.56 5.332-12.46 5.616-7.18.525-11.13-2.476-11.84-9.002-.71-6.526 2.42-19.962 9.41-40.308.38-.94.52-1.911.41-2.915-.23-2.109-1.99-3.043-5.27-2.803-3.17.232-6.24 1.316-9.22 3.254-2.87 1.83-5.41 4.393-7.63 7.692a84.228 84.228 0 00-5.91 9.845c-1.73 3.263-3.29 7.02-4.66 11.27a514.719 514.719 0 00-3.07 10.699c-.68 2.782-1.39 5.82-2.13 9.112-.64 3.184-1 4.931-1.09 5.241l-17.71 1.294c-.23-2.109 3.81-14.599 12.11-37.47 3.25-10.661 4.65-18.05 4.2-22.167-.11-1.004-.37-1.744-.79-2.22l7.67-.56c4.26-.31 7.04-.16 8.33.454s2.01 1.524 2.14 2.729c.13 1.204-.27 3.713-1.21 7.526 9.35-8.78 19.2-13.547 29.55-14.303 6.94-.507 10.69 1.85 11.26 7.071.19 1.707.07 3.436-.35 5.187-.42 1.752-1.57 5.276-3.45 10.575-4.13 11.636-5.98 19.362-5.57 23.177.27 2.41 1.49 3.535 3.68 3.375 1.59-.116 3.68-1.18 6.28-3.191 2.73-2.02 4.9-4.052 6.52-6.093 1.72-2.15 3.52-4.761 5.4-7.833 1.98-3.181 3.64-5.934 4.99-8.258 1.34-2.325 2.13-3.496 2.37-3.514.73-.053 1.2.874 1.41 2.782.2 1.807-.22 3.608-1.25 5.404z" fill="#FCF4DF"></path>
    <path d="M1173.7 12.313c-5.59 3.85-11.33 13.074-17.22 27.673l18.44-1.348.2.138c.06.502-.51 1.454-1.71 2.857-1.21 1.303-2.3 1.99-3.27 2.061l-15.71 1.147c-7.47 20.382-10.89 33.384-10.28 39.006.42 3.816 2.09 5.617 5.01 5.403 4.26-.311 8.92-3.688 13.98-10.13 1.2-1.403 2.73-3.74 4.58-7.013 4.79-7.84 7.3-11.768 7.54-11.785.74-.054 1.19.723 1.36 2.33.3 3.823-3.94 11.622-12.72 23.396-2.89 3.855-6.48 7.507-10.77 10.957-4.28 3.451-8.31 5.314-12.09 5.59-6.94.507-10.84-3.256-11.72-11.288-.73-6.727.37-14.6 3.31-23.62l-.02-.15c-1.92 3.682-3.65 6.44-5.17 8.27-1.39 1.823-2.21 2.743-2.46 2.761-.48.036-.79-.549-.92-1.754-.15-1.305.42-3.421 1.7-6.348 1.39-2.936 3.25-6.765 5.55-11.488 2.43-4.731 4.36-9.021 5.78-12.87l-12.24.894c-.36.027-.57-.16-.61-.562-.06-.502.28-1.336 1.01-2.503.86-1.176 1.53-1.781 2.01-1.817l13.88-1.014c6.87-18.01 14.81-27.344 23.82-28.002 5.23-.382 8.15-.646 8.74-.79z" fill="#FCF4DF"></path>
    <path d="M1240.76 54.93c.73-.054 1.2.923 1.42 2.932.21 1.907-.51 4.288-2.16 7.14a164.664 164.664 0 01-5.01 8.109c-1.56 2.543-3.75 5.536-6.56 8.98-2.82 3.444-5.64 6.232-8.48 8.362-7.16 5.178-14.64 8.052-22.43 8.621-7.67.56-14.06-.592-19.15-3.458-5.11-2.966-8.04-7.813-8.77-14.54-1.12-10.241 2.41-20.063 10.59-29.465 8.17-9.402 18.35-14.548 30.52-15.437 5.48-.4 9.99.484 13.54 2.654 3.54 2.069 5.49 4.76 5.86 8.073.61 5.623-2.12 10.377-8.2 14.262-6.08 3.885-13.5 6.148-22.27 6.788-5.11.374-8.95.097-11.5-.83-1.75 5.29-2.42 9.893-1.99 13.808.92 8.434 5.7 12.335 14.35 11.704 5.11-.374 10.17-2.362 15.17-5.967 5.12-3.713 9.35-7.716 12.68-12.008 3.45-4.4 7.19-10.594 11.22-18.58.41-.74.8-1.122 1.17-1.149zm-20.66-10.484c-.32-2.912-2.18-4.243-5.59-3.994-4.74.347-9.78 3.143-15.09 8.39-5.32 5.246-7.82 9.375-7.49 12.387.22 2.008 2.65 2.843 7.27 2.505 4.63-.338 9.23-2.547 13.82-6.626 4.71-4.089 7.07-8.31 7.08-12.662z" fill="#FCF4DF"></path>
    <path d="M1279.76 30.523l9.33-.53 1.83-.133c-1.71 1.238-3.97 4.692-6.78 10.363-2.7 5.662-4.75 9.96-6.14 12.897-1.29 2.826-2.71 6.675-4.26 11.545-1.45 4.76-2.01 8.597-1.69 11.508.31 2.912 1.69 4.279 4.13 4.101 1.57-.216 3.66-1.28 6.27-3.191 2.73-2.02 4.9-4.052 6.52-6.093 1.73-2.15 3.52-4.811 5.38-7.983 1.98-3.282 3.63-6.085 4.97-8.41 1.46-2.433 2.3-3.659 2.55-3.677.85-.062 1.38.86 1.59 2.768.2 1.808-.22 3.61-1.25 5.405-4.46 7.51-8.18 13.299-11.17 17.363-3 4.064-6.75 7.88-11.27 11.45-4.41 3.459-8.56 5.33-12.46 5.615-6.93.507-10.86-3.456-11.78-11.89-.63-5.723 0-12.297 1.89-19.721 1.89-7.425 5.09-14.692 9.59-21.802-3.96 3.123-8.07 4.84-12.33 5.151-1.34.098-2.76-.05-4.28-.446-7.11 14.688-11.03 22.058-11.76 22.112-.61.044-1-.737-1.17-2.343-.19-1.707.29-4.07 1.43-7.088 1.26-3.128 2.59-6.11 3.99-8.945 1.53-2.844 2.34-4.421 2.43-4.731-4.58-1.487-7.09-4.239-7.52-8.255-.22-2.008.31-3.869 1.6-5.582 1.4-1.722 3.45-2.68 6.12-2.877 2.68-.195 4.95.348 6.81 1.629-.18.62-.2 1.532-.07 2.737.29 2.711 1.69 4.785 4.17 6.223 2.6 1.328 5.61 1.867 9.02 1.619.97-.072 1.69-.175 2.17-.311 3.71-5.332 7.76-8.157 12.14-8.478z" fill="#FCF4DF"></path>
  </symbol>


<!-- [ ICONS ] -->
<!-- icon: instagram --> 
  <symbol fill="none" xmlns="http://www.w3.org/2000/svg" viewBox="0 0 19 20" id="ico-instagram">
    <g clip-path="url(#clip0)">
      <path d="M9.5.5C6.922.5 6.598.512 5.585.557 4.572.604 3.882.764 3.277.999a4.651 4.651 0 00-1.682 1.096A4.663 4.663 0 00.499 3.777C.264 4.381.103 5.072.057 6.082.012 7.097 0 7.42 0 10.001c0 2.58.012 2.902.057 3.915.047 1.012.207 1.702.442 2.306a4.667 4.667 0 001.096 1.683 4.636 4.636 0 001.681 1.096c.606.235 1.295.396 2.306.442 1.015.045 1.338.057 3.918.057s2.902-.012 3.916-.057c1.01-.048 1.703-.207 2.308-.442a4.649 4.649 0 001.681-1.096 4.666 4.666 0 001.096-1.683c.234-.604.394-1.294.442-2.306C18.988 12.903 19 12.58 19 10s-.012-2.903-.057-3.918c-.048-1.01-.208-1.701-.442-2.304a4.662 4.662 0 00-1.096-1.683A4.645 4.645 0 0015.722.999c-.605-.235-1.296-.396-2.307-.442C12.401.512 12.08.5 9.498.5H9.5zm-.851 1.712H9.5c2.537 0 2.837.009 3.838.055.926.042 1.43.197 1.765.327.443.172.76.378 1.092.71.333.333.538.65.71 1.093.131.334.285.838.327 1.764.046 1 .056 1.301.056 3.837 0 2.535-.01 2.837-.056 3.838-.042.926-.197 1.428-.327 1.763a2.933 2.933 0 01-.71 1.091 2.935 2.935 0 01-1.093.71c-.333.131-.836.286-1.764.328-1 .045-1.301.056-3.838.056-2.536 0-2.838-.01-3.839-.056-.926-.043-1.429-.197-1.763-.328a2.944 2.944 0 01-1.093-.71 2.946 2.946 0 01-.712-1.092c-.13-.334-.285-.837-.327-1.764-.045-1-.055-1.301-.055-3.839 0-2.536.01-2.835.055-3.837.043-.926.197-1.43.328-1.764.172-.443.379-.76.711-1.093a2.935 2.935 0 011.093-.71c.334-.13.837-.285 1.763-.328.876-.04 1.216-.052 2.987-.053v.002zm5.923 1.577a1.14 1.14 0 100 2.28 1.14 1.14 0 000-2.28zm-5.07 1.333a4.88 4.88 0 10-.153 9.757A4.88 4.88 0 009.5 5.122zm0 1.71a3.167 3.167 0 110 6.335 3.167 3.167 0 010-6.334z" fill="#FCF4DF"></path>
    </g>
    <defs>
      <clipPath id="clip0">
        <path fill="#fff" transform="translate(0 .5)" d="M0 0h19v19H0z"></path>
      </clipPath>
    </defs>
  </symbol>

<!-- icon: whatsapp --> 
  <symbol fill="none" xmlns="http://www.w3.org/2000/svg" viewBox="0 0 20 21" id="ico-whatsapp">
    <g clip-path="url(#clip0)">
      <path d="M17.001 3.408A9.817 9.817 0 009.992.5C4.534.5.085 4.947.08 10.408c0 1.748.457 3.45 1.321 4.956L0 20.5l5.255-1.378a9.918 9.918 0 004.737 1.207h.005c5.46 0 9.908-4.448 9.913-9.913A9.872 9.872 0 0017 3.408h.001zM9.992 18.65a8.218 8.218 0 01-4.195-1.15l-.3-.18-3.117.818.833-3.041-.196-.314a8.2 8.2 0 01-1.258-4.382c0-4.532 3.696-8.23 8.239-8.23a8.2 8.2 0 015.825 2.414 8.196 8.196 0 012.41 5.825c-.006 4.549-3.702 8.24-8.24 8.24zm4.52-6.167c-.247-.124-1.463-.723-1.692-.808-.228-.081-.394-.123-.556.124-.166.246-.641.807-.784.969-.143.166-.29.185-.537.062-.247-.125-1.045-.385-1.99-1.231-.738-.656-1.232-1.469-1.38-1.715-.142-.248-.013-.38.11-.504.11-.11.247-.29.37-.432.126-.143.167-.248.248-.413.082-.167.043-.31-.018-.434-.063-.123-.557-1.345-.765-1.837-.2-.486-.404-.419-.557-.425-.142-.009-.309-.009-.475-.009a.911.911 0 00-.661.309c-.228.248-.864.846-.864 2.067 0 1.222.888 2.395 1.013 2.562.122.166 1.742 2.665 4.229 3.74.587.256 1.05.407 1.41.522.595.19 1.13.162 1.558.1.475-.072 1.464-.6 1.673-1.178.205-.58.205-1.075.142-1.18-.061-.104-.227-.165-.475-.29z" fill="#FCF4DF"></path>
    </g>
    <defs>
      <clipPath id="clip0">
        <path fill="#fff" transform="translate(0 .5)" d="M0 0h20v20H0z"></path>
      </clipPath>
    </defs>
  </symbol>

<!-- icon: youtube -->   
  <symbol fill="none" xmlns="http://www.w3.org/2000/svg" viewBox="0 0 22 22" id="ico-youtube">
    <g clip-path="url(#clip0)">
      <path d="M11.07 2.749h.123c1.13.004 6.857.045 8.4.46a2.763 2.763 0 011.946 1.953c.14.522.237 1.214.303 1.928l.014.143.03.357.01.143c.09 1.257.101 2.434.103 2.69v.104a44.116 44.116 0 01-.113 2.833l-.011.144-.012.143c-.07.786-.171 1.567-.324 2.142a2.76 2.76 0 01-1.945 1.953c-1.595.429-7.658.459-8.498.46h-.195c-.425 0-2.182-.008-4.025-.071l-.233-.009-.12-.005-.235-.01-.235-.01c-1.526-.067-2.98-.175-3.65-.357a2.76 2.76 0 01-1.945-1.95c-.153-.574-.255-1.357-.323-2.143l-.011-.145-.011-.143A43.173 43.173 0 010 10.56v-.17c.003-.295.014-1.316.088-2.444l.01-.141.004-.072.01-.143.031-.357.014-.143c.066-.714.163-1.407.302-1.928a2.76 2.76 0 011.946-1.953c.67-.178 2.123-.288 3.65-.357l.233-.01.236-.008.119-.004.235-.01a138.87 138.87 0 013.927-.07h.265v-.001zM8.8 7.162v6.625l5.716-3.31L8.8 7.161z" fill="#FCF4DF"></path>
    </g>
    <defs>
      <clipPath id="clip0">
        <path fill="#fff" d="M0 0h22v22H0z"></path>
      </clipPath>
    </defs>
  </symbol>

</svg>