
<svg width="0" height="0" class="hidden">

<!-- [ PICTURES ] -->
<!-- picture: FIT logo --> 
  <symbol fill="none" xmlns="http://www.w3.org/2000/svg" viewBox="0 0 346 263" id="logo">
    <path d="M172.415 85.904l10.464-.48c1.984 0 3.072.416 3.264 1.248.256.768.384 1.344.384 1.728 0 2.24-.8 5.088-2.4 8.544-1.536 3.392-2.656 5.088-3.36 5.088-.64 0-.96-.256-.96-.768l.768-5.76c0-1.92-.928-3.456-2.784-4.608-1.792-1.216-3.808-1.824-6.048-1.824s-3.904.16-4.992.48c-1.024.32-1.888.992-2.592 2.016-3.008 4.288-6.976 12.224-11.904 23.808h21.312l.096.096c0 .448-.448 1.344-1.344 2.688-.896 1.28-1.632 1.92-2.208 1.92h-19.872c-6.208 15.104-9.312 25.344-9.312 30.72 0 .96.128 1.664.384 2.112h-12.384c1.728-7.296 5.568-18.24 11.52-32.832h-5.28c-.512 0-.768-.16-.768-.48 0-.64.608-1.504 1.824-2.592 1.216-1.088 2.208-1.632 2.976-1.632h3.264c5.44-12.864 9.632-21.472 12.576-25.824-14.464 2.048-23.136 5.536-26.016 10.464-.064.192-.224.288-.48.288s-.384-.16-.384-.48c0-.384.032-.64.096-.768 2.432-6.656 6.88-10.72 13.344-12.192 2.944-.64 6.88-.96 11.808-.96h19.008zm22.165 15.936h-.384c-1.28 0-2.528.544-3.744 1.632-1.152 1.088-1.984 2.208-2.496 3.36-1.664-.64-2.496-1.792-2.496-3.456s.768-3.328 2.304-4.992c1.536-1.728 3.008-2.592 4.416-2.592 1.408 0 2.464.32 3.168.96.704.64 1.056 1.472 1.056 2.496 0 .96-.608 1.824-1.824 2.592zm-13.056 12.672l4.8.096h.96c-1.024.768-2.4 2.848-4.128 6.24a1266.778 1266.778 0 00-3.744 7.68c-.832 1.728-1.792 4.064-2.88 7.008-1.024 2.944-1.536 5.344-1.536 7.2 0 1.856.608 2.784 1.824 2.784.832 0 1.984-.544 3.456-1.632 1.536-1.152 2.784-2.336 3.744-3.552.96-1.28 2.016-2.88 3.168-4.8 1.216-1.92 2.24-3.584 3.072-4.992.896-1.408 1.408-2.112 1.536-2.112.384 0 .576.608.576 1.824 0 1.152-.32 2.272-.96 3.36-2.368 3.968-4.544 7.296-6.528 9.984a35.739 35.739 0 01-6.624 6.912c-2.496 1.984-4.768 2.976-6.816 2.976-3.584 0-5.376-2.496-5.376-7.488 0-7.744 2.656-16.32 7.968-25.728 2.24-3.84 4.736-5.76 7.488-5.76zm36.172-16.608c-3.136 2.176-6.656 7.744-10.56 16.704h9.696l.096.096c0 .32-.352.896-1.056 1.728-.704.768-1.312 1.152-1.824 1.152h-8.256c-5.056 12.544-7.584 20.608-7.584 24.192 0 2.432.768 3.648 2.304 3.648 2.24 0 4.864-1.92 7.872-5.76.704-.832 1.632-2.24 2.784-4.224 2.944-4.736 4.48-7.104 4.608-7.104.384 0 .576.512.576 1.536-.064 2.432-2.72 7.168-7.968 14.208-1.728 2.304-3.808 4.448-6.24 6.432-2.432 1.984-4.64 2.976-6.624 2.976-3.648 0-5.472-2.56-5.472-7.68 0-4.288 1.024-9.216 3.072-14.784v-.096c-1.216 2.24-2.272 3.904-3.168 4.992-.832 1.088-1.312 1.632-1.44 1.632-.256 0-.384-.384-.384-1.152 0-.832.416-2.144 1.248-3.936.896-1.792 2.08-4.128 3.552-7.008 1.536-2.88 2.784-5.504 3.744-7.872h-6.432c-.192 0-.288-.128-.288-.384 0-.32.224-.832.672-1.536.512-.704.896-1.056 1.152-1.056h7.296C203.68 103.536 208.352 98 213.088 98c2.752 0 4.288-.032 4.608-.096zm-81.965 94.88h8.136c-1.656 1.272-3.936 5.208-6.84 11.808-.744 1.68-1.596 3.888-2.556 6.624-.936 2.712-1.404 4.692-1.404 5.94 0 .336.048.588.144.756h-4.644c.672-2.904 2.088-6.936 4.248-12.096 2.88-6.864 4.74-10.764 5.58-11.7-2.04.048-4.116.468-6.228 1.26-2.088.768-3.3 1.692-3.636 2.772-.024.072-.072.108-.144.108-.216 0-.324-.156-.324-.468 0-.048.024-.168.072-.36.456-1.32 1.116-2.34 1.98-3.06.864-.72 1.704-1.164 2.52-1.332.84-.168 1.872-.252 3.096-.252zm29.455 2.556l-5.076-.216c-.24 0-1.032 1.44-2.376 4.32a101.595 101.595 0 00-3.492 8.316c-.984 2.688-1.476 4.632-1.476 5.832 0 1.176.372 1.764 1.116 1.764.768 0 1.728-.78 2.88-2.34.12-.144.24-.216.36-.216s.18.108.18.324c0 .216-.168.612-.504 1.188a13.48 13.48 0 01-1.26 1.872c-.528.648-1.212 1.224-2.052 1.728-.84.528-1.704.792-2.592.792-1.32 0-1.98-.912-1.98-2.736 0-2.256 1.14-6.096 3.42-11.52 1.632-3.816 3.132-6.984 4.5-9.504h-.468l-3.708-.072c-2.064 0-3.864.264-5.4.792-.84.288-1.512.72-2.016 1.296-.48.552-.72 1.224-.72 2.016l.288 1.512c0 .24-.12.36-.36.36-.312 0-.564-.3-.756-.9-.192-.624-.288-1.164-.288-1.62 0-1.128.264-2.088.792-2.88.528-.792 1.248-1.392 2.16-1.8 1.728-.768 3.636-1.152 5.724-1.152s4.452.132 7.092.396c2.64.24 5.04.36 7.2.36s3.564-.336 4.212-1.008c.072.168.108.336.108.504 0 .792-.504 1.428-1.512 1.908-1.008.456-2.34.684-3.996.684zm8.215 11.304c-1.8 3.432-2.796 5.148-2.988 5.148-.12 0-.18-.192-.18-.576 0-.408.072-.756.216-1.044 1.176-2.016 2.064-3.936 2.664-5.76.096-.312.204-.516.324-.612.12-.12.324-.18.612-.18h.288l3.168.252c.144-.36.384-1.02.72-1.98.36-.96.636-1.692.828-2.196.192-.504.48-1.188.864-2.052.384-.864.732-1.548 1.044-2.052.312-.504.72-1.068 1.224-1.692.504-.648 1.008-1.14 1.512-1.476 1.224-.816 2.544-1.224 3.96-1.224 2.496 0 3.744.924 3.744 2.772a3.07 3.07 0 01-.612 1.872c-.384.552-.9.828-1.548.828-.312 0-.588-.084-.828-.252-.216-.168-.324-.36-.324-.576 0-.24.18-.612.54-1.116.36-.528.54-.972.54-1.332 0-.384-.156-.696-.468-.936a1.577 1.577 0 00-1.044-.36c-.72 0-1.44.384-2.16 1.152-.72.768-1.38 1.776-1.98 3.024a61.446 61.446 0 00-2.844 6.984c-.024.12-.048.204-.072.252-.072.192-.132.36-.18.504 3.792 0 5.952-.168 6.48-.504-.312.768-.984 1.272-2.016 1.512s-2.688.384-4.968.432l-1.044 3.024c-1.488 4.272-2.64 7.212-3.456 8.82-.816 1.584-1.596 2.952-2.34 4.104-.72 1.152-1.44 2.1-2.16 2.844-1.632 1.728-3.324 2.592-5.076 2.592-1.176 0-2.04-.276-2.592-.828-.576-.552-.864-1.176-.864-1.872 0-.672.156-1.236.468-1.692.312-.456.66-.684 1.044-.684s.672.084.864.252c.192.192.288.384.288.576 0 .216-.12.54-.36.972-.264.456-.396.84-.396 1.152 0 .312.084.576.252.792.168.216.468.324.9.324s.948-.216 1.548-.648c.576-.408 1.14-1.008 1.692-1.8 2.064-3.048 4.788-9.012 8.172-17.892h-1.008c-1.224 0-2.04.384-2.448 1.152zm23.431-3.132l1.8.036h.36c-.792.648-1.764 2.292-2.916 4.932-1.152 2.616-1.728 4.524-1.728 5.724 0 .624.216.936.648.936 1.392 0 3.168-2.052 5.328-6.156.096-.168.18-.252.252-.252.144 0 .216.228.216.684 0 .432-.12.852-.36 1.26-2.952 4.968-5.424 7.452-7.416 7.452-1.296 0-1.944-.996-1.944-2.988 0-1.488.252-2.952.756-4.392-2.736 4.848-5.268 7.272-7.596 7.272-1.608 0-2.412-1.104-2.412-3.312 0-1.68.36-3.384 1.08-5.112.744-1.728 1.8-3.192 3.168-4.392 1.368-1.224 2.868-1.836 4.5-1.836.768 0 1.488.18 2.16.54.672.336 1.116.888 1.332 1.656.264-.552.672-1.032 1.224-1.44.552-.408 1.068-.612 1.548-.612zm-2.988 2.376c-.24-.768-.804-1.152-1.692-1.152-1.584 0-3.12 1.104-4.608 3.312-1.488 2.184-2.232 4.14-2.232 5.868 0 .744.288 1.116.864 1.116.624 0 1.356-.384 2.196-1.152a14.437 14.437 0 002.268-2.772c1.488-2.352 2.556-4.092 3.204-5.22zm19.608 2.808c.144 0 .216.228.216.684 0 .456-.204 1.02-.612 1.692a27.983 27.983 0 01-.936 1.548c-.216.336-.6.888-1.152 1.656-.552.768-1.032 1.32-1.44 1.656-.408.336-.924.732-1.548 1.188-1.056.768-2.436 1.152-4.14 1.152-1.68 0-2.904-.42-3.672-1.26-.744-.864-1.116-1.98-1.116-3.348 0-2.52.888-4.824 2.664-6.912 1.8-2.112 3.912-3.168 6.336-3.168 1.08 0 1.944.288 2.592.864.648.552.972 1.224.972 2.016 0 .768-.216 1.44-.648 2.016-.432.576-.924.864-1.476.864-1.08 0-1.62-.444-1.62-1.332 0-.288.3-.564.9-.828.24-.096.456-.276.648-.54s.288-.612.288-1.044c0-.624-.336-.936-1.008-.936-1.44 0-2.868 1.044-4.284 3.132s-2.124 4.116-2.124 6.084c0 1.944.852 2.916 2.556 2.916 2.376 0 4.692-1.836 6.948-5.508.456-.72.828-1.332 1.116-1.836.312-.504.492-.756.54-.756zm12.254-5.292l1.728.036c.36 0 .588-.012.684-.036-.672.456-1.644 2.052-2.916 4.788-1.248 2.712-1.872 4.668-1.872 5.868 0 .72.24 1.08.72 1.08.312 0 .732-.204 1.26-.612a7.463 7.463 0 001.404-1.332c.384-.504.792-1.116 1.224-1.836.456-.72.84-1.344 1.152-1.872.336-.528.528-.792.576-.792.144 0 .216.228.216.684 0 .456-.132.888-.396 1.296-2.976 4.968-5.46 7.452-7.452 7.452-1.344 0-2.016-.996-2.016-2.988 0-.624.048-1.224.144-1.8-2.256 3.192-4.404 4.788-6.444 4.788-.6 0-1.092-.252-1.476-.756-.36-.504-.54-1.248-.54-2.232 0-.984.348-2.604 1.044-4.86.696-2.28 1.548-4.152 2.556-5.616.24-.36.492-.576.756-.648.288-.096.816-.144 1.584-.144h1.728c-.6.816-1.248 1.92-1.944 3.312-1.584 3.288-2.376 5.7-2.376 7.236 0 .912.324 1.368.972 1.368.672 0 1.464-.636 2.376-1.908.912-1.272 1.884-2.916 2.916-4.932 1.056-2.04 1.668-3.192 1.836-3.456.888-1.392 1.74-2.088 2.556-2.088zm16.136-7.452c-.864 1.752-2.184 3.744-3.96 5.976-1.776 2.208-3.372 3.984-4.788 5.328l-.576 1.656c-.288.84-.564 1.86-.828 3.06s-.384 2.052-.36 2.556c0 .72.264 1.08.792 1.08s1.152-.3 1.872-.9c.744-.6 1.284-1.116 1.62-1.548.336-.456.72-1.044 1.152-1.764.456-.72.84-1.344 1.152-1.872.336-.528.528-.792.576-.792.144 0 .216.228.216.684 0 .432-.12.852-.36 1.26-1.32 2.232-2.388 3.804-3.204 4.716-1.656 1.824-3.36 2.736-5.112 2.736-1.344 0-2.016-.912-2.016-2.736 0-1.8.804-4.944 2.412-9.432.12-.384.396-1.188.828-2.412.432-1.224.804-2.172 1.116-2.844.312-.696.732-1.608 1.26-2.736.528-1.128 1.032-2.028 1.512-2.7a38.856 38.856 0 011.656-2.052c1.176-1.392 2.448-2.088 3.816-2.088 1.368 0 2.052.624 2.052 1.872 0 .96-.276 1.944-.828 2.952zm-.756-3.924h-.252c-1.464 0-3.804 4.392-7.02 13.176 3.288-3.864 5.532-7.032 6.732-9.504.672-1.512 1.008-2.496 1.008-2.952 0-.48-.156-.72-.468-.72zm7.131 5.256c-1.176.816-2.496 2.904-3.96 6.264h3.636l.036.036c0 .12-.132.336-.396.648-.264.288-.492.432-.684.432h-3.096c-1.896 4.704-2.844 7.728-2.844 9.072 0 .912.288 1.368.864 1.368.84 0 1.824-.72 2.952-2.16.264-.312.612-.84 1.044-1.584 1.104-1.776 1.68-2.664 1.728-2.664.144 0 .216.192.216.576-.024.912-1.02 2.688-2.988 5.328a13.832 13.832 0 01-2.34 2.412c-.912.744-1.74 1.116-2.484 1.116-1.368 0-2.052-.96-2.052-2.88 0-1.608.384-3.456 1.152-5.544v-.036c-.456.84-.852 1.464-1.188 1.872-.312.408-.492.612-.54.612-.096 0-.144-.144-.144-.432 0-.312.156-.804.468-1.476.336-.672.78-1.548 1.332-2.628a31.537 31.537 0 001.404-2.952h-2.412c-.072 0-.108-.048-.108-.144 0-.12.084-.312.252-.576.192-.264.336-.396.432-.396h2.736c1.728-4.152 3.48-6.228 5.256-6.228 1.032 0 1.608-.012 1.728-.036zm12.349 6.588h1.476c-.744.456-1.5 1.584-2.268 3.384a76.866 76.866 0 00-1.584 4.14 382.787 382.787 0 01-.792 2.232c-.096.264-.324.912-.684 1.944a51.625 51.625 0 01-.828 2.34c-.6 1.68-1.296 3.012-2.088 3.996a8.576 8.576 0 01-2.952 2.34c-1.176.6-2.364.9-3.564.9-1.2 0-2.22-.24-3.06-.72-.864-.456-1.296-1.188-1.296-2.196 0-.528.168-1.008.504-1.44.312-.408.684-.612 1.116-.612.408 0 .756.096 1.044.288.288.192.492.408.612.648-.432.144-.648.648-.648 1.512 0 .456.156.816.468 1.08.336.288.756.432 1.26.432 1.944 0 3.576-1.74 4.896-5.22l2.052-5.472c-1.128 1.416-2.112 2.484-2.952 3.204-.816.696-1.464 1.116-1.944 1.26-.456.144-1.008.216-1.656.216-.624 0-1.128-.252-1.512-.756-.384-.528-.576-1.284-.576-2.268.024-1.008.312-2.436.864-4.284.576-1.848 1.2-3.312 1.872-4.392.696-1.08 1.404-1.776 2.124-2.088.744-.312 1.752-.468 3.024-.468.096 0 .144.048.144.144 0 .096-.072.216-.216.36-.984.864-1.992 2.412-3.024 4.644-1.008 2.232-1.512 4.116-1.512 5.652 0 .816.228 1.224.684 1.224.864 0 1.968-.864 3.312-2.592 1.344-1.728 2.376-3.456 3.096-5.184.096-.24.228-.588.396-1.044l.396-.936c.072-.168.18-.396.324-.684.168-.312.312-.516.432-.612.12-.12.276-.264.468-.432.216-.168.432-.276.648-.324a9.63 9.63 0 011.944-.216zm-128.579 38.772c-1.8 3.432-2.796 5.148-2.988 5.148-.12 0-.18-.192-.18-.576 0-.408.072-.756.216-1.044 1.176-2.016 2.064-3.936 2.664-5.76.096-.312.204-.516.324-.612.12-.12.324-.18.612-.18h.288l3.168.252c.144-.36.384-1.02.72-1.98.36-.96.636-1.692.828-2.196.192-.504.48-1.188.864-2.052.384-.864.732-1.548 1.044-2.052.312-.504.72-1.068 1.224-1.692.504-.648 1.008-1.14 1.512-1.476 1.224-.816 2.544-1.224 3.96-1.224 2.496 0 3.744.924 3.744 2.772a3.07 3.07 0 01-.612 1.872c-.384.552-.9.828-1.548.828-.312 0-.588-.084-.828-.252-.216-.168-.324-.36-.324-.576 0-.24.18-.612.54-1.116.36-.528.54-.972.54-1.332 0-.384-.156-.696-.468-.936a1.577 1.577 0 00-1.044-.36c-.72 0-1.44.384-2.16 1.152-.72.768-1.38 1.776-1.98 3.024a61.446 61.446 0 00-2.844 6.984c-.024.12-.048.204-.072.252-.072.192-.132.36-.18.504 3.792 0 5.952-.168 6.48-.504-.312.768-.984 1.272-2.016 1.512s-2.688.384-4.968.432l-1.044 3.024c-1.488 4.272-2.64 7.212-3.456 8.82-.816 1.584-1.596 2.952-2.34 4.104-.72 1.152-1.44 2.1-2.16 2.844-1.632 1.728-3.324 2.592-5.076 2.592-1.176 0-2.04-.276-2.592-.828-.576-.552-.864-1.176-.864-1.872 0-.672.156-1.236.468-1.692.312-.456.66-.684 1.044-.684s.672.084.864.252c.192.192.288.384.288.576 0 .216-.12.54-.36.972-.264.456-.396.84-.396 1.152 0 .312.084.576.252.792.168.216.468.324.9.324s.948-.216 1.548-.648c.576-.408 1.14-1.008 1.692-1.8 2.064-3.048 4.788-9.012 8.172-17.892h-1.008c-1.224 0-2.04.384-2.448 1.152zm19.003-7.884h-.144c-.48 0-.948.204-1.404.612-.432.408-.744.828-.936 1.26-.624-.24-.936-.672-.936-1.296s.288-1.248.864-1.872c.576-.648 1.128-.972 1.656-.972s.924.12 1.188.36c.264.24.396.552.396.936 0 .36-.228.684-.684.972zm-4.896 4.752l1.8.036h.36c-.384.288-.9 1.068-1.548 2.34a475.042 475.042 0 00-1.404 2.88c-.312.648-.672 1.524-1.08 2.628-.384 1.104-.576 2.004-.576 2.7 0 .696.228 1.044.684 1.044.312 0 .744-.204 1.296-.612.576-.432 1.044-.876 1.404-1.332.36-.48.756-1.08 1.188-1.8.456-.72.84-1.344 1.152-1.872.336-.528.528-.792.576-.792.144 0 .216.228.216.684 0 .432-.12.852-.36 1.26-.888 1.488-1.704 2.736-2.448 3.744a13.402 13.402 0 01-2.484 2.592c-.936.744-1.788 1.116-2.556 1.116-1.344 0-2.016-.936-2.016-2.808 0-2.904.996-6.12 2.988-9.648.84-1.44 1.776-2.16 2.808-2.16zm19.397 7.164c-.888 1.488-1.704 2.736-2.448 3.744a13.402 13.402 0 01-2.484 2.592c-.936.744-1.788 1.116-2.556 1.116-1.416 0-2.124-.78-2.124-2.34 0-1.56.9-4.692 2.7-9.396.096-.216.144-.444.144-.684 0-.504-.324-.756-.972-.756-.624 0-1.248.204-1.872.612-.6.384-1.152.948-1.656 1.692-.504.72-.96 1.464-1.368 2.232a18.949 18.949 0 00-1.152 2.592c-.336.984-.612 1.812-.828 2.484-.192.648-.396 1.356-.612 2.124-.192.744-.3 1.152-.324 1.224h-3.492c0-.504 1.056-3.396 3.168-8.676.864-2.472 1.296-4.2 1.296-5.184 0-.24-.036-.42-.108-.54h1.512c.84 0 1.38.084 1.62.252.24.168.36.396.36.684 0 .288-.132.876-.396 1.764 2.016-1.92 4.044-2.88 6.084-2.88 1.368 0 2.052.624 2.052 1.872 0 .408-.06.816-.18 1.224-.12.408-.42 1.224-.9 2.448-1.056 2.688-1.584 4.488-1.584 5.4 0 .576.216.864.648.864.312 0 .744-.216 1.296-.648.576-.432 1.044-.876 1.404-1.332a18.28 18.28 0 001.224-1.764c.456-.72.84-1.344 1.152-1.872.312-.528.492-.792.54-.792.144 0 .216.228.216.684 0 .432-.12.852-.36 1.26zm9.847-13.392c-1.176.816-2.496 2.904-3.96 6.264h3.636l.036.036c0 .12-.132.336-.396.648-.264.288-.492.432-.684.432h-3.096c-1.896 4.704-2.844 7.728-2.844 9.072 0 .912.288 1.368.864 1.368.84 0 1.824-.72 2.952-2.16.264-.312.612-.84 1.044-1.584 1.104-1.776 1.68-2.664 1.728-2.664.144 0 .216.192.216.576-.024.912-1.02 2.688-2.988 5.328a13.832 13.832 0 01-2.34 2.412c-.912.744-1.74 1.116-2.484 1.116-1.368 0-2.052-.96-2.052-2.88 0-1.608.384-3.456 1.152-5.544v-.036c-.456.84-.852 1.464-1.188 1.872-.312.408-.492.612-.54.612-.096 0-.144-.144-.144-.432 0-.312.156-.804.468-1.476.336-.672.78-1.548 1.332-2.628a31.537 31.537 0 001.404-2.952h-2.412c-.072 0-.108-.048-.108-.144 0-.12.084-.312.252-.576.192-.264.336-.396.432-.396h2.736c1.728-4.152 3.48-6.228 5.256-6.228 1.032 0 1.608-.012 1.728-.036zm12.205 11.268c.144 0 .216.24.216.72 0 .456-.192 1.008-.576 1.656-.384.648-.768 1.26-1.152 1.836-.36.576-.852 1.248-1.476 2.016s-1.236 1.38-1.836 1.836c-1.512 1.104-3.036 1.656-4.572 1.656-1.512 0-2.736-.384-3.672-1.152-.936-.792-1.404-1.992-1.404-3.6 0-2.448.9-4.716 2.7-6.804 1.8-2.088 3.9-3.132 6.3-3.132 1.08 0 1.944.288 2.592.864.648.552.972 1.224.972 2.016 0 1.344-.636 2.424-1.908 3.24-1.272.816-2.772 1.224-4.5 1.224-1.008 0-1.752-.132-2.232-.396-.456 1.224-.684 2.304-.684 3.24 0 2.016.852 3.024 2.556 3.024 1.008 0 2.04-.384 3.096-1.152 1.08-.792 1.992-1.668 2.736-2.628.768-.984 1.632-2.388 2.592-4.212.096-.168.18-.252.252-.252zm-3.816-2.844c0-.696-.336-1.044-1.008-1.044-.936 0-1.98.576-3.132 1.728-1.152 1.152-1.728 2.088-1.728 2.808 0 .48.456.72 1.368.72.912 0 1.86-.444 2.844-1.332 1.008-.888 1.56-1.848 1.656-2.88zm17.259 4.896c-1.8 3-3.432 5.088-4.896 6.264-1.464 1.176-3.36 1.764-5.688 1.764-1.344 0-2.472-.252-3.384-.756-.912-.528-1.368-1.296-1.368-2.304 0-.576.168-1.104.504-1.584.336-.48.792-.72 1.368-.72.6 0 .984.216 1.152.648-.456.456-.684.984-.684 1.584 0 1.2.672 1.8 2.016 1.8.792 0 1.476-.276 2.052-.828.6-.552.9-1.152.9-1.8 0-.672-.144-1.26-.432-1.764a5.698 5.698 0 00-1.044-1.332l-1.224-1.152c-.984-.936-1.476-2.004-1.476-3.204 0-1.224.456-2.244 1.368-3.06.936-.84 2.208-1.26 3.816-1.26 1.008 0 1.86.18 2.556.54.696.36 1.044.924 1.044 1.692 0 .744-.228 1.392-.684 1.944-.456.552-1.08.828-1.872.828-.768 0-1.152-.36-1.152-1.08 0-.168.276-.42.828-.756.552-.336.828-.684.828-1.044s-.156-.624-.468-.792c-.288-.192-.708-.288-1.26-.288s-1.092.192-1.62.576c-.504.384-.756.888-.756 1.512s.264 1.212.792 1.764a8.69 8.69 0 001.728 1.404c.624.384 1.2.924 1.728 1.62.528.672.792 1.392.792 2.16 0 .744-.18 1.416-.54 2.016-.336.6-.744 1.08-1.224 1.44 1.344-.576 2.772-2.016 4.284-4.32.144-.192.396-.588.756-1.188.84-1.512 1.308-2.268 1.404-2.268.144 0 .216.228.216.684 0 .432-.12.852-.36 1.26zm13.605 0c-1.8 3-3.432 5.088-4.896 6.264-1.464 1.176-3.36 1.764-5.688 1.764-1.344 0-2.472-.252-3.384-.756-.912-.528-1.368-1.296-1.368-2.304 0-.576.168-1.104.504-1.584.336-.48.792-.72 1.368-.72.6 0 .984.216 1.152.648-.456.456-.684.984-.684 1.584 0 1.2.672 1.8 2.016 1.8.792 0 1.476-.276 2.052-.828.6-.552.9-1.152.9-1.8 0-.672-.144-1.26-.432-1.764a5.698 5.698 0 00-1.044-1.332l-1.224-1.152c-.984-.936-1.476-2.004-1.476-3.204 0-1.224.456-2.244 1.368-3.06.936-.84 2.208-1.26 3.816-1.26 1.008 0 1.86.18 2.556.54.696.36 1.044.924 1.044 1.692 0 .744-.228 1.392-.684 1.944-.456.552-1.08.828-1.872.828-.768 0-1.152-.36-1.152-1.08 0-.168.276-.42.828-.756.552-.336.828-.684.828-1.044s-.156-.624-.468-.792c-.288-.192-.708-.288-1.26-.288s-1.092.192-1.62.576c-.504.384-.756.888-.756 1.512s.264 1.212.792 1.764a8.69 8.69 0 001.728 1.404c.624.384 1.2.924 1.728 1.62.528.672.792 1.392.792 2.16 0 .744-.18 1.416-.54 2.016-.336.6-.744 1.08-1.224 1.44 1.344-.576 2.772-2.016 4.284-4.32.144-.192.396-.588.756-1.188.84-1.512 1.308-2.268 1.404-2.268.144 0 .216.228.216.684 0 .432-.12.852-.36 1.26zm23.787-1.908c.144 0 .216.228.216.684 0 .456-.204 1.02-.612 1.692a27.983 27.983 0 01-.936 1.548c-.216.336-.6.888-1.152 1.656-.552.768-1.032 1.32-1.44 1.656-.408.336-.924.732-1.548 1.188-1.056.768-2.436 1.152-4.14 1.152-1.68 0-2.904-.42-3.672-1.26-.744-.864-1.116-1.98-1.116-3.348 0-2.52.888-4.824 2.664-6.912 1.8-2.112 3.912-3.168 6.336-3.168 1.08 0 1.944.288 2.592.864.648.552.972 1.224.972 2.016 0 .768-.216 1.44-.648 2.016-.432.576-.924.864-1.476.864-1.08 0-1.62-.444-1.62-1.332 0-.288.3-.564.9-.828.24-.096.456-.276.648-.54s.288-.612.288-1.044c0-.624-.336-.936-1.008-.936-1.44 0-2.868 1.044-4.284 3.132s-2.124 4.116-2.124 6.084c0 1.944.852 2.916 2.556 2.916 2.376 0 4.692-1.836 6.948-5.508.456-.72.828-1.332 1.116-1.836.312-.504.492-.756.54-.756zm12.974-.144c.144 0 .216.24.216.72 0 .456-.192 1.008-.576 1.656-.384.648-.768 1.26-1.152 1.836-.36.576-.852 1.248-1.476 2.016s-1.236 1.38-1.836 1.836c-1.512 1.104-3.036 1.656-4.572 1.656-1.512 0-2.736-.384-3.672-1.152-.936-.792-1.404-1.992-1.404-3.6 0-2.448.9-4.716 2.7-6.804 1.8-2.088 3.9-3.132 6.3-3.132 1.08 0 1.944.288 2.592.864.648.552.972 1.224.972 2.016 0 1.344-.636 2.424-1.908 3.24-1.272.816-2.772 1.224-4.5 1.224-1.008 0-1.752-.132-2.232-.396-.456 1.224-.684 2.304-.684 3.24 0 2.016.852 3.024 2.556 3.024 1.008 0 2.04-.384 3.096-1.152 1.08-.792 1.992-1.668 2.736-2.628.768-.984 1.632-2.388 2.592-4.212.096-.168.18-.252.252-.252zm-3.816-2.844c0-.696-.336-1.044-1.008-1.044-.936 0-1.98.576-3.132 1.728-1.152 1.152-1.728 2.088-1.728 2.808 0 .48.456.72 1.368.72.912 0 1.86-.444 2.844-1.332 1.008-.888 1.56-1.848 1.656-2.88zm19.31 4.968c-.888 1.488-1.704 2.736-2.448 3.744a13.402 13.402 0 01-2.484 2.592c-.936.744-1.788 1.116-2.556 1.116-1.416 0-2.124-.78-2.124-2.34 0-1.56.9-4.692 2.7-9.396.096-.216.144-.444.144-.684 0-.504-.324-.756-.972-.756-.624 0-1.248.204-1.872.612-.6.384-1.152.948-1.656 1.692-.504.72-.96 1.464-1.368 2.232a18.949 18.949 0 00-1.152 2.592c-.336.984-.612 1.812-.828 2.484-.192.648-.396 1.356-.612 2.124-.192.744-.3 1.152-.324 1.224h-3.492c0-.504 1.056-3.396 3.168-8.676.864-2.472 1.296-4.2 1.296-5.184 0-.24-.036-.42-.108-.54h1.512c.84 0 1.38.084 1.62.252.24.168.36.396.36.684 0 .288-.132.876-.396 1.764 2.016-1.92 4.044-2.88 6.084-2.88 1.368 0 2.052.624 2.052 1.872 0 .408-.06.816-.18 1.224-.12.408-.42 1.224-.9 2.448-1.056 2.688-1.584 4.488-1.584 5.4 0 .576.216.864.648.864.312 0 .744-.216 1.296-.648.576-.432 1.044-.876 1.404-1.332a18.28 18.28 0 001.224-1.764c.456-.72.84-1.344 1.152-1.872.312-.528.492-.792.54-.792.144 0 .216.228.216.684 0 .432-.12.852-.36 1.26zm9.848-13.392c-1.176.816-2.496 2.904-3.96 6.264h3.636l.036.036c0 .12-.132.336-.396.648-.264.288-.492.432-.684.432h-3.096c-1.896 4.704-2.844 7.728-2.844 9.072 0 .912.288 1.368.864 1.368.84 0 1.824-.72 2.952-2.16.264-.312.612-.84 1.044-1.584 1.104-1.776 1.68-2.664 1.728-2.664.144 0 .216.192.216.576-.024.912-1.02 2.688-2.988 5.328a13.832 13.832 0 01-2.34 2.412c-.912.744-1.74 1.116-2.484 1.116-1.368 0-2.052-.96-2.052-2.88 0-1.608.384-3.456 1.152-5.544v-.036c-.456.84-.852 1.464-1.188 1.872-.312.408-.492.612-.54.612-.096 0-.144-.144-.144-.432 0-.312.156-.804.468-1.476.336-.672.78-1.548 1.332-2.628a31.537 31.537 0 001.404-2.952h-2.412c-.072 0-.108-.048-.108-.144 0-.12.084-.312.252-.576.192-.264.336-.396.432-.396h2.736c1.728-4.152 3.48-6.228 5.256-6.228 1.032 0 1.608-.012 1.728-.036zm12.205 11.268c.144 0 .216.24.216.72 0 .456-.192 1.008-.576 1.656-.384.648-.768 1.26-1.152 1.836-.36.576-.852 1.248-1.476 2.016s-1.236 1.38-1.836 1.836c-1.512 1.104-3.036 1.656-4.572 1.656-1.512 0-2.736-.384-3.672-1.152-.936-.792-1.404-1.992-1.404-3.6 0-2.448.9-4.716 2.7-6.804 1.8-2.088 3.9-3.132 6.3-3.132 1.08 0 1.944.288 2.592.864.648.552.972 1.224.972 2.016 0 1.344-.636 2.424-1.908 3.24-1.272.816-2.772 1.224-4.5 1.224-1.008 0-1.752-.132-2.232-.396-.456 1.224-.684 2.304-.684 3.24 0 2.016.852 3.024 2.556 3.024 1.008 0 2.04-.384 3.096-1.152 1.08-.792 1.992-1.668 2.736-2.628.768-.984 1.632-2.388 2.592-4.212.096-.168.18-.252.252-.252zm-3.816-2.844c0-.696-.336-1.044-1.008-1.044-.936 0-1.98.576-3.132 1.728-1.152 1.152-1.728 2.088-1.728 2.808 0 .48.456.72 1.368.72.912 0 1.86-.444 2.844-1.332 1.008-.888 1.56-1.848 1.656-2.88zm11.966-2.268l1.836.036h.36c-.36.264-.876 1.044-1.548 2.34l-1.476 2.952c-.312.648-.672 1.536-1.08 2.664-.384 1.104-.576 2.004-.576 2.7 0 .696.24 1.044.72 1.044.312-.024.744-.24 1.296-.648.576-.432 1.044-.876 1.404-1.332.384-.48.792-1.08 1.224-1.8.456-.744.84-1.38 1.152-1.908.336-.552.528-.828.576-.828.168 0 .252.228.252.684 0 .432-.12.852-.36 1.26-1.032 1.704-1.884 3.012-2.556 3.924a13.457 13.457 0 01-2.448 2.52c-.936.744-1.788 1.116-2.556 1.116-1.368 0-2.052-1.008-2.052-3.024 0-1.368.264-2.916.792-4.644a20.139 20.139 0 012.34-5.004c-.84.672-1.68 1.008-2.52 1.008-.264 0-.54-.06-.828-.18-1.704 3.36-2.628 5.04-2.772 5.04-.12 0-.18-.192-.18-.576 0-.408.144-.96.432-1.656.312-.72.636-1.404.972-2.052.36-.648.552-1.008.576-1.08-.864-.432-1.296-1.128-1.296-2.088 0-.48.144-.912.432-1.296.312-.384.732-.576 1.26-.576s.96.168 1.296.504c-.048.144-.072.36-.072.648 0 .648.228 1.164.684 1.548.48.36 1.056.54 1.728.54.192 0 .336-.012.432-.036.84-1.2 1.692-1.8 2.556-1.8z" fill="#FCF4DF"></path>
    <path stroke="#F5DC54" stroke-width="2" d="M187.199 175.912h-60"></path>
    <path d="M260.181 161.287L304.199 4 5 84.17l89.119 95.001" stroke="#F5DC54" stroke-width="5"></path>
  </symbol>

<!-- background picture: "FIT" text --> 
  <symbol fill="none" xmlns="http://www.w3.org/2000/svg" viewBox="0 0 436 556" id="FIT-img">
    <path d="M0 555.216V0h119.712v68.8H69.488v169.248h36.464v69.488H69.488v247.68H0zm4.816-4.816h59.856V302.72h36.464v-59.856H64.672V63.984h50.224V4.816H4.816V550.4zm153.155 4.816V0h69.488v555.216h-69.488zm4.816-4.816h59.856V4.816h-59.856V550.4zm152.586 4.816V69.488h-50.224V0h169.936v69.488h-50.224v485.728h-69.488zm4.816-4.816h59.856V64.672h50.224V4.816H269.965v59.856h50.224V550.4z" fill="#FCF4DF"></path>
  </symbol>

<!-- background picture: dots --> 
  <symbol fill="none" xmlns="http://www.w3.org/2000/svg" viewBox="0 0 525 355" id="dots">
    <g fill="#FCF4DF">
      <circle cx="92.5" cy="7.5" r="7.5"></circle>
      <circle cx="7.5" cy="7.5" r="7.5"></circle>
      <circle cx="177.5" cy="7.5" r="7.5"></circle>
      <circle cx="262.5" cy="7.5" r="7.5"></circle>
      <circle cx="347.5" cy="7.5" r="7.5"></circle>
      <circle cx="432.5" cy="7.5" r="7.5"></circle>
      <circle cx="517.5" cy="7.5" r="7.5"></circle>
      <circle cx="92.5" cy="92.5" r="7.5"></circle>
      <circle cx="7.5" cy="92.5" r="7.5"></circle>
      <circle cx="177.5" cy="92.5" r="7.5"></circle>
      <circle cx="262.5" cy="92.5" r="7.5"></circle>
      <circle cx="347.5" cy="92.5" r="7.5"></circle>
      <circle cx="432.5" cy="92.5" r="7.5"></circle>
      <circle cx="517.5" cy="92.5" r="7.5"></circle>
      <circle cx="92.5" cy="177.5" r="7.5"></circle>
      <circle cx="7.5" cy="177.5" r="7.5"></circle>
      <circle cx="177.5" cy="177.5" r="7.5"></circle>
      <circle cx="262.5" cy="177.5" r="7.5"></circle>
      <circle cx="347.5" cy="177.5" r="7.5"></circle>
      <circle cx="432.5" cy="177.5" r="7.5"></circle>
      <circle cx="517.5" cy="177.5" r="7.5"></circle>
      <circle cx="92.5" cy="262.5" r="7.5"></circle>
      <circle cx="7.5" cy="262.5" r="7.5"></circle>
      <circle cx="177.5" cy="262.5" r="7.5"></circle>
      <circle cx="262.5" cy="262.5" r="7.5"></circle>
      <circle cx="347.5" cy="262.5" r="7.5"></circle>
      <circle cx="432.5" cy="262.5" r="7.5"></circle>
      <circle cx="517.5" cy="262.5" r="7.5"></circle>
      <circle cx="92.5" cy="347.5" r="7.5"></circle>
      <circle cx="7.5" cy="347.5" r="7.5"></circle>
      <circle cx="177.5" cy="347.5" r="7.5"></circle>
      <circle cx="262.5" cy="347.5" r="7.5"></circle>
      <circle cx="347.5" cy="347.5" r="7.5"></circle>
      <circle cx="432.5" cy="347.5" r="7.5"></circle>
      <circle cx="517.5" cy="347.5" r="7.5"></circle>
    </g>
  </symbol>


<!-- [ ICONS ] -->
<!-- icon: instagram --> 
  <symbol fill="none" xmlns="http://www.w3.org/2000/svg" viewBox="0 0 19 20" id="ico-instagram">
    <g clip-path="url(#clip0)">
      <path d="M9.5.5C6.922.5 6.598.512 5.585.557 4.572.604 3.882.764 3.277.999a4.651 4.651 0 00-1.682 1.096A4.663 4.663 0 00.499 3.777C.264 4.381.103 5.072.057 6.082.012 7.097 0 7.42 0 10.001c0 2.58.012 2.902.057 3.915.047 1.012.207 1.702.442 2.306a4.667 4.667 0 001.096 1.683 4.636 4.636 0 001.681 1.096c.606.235 1.295.396 2.306.442 1.015.045 1.338.057 3.918.057s2.902-.012 3.916-.057c1.01-.048 1.703-.207 2.308-.442a4.649 4.649 0 001.681-1.096 4.666 4.666 0 001.096-1.683c.234-.604.394-1.294.442-2.306C18.988 12.903 19 12.58 19 10s-.012-2.903-.057-3.918c-.048-1.01-.208-1.701-.442-2.304a4.662 4.662 0 00-1.096-1.683A4.645 4.645 0 0015.722.999c-.605-.235-1.296-.396-2.307-.442C12.401.512 12.08.5 9.498.5H9.5zm-.851 1.712H9.5c2.537 0 2.837.009 3.838.055.926.042 1.43.197 1.765.327.443.172.76.378 1.092.71.333.333.538.65.71 1.093.131.334.285.838.327 1.764.046 1 .056 1.301.056 3.837 0 2.535-.01 2.837-.056 3.838-.042.926-.197 1.428-.327 1.763a2.933 2.933 0 01-.71 1.091 2.935 2.935 0 01-1.093.71c-.333.131-.836.286-1.764.328-1 .045-1.301.056-3.838.056-2.536 0-2.838-.01-3.839-.056-.926-.043-1.429-.197-1.763-.328a2.944 2.944 0 01-1.093-.71 2.946 2.946 0 01-.712-1.092c-.13-.334-.285-.837-.327-1.764-.045-1-.055-1.301-.055-3.839 0-2.536.01-2.835.055-3.837.043-.926.197-1.43.328-1.764.172-.443.379-.76.711-1.093a2.935 2.935 0 011.093-.71c.334-.13.837-.285 1.763-.328.876-.04 1.216-.052 2.987-.053v.002zm5.923 1.577a1.14 1.14 0 100 2.28 1.14 1.14 0 000-2.28zm-5.07 1.333a4.88 4.88 0 10-.153 9.757A4.88 4.88 0 009.5 5.122zm0 1.71a3.167 3.167 0 110 6.335 3.167 3.167 0 010-6.334z" fill="#FCF4DF"></path>
    </g>
    <defs>
      <clipPath id="clip0">
        <path fill="#fff" transform="translate(0 .5)" d="M0 0h19v19H0z"></path>
      </clipPath>
    </defs>
  </symbol>

<!-- icon: whatsapp --> 
  <symbol fill="none" xmlns="http://www.w3.org/2000/svg" viewBox="0 0 20 21" id="ico-whatsapp">
    <g clip-path="url(#clip0)">
      <path d="M17.001 3.408A9.817 9.817 0 009.992.5C4.534.5.085 4.947.08 10.408c0 1.748.457 3.45 1.321 4.956L0 20.5l5.255-1.378a9.918 9.918 0 004.737 1.207h.005c5.46 0 9.908-4.448 9.913-9.913A9.872 9.872 0 0017 3.408h.001zM9.992 18.65a8.218 8.218 0 01-4.195-1.15l-.3-.18-3.117.818.833-3.041-.196-.314a8.2 8.2 0 01-1.258-4.382c0-4.532 3.696-8.23 8.239-8.23a8.2 8.2 0 015.825 2.414 8.196 8.196 0 012.41 5.825c-.006 4.549-3.702 8.24-8.24 8.24zm4.52-6.167c-.247-.124-1.463-.723-1.692-.808-.228-.081-.394-.123-.556.124-.166.246-.641.807-.784.969-.143.166-.29.185-.537.062-.247-.125-1.045-.385-1.99-1.231-.738-.656-1.232-1.469-1.38-1.715-.142-.248-.013-.38.11-.504.11-.11.247-.29.37-.432.126-.143.167-.248.248-.413.082-.167.043-.31-.018-.434-.063-.123-.557-1.345-.765-1.837-.2-.486-.404-.419-.557-.425-.142-.009-.309-.009-.475-.009a.911.911 0 00-.661.309c-.228.248-.864.846-.864 2.067 0 1.222.888 2.395 1.013 2.562.122.166 1.742 2.665 4.229 3.74.587.256 1.05.407 1.41.522.595.19 1.13.162 1.558.1.475-.072 1.464-.6 1.673-1.178.205-.58.205-1.075.142-1.18-.061-.104-.227-.165-.475-.29z" fill="#FCF4DF"></path>
    </g>
    <defs>
      <clipPath id="clip0">
        <path fill="#fff" transform="translate(0 .5)" d="M0 0h20v20H0z"></path>
      </clipPath>
    </defs>
  </symbol>

<!-- icon: youtube -->   
  <symbol fill="none" xmlns="http://www.w3.org/2000/svg" viewBox="0 0 22 22" id="ico-youtube">
    <g clip-path="url(#clip0)">
      <path d="M11.07 2.749h.123c1.13.004 6.857.045 8.4.46a2.763 2.763 0 011.946 1.953c.14.522.237 1.214.303 1.928l.014.143.03.357.01.143c.09 1.257.101 2.434.103 2.69v.104a44.116 44.116 0 01-.113 2.833l-.011.144-.012.143c-.07.786-.171 1.567-.324 2.142a2.76 2.76 0 01-1.945 1.953c-1.595.429-7.658.459-8.498.46h-.195c-.425 0-2.182-.008-4.025-.071l-.233-.009-.12-.005-.235-.01-.235-.01c-1.526-.067-2.98-.175-3.65-.357a2.76 2.76 0 01-1.945-1.95c-.153-.574-.255-1.357-.323-2.143l-.011-.145-.011-.143A43.173 43.173 0 010 10.56v-.17c.003-.295.014-1.316.088-2.444l.01-.141.004-.072.01-.143.031-.357.014-.143c.066-.714.163-1.407.302-1.928a2.76 2.76 0 011.946-1.953c.67-.178 2.123-.288 3.65-.357l.233-.01.236-.008.119-.004.235-.01a138.87 138.87 0 013.927-.07h.265v-.001zM8.8 7.162v6.625l5.716-3.31L8.8 7.161z" fill="#FCF4DF"></path>
    </g>
    <defs>
      <clipPath id="clip0">
        <path fill="#fff" d="M0 0h22v22H0z"></path>
      </clipPath>
    </defs>
  </symbol>

</svg>